<?xml version="1.0"?>
<svg xmlns="http://www.w3.org/2000/svg" version="1.1" height="312mm" width="354mm" >
 <g style="fill-opacity:1.0; stroke:black; stroke-width:1;">
  <line x1="0.000000mm" y1="25.000000mm" x2="0.000000mm" y2="25.000000mm" />
  <line x1="0.000000mm" y1="25.000000mm" x2="0.000000mm" y2="302.000000mm" />
  <line x1="0.000000mm" y1="302.000000mm" x2="31.020000mm" y2="302.000000mm" />
  <line x1="31.020000mm" y1="302.000000mm" x2="31.020000mm" y2="299.500000mm" />
  <line x1="31.020000mm" y1="299.500000mm" x2="31.068000mm" y2="299.012270mm" />
  <line x1="31.068000mm" y1="299.012270mm" x2="31.210000mm" y2="298.543290mm" />
  <line x1="31.210000mm" y1="298.543290mm" x2="31.441000mm" y2="298.111070mm" />
  <line x1="31.441000mm" y1="298.111070mm" x2="31.752000mm" y2="297.732230mm" />
  <line x1="31.752000mm" y1="297.732230mm" x2="32.131000mm" y2="297.421330mm" />
  <line x1="32.131000mm" y1="297.421330mm" x2="32.563000mm" y2="297.190300mm" />
  <line x1="32.563000mm" y1="297.190300mm" x2="33.032000mm" y2="297.048040mm" />
  <line x1="33.032000mm" y1="297.048040mm" x2="33.520000mm" y2="297.000000mm" />
  <line x1="33.520000mm" y1="297.000000mm" x2="34.008000mm" y2="297.048040mm" />
  <line x1="34.008000mm" y1="297.048040mm" x2="34.477000mm" y2="297.190300mm" />
  <line x1="34.477000mm" y1="297.190300mm" x2="34.909000mm" y2="297.421330mm" />
  <line x1="34.909000mm" y1="297.421330mm" x2="35.288000mm" y2="297.732230mm" />
  <line x1="35.288000mm" y1="297.732230mm" x2="35.599000mm" y2="298.111070mm" />
  <line x1="35.599000mm" y1="298.111070mm" x2="35.830000mm" y2="298.543290mm" />
  <line x1="35.830000mm" y1="298.543290mm" x2="35.972000mm" y2="299.012270mm" />
  <line x1="35.972000mm" y1="299.012270mm" x2="36.020000mm" y2="299.500000mm" />
  <line x1="36.020000mm" y1="299.500000mm" x2="36.020000mm" y2="302.000000mm" />
  <line x1="36.020000mm" y1="302.000000mm" x2="68.000000mm" y2="302.000000mm" />
  <line x1="68.000000mm" y1="302.000000mm" x2="68.000000mm" y2="95.900000mm" />
  <line x1="68.000000mm" y1="95.900000mm" x2="68.006000mm" y2="95.651000mm" />
  <line x1="68.006000mm" y1="95.651000mm" x2="68.056000mm" y2="95.155000mm" />
  <line x1="68.056000mm" y1="95.155000mm" x2="68.155000mm" y2="94.666000mm" />
  <line x1="68.155000mm" y1="94.666000mm" x2="68.302000mm" y2="94.190000mm" />
  <line x1="68.302000mm" y1="94.190000mm" x2="68.495000mm" y2="93.731000mm" />
  <line x1="68.495000mm" y1="93.731000mm" x2="68.734000mm" y2="93.293000mm" />
  <line x1="68.734000mm" y1="93.293000mm" x2="69.014000mm" y2="92.881000mm" />
  <line x1="69.014000mm" y1="92.881000mm" x2="69.335000mm" y2="92.499000mm" />
  <line x1="69.335000mm" y1="92.499000mm" x2="69.692000mm" y2="92.151000mm" />
  <line x1="69.692000mm" y1="92.151000mm" x2="70.081000mm" y2="91.840000mm" />
  <line x1="70.081000mm" y1="91.840000mm" x2="70.500000mm" y2="91.570000mm" />
  <line x1="70.500000mm" y1="91.570000mm" x2="70.944000mm" y2="91.342000mm" />
  <line x1="70.944000mm" y1="91.342000mm" x2="71.408000mm" y2="91.160000mm" />
  <line x1="71.408000mm" y1="91.160000mm" x2="71.887000mm" y2="91.025000mm" />
  <line x1="71.887000mm" y1="91.025000mm" x2="72.378300mm" y2="90.939000mm" />
  <line x1="72.378300mm" y1="90.939000mm" x2="72.875400mm" y2="90.902000mm" />
  <line x1="72.875400mm" y1="90.902000mm" x2="73.000000mm" y2="90.900000mm" />
  <line x1="73.000000mm" y1="90.900000mm" x2="233.000000mm" y2="90.900000mm" />
  <line x1="233.000000mm" y1="90.900000mm" x2="233.373600mm" y2="90.914000mm" />
  <line x1="233.373600mm" y1="90.914000mm" x2="233.868200mm" y2="90.976000mm" />
  <line x1="233.868200mm" y1="90.976000mm" x2="234.354200mm" y2="91.087000mm" />
  <line x1="234.354200mm" y1="91.087000mm" x2="234.826700mm" y2="91.246000mm" />
  <line x1="234.826700mm" y1="91.246000mm" x2="235.281100mm" y2="91.451000mm" />
  <line x1="235.281100mm" y1="91.451000mm" x2="235.712700mm" y2="91.700000mm" />
  <line x1="235.712700mm" y1="91.700000mm" x2="236.117400mm" y2="91.991000mm" />
  <line x1="236.117400mm" y1="91.991000mm" x2="236.491200mm" y2="92.321000mm" />
  <line x1="236.491200mm" y1="92.321000mm" x2="236.830200mm" y2="92.686000mm" />
  <line x1="236.830200mm" y1="92.686000mm" x2="237.131200mm" y2="93.083000mm" />
  <line x1="237.131200mm" y1="93.083000mm" x2="237.391100mm" y2="93.509000mm" />
  <line x1="237.391100mm" y1="93.509000mm" x2="237.607400mm" y2="93.958000mm" />
  <line x1="237.607400mm" y1="93.958000mm" x2="237.777900mm" y2="94.426000mm" />
  <line x1="237.777900mm" y1="94.426000mm" x2="237.900800mm" y2="94.909000mm" />
  <line x1="237.900800mm" y1="94.909000mm" x2="237.975100mm" y2="95.402000mm" />
  <line x1="237.975100mm" y1="95.402000mm" x2="238.000000mm" y2="95.900000mm" />
  <line x1="238.000000mm" y1="95.900000mm" x2="238.000000mm" y2="302.000000mm" />
  <line x1="238.000000mm" y1="302.000000mm" x2="344.000000mm" y2="302.000000mm" />
  <line x1="344.000000mm" y1="302.000000mm" x2="344.000000mm" y2="25.000000mm" />
  <line x1="344.000000mm" y1="25.000000mm" x2="343.905000mm" y2="22.821000mm" />
  <line x1="343.905000mm" y1="22.821000mm" x2="343.620000mm" y2="20.659000mm" />
  <line x1="343.620000mm" y1="20.659000mm" x2="343.148000mm" y2="18.530000mm" />
  <line x1="343.148000mm" y1="18.530000mm" x2="342.492000mm" y2="16.449000mm" />
  <line x1="342.492000mm" y1="16.449000mm" x2="341.658000mm" y2="14.435000mm" />
  <line x1="341.658000mm" y1="14.435000mm" x2="340.651000mm" y2="12.500000mm" />
  <line x1="340.651000mm" y1="12.500000mm" x2="339.479000mm" y2="10.661000mm" />
  <line x1="339.479000mm" y1="10.661000mm" x2="338.151000mm" y2="8.930000mm" />
  <line x1="338.151000mm" y1="8.930000mm" x2="336.678000mm" y2="7.322000mm" />
  <line x1="336.678000mm" y1="7.322000mm" x2="335.070000mm" y2="5.849000mm" />
  <line x1="335.070000mm" y1="5.849000mm" x2="333.339000mm" y2="4.521000mm" />
  <line x1="333.339000mm" y1="4.521000mm" x2="331.500000mm" y2="3.349000mm" />
  <line x1="331.500000mm" y1="3.349000mm" x2="329.565000mm" y2="2.342000mm" />
  <line x1="329.565000mm" y1="2.342000mm" x2="327.551000mm" y2="1.508000mm" />
  <line x1="327.551000mm" y1="1.508000mm" x2="325.470000mm" y2="0.852000mm" />
  <line x1="325.470000mm" y1="0.852000mm" x2="323.341000mm" y2="0.380000mm" />
  <line x1="323.341000mm" y1="0.380000mm" x2="321.179000mm" y2="0.095000mm" />
  <line x1="321.179000mm" y1="0.095000mm" x2="319.000000mm" y2="0.000000mm" />
  <line x1="319.000000mm" y1="0.000000mm" x2="25.000000mm" y2="0.000000mm" />
  <line x1="25.000000mm" y1="0.000000mm" x2="22.821000mm" y2="0.095000mm" />
  <line x1="22.821000mm" y1="0.095000mm" x2="20.659000mm" y2="0.380000mm" />
  <line x1="20.659000mm" y1="0.380000mm" x2="18.530000mm" y2="0.852000mm" />
  <line x1="18.530000mm" y1="0.852000mm" x2="16.449000mm" y2="1.508000mm" />
  <line x1="16.449000mm" y1="1.508000mm" x2="14.435000mm" y2="2.342000mm" />
  <line x1="14.435000mm" y1="2.342000mm" x2="12.500000mm" y2="3.349000mm" />
  <line x1="12.500000mm" y1="3.349000mm" x2="10.661000mm" y2="4.521000mm" />
  <line x1="10.661000mm" y1="4.521000mm" x2="8.930000mm" y2="5.849000mm" />
  <line x1="8.930000mm" y1="5.849000mm" x2="7.322000mm" y2="7.322000mm" />
  <line x1="7.322000mm" y1="7.322000mm" x2="5.849000mm" y2="8.930000mm" />
  <line x1="5.849000mm" y1="8.930000mm" x2="4.521000mm" y2="10.661000mm" />
  <line x1="4.521000mm" y1="10.661000mm" x2="3.349000mm" y2="12.500000mm" />
  <line x1="3.349000mm" y1="12.500000mm" x2="2.342000mm" y2="14.435000mm" />
  <line x1="2.342000mm" y1="14.435000mm" x2="1.508000mm" y2="16.449000mm" />
  <line x1="1.508000mm" y1="16.449000mm" x2="0.852000mm" y2="18.530000mm" />
  <line x1="0.852000mm" y1="18.530000mm" x2="0.380000mm" y2="20.659000mm" />
  <line x1="0.380000mm" y1="20.659000mm" x2="0.095000mm" y2="22.821000mm" />
  <line x1="0.095000mm" y1="22.821000mm" x2="0.000000mm" y2="25.000000mm" />
  <circle cx="4.999638mm" cy="201.900288mm" r="1.649907mm" fill="none"/>
  <line x1="8.299451mm" y1="201.900288mm" x2="1.699825mm" y2="201.900288mm" />
  <line x1="4.999638mm" y1="198.600475mm" x2="4.999638mm" y2="205.200101mm" />
  <text x="6mm" y="200mm" font-size="24">
   3.3
  </text>
  <circle cx="4.999456mm" cy="162.500195mm" r="1.649827mm" fill="none"/>
  <line x1="8.299111mm" y1="162.500195mm" x2="1.699802mm" y2="162.500195mm" />
  <line x1="4.999456mm" y1="159.200541mm" x2="4.999456mm" y2="165.799849mm" />
  <text x="6mm" y="160mm" font-size="24">
   3.3
  </text>
  <circle cx="6.899976mm" cy="295.350237mm" r="1.650200mm" fill="none"/>
  <line x1="10.200376mm" y1="295.350237mm" x2="3.599576mm" y2="295.350237mm" />
  <line x1="6.899976mm" y1="292.049837mm" x2="6.899976mm" y2="298.650637mm" />
  <text x="8mm" y="293mm" font-size="24">
   3.3
  </text>
  <line x1="10.691000mm" y1="257.617200mm" x2="10.691000mm" y2="257.617200mm" />
  <line x1="10.691000mm" y1="257.617200mm" x2="10.655000mm" y2="257.126700mm" />
  <line x1="10.655000mm" y1="257.126700mm" x2="10.655000mm" y2="246.626700mm" />
  <line x1="10.655000mm" y1="246.626700mm" x2="10.764000mm" y2="246.147200mm" />
  <line x1="10.764000mm" y1="246.147200mm" x2="11.010000mm" y2="245.721200mm" />
  <line x1="11.010000mm" y1="245.721200mm" x2="11.371000mm" y2="245.386700mm" />
  <line x1="11.371000mm" y1="245.386700mm" x2="11.814000mm" y2="245.173300mm" />
  <line x1="11.814000mm" y1="245.173300mm" x2="12.300000mm" y2="245.100000mm" />
  <line x1="12.300000mm" y1="245.100000mm" x2="12.786000mm" y2="245.173300mm" />
  <line x1="12.786000mm" y1="245.173300mm" x2="13.229000mm" y2="245.386700mm" />
  <line x1="13.229000mm" y1="245.386700mm" x2="13.590000mm" y2="245.721200mm" />
  <line x1="13.590000mm" y1="245.721200mm" x2="13.836000mm" y2="246.147200mm" />
  <line x1="13.836000mm" y1="246.147200mm" x2="13.945000mm" y2="246.626700mm" />
  <line x1="13.945000mm" y1="246.626700mm" x2="13.945000mm" y2="257.126700mm" />
  <line x1="13.945000mm" y1="257.126700mm" x2="13.909000mm" y2="257.617200mm" />
  <line x1="13.909000mm" y1="257.617200mm" x2="13.729000mm" y2="258.075000mm" />
  <line x1="13.729000mm" y1="258.075000mm" x2="13.422000mm" y2="258.459500mm" />
  <line x1="13.422000mm" y1="258.459500mm" x2="13.016000mm" y2="258.736600mm" />
  <line x1="13.016000mm" y1="258.736600mm" x2="12.546000mm" y2="258.881600mm" />
  <line x1="12.546000mm" y1="258.881600mm" x2="12.054000mm" y2="258.881600mm" />
  <line x1="12.054000mm" y1="258.881600mm" x2="11.584000mm" y2="258.736600mm" />
  <line x1="11.584000mm" y1="258.736600mm" x2="11.178000mm" y2="258.459500mm" />
  <line x1="11.178000mm" y1="258.459500mm" x2="10.871000mm" y2="258.075000mm" />
  <line x1="10.871000mm" y1="258.075000mm" x2="10.691000mm" y2="257.617200mm" />
  <circle cx="24.119976mm" cy="295.350237mm" r="1.650200mm" fill="none"/>
  <line x1="27.420376mm" y1="295.350237mm" x2="20.819576mm" y2="295.350237mm" />
  <line x1="24.119976mm" y1="292.049837mm" x2="24.119976mm" y2="298.650637mm" />
  <text x="25mm" y="293mm" font-size="24">
   3.3
  </text>
  <circle cx="25.999883mm" cy="240.000047mm" r="1.999981mm" fill="none"/>
  <line x1="29.999844mm" y1="240.000047mm" x2="21.999922mm" y2="240.000047mm" />
  <line x1="25.999883mm" y1="236.000086mm" x2="25.999883mm" y2="244.000008mm" />
  <text x="27mm" y="238mm" font-size="24">
   4.0
  </text>
  <circle cx="30.999818mm" cy="15.000055mm" r="2.000011mm" fill="none"/>
  <line x1="34.999840mm" y1="15.000055mm" x2="26.999795mm" y2="15.000055mm" />
  <line x1="30.999818mm" y1="11.000033mm" x2="30.999818mm" y2="19.000077mm" />
  <text x="32mm" y="13mm" font-size="24">
   4.0
  </text>
  <circle cx="32.300037mm" cy="6.499798mm" r="1.650231mm" fill="none"/>
  <line x1="35.600499mm" y1="6.499798mm" x2="28.999575mm" y2="6.499798mm" />
  <line x1="32.300037mm" y1="3.199336mm" x2="32.300037mm" y2="9.800260mm" />
  <text x="33mm" y="4mm" font-size="24">
   3.3
  </text>
  <line x1="35.091000mm" y1="257.617200mm" x2="35.091000mm" y2="257.617200mm" />
  <line x1="35.091000mm" y1="257.617200mm" x2="35.055000mm" y2="257.126700mm" />
  <line x1="35.055000mm" y1="257.126700mm" x2="35.055000mm" y2="246.626700mm" />
  <line x1="35.055000mm" y1="246.626700mm" x2="35.164000mm" y2="246.147200mm" />
  <line x1="35.164000mm" y1="246.147200mm" x2="35.410000mm" y2="245.721200mm" />
  <line x1="35.410000mm" y1="245.721200mm" x2="35.771000mm" y2="245.386700mm" />
  <line x1="35.771000mm" y1="245.386700mm" x2="36.214000mm" y2="245.173300mm" />
  <line x1="36.214000mm" y1="245.173300mm" x2="36.700000mm" y2="245.100000mm" />
  <line x1="36.700000mm" y1="245.100000mm" x2="37.186000mm" y2="245.173300mm" />
  <line x1="37.186000mm" y1="245.173300mm" x2="37.629000mm" y2="245.386700mm" />
  <line x1="37.629000mm" y1="245.386700mm" x2="37.990000mm" y2="245.721200mm" />
  <line x1="37.990000mm" y1="245.721200mm" x2="38.236000mm" y2="246.147200mm" />
  <line x1="38.236000mm" y1="246.147200mm" x2="38.345000mm" y2="246.626700mm" />
  <line x1="38.345000mm" y1="246.626700mm" x2="38.345000mm" y2="257.126700mm" />
  <line x1="38.345000mm" y1="257.126700mm" x2="38.309000mm" y2="257.617200mm" />
  <line x1="38.309000mm" y1="257.617200mm" x2="38.129000mm" y2="258.075000mm" />
  <line x1="38.129000mm" y1="258.075000mm" x2="37.822000mm" y2="258.459500mm" />
  <line x1="37.822000mm" y1="258.459500mm" x2="37.416000mm" y2="258.736600mm" />
  <line x1="37.416000mm" y1="258.736600mm" x2="36.946000mm" y2="258.881600mm" />
  <line x1="36.946000mm" y1="258.881600mm" x2="36.454000mm" y2="258.881600mm" />
  <line x1="36.454000mm" y1="258.881600mm" x2="35.984000mm" y2="258.736600mm" />
  <line x1="35.984000mm" y1="258.736600mm" x2="35.578000mm" y2="258.459500mm" />
  <line x1="35.578000mm" y1="258.459500mm" x2="35.271000mm" y2="258.075000mm" />
  <line x1="35.271000mm" y1="258.075000mm" x2="35.091000mm" y2="257.617200mm" />
  <circle cx="43.879976mm" cy="295.350237mm" r="1.650200mm" fill="none"/>
  <line x1="47.180376mm" y1="295.350237mm" x2="40.579576mm" y2="295.350237mm" />
  <line x1="43.879976mm" y1="292.049837mm" x2="43.879976mm" y2="298.650637mm" />
  <text x="45mm" y="293mm" font-size="24">
   3.3
  </text>
  <circle cx="52.849642mm" cy="273.190009mm" r="1.650017mm" fill="none"/>
  <line x1="56.149676mm" y1="273.190009mm" x2="49.549607mm" y2="273.190009mm" />
  <line x1="52.849642mm" y1="269.889975mm" x2="52.849642mm" y2="276.490043mm" />
  <text x="54mm" y="271mm" font-size="24">
   3.3
  </text>
  <circle cx="52.849893mm" cy="28.809999mm" r="1.650220mm" fill="none"/>
  <line x1="56.150333mm" y1="28.809999mm" x2="49.549453mm" y2="28.809999mm" />
  <line x1="52.849893mm" y1="25.509559mm" x2="52.849893mm" y2="32.110439mm" />
  <text x="54mm" y="27mm" font-size="24">
   3.3
  </text>
  <circle cx="55.700221mm" cy="50.619698mm" r="1.500135mm" fill="none"/>
  <line x1="58.700491mm" y1="50.619698mm" x2="52.699951mm" y2="50.619698mm" />
  <line x1="55.700221mm" y1="47.619428mm" x2="55.700221mm" y2="53.619968mm" />
  <text x="57mm" y="49mm" font-size="24">
   3.0
  </text>
  <circle cx="55.700221mm" cy="44.819698mm" r="1.500135mm" fill="none"/>
  <line x1="58.700491mm" y1="44.819698mm" x2="52.699951mm" y2="44.819698mm" />
  <line x1="55.700221mm" y1="41.819428mm" x2="55.700221mm" y2="47.819968mm" />
  <text x="57mm" y="43mm" font-size="24">
   3.0
  </text>
  <circle cx="56.700037mm" cy="6.499798mm" r="1.650231mm" fill="none"/>
  <line x1="60.000499mm" y1="6.499798mm" x2="53.399575mm" y2="6.499798mm" />
  <line x1="56.700037mm" y1="3.199336mm" x2="56.700037mm" y2="9.800260mm" />
  <text x="58mm" y="4mm" font-size="24">
   3.3
  </text>
  <circle cx="60.699872mm" cy="62.120269mm" r="1.500269mm" fill="none"/>
  <line x1="63.700410mm" y1="62.120269mm" x2="57.699333mm" y2="62.120269mm" />
  <line x1="60.699872mm" y1="59.119731mm" x2="60.699872mm" y2="65.120808mm" />
  <text x="62mm" y="60mm" font-size="24">
   3.0
  </text>
  <circle cx="60.699872mm" cy="54.920269mm" r="1.500269mm" fill="none"/>
  <line x1="63.700410mm" y1="54.920269mm" x2="57.699333mm" y2="54.920269mm" />
  <line x1="60.699872mm" y1="51.919731mm" x2="60.699872mm" y2="57.920808mm" />
  <text x="62mm" y="53mm" font-size="24">
   3.0
  </text>
  <circle cx="61.099976mm" cy="295.350237mm" r="1.650200mm" fill="none"/>
  <line x1="64.400376mm" y1="295.350237mm" x2="57.799576mm" y2="295.350237mm" />
  <line x1="61.099976mm" y1="292.049837mm" x2="61.099976mm" y2="298.650637mm" />
  <text x="62mm" y="293mm" font-size="24">
   3.3
  </text>
  <circle cx="245.300239mm" cy="50.619806mm" r="1.500223mm" fill="none"/>
  <line x1="248.300684mm" y1="50.619806mm" x2="242.299793mm" y2="50.619806mm" />
  <line x1="245.300239mm" y1="47.619361mm" x2="245.300239mm" y2="53.620252mm" />
  <text x="246mm" y="49mm" font-size="24">
   3.0
  </text>
  <circle cx="245.300239mm" cy="44.819806mm" r="1.500223mm" fill="none"/>
  <line x1="248.300684mm" y1="44.819806mm" x2="242.299793mm" y2="44.819806mm" />
  <line x1="245.300239mm" y1="41.819361mm" x2="245.300239mm" y2="47.820252mm" />
  <text x="246mm" y="43mm" font-size="24">
   3.0
  </text>
  <circle cx="250.299891mm" cy="62.120086mm" r="1.500086mm" fill="none"/>
  <line x1="253.300062mm" y1="62.120086mm" x2="247.299719mm" y2="62.120086mm" />
  <line x1="250.299891mm" y1="59.119914mm" x2="250.299891mm" y2="65.120257mm" />
  <text x="251mm" y="60mm" font-size="24">
   3.0
  </text>
  <circle cx="250.299891mm" cy="54.920086mm" r="1.500086mm" fill="none"/>
  <line x1="253.300062mm" y1="54.920086mm" x2="247.299719mm" y2="54.920086mm" />
  <line x1="250.299891mm" y1="51.919914mm" x2="250.299891mm" y2="57.920257mm" />
  <text x="251mm" y="53mm" font-size="24">
   3.0
  </text>
  <circle cx="253.150034mm" cy="273.189976mm" r="1.649997mm" fill="none"/>
  <line x1="256.450028mm" y1="273.189976mm" x2="249.850040mm" y2="273.189976mm" />
  <line x1="253.150034mm" y1="269.889982mm" x2="253.150034mm" y2="276.489970mm" />
  <text x="254mm" y="271mm" font-size="24">
   3.3
  </text>
  <circle cx="253.150093mm" cy="28.809785mm" r="1.650195mm" fill="none"/>
  <line x1="256.450483mm" y1="28.809785mm" x2="249.849703mm" y2="28.809785mm" />
  <line x1="253.150093mm" y1="25.509395mm" x2="253.150093mm" y2="32.110175mm" />
  <text x="254mm" y="27mm" font-size="24">
   3.3
  </text>
  <circle cx="255.300093mm" cy="6.499785mm" r="1.650195mm" fill="none"/>
  <line x1="258.600483mm" y1="6.499785mm" x2="251.999703mm" y2="6.499785mm" />
  <line x1="255.300093mm" y1="3.199395mm" x2="255.300093mm" y2="9.800175mm" />
  <text x="256mm" y="4mm" font-size="24">
   3.3
  </text>
  <line x1="268.691400mm" y1="257.617200mm" x2="268.691400mm" y2="257.617200mm" />
  <line x1="268.691400mm" y1="257.617200mm" x2="268.654600mm" y2="257.126700mm" />
  <line x1="268.654600mm" y1="257.126700mm" x2="268.654600mm" y2="246.626700mm" />
  <line x1="268.654600mm" y1="246.626700mm" x2="268.764100mm" y2="246.147200mm" />
  <line x1="268.764100mm" y1="246.147200mm" x2="269.010000mm" y2="245.721200mm" />
  <line x1="269.010000mm" y1="245.721200mm" x2="269.370500mm" y2="245.386700mm" />
  <line x1="269.370500mm" y1="245.386700mm" x2="269.813700mm" y2="245.173300mm" />
  <line x1="269.813700mm" y1="245.173300mm" x2="270.300000mm" y2="245.100000mm" />
  <line x1="270.300000mm" y1="245.100000mm" x2="270.786300mm" y2="245.173300mm" />
  <line x1="270.786300mm" y1="245.173300mm" x2="271.229500mm" y2="245.386700mm" />
  <line x1="271.229500mm" y1="245.386700mm" x2="271.590000mm" y2="245.721200mm" />
  <line x1="271.590000mm" y1="245.721200mm" x2="271.835900mm" y2="246.147200mm" />
  <line x1="271.835900mm" y1="246.147200mm" x2="271.945400mm" y2="246.626700mm" />
  <line x1="271.945400mm" y1="246.626700mm" x2="271.945400mm" y2="257.126700mm" />
  <line x1="271.945400mm" y1="257.126700mm" x2="271.908600mm" y2="257.617200mm" />
  <line x1="271.908600mm" y1="257.617200mm" x2="271.728900mm" y2="258.075000mm" />
  <line x1="271.728900mm" y1="258.075000mm" x2="271.422300mm" y2="258.459500mm" />
  <line x1="271.422300mm" y1="258.459500mm" x2="271.015900mm" y2="258.736600mm" />
  <line x1="271.015900mm" y1="258.736600mm" x2="270.545900mm" y2="258.881600mm" />
  <line x1="270.545900mm" y1="258.881600mm" x2="270.054100mm" y2="258.881600mm" />
  <line x1="270.054100mm" y1="258.881600mm" x2="269.584100mm" y2="258.736600mm" />
  <line x1="269.584100mm" y1="258.736600mm" x2="269.177700mm" y2="258.459500mm" />
  <line x1="269.177700mm" y1="258.459500mm" x2="268.871100mm" y2="258.075000mm" />
  <line x1="268.871100mm" y1="258.075000mm" x2="268.691400mm" y2="257.617200mm" />
  <circle cx="272.700159mm" cy="295.350181mm" r="1.650104mm" fill="none"/>
  <line x1="276.000368mm" y1="295.350181mm" x2="269.399950mm" y2="295.350181mm" />
  <line x1="272.700159mm" y1="292.049972mm" x2="272.700159mm" y2="298.650390mm" />
  <text x="274mm" y="293mm" font-size="24">
   3.3
  </text>
  <circle cx="279.700037mm" cy="6.499798mm" r="1.650231mm" fill="none"/>
  <line x1="283.000499mm" y1="6.499798mm" x2="276.399575mm" y2="6.499798mm" />
  <line x1="279.700037mm" y1="3.199336mm" x2="279.700037mm" y2="9.800260mm" />
  <text x="281mm" y="4mm" font-size="24">
   3.3
  </text>
  <circle cx="281.000034mm" cy="285.199968mm" r="2.500070mm" fill="none"/>
  <line x1="286.000175mm" y1="285.199968mm" x2="275.999893mm" y2="285.199968mm" />
  <line x1="281.000034mm" y1="280.199828mm" x2="281.000034mm" y2="290.200109mm" />
  <text x="283mm" y="282mm" font-size="24">
   5.0
  </text>
  <circle cx="289.919976mm" cy="295.350237mm" r="1.650200mm" fill="none"/>
  <line x1="293.220376mm" y1="295.350237mm" x2="286.619576mm" y2="295.350237mm" />
  <line x1="289.919976mm" y1="292.049837mm" x2="289.919976mm" y2="298.650637mm" />
  <text x="291mm" y="293mm" font-size="24">
   3.3
  </text>
  <line x1="293.091000mm" y1="257.617200mm" x2="293.091000mm" y2="257.617200mm" />
  <line x1="293.091000mm" y1="257.617200mm" x2="293.055000mm" y2="257.126700mm" />
  <line x1="293.055000mm" y1="257.126700mm" x2="293.055000mm" y2="246.626700mm" />
  <line x1="293.055000mm" y1="246.626700mm" x2="293.164000mm" y2="246.147200mm" />
  <line x1="293.164000mm" y1="246.147200mm" x2="293.410000mm" y2="245.721200mm" />
  <line x1="293.410000mm" y1="245.721200mm" x2="293.771000mm" y2="245.386700mm" />
  <line x1="293.771000mm" y1="245.386700mm" x2="294.214000mm" y2="245.173300mm" />
  <line x1="294.214000mm" y1="245.173300mm" x2="294.700000mm" y2="245.100000mm" />
  <line x1="294.700000mm" y1="245.100000mm" x2="295.186000mm" y2="245.173300mm" />
  <line x1="295.186000mm" y1="245.173300mm" x2="295.629000mm" y2="245.386700mm" />
  <line x1="295.629000mm" y1="245.386700mm" x2="295.990000mm" y2="245.721200mm" />
  <line x1="295.990000mm" y1="245.721200mm" x2="296.236000mm" y2="246.147200mm" />
  <line x1="296.236000mm" y1="246.147200mm" x2="296.345000mm" y2="246.626700mm" />
  <line x1="296.345000mm" y1="246.626700mm" x2="296.345000mm" y2="257.126700mm" />
  <line x1="296.345000mm" y1="257.126700mm" x2="296.309000mm" y2="257.617200mm" />
  <line x1="296.309000mm" y1="257.617200mm" x2="296.129000mm" y2="258.075000mm" />
  <line x1="296.129000mm" y1="258.075000mm" x2="295.822000mm" y2="258.459500mm" />
  <line x1="295.822000mm" y1="258.459500mm" x2="295.416000mm" y2="258.736600mm" />
  <line x1="295.416000mm" y1="258.736600mm" x2="294.946000mm" y2="258.881600mm" />
  <line x1="294.946000mm" y1="258.881600mm" x2="294.454000mm" y2="258.881600mm" />
  <line x1="294.454000mm" y1="258.881600mm" x2="293.984000mm" y2="258.736600mm" />
  <line x1="293.984000mm" y1="258.736600mm" x2="293.578000mm" y2="258.459500mm" />
  <line x1="293.578000mm" y1="258.459500mm" x2="293.271000mm" y2="258.075000mm" />
  <line x1="293.271000mm" y1="258.075000mm" x2="293.091000mm" y2="257.617200mm" />
  <circle cx="302.149456mm" cy="24.300195mm" r="1.649827mm" fill="none"/>
  <line x1="305.449111mm" y1="24.300195mm" x2="298.849802mm" y2="24.300195mm" />
  <line x1="302.149456mm" y1="21.000541mm" x2="302.149456mm" y2="27.599849mm" />
  <text x="303mm" y="22mm" font-size="24">
   3.3
  </text>
  <line x1="304.145000mm" y1="14.778000mm" x2="304.145000mm" y2="14.778000mm" />
  <line x1="304.145000mm" y1="14.778000mm" x2="304.050000mm" y2="14.300000mm" />
  <line x1="304.050000mm" y1="14.300000mm" x2="304.145000mm" y2="13.822000mm" />
  <line x1="304.145000mm" y1="13.822000mm" x2="304.416000mm" y2="13.416000mm" />
  <line x1="304.416000mm" y1="13.416000mm" x2="304.822000mm" y2="13.145000mm" />
  <line x1="304.822000mm" y1="13.145000mm" x2="305.300000mm" y2="13.050000mm" />
  <line x1="305.300000mm" y1="13.050000mm" x2="332.700000mm" y2="13.050000mm" />
  <line x1="332.700000mm" y1="13.050000mm" x2="333.178000mm" y2="13.145000mm" />
  <line x1="333.178000mm" y1="13.145000mm" x2="333.584000mm" y2="13.416000mm" />
  <line x1="333.584000mm" y1="13.416000mm" x2="333.855000mm" y2="13.822000mm" />
  <line x1="333.855000mm" y1="13.822000mm" x2="333.950000mm" y2="14.300000mm" />
  <line x1="333.950000mm" y1="14.300000mm" x2="333.855000mm" y2="14.778000mm" />
  <line x1="333.855000mm" y1="14.778000mm" x2="333.584000mm" y2="15.184000mm" />
  <line x1="333.584000mm" y1="15.184000mm" x2="333.178000mm" y2="15.455000mm" />
  <line x1="333.178000mm" y1="15.455000mm" x2="332.700000mm" y2="15.550000mm" />
  <line x1="332.700000mm" y1="15.550000mm" x2="305.300000mm" y2="15.550000mm" />
  <line x1="305.300000mm" y1="15.550000mm" x2="304.822000mm" y2="15.455000mm" />
  <line x1="304.822000mm" y1="15.455000mm" x2="304.416000mm" y2="15.184000mm" />
  <line x1="304.416000mm" y1="15.184000mm" x2="304.145000mm" y2="14.778000mm" />
  <circle cx="319.879976mm" cy="295.350237mm" r="1.650200mm" fill="none"/>
  <line x1="323.180376mm" y1="295.350237mm" x2="316.579576mm" y2="295.350237mm" />
  <line x1="319.879976mm" y1="292.049837mm" x2="319.879976mm" y2="298.650637mm" />
  <text x="321mm" y="293mm" font-size="24">
   3.3
  </text>
  <circle cx="335.849456mm" cy="24.300195mm" r="1.649827mm" fill="none"/>
  <line x1="339.149111mm" y1="24.300195mm" x2="332.549802mm" y2="24.300195mm" />
  <line x1="335.849456mm" y1="21.000541mm" x2="335.849456mm" y2="27.599849mm" />
  <text x="337mm" y="22mm" font-size="24">
   3.3
  </text>
  <circle cx="337.099976mm" cy="295.350237mm" r="1.650200mm" fill="none"/>
  <line x1="340.400376mm" y1="295.350237mm" x2="333.799576mm" y2="295.350237mm" />
  <line x1="337.099976mm" y1="292.049837mm" x2="337.099976mm" y2="298.650637mm" />
  <text x="338mm" y="293mm" font-size="24">
   3.3
  </text>
 </g>
</svg>
