<?xml version="1.0"?>
<svg xmlns="http://www.w3.org/2000/svg" version="1.1" height="94mm" width="312mm" >
 <g style="fill-opacity:1.0; stroke:black; stroke-width:1;">
  <line x1="0.000000mm" y1="75.280000mm" x2="0.000000mm" y2="75.280000mm" />
  <line x1="0.000000mm" y1="75.280000mm" x2="0.000000mm" y2="83.880000mm" />
  <line x1="0.000000mm" y1="83.880000mm" x2="277.000000mm" y2="83.880000mm" />
  <line x1="277.000000mm" y1="83.880000mm" x2="279.179000mm" y2="83.784900mm" />
  <line x1="279.179000mm" y1="83.784900mm" x2="281.341000mm" y2="83.500200mm" />
  <line x1="281.341000mm" y1="83.500200mm" x2="283.470000mm" y2="83.028100mm" />
  <line x1="283.470000mm" y1="83.028100mm" x2="285.551000mm" y2="82.372300mm" />
  <line x1="285.551000mm" y1="82.372300mm" x2="287.565000mm" y2="81.537700mm" />
  <line x1="287.565000mm" y1="81.537700mm" x2="289.500000mm" y2="80.530600mm" />
  <line x1="289.500000mm" y1="80.530600mm" x2="291.339000mm" y2="79.358800mm" />
  <line x1="291.339000mm" y1="79.358800mm" x2="293.070000mm" y2="78.031100mm" />
  <line x1="293.070000mm" y1="78.031100mm" x2="294.678000mm" y2="76.557700mm" />
  <line x1="294.678000mm" y1="76.557700mm" x2="296.151000mm" y2="74.949700mm" />
  <line x1="296.151000mm" y1="74.949700mm" x2="297.479000mm" y2="73.219400mm" />
  <line x1="297.479000mm" y1="73.219400mm" x2="298.651000mm" y2="71.380000mm" />
  <line x1="298.651000mm" y1="71.380000mm" x2="299.658000mm" y2="69.445500mm" />
  <line x1="299.658000mm" y1="69.445500mm" x2="300.492000mm" y2="67.430500mm" />
  <line x1="300.492000mm" y1="67.430500mm" x2="301.148000mm" y2="65.350500mm" />
  <line x1="301.148000mm" y1="65.350500mm" x2="301.620000mm" y2="63.221200mm" />
  <line x1="301.620000mm" y1="63.221200mm" x2="301.905000mm" y2="61.058900mm" />
  <line x1="301.905000mm" y1="61.058900mm" x2="302.000000mm" y2="58.880000mm" />
  <line x1="302.000000mm" y1="58.880000mm" x2="302.000000mm" y2="0.000000mm" />
  <line x1="302.000000mm" y1="0.000000mm" x2="256.265000mm" y2="0.000000mm" />
  <line x1="256.265000mm" y1="0.000000mm" x2="256.265000mm" y2="2.241070mm" />
  <line x1="256.265000mm" y1="2.241070mm" x2="256.150000mm" y2="2.709210mm" />
  <line x1="256.150000mm" y1="2.709210mm" x2="255.926000mm" y2="3.136130mm" />
  <line x1="255.926000mm" y1="3.136130mm" x2="255.606000mm" y2="3.497020mm" />
  <line x1="255.606000mm" y1="3.497020mm" x2="255.209000mm" y2="3.770910mm" />
  <line x1="255.209000mm" y1="3.770910mm" x2="254.759000mm" y2="3.941880mm" />
  <line x1="254.759000mm" y1="3.941880mm" x2="254.280000mm" y2="4.000000mm" />
  <line x1="254.280000mm" y1="4.000000mm" x2="253.801000mm" y2="3.941880mm" />
  <line x1="253.801000mm" y1="3.941880mm" x2="253.351000mm" y2="3.770910mm" />
  <line x1="253.351000mm" y1="3.770910mm" x2="252.954000mm" y2="3.497020mm" />
  <line x1="252.954000mm" y1="3.497020mm" x2="252.634000mm" y2="3.136130mm" />
  <line x1="252.634000mm" y1="3.136130mm" x2="252.410000mm" y2="2.709210mm" />
  <line x1="252.410000mm" y1="2.709210mm" x2="252.295000mm" y2="2.241070mm" />
  <line x1="252.295000mm" y1="2.241070mm" x2="252.295000mm" y2="0.000000mm" />
  <line x1="252.295000mm" y1="0.000000mm" x2="246.470000mm" y2="0.000000mm" />
  <line x1="246.470000mm" y1="0.000000mm" x2="246.470000mm" y2="3.247740mm" />
  <line x1="246.470000mm" y1="3.247740mm" x2="246.388000mm" y2="3.736460mm" />
  <line x1="246.388000mm" y1="3.736460mm" x2="246.227000mm" y2="4.205090mm" />
  <line x1="246.227000mm" y1="4.205090mm" x2="245.992000mm" y2="4.640840mm" />
  <line x1="245.992000mm" y1="4.640840mm" x2="245.687000mm" y2="5.031840mm" />
  <line x1="245.687000mm" y1="5.031840mm" x2="245.323000mm" y2="5.367420mm" />
  <line x1="245.323000mm" y1="5.367420mm" x2="244.908000mm" y2="5.638420mm" />
  <line x1="244.908000mm" y1="5.638420mm" x2="244.454000mm" y2="5.837450mm" />
  <line x1="244.454000mm" y1="5.837450mm" x2="243.974000mm" y2="5.959080mm" />
  <line x1="243.974000mm" y1="5.959080mm" x2="243.480000mm" y2="6.000000mm" />
  <line x1="243.480000mm" y1="6.000000mm" x2="242.986000mm" y2="5.959080mm" />
  <line x1="242.986000mm" y1="5.959080mm" x2="242.506000mm" y2="5.837450mm" />
  <line x1="242.506000mm" y1="5.837450mm" x2="242.052000mm" y2="5.638420mm" />
  <line x1="242.052000mm" y1="5.638420mm" x2="241.637000mm" y2="5.367420mm" />
  <line x1="241.637000mm" y1="5.367420mm" x2="241.273000mm" y2="5.031840mm" />
  <line x1="241.273000mm" y1="5.031840mm" x2="240.969000mm" y2="4.640840mm" />
  <line x1="240.969000mm" y1="4.640840mm" x2="240.733000mm" y2="4.205090mm" />
  <line x1="240.733000mm" y1="4.205090mm" x2="240.572000mm" y2="3.736460mm" />
  <line x1="240.572000mm" y1="3.736460mm" x2="240.490000mm" y2="3.247740mm" />
  <line x1="240.490000mm" y1="3.247740mm" x2="240.490000mm" y2="0.000000mm" />
  <line x1="240.490000mm" y1="0.000000mm" x2="0.000000mm" y2="0.000000mm" />
  <line x1="0.000000mm" y1="0.000000mm" x2="0.000000mm" y2="13.300000mm" />
  <line x1="0.000000mm" y1="13.300000mm" x2="2.500000mm" y2="13.300000mm" />
  <line x1="2.500000mm" y1="13.300000mm" x2="2.987730mm" y2="13.348000mm" />
  <line x1="2.987730mm" y1="13.348000mm" x2="3.456710mm" y2="13.490300mm" />
  <line x1="3.456710mm" y1="13.490300mm" x2="3.888930mm" y2="13.721300mm" />
  <line x1="3.888930mm" y1="13.721300mm" x2="4.267770mm" y2="14.032200mm" />
  <line x1="4.267770mm" y1="14.032200mm" x2="4.578670mm" y2="14.411100mm" />
  <line x1="4.578670mm" y1="14.411100mm" x2="4.809700mm" y2="14.843300mm" />
  <line x1="4.809700mm" y1="14.843300mm" x2="4.951960mm" y2="15.312300mm" />
  <line x1="4.951960mm" y1="15.312300mm" x2="5.000000mm" y2="15.800000mm" />
  <line x1="5.000000mm" y1="15.800000mm" x2="4.951960mm" y2="16.287700mm" />
  <line x1="4.951960mm" y1="16.287700mm" x2="4.809700mm" y2="16.756700mm" />
  <line x1="4.809700mm" y1="16.756700mm" x2="4.578670mm" y2="17.188900mm" />
  <line x1="4.578670mm" y1="17.188900mm" x2="4.267770mm" y2="17.567800mm" />
  <line x1="4.267770mm" y1="17.567800mm" x2="3.888930mm" y2="17.878700mm" />
  <line x1="3.888930mm" y1="17.878700mm" x2="3.456710mm" y2="18.109700mm" />
  <line x1="3.456710mm" y1="18.109700mm" x2="2.987730mm" y2="18.252000mm" />
  <line x1="2.987730mm" y1="18.252000mm" x2="2.500000mm" y2="18.300000mm" />
  <line x1="2.500000mm" y1="18.300000mm" x2="0.000000mm" y2="18.300000mm" />
  <line x1="0.000000mm" y1="18.300000mm" x2="0.000000mm" y2="23.314600mm" />
  <line x1="0.000000mm" y1="23.314600mm" x2="2.241070mm" y2="23.314600mm" />
  <line x1="2.241070mm" y1="23.314600mm" x2="2.709210mm" y2="23.430000mm" />
  <line x1="2.709210mm" y1="23.430000mm" x2="3.136130mm" y2="23.654000mm" />
  <line x1="3.136130mm" y1="23.654000mm" x2="3.497020mm" y2="23.973800mm" />
  <line x1="3.497020mm" y1="23.973800mm" x2="3.770910mm" y2="24.370600mm" />
  <line x1="3.770910mm" y1="24.370600mm" x2="3.941880mm" y2="24.821400mm" />
  <line x1="3.941880mm" y1="24.821400mm" x2="4.000000mm" y2="25.300000mm" />
  <line x1="4.000000mm" y1="25.300000mm" x2="3.941880mm" y2="25.778600mm" />
  <line x1="3.941880mm" y1="25.778600mm" x2="3.770910mm" y2="26.229400mm" />
  <line x1="3.770910mm" y1="26.229400mm" x2="3.497020mm" y2="26.626200mm" />
  <line x1="3.497020mm" y1="26.626200mm" x2="3.136130mm" y2="26.946000mm" />
  <line x1="3.136130mm" y1="26.946000mm" x2="2.709210mm" y2="27.170000mm" />
  <line x1="2.709210mm" y1="27.170000mm" x2="2.241070mm" y2="27.285400mm" />
  <line x1="2.241070mm" y1="27.285400mm" x2="0.000000mm" y2="27.285400mm" />
  <line x1="0.000000mm" y1="27.285400mm" x2="0.000000mm" y2="58.294600mm" />
  <line x1="0.000000mm" y1="58.294600mm" x2="2.241070mm" y2="58.294600mm" />
  <line x1="2.241070mm" y1="58.294600mm" x2="2.709210mm" y2="58.410000mm" />
  <line x1="2.709210mm" y1="58.410000mm" x2="3.136130mm" y2="58.634000mm" />
  <line x1="3.136130mm" y1="58.634000mm" x2="3.497020mm" y2="58.953800mm" />
  <line x1="3.497020mm" y1="58.953800mm" x2="3.770910mm" y2="59.350600mm" />
  <line x1="3.770910mm" y1="59.350600mm" x2="3.941880mm" y2="59.801400mm" />
  <line x1="3.941880mm" y1="59.801400mm" x2="4.000000mm" y2="60.280000mm" />
  <line x1="4.000000mm" y1="60.280000mm" x2="3.941880mm" y2="60.758600mm" />
  <line x1="3.941880mm" y1="60.758600mm" x2="3.770910mm" y2="61.209400mm" />
  <line x1="3.770910mm" y1="61.209400mm" x2="3.497020mm" y2="61.606200mm" />
  <line x1="3.497020mm" y1="61.606200mm" x2="3.136130mm" y2="61.926000mm" />
  <line x1="3.136130mm" y1="61.926000mm" x2="2.709210mm" y2="62.150000mm" />
  <line x1="2.709210mm" y1="62.150000mm" x2="2.241070mm" y2="62.265400mm" />
  <line x1="2.241070mm" y1="62.265400mm" x2="0.000000mm" y2="62.265400mm" />
  <line x1="0.000000mm" y1="62.265400mm" x2="0.000000mm" y2="68.280000mm" />
  <line x1="0.000000mm" y1="68.280000mm" x2="3.500000mm" y2="68.280000mm" />
  <line x1="3.500000mm" y1="68.280000mm" x2="3.998100mm" y2="68.315600mm" />
  <line x1="3.998100mm" y1="68.315600mm" x2="4.486060mm" y2="68.421800mm" />
  <line x1="4.486060mm" y1="68.421800mm" x2="4.953950mm" y2="68.596300mm" />
  <line x1="4.953950mm" y1="68.596300mm" x2="5.392240mm" y2="68.835600mm" />
  <line x1="5.392240mm" y1="68.835600mm" x2="5.792010mm" y2="69.134900mm" />
  <line x1="5.792010mm" y1="69.134900mm" x2="6.145120mm" y2="69.488000mm" />
  <line x1="6.145120mm" y1="69.488000mm" x2="6.444390mm" y2="69.887800mm" />
  <line x1="6.444390mm" y1="69.887800mm" x2="6.683710mm" y2="70.326000mm" />
  <line x1="6.683710mm" y1="70.326000mm" x2="6.858220mm" y2="70.793900mm" />
  <line x1="6.858220mm" y1="70.793900mm" x2="6.964370mm" y2="71.281900mm" />
  <line x1="6.964370mm" y1="71.281900mm" x2="7.000000mm" y2="71.780000mm" />
  <line x1="7.000000mm" y1="71.780000mm" x2="6.964370mm" y2="72.278100mm" />
  <line x1="6.964370mm" y1="72.278100mm" x2="6.858220mm" y2="72.766100mm" />
  <line x1="6.858220mm" y1="72.766100mm" x2="6.683710mm" y2="73.234000mm" />
  <line x1="6.683710mm" y1="73.234000mm" x2="6.444390mm" y2="73.672200mm" />
  <line x1="6.444390mm" y1="73.672200mm" x2="6.145120mm" y2="74.072000mm" />
  <line x1="6.145120mm" y1="74.072000mm" x2="5.792010mm" y2="74.425100mm" />
  <line x1="5.792010mm" y1="74.425100mm" x2="5.392240mm" y2="74.724400mm" />
  <line x1="5.392240mm" y1="74.724400mm" x2="4.953950mm" y2="74.963700mm" />
  <line x1="4.953950mm" y1="74.963700mm" x2="4.486060mm" y2="75.138200mm" />
  <line x1="4.486060mm" y1="75.138200mm" x2="3.998100mm" y2="75.244400mm" />
  <line x1="3.998100mm" y1="75.244400mm" x2="3.500000mm" y2="75.280000mm" />
  <line x1="3.500000mm" y1="75.280000mm" x2="0.000000mm" y2="75.280000mm" />
  <circle cx="6.649983mm" cy="76.979983mm" r="1.649995mm" fill="none"/>
  <line x1="9.949972mm" y1="76.979983mm" x2="3.349993mm" y2="76.979983mm" />
  <line x1="6.649983mm" y1="73.679994mm" x2="6.649983mm" y2="80.279973mm" />
  <text x="8mm" y="75mm" font-size="24">
   3.3
  </text>
  <circle cx="6.649983mm" cy="59.759983mm" r="1.649995mm" fill="none"/>
  <line x1="9.949972mm" y1="59.759983mm" x2="3.349993mm" y2="59.759983mm" />
  <line x1="6.649983mm" y1="56.459994mm" x2="6.649983mm" y2="63.059973mm" />
  <text x="8mm" y="58mm" font-size="24">
   3.3
  </text>
  <line x1="19.055800mm" y1="27.010000mm" x2="19.055800mm" y2="27.010000mm" />
  <line x1="19.055800mm" y1="27.010000mm" x2="18.328600mm" y2="25.500000mm" />
  <line x1="18.328600mm" y1="25.500000mm" x2="19.055800mm" y2="23.990000mm" />
  <line x1="19.055800mm" y1="23.990000mm" x2="20.689800mm" y2="23.617100mm" />
  <line x1="20.689800mm" y1="23.617100mm" x2="22.000100mm" y2="24.662000mm" />
  <line x1="22.000100mm" y1="24.662000mm" x2="22.000100mm" y2="26.338000mm" />
  <line x1="22.000100mm" y1="26.338000mm" x2="20.689800mm" y2="27.382900mm" />
  <line x1="20.689800mm" y1="27.382900mm" x2="19.055800mm" y2="27.010000mm" />
  <circle cx="20.200002mm" cy="6.650001mm" r="1.650004mm" fill="none"/>
  <line x1="23.500010mm" y1="6.650001mm" x2="16.899995mm" y2="6.650001mm" />
  <line x1="20.200002mm" y1="3.349993mm" x2="20.200002mm" y2="9.950008mm" />
  <text x="21mm" y="4mm" font-size="24">
   3.3
  </text>
  <circle cx="37.420002mm" cy="6.650001mm" r="1.650004mm" fill="none"/>
  <line x1="40.720010mm" y1="6.650001mm" x2="34.119995mm" y2="6.650001mm" />
  <line x1="37.420002mm" y1="3.349993mm" x2="37.420002mm" y2="9.950008mm" />
  <text x="39mm" y="4mm" font-size="24">
   3.3
  </text>
  <line x1="64.055800mm" y1="27.010000mm" x2="64.055800mm" y2="27.010000mm" />
  <line x1="64.055800mm" y1="27.010000mm" x2="63.328600mm" y2="25.500000mm" />
  <line x1="63.328600mm" y1="25.500000mm" x2="64.055800mm" y2="23.990000mm" />
  <line x1="64.055800mm" y1="23.990000mm" x2="65.689800mm" y2="23.617100mm" />
  <line x1="65.689800mm" y1="23.617100mm" x2="67.000100mm" y2="24.662000mm" />
  <line x1="67.000100mm" y1="24.662000mm" x2="67.000100mm" y2="26.338000mm" />
  <line x1="67.000100mm" y1="26.338000mm" x2="65.689800mm" y2="27.382900mm" />
  <line x1="65.689800mm" y1="27.382900mm" x2="64.055800mm" y2="27.010000mm" />
  <circle cx="138.659978mm" cy="63.529989mm" r="1.650033mm" fill="none"/>
  <line x1="141.960044mm" y1="63.529989mm" x2="135.359912mm" y2="63.529989mm" />
  <line x1="138.659978mm" y1="60.229923mm" x2="138.659978mm" y2="66.830055mm" />
  <text x="140mm" y="61mm" font-size="24">
   3.3
  </text>
  <circle cx="138.659978mm" cy="20.349989mm" r="1.650033mm" fill="none"/>
  <line x1="141.960044mm" y1="20.349989mm" x2="135.359912mm" y2="20.349989mm" />
  <line x1="138.659978mm" y1="17.049923mm" x2="138.659978mm" y2="23.650055mm" />
  <text x="140mm" y="18mm" font-size="24">
   3.3
  </text>
  <circle cx="194.922593mm" cy="27.300069mm" r="1.649869mm" fill="none"/>
  <line x1="198.222332mm" y1="27.300069mm" x2="191.622855mm" y2="27.300069mm" />
  <line x1="194.922593mm" y1="24.000330mm" x2="194.922593mm" y2="30.599807mm" />
  <text x="196mm" y="25mm" font-size="24">
   3.3
  </text>
  <circle cx="232.639978mm" cy="63.529989mm" r="1.650033mm" fill="none"/>
  <line x1="235.940044mm" y1="63.529989mm" x2="229.339912mm" y2="63.529989mm" />
  <line x1="232.639978mm" y1="60.229923mm" x2="232.639978mm" y2="66.830055mm" />
  <text x="234mm" y="61mm" font-size="24">
   3.3
  </text>
  <circle cx="232.639978mm" cy="20.349989mm" r="1.650033mm" fill="none"/>
  <line x1="235.940044mm" y1="20.349989mm" x2="229.339912mm" y2="20.349989mm" />
  <line x1="232.639978mm" y1="17.049923mm" x2="232.639978mm" y2="23.650055mm" />
  <text x="234mm" y="18mm" font-size="24">
   3.3
  </text>
  <circle cx="264.579648mm" cy="6.650027mm" r="1.650034mm" fill="none"/>
  <line x1="267.879716mm" y1="6.650027mm" x2="261.279580mm" y2="6.650027mm" />
  <line x1="264.579648mm" y1="3.349959mm" x2="264.579648mm" y2="9.950094mm" />
  <text x="266mm" y="4mm" font-size="24">
   3.3
  </text>
  <circle cx="281.799648mm" cy="6.650027mm" r="1.650034mm" fill="none"/>
  <line x1="285.099716mm" y1="6.650027mm" x2="278.499580mm" y2="6.650027mm" />
  <line x1="281.799648mm" y1="3.349959mm" x2="281.799648mm" y2="9.950094mm" />
  <text x="283mm" y="4mm" font-size="24">
   3.3
  </text>
 </g>
</svg>
