<?xml version="1.0"?>
<svg xmlns="http://www.w3.org/2000/svg" version="1.1" height="253mm" width="354mm" >
 <g style="fill-opacity:1.0; stroke:black; stroke-width:1;">
  <line x1="0.000000mm" y1="25.000000mm" x2="0.000000mm" y2="25.000000mm" />
  <line x1="0.000000mm" y1="25.000000mm" x2="0.000000mm" y2="218.000000mm" />
  <line x1="0.000000mm" y1="218.000000mm" x2="0.095000mm" y2="220.178900mm" />
  <line x1="0.095000mm" y1="220.178900mm" x2="0.380000mm" y2="222.341000mm" />
  <line x1="0.380000mm" y1="222.341000mm" x2="0.852000mm" y2="224.470000mm" />
  <line x1="0.852000mm" y1="224.470000mm" x2="1.508000mm" y2="226.551000mm" />
  <line x1="1.508000mm" y1="226.551000mm" x2="2.342000mm" y2="228.565000mm" />
  <line x1="2.342000mm" y1="228.565000mm" x2="3.349000mm" y2="230.500000mm" />
  <line x1="3.349000mm" y1="230.500000mm" x2="4.521000mm" y2="232.339000mm" />
  <line x1="4.521000mm" y1="232.339000mm" x2="5.849000mm" y2="234.070000mm" />
  <line x1="5.849000mm" y1="234.070000mm" x2="7.322000mm" y2="235.678000mm" />
  <line x1="7.322000mm" y1="235.678000mm" x2="8.930000mm" y2="237.151000mm" />
  <line x1="8.930000mm" y1="237.151000mm" x2="10.661000mm" y2="238.479000mm" />
  <line x1="10.661000mm" y1="238.479000mm" x2="12.500000mm" y2="239.651000mm" />
  <line x1="12.500000mm" y1="239.651000mm" x2="14.435000mm" y2="240.658000mm" />
  <line x1="14.435000mm" y1="240.658000mm" x2="16.449000mm" y2="241.492000mm" />
  <line x1="16.449000mm" y1="241.492000mm" x2="18.530000mm" y2="242.148000mm" />
  <line x1="18.530000mm" y1="242.148000mm" x2="20.659000mm" y2="242.620000mm" />
  <line x1="20.659000mm" y1="242.620000mm" x2="22.821000mm" y2="242.905000mm" />
  <line x1="22.821000mm" y1="242.905000mm" x2="25.000000mm" y2="243.000000mm" />
  <line x1="25.000000mm" y1="243.000000mm" x2="319.000000mm" y2="243.000000mm" />
  <line x1="319.000000mm" y1="243.000000mm" x2="321.179000mm" y2="242.905000mm" />
  <line x1="321.179000mm" y1="242.905000mm" x2="323.341000mm" y2="242.620000mm" />
  <line x1="323.341000mm" y1="242.620000mm" x2="325.470000mm" y2="242.148000mm" />
  <line x1="325.470000mm" y1="242.148000mm" x2="327.551000mm" y2="241.492000mm" />
  <line x1="327.551000mm" y1="241.492000mm" x2="329.565000mm" y2="240.658000mm" />
  <line x1="329.565000mm" y1="240.658000mm" x2="331.500000mm" y2="239.651000mm" />
  <line x1="331.500000mm" y1="239.651000mm" x2="333.339000mm" y2="238.479000mm" />
  <line x1="333.339000mm" y1="238.479000mm" x2="335.070000mm" y2="237.151000mm" />
  <line x1="335.070000mm" y1="237.151000mm" x2="336.678000mm" y2="235.678000mm" />
  <line x1="336.678000mm" y1="235.678000mm" x2="338.151000mm" y2="234.070000mm" />
  <line x1="338.151000mm" y1="234.070000mm" x2="339.479000mm" y2="232.339000mm" />
  <line x1="339.479000mm" y1="232.339000mm" x2="340.651000mm" y2="230.500000mm" />
  <line x1="340.651000mm" y1="230.500000mm" x2="341.658000mm" y2="228.565000mm" />
  <line x1="341.658000mm" y1="228.565000mm" x2="342.492000mm" y2="226.551000mm" />
  <line x1="342.492000mm" y1="226.551000mm" x2="343.148000mm" y2="224.470000mm" />
  <line x1="343.148000mm" y1="224.470000mm" x2="343.620000mm" y2="222.341000mm" />
  <line x1="343.620000mm" y1="222.341000mm" x2="343.905000mm" y2="220.178900mm" />
  <line x1="343.905000mm" y1="220.178900mm" x2="344.000000mm" y2="218.000000mm" />
  <line x1="344.000000mm" y1="218.000000mm" x2="344.000000mm" y2="25.000000mm" />
  <line x1="344.000000mm" y1="25.000000mm" x2="343.905000mm" y2="22.821100mm" />
  <line x1="343.905000mm" y1="22.821100mm" x2="343.620000mm" y2="20.659000mm" />
  <line x1="343.620000mm" y1="20.659000mm" x2="343.148000mm" y2="18.530000mm" />
  <line x1="343.148000mm" y1="18.530000mm" x2="342.492000mm" y2="16.449000mm" />
  <line x1="342.492000mm" y1="16.449000mm" x2="341.658000mm" y2="14.435000mm" />
  <line x1="341.658000mm" y1="14.435000mm" x2="340.651000mm" y2="12.500000mm" />
  <line x1="340.651000mm" y1="12.500000mm" x2="339.479000mm" y2="10.661000mm" />
  <line x1="339.479000mm" y1="10.661000mm" x2="338.151000mm" y2="8.930000mm" />
  <line x1="338.151000mm" y1="8.930000mm" x2="336.678000mm" y2="7.322000mm" />
  <line x1="336.678000mm" y1="7.322000mm" x2="335.070000mm" y2="5.849000mm" />
  <line x1="335.070000mm" y1="5.849000mm" x2="333.339000mm" y2="4.521000mm" />
  <line x1="333.339000mm" y1="4.521000mm" x2="331.500000mm" y2="3.349000mm" />
  <line x1="331.500000mm" y1="3.349000mm" x2="329.565000mm" y2="2.342000mm" />
  <line x1="329.565000mm" y1="2.342000mm" x2="327.551000mm" y2="1.508000mm" />
  <line x1="327.551000mm" y1="1.508000mm" x2="325.470000mm" y2="0.852000mm" />
  <line x1="325.470000mm" y1="0.852000mm" x2="323.341000mm" y2="0.380000mm" />
  <line x1="323.341000mm" y1="0.380000mm" x2="321.179000mm" y2="0.095000mm" />
  <line x1="321.179000mm" y1="0.095000mm" x2="319.000000mm" y2="0.000000mm" />
  <line x1="319.000000mm" y1="0.000000mm" x2="25.000000mm" y2="0.000000mm" />
  <line x1="25.000000mm" y1="0.000000mm" x2="22.821000mm" y2="0.095000mm" />
  <line x1="22.821000mm" y1="0.095000mm" x2="20.659000mm" y2="0.380000mm" />
  <line x1="20.659000mm" y1="0.380000mm" x2="18.530000mm" y2="0.852000mm" />
  <line x1="18.530000mm" y1="0.852000mm" x2="16.449000mm" y2="1.508000mm" />
  <line x1="16.449000mm" y1="1.508000mm" x2="14.435000mm" y2="2.342000mm" />
  <line x1="14.435000mm" y1="2.342000mm" x2="12.500000mm" y2="3.349000mm" />
  <line x1="12.500000mm" y1="3.349000mm" x2="10.661000mm" y2="4.521000mm" />
  <line x1="10.661000mm" y1="4.521000mm" x2="8.930000mm" y2="5.849000mm" />
  <line x1="8.930000mm" y1="5.849000mm" x2="7.322000mm" y2="7.322000mm" />
  <line x1="7.322000mm" y1="7.322000mm" x2="5.849000mm" y2="8.930000mm" />
  <line x1="5.849000mm" y1="8.930000mm" x2="4.521000mm" y2="10.661000mm" />
  <line x1="4.521000mm" y1="10.661000mm" x2="3.349000mm" y2="12.500000mm" />
  <line x1="3.349000mm" y1="12.500000mm" x2="2.342000mm" y2="14.435000mm" />
  <line x1="2.342000mm" y1="14.435000mm" x2="1.508000mm" y2="16.449000mm" />
  <line x1="1.508000mm" y1="16.449000mm" x2="0.852000mm" y2="18.530000mm" />
  <line x1="0.852000mm" y1="18.530000mm" x2="0.380000mm" y2="20.659000mm" />
  <line x1="0.380000mm" y1="20.659000mm" x2="0.095000mm" y2="22.821100mm" />
  <line x1="0.095000mm" y1="22.821100mm" x2="0.000000mm" y2="25.000000mm" />
  <circle cx="15.509657mm" cy="77.230023mm" r="1.650039mm" fill="none"/>
  <line x1="18.809736mm" y1="77.230023mm" x2="12.209579mm" y2="77.230023mm" />
  <line x1="15.509657mm" y1="73.929944mm" x2="15.509657mm" y2="80.530102mm" />
  <text x="17mm" y="75mm" font-size="24">
   3.3
  </text>
  <circle cx="24.499767mm" cy="121.499943mm" r="3.999887mm" fill="none"/>
  <line x1="32.499541mm" y1="121.499943mm" x2="16.499993mm" y2="121.499943mm" />
  <line x1="24.499767mm" y1="113.500170mm" x2="24.499767mm" y2="129.499717mm" />
  <text x="28mm" y="117mm" font-size="24">
   8.0
  </text>
  <circle cx="52.489657mm" cy="77.230023mm" r="1.650039mm" fill="none"/>
  <line x1="55.789736mm" y1="77.230023mm" x2="49.189579mm" y2="77.230023mm" />
  <line x1="52.489657mm" y1="73.929944mm" x2="52.489657mm" y2="80.530102mm" />
  <text x="54mm" y="75mm" font-size="24">
   3.3
  </text>
  <circle cx="52.850037mm" cy="227.489798mm" r="1.650231mm" fill="none"/>
  <line x1="56.150499mm" y1="227.489798mm" x2="49.549575mm" y2="227.489798mm" />
  <line x1="52.850037mm" y1="224.189336mm" x2="52.850037mm" y2="230.790260mm" />
  <text x="54mm" y="225mm" font-size="24">
   3.3
  </text>
  <circle cx="52.850037mm" cy="15.509798mm" r="1.650231mm" fill="none"/>
  <line x1="56.150499mm" y1="15.509798mm" x2="49.549575mm" y2="15.509798mm" />
  <line x1="52.850037mm" y1="12.209336mm" x2="52.850037mm" y2="18.810260mm" />
  <text x="54mm" y="13mm" font-size="24">
   3.3
  </text>
  <circle cx="78.360256mm" cy="236.499985mm" r="1.650188mm" fill="none"/>
  <line x1="81.660632mm" y1="236.499985mm" x2="75.059881mm" y2="236.499985mm" />
  <line x1="78.360256mm" y1="233.199610mm" x2="78.360256mm" y2="239.800360mm" />
  <text x="80mm" y="234mm" font-size="24">
   3.3
  </text>
  <circle cx="78.360256mm" cy="6.499985mm" r="1.650188mm" fill="none"/>
  <line x1="81.660632mm" y1="6.499985mm" x2="75.059881mm" y2="6.499985mm" />
  <line x1="78.360256mm" y1="3.199610mm" x2="78.360256mm" y2="9.800360mm" />
  <text x="80mm" y="4mm" font-size="24">
   3.3
  </text>
  <circle cx="102.760256mm" cy="236.499985mm" r="1.650188mm" fill="none"/>
  <line x1="106.060632mm" y1="236.499985mm" x2="99.459881mm" y2="236.499985mm" />
  <line x1="102.760256mm" y1="233.199610mm" x2="102.760256mm" y2="239.800360mm" />
  <text x="104mm" y="234mm" font-size="24">
   3.3
  </text>
  <circle cx="102.760256mm" cy="6.499985mm" r="1.650188mm" fill="none"/>
  <line x1="106.060632mm" y1="6.499985mm" x2="99.459881mm" y2="6.499985mm" />
  <line x1="102.760256mm" y1="3.199610mm" x2="102.760256mm" y2="9.800360mm" />
  <text x="104mm" y="4mm" font-size="24">
   3.3
  </text>
  <line x1="119.881400mm" y1="21.667200mm" x2="119.881400mm" y2="21.667200mm" />
  <line x1="119.881400mm" y1="21.667200mm" x2="119.844600mm" y2="21.177000mm" />
  <line x1="119.844600mm" y1="21.177000mm" x2="119.844600mm" y2="11.177000mm" />
  <line x1="119.844600mm" y1="11.177000mm" x2="119.954100mm" y2="10.697000mm" />
  <line x1="119.954100mm" y1="10.697000mm" x2="120.200000mm" y2="10.271000mm" />
  <line x1="120.200000mm" y1="10.271000mm" x2="120.560500mm" y2="9.937000mm" />
  <line x1="120.560500mm" y1="9.937000mm" x2="121.003700mm" y2="9.723000mm" />
  <line x1="121.003700mm" y1="9.723000mm" x2="121.490000mm" y2="9.650000mm" />
  <line x1="121.490000mm" y1="9.650000mm" x2="121.976300mm" y2="9.723000mm" />
  <line x1="121.976300mm" y1="9.723000mm" x2="122.419500mm" y2="9.937000mm" />
  <line x1="122.419500mm" y1="9.937000mm" x2="122.780000mm" y2="10.271000mm" />
  <line x1="122.780000mm" y1="10.271000mm" x2="123.025900mm" y2="10.697000mm" />
  <line x1="123.025900mm" y1="10.697000mm" x2="123.135400mm" y2="11.177000mm" />
  <line x1="123.135400mm" y1="11.177000mm" x2="123.135400mm" y2="21.177000mm" />
  <line x1="123.135400mm" y1="21.177000mm" x2="123.098600mm" y2="21.667200mm" />
  <line x1="123.098600mm" y1="21.667200mm" x2="122.918900mm" y2="22.125000mm" />
  <line x1="122.918900mm" y1="22.125000mm" x2="122.612300mm" y2="22.509500mm" />
  <line x1="122.612300mm" y1="22.509500mm" x2="122.205900mm" y2="22.786600mm" />
  <line x1="122.205900mm" y1="22.786600mm" x2="121.735900mm" y2="22.931600mm" />
  <line x1="121.735900mm" y1="22.931600mm" x2="121.244100mm" y2="22.931600mm" />
  <line x1="121.244100mm" y1="22.931600mm" x2="120.774100mm" y2="22.786600mm" />
  <line x1="120.774100mm" y1="22.786600mm" x2="120.367700mm" y2="22.509500mm" />
  <line x1="120.367700mm" y1="22.509500mm" x2="120.061100mm" y2="22.125000mm" />
  <line x1="120.061100mm" y1="22.125000mm" x2="119.881400mm" y2="21.667200mm" />
  <circle cx="132.340012mm" cy="81.499997mm" r="1.650009mm" fill="none"/>
  <line x1="135.640030mm" y1="81.499997mm" x2="129.039993mm" y2="81.499997mm" />
  <line x1="132.340012mm" y1="78.199978mm" x2="132.340012mm" y2="84.800016mm" />
  <text x="133mm" y="79mm" font-size="24">
   3.3
  </text>
  <circle cx="138.990093mm" cy="236.699785mm" r="1.650195mm" fill="none"/>
  <line x1="142.290483mm" y1="236.699785mm" x2="135.689703mm" y2="236.699785mm" />
  <line x1="138.990093mm" y1="233.399395mm" x2="138.990093mm" y2="240.000175mm" />
  <text x="140mm" y="235mm" font-size="24">
   3.3
  </text>
  <circle cx="138.990034mm" cy="184.299976mm" r="1.649997mm" fill="none"/>
  <line x1="142.290028mm" y1="184.299976mm" x2="135.690040mm" y2="184.299976mm" />
  <line x1="138.990034mm" y1="180.999982mm" x2="138.990034mm" y2="187.599970mm" />
  <text x="140mm" y="182mm" font-size="24">
   3.3
  </text>
  <circle cx="163.990078mm" cy="236.699799mm" r="1.650214mm" fill="none"/>
  <line x1="167.290506mm" y1="236.699799mm" x2="160.689651mm" y2="236.699799mm" />
  <line x1="163.990078mm" y1="233.399372mm" x2="163.990078mm" y2="240.000226mm" />
  <text x="165mm" y="235mm" font-size="24">
   3.3
  </text>
  <circle cx="163.990020mm" cy="184.299990mm" r="1.650016mm" fill="none"/>
  <line x1="167.290051mm" y1="184.299990mm" x2="160.689988mm" y2="184.299990mm" />
  <line x1="163.990020mm" y1="180.999958mm" x2="163.990020mm" y2="187.600021mm" />
  <text x="165mm" y="182mm" font-size="24">
   3.3
  </text>
  <circle cx="168.490016mm" cy="210.500011mm" r="2.500006mm" fill="none"/>
  <line x1="173.490028mm" y1="210.500011mm" x2="163.490005mm" y2="210.500011mm" />
  <line x1="168.490016mm" y1="205.500000mm" x2="168.490016mm" y2="215.500023mm" />
  <text x="170mm" y="208mm" font-size="24">
   5.0
  </text>
  <circle cx="173.660008mm" cy="81.499994mm" r="1.650006mm" fill="none"/>
  <line x1="176.960020mm" y1="81.499994mm" x2="170.359995mm" y2="81.499994mm" />
  <line x1="173.660008mm" y1="78.199981mm" x2="173.660008mm" y2="84.800006mm" />
  <text x="175mm" y="79mm" font-size="24">
   3.3
  </text>
  <circle cx="189.499985mm" cy="26.500004mm" r="1.500004mm" fill="none"/>
  <line x1="192.499992mm" y1="26.500004mm" x2="186.499977mm" y2="26.500004mm" />
  <line x1="189.499985mm" y1="23.499996mm" x2="189.499985mm" y2="29.500012mm" />
  <text x="190mm" y="24mm" font-size="24">
   3.0
  </text>
  <circle cx="189.499854mm" cy="20.700061mm" r="1.500061mm" fill="none"/>
  <line x1="192.499976mm" y1="20.700061mm" x2="186.499731mm" y2="20.700061mm" />
  <line x1="189.499854mm" y1="17.699939mm" x2="189.499854mm" y2="23.700184mm" />
  <text x="190mm" y="19mm" font-size="24">
   3.0
  </text>
  <circle cx="194.500239mm" cy="16.399806mm" r="1.500223mm" fill="none"/>
  <line x1="197.500684mm" y1="16.399806mm" x2="191.499793mm" y2="16.399806mm" />
  <line x1="194.500239mm" y1="13.399361mm" x2="194.500239mm" y2="19.400252mm" />
  <text x="196mm" y="14mm" font-size="24">
   3.0
  </text>
  <circle cx="194.500239mm" cy="7.799806mm" r="1.500223mm" fill="none"/>
  <line x1="197.500684mm" y1="7.799806mm" x2="191.499793mm" y2="7.799806mm" />
  <line x1="194.500239mm" y1="4.799361mm" x2="194.500239mm" y2="10.800252mm" />
  <text x="196mm" y="6mm" font-size="24">
   3.0
  </text>
  <circle cx="203.240054mm" cy="221.000046mm" r="1.650063mm" fill="none"/>
  <line x1="206.540180mm" y1="221.000046mm" x2="199.939928mm" y2="221.000046mm" />
  <line x1="203.240054mm" y1="217.699920mm" x2="203.240054mm" y2="224.300172mm" />
  <text x="204mm" y="219mm" font-size="24">
   3.3
  </text>
  <circle cx="203.240034mm" cy="32.999976mm" r="1.649997mm" fill="none"/>
  <line x1="206.540028mm" y1="32.999976mm" x2="199.940040mm" y2="32.999976mm" />
  <line x1="203.240034mm" y1="29.699982mm" x2="203.240034mm" y2="36.299970mm" />
  <text x="204mm" y="31mm" font-size="24">
   3.3
  </text>
  <circle cx="221.600002mm" cy="198.499970mm" r="1.499996mm" fill="none"/>
  <line x1="224.599995mm" y1="198.499970mm" x2="218.600009mm" y2="198.499970mm" />
  <line x1="221.600002mm" y1="195.499978mm" x2="221.600002mm" y2="201.499963mm" />
  <text x="223mm" y="196mm" font-size="24">
   3.0
  </text>
  <circle cx="221.600002mm" cy="73.079970mm" r="1.499996mm" fill="none"/>
  <line x1="224.599995mm" y1="73.079970mm" x2="218.600009mm" y2="73.079970mm" />
  <line x1="221.600002mm" y1="70.079978mm" x2="221.600002mm" y2="76.079963mm" />
  <text x="223mm" y="71mm" font-size="24">
   3.0
  </text>
  <circle cx="224.499991mm" cy="206.000026mm" r="1.999994mm" fill="none"/>
  <line x1="228.499978mm" y1="206.000026mm" x2="220.500004mm" y2="206.000026mm" />
  <line x1="224.499991mm" y1="202.000039mm" x2="224.499991mm" y2="210.000013mm" />
  <text x="226mm" y="204mm" font-size="24">
   4.0
  </text>
  <circle cx="224.499991mm" cy="58.580026mm" r="1.999994mm" fill="none"/>
  <line x1="228.499978mm" y1="58.580026mm" x2="220.500004mm" y2="58.580026mm" />
  <line x1="224.499991mm" y1="54.580039mm" x2="224.499991mm" y2="62.580013mm" />
  <text x="226mm" y="56mm" font-size="24">
   4.0
  </text>
  <circle cx="227.400002mm" cy="198.499970mm" r="1.499996mm" fill="none"/>
  <line x1="230.399995mm" y1="198.499970mm" x2="224.400009mm" y2="198.499970mm" />
  <line x1="227.400002mm" y1="195.499978mm" x2="227.400002mm" y2="201.499963mm" />
  <text x="228mm" y="196mm" font-size="24">
   3.0
  </text>
  <circle cx="227.400002mm" cy="73.079970mm" r="1.499996mm" fill="none"/>
  <line x1="230.399995mm" y1="73.079970mm" x2="224.400009mm" y2="73.079970mm" />
  <line x1="227.400002mm" y1="70.079978mm" x2="227.400002mm" y2="76.079963mm" />
  <text x="228mm" y="71mm" font-size="24">
   3.0
  </text>
  <circle cx="227.640054mm" cy="221.000046mm" r="1.650063mm" fill="none"/>
  <line x1="230.940180mm" y1="221.000046mm" x2="224.339928mm" y2="221.000046mm" />
  <line x1="227.640054mm" y1="217.699920mm" x2="227.640054mm" y2="224.300172mm" />
  <text x="229mm" y="219mm" font-size="24">
   3.3
  </text>
  <circle cx="227.640034mm" cy="32.999976mm" r="1.649997mm" fill="none"/>
  <line x1="230.940028mm" y1="32.999976mm" x2="224.340040mm" y2="32.999976mm" />
  <line x1="227.640034mm" y1="29.699982mm" x2="227.640034mm" y2="36.299970mm" />
  <text x="229mm" y="31mm" font-size="24">
   3.3
  </text>
  <circle cx="231.700029mm" cy="203.499972mm" r="1.499996mm" fill="none"/>
  <line x1="234.700021mm" y1="203.499972mm" x2="228.700037mm" y2="203.499972mm" />
  <line x1="231.700029mm" y1="200.499981mm" x2="231.700029mm" y2="206.499964mm" />
  <text x="233mm" y="201mm" font-size="24">
   3.0
  </text>
  <circle cx="231.700029mm" cy="78.079972mm" r="1.499996mm" fill="none"/>
  <line x1="234.700021mm" y1="78.079972mm" x2="228.700037mm" y2="78.079972mm" />
  <line x1="231.700029mm" y1="75.079981mm" x2="231.700029mm" y2="81.079964mm" />
  <text x="233mm" y="76mm" font-size="24">
   3.0
  </text>
  <circle cx="234.599982mm" cy="68.080007mm" r="2.500012mm" fill="none"/>
  <line x1="239.600005mm" y1="68.080007mm" x2="229.599958mm" y2="68.080007mm" />
  <line x1="234.599982mm" y1="63.079984mm" x2="234.599982mm" y2="73.080030mm" />
  <text x="237mm" y="65mm" font-size="24">
   5.0
  </text>
  <circle cx="237.500029mm" cy="203.499972mm" r="1.499996mm" fill="none"/>
  <line x1="240.500021mm" y1="203.499972mm" x2="234.500037mm" y2="203.499972mm" />
  <line x1="237.500029mm" y1="200.499981mm" x2="237.500029mm" y2="206.499964mm" />
  <text x="239mm" y="201mm" font-size="24">
   3.0
  </text>
  <circle cx="237.500029mm" cy="78.079972mm" r="1.499996mm" fill="none"/>
  <line x1="240.500021mm" y1="78.079972mm" x2="234.500037mm" y2="78.079972mm" />
  <line x1="237.500029mm" y1="75.079981mm" x2="237.500029mm" y2="81.079964mm" />
  <text x="239mm" y="76mm" font-size="24">
   3.0
  </text>
  <circle cx="253.150256mm" cy="227.489985mm" r="1.650188mm" fill="none"/>
  <line x1="256.450632mm" y1="227.489985mm" x2="249.849881mm" y2="227.489985mm" />
  <line x1="253.150256mm" y1="224.189610mm" x2="253.150256mm" y2="230.790360mm" />
  <text x="254mm" y="225mm" font-size="24">
   3.3
  </text>
  <circle cx="253.150256mm" cy="15.509985mm" r="1.650188mm" fill="none"/>
  <line x1="256.450632mm" y1="15.509985mm" x2="249.849881mm" y2="15.509985mm" />
  <line x1="253.150256mm" y1="12.209610mm" x2="253.150256mm" y2="18.810360mm" />
  <text x="254mm" y="13mm" font-size="24">
   3.3
  </text>
  <circle cx="282.499767mm" cy="121.499943mm" r="3.999887mm" fill="none"/>
  <line x1="290.499541mm" y1="121.499943mm" x2="274.499993mm" y2="121.499943mm" />
  <line x1="282.499767mm" y1="113.500170mm" x2="282.499767mm" y2="129.499717mm" />
  <text x="286mm" y="117mm" font-size="24">
   8.0
  </text>
  <circle cx="281.309657mm" cy="77.230023mm" r="1.650039mm" fill="none"/>
  <line x1="284.609736mm" y1="77.230023mm" x2="278.009579mm" y2="77.230023mm" />
  <line x1="281.309657mm" y1="73.929944mm" x2="281.309657mm" y2="80.530102mm" />
  <text x="282mm" y="75mm" font-size="24">
   3.3
  </text>
  <circle cx="328.489657mm" cy="77.230023mm" r="1.650039mm" fill="none"/>
  <line x1="331.789736mm" y1="77.230023mm" x2="325.189579mm" y2="77.230023mm" />
  <line x1="328.489657mm" y1="73.929944mm" x2="328.489657mm" y2="80.530102mm" />
  <text x="330mm" y="75mm" font-size="24">
   3.3
  </text>
 </g>
</svg>
