<?xml version="1.0"?>
<svg xmlns="http://www.w3.org/2000/svg" version="1.1" height="94mm" width="312mm" >
 <g style="fill-opacity:1.0; stroke:black; stroke-width:1;">
  <line x1="0.000000mm" y1="0.000000mm" x2="0.000000mm" y2="0.000000mm" />
  <line x1="0.000000mm" y1="0.000000mm" x2="0.000000mm" y2="83.880000mm" />
  <line x1="0.000000mm" y1="83.880000mm" x2="5.158620mm" y2="83.880000mm" />
  <line x1="5.158620mm" y1="83.880000mm" x2="5.158620mm" y2="33.880000mm" />
  <line x1="5.158620mm" y1="33.880000mm" x2="8.141380mm" y2="33.880000mm" />
  <line x1="8.141380mm" y1="33.880000mm" x2="8.141380mm" y2="83.880000mm" />
  <line x1="8.141380mm" y1="83.880000mm" x2="240.490000mm" y2="83.880000mm" />
  <line x1="240.490000mm" y1="83.880000mm" x2="240.490000mm" y2="80.632260mm" />
  <line x1="240.490000mm" y1="80.632260mm" x2="240.572000mm" y2="80.143540mm" />
  <line x1="240.572000mm" y1="80.143540mm" x2="240.733000mm" y2="79.674910mm" />
  <line x1="240.733000mm" y1="79.674910mm" x2="240.969000mm" y2="79.239160mm" />
  <line x1="240.969000mm" y1="79.239160mm" x2="241.273000mm" y2="78.848160mm" />
  <line x1="241.273000mm" y1="78.848160mm" x2="241.637000mm" y2="78.512580mm" />
  <line x1="241.637000mm" y1="78.512580mm" x2="242.052000mm" y2="78.241580mm" />
  <line x1="242.052000mm" y1="78.241580mm" x2="242.506000mm" y2="78.042550mm" />
  <line x1="242.506000mm" y1="78.042550mm" x2="242.986000mm" y2="77.920920mm" />
  <line x1="242.986000mm" y1="77.920920mm" x2="243.480000mm" y2="77.880000mm" />
  <line x1="243.480000mm" y1="77.880000mm" x2="243.974000mm" y2="77.920920mm" />
  <line x1="243.974000mm" y1="77.920920mm" x2="244.454000mm" y2="78.042550mm" />
  <line x1="244.454000mm" y1="78.042550mm" x2="244.908000mm" y2="78.241580mm" />
  <line x1="244.908000mm" y1="78.241580mm" x2="245.323000mm" y2="78.512580mm" />
  <line x1="245.323000mm" y1="78.512580mm" x2="245.687000mm" y2="78.848160mm" />
  <line x1="245.687000mm" y1="78.848160mm" x2="245.992000mm" y2="79.239160mm" />
  <line x1="245.992000mm" y1="79.239160mm" x2="246.227000mm" y2="79.674910mm" />
  <line x1="246.227000mm" y1="79.674910mm" x2="246.388000mm" y2="80.143540mm" />
  <line x1="246.388000mm" y1="80.143540mm" x2="246.470000mm" y2="80.632260mm" />
  <line x1="246.470000mm" y1="80.632260mm" x2="246.470000mm" y2="83.880000mm" />
  <line x1="246.470000mm" y1="83.880000mm" x2="252.295000mm" y2="83.880000mm" />
  <line x1="252.295000mm" y1="83.880000mm" x2="252.295000mm" y2="81.638930mm" />
  <line x1="252.295000mm" y1="81.638930mm" x2="252.410000mm" y2="81.170790mm" />
  <line x1="252.410000mm" y1="81.170790mm" x2="252.634000mm" y2="80.743870mm" />
  <line x1="252.634000mm" y1="80.743870mm" x2="252.954000mm" y2="80.382980mm" />
  <line x1="252.954000mm" y1="80.382980mm" x2="253.351000mm" y2="80.109090mm" />
  <line x1="253.351000mm" y1="80.109090mm" x2="253.801000mm" y2="79.938120mm" />
  <line x1="253.801000mm" y1="79.938120mm" x2="254.280000mm" y2="79.880000mm" />
  <line x1="254.280000mm" y1="79.880000mm" x2="254.759000mm" y2="79.938120mm" />
  <line x1="254.759000mm" y1="79.938120mm" x2="255.209000mm" y2="80.109090mm" />
  <line x1="255.209000mm" y1="80.109090mm" x2="255.606000mm" y2="80.382980mm" />
  <line x1="255.606000mm" y1="80.382980mm" x2="255.926000mm" y2="80.743870mm" />
  <line x1="255.926000mm" y1="80.743870mm" x2="256.150000mm" y2="81.170790mm" />
  <line x1="256.150000mm" y1="81.170790mm" x2="256.265000mm" y2="81.638930mm" />
  <line x1="256.265000mm" y1="81.638930mm" x2="256.265000mm" y2="83.880000mm" />
  <line x1="256.265000mm" y1="83.880000mm" x2="302.000000mm" y2="83.880000mm" />
  <line x1="302.000000mm" y1="83.880000mm" x2="302.000000mm" y2="25.000000mm" />
  <line x1="302.000000mm" y1="25.000000mm" x2="301.905000mm" y2="22.821100mm" />
  <line x1="301.905000mm" y1="22.821100mm" x2="301.620000mm" y2="20.658800mm" />
  <line x1="301.620000mm" y1="20.658800mm" x2="301.148000mm" y2="18.529500mm" />
  <line x1="301.148000mm" y1="18.529500mm" x2="300.492000mm" y2="16.449500mm" />
  <line x1="300.492000mm" y1="16.449500mm" x2="299.658000mm" y2="14.434500mm" />
  <line x1="299.658000mm" y1="14.434500mm" x2="298.651000mm" y2="12.500000mm" />
  <line x1="298.651000mm" y1="12.500000mm" x2="297.479000mm" y2="10.660600mm" />
  <line x1="297.479000mm" y1="10.660600mm" x2="296.151000mm" y2="8.930300mm" />
  <line x1="296.151000mm" y1="8.930300mm" x2="294.678000mm" y2="7.322300mm" />
  <line x1="294.678000mm" y1="7.322300mm" x2="293.070000mm" y2="5.848900mm" />
  <line x1="293.070000mm" y1="5.848900mm" x2="291.339000mm" y2="4.521200mm" />
  <line x1="291.339000mm" y1="4.521200mm" x2="289.500000mm" y2="3.349400mm" />
  <line x1="289.500000mm" y1="3.349400mm" x2="287.565000mm" y2="2.342300mm" />
  <line x1="287.565000mm" y1="2.342300mm" x2="285.551000mm" y2="1.507700mm" />
  <line x1="285.551000mm" y1="1.507700mm" x2="283.470000mm" y2="0.851900mm" />
  <line x1="283.470000mm" y1="0.851900mm" x2="281.341000mm" y2="0.379800mm" />
  <line x1="281.341000mm" y1="0.379800mm" x2="279.179000mm" y2="0.095100mm" />
  <line x1="279.179000mm" y1="0.095100mm" x2="277.000000mm" y2="0.000000mm" />
  <line x1="277.000000mm" y1="0.000000mm" x2="0.000000mm" y2="0.000000mm" />
  <circle cx="6.649983mm" cy="24.119983mm" r="1.649995mm" fill="none"/>
  <line x1="9.949972mm" y1="24.119983mm" x2="3.349993mm" y2="24.119983mm" />
  <line x1="6.649983mm" y1="20.819994mm" x2="6.649983mm" y2="27.419973mm" />
  <text x="8mm" y="22mm" font-size="24">
   3.3
  </text>
  <circle cx="6.649983mm" cy="6.899983mm" r="1.649995mm" fill="none"/>
  <line x1="9.949972mm" y1="6.899983mm" x2="3.349993mm" y2="6.899983mm" />
  <line x1="6.649983mm" y1="3.599994mm" x2="6.649983mm" y2="10.199973mm" />
  <text x="8mm" y="5mm" font-size="24">
   3.3
  </text>
  <circle cx="20.199986mm" cy="77.229986mm" r="1.649997mm" fill="none"/>
  <line x1="23.499980mm" y1="77.229986mm" x2="16.899992mm" y2="77.229986mm" />
  <line x1="20.199986mm" y1="73.929992mm" x2="20.199986mm" y2="80.529980mm" />
  <text x="21mm" y="75mm" font-size="24">
   3.3
  </text>
  <circle cx="37.419986mm" cy="77.229986mm" r="1.649997mm" fill="none"/>
  <line x1="40.719980mm" y1="77.229986mm" x2="34.119992mm" y2="77.229986mm" />
  <line x1="37.419986mm" y1="73.929992mm" x2="37.419986mm" y2="80.529980mm" />
  <text x="39mm" y="75mm" font-size="24">
   3.3
  </text>
  <circle cx="72.000023mm" cy="39.579963mm" r="28.499974mm" fill="none"/>
  <line x1="128.999970mm" y1="39.579963mm" x2="15.000075mm" y2="39.579963mm" />
  <line x1="72.000023mm" y1="-17.419984mm" x2="72.000023mm" y2="96.579910mm" />
  <text x="100mm" y="11mm" font-size="24">
   57.0
  </text>
  <circle cx="47.000019mm" cy="64.580019mm" r="2.199964mm" fill="none"/>
  <line x1="51.399947mm" y1="64.580019mm" x2="42.600091mm" y2="64.580019mm" />
  <line x1="47.000019mm" y1="60.180091mm" x2="47.000019mm" y2="68.979947mm" />
  <text x="49mm" y="62mm" font-size="24">
   4.4
  </text>
  <circle cx="47.000019mm" cy="14.580019mm" r="2.199964mm" fill="none"/>
  <line x1="51.399947mm" y1="14.580019mm" x2="42.600091mm" y2="14.580019mm" />
  <line x1="47.000019mm" y1="10.180091mm" x2="47.000019mm" y2="18.979947mm" />
  <text x="49mm" y="12mm" font-size="24">
   4.4
  </text>
  <circle cx="97.000019mm" cy="64.580019mm" r="2.199964mm" fill="none"/>
  <line x1="101.399947mm" y1="64.580019mm" x2="92.600091mm" y2="64.580019mm" />
  <line x1="97.000019mm" y1="60.180091mm" x2="97.000019mm" y2="68.979947mm" />
  <text x="99mm" y="62mm" font-size="24">
   4.4
  </text>
  <circle cx="97.000019mm" cy="14.580019mm" r="2.199964mm" fill="none"/>
  <line x1="101.399947mm" y1="14.580019mm" x2="92.600091mm" y2="14.580019mm" />
  <line x1="97.000019mm" y1="10.180091mm" x2="97.000019mm" y2="18.979947mm" />
  <text x="99mm" y="12mm" font-size="24">
   4.4
  </text>
  <circle cx="194.922593mm" cy="26.180068mm" r="1.649869mm" fill="none"/>
  <line x1="198.222332mm" y1="26.180068mm" x2="191.622855mm" y2="26.180068mm" />
  <line x1="194.922593mm" y1="22.880330mm" x2="194.922593mm" y2="29.479807mm" />
  <text x="196mm" y="24mm" font-size="24">
   3.3
  </text>
  <circle cx="264.579976mm" cy="77.230237mm" r="1.650200mm" fill="none"/>
  <line x1="267.880376mm" y1="77.230237mm" x2="261.279576mm" y2="77.230237mm" />
  <line x1="264.579976mm" y1="73.929837mm" x2="264.579976mm" y2="80.530637mm" />
  <text x="266mm" y="75mm" font-size="24">
   3.3
  </text>
  <circle cx="281.799976mm" cy="77.230237mm" r="1.650200mm" fill="none"/>
  <line x1="285.100376mm" y1="77.230237mm" x2="278.499576mm" y2="77.230237mm" />
  <line x1="281.799976mm" y1="73.929837mm" x2="281.799976mm" y2="80.530637mm" />
  <text x="283mm" y="75mm" font-size="24">
   3.3
  </text>
 </g>
</svg>
