  0
SECTION
  2
BLOCKS
  0
ENDSEC
  0
SECTION
  2
ENTITIES
  0
LINE
  8
0
 10
0
 20
-1.14441e-07
 11
5.15862
 21
-1.14441e-07
  0
LINE
  8
0
 10
5.15862
 20
-1.14441e-07
 11
5.15862
 21
50
  0
LINE
  8
0
 10
5.15862
 20
50
 11
8.14138
 21
50
  0
LINE
  8
0
 10
8.14138
 20
50
 11
8.14138
 21
-1.14441e-07
  0
LINE
  8
0
 10
8.14138
 20
-1.14441e-07
 11
240.49
 21
-1.14441e-07
  0
LINE
  8
0
 10
240.49
 20
-1.14441e-07
 11
240.49
 21
3.24774
  0
LINE
  8
0
 10
240.49
 20
3.24774
 11
240.572
 21
3.73646
  0
LINE
  8
0
 10
240.572
 20
3.73646
 11
240.733
 21
4.20509
  0
LINE
  8
0
 10
240.733
 20
4.20509
 11
240.969
 21
4.64084
  0
LINE
  8
0
 10
240.969
 20
4.64084
 11
241.273
 21
5.03184
  0
LINE
  8
0
 10
241.273
 20
5.03184
 11
241.637
 21
5.36742
  0
LINE
  8
0
 10
241.637
 20
5.36742
 11
242.052
 21
5.63842
  0
LINE
  8
0
 10
242.052
 20
5.63842
 11
242.506
 21
5.83745
  0
LINE
  8
0
 10
242.506
 20
5.83745
 11
242.986
 21
5.95908
  0
LINE
  8
0
 10
242.986
 20
5.95908
 11
243.48
 21
6
  0
LINE
  8
0
 10
243.48
 20
6
 11
243.974
 21
5.95908
  0
LINE
  8
0
 10
243.974
 20
5.95908
 11
244.454
 21
5.83745
  0
LINE
  8
0
 10
244.454
 20
5.83745
 11
244.908
 21
5.63842
  0
LINE
  8
0
 10
244.908
 20
5.63842
 11
245.323
 21
5.36742
  0
LINE
  8
0
 10
245.323
 20
5.36742
 11
245.687
 21
5.03184
  0
LINE
  8
0
 10
245.687
 20
5.03184
 11
245.992
 21
4.64084
  0
LINE
  8
0
 10
245.992
 20
4.64084
 11
246.227
 21
4.20509
  0
LINE
  8
0
 10
246.227
 20
4.20509
 11
246.388
 21
3.73646
  0
LINE
  8
0
 10
246.388
 20
3.73646
 11
246.47
 21
3.24774
  0
LINE
  8
0
 10
246.47
 20
3.24774
 11
246.47
 21
-1.14441e-07
  0
LINE
  8
0
 10
246.47
 20
-1.14441e-07
 11
252.295
 21
-1.14441e-07
  0
LINE
  8
0
 10
252.295
 20
-1.14441e-07
 11
252.295
 21
2.24107
  0
LINE
  8
0
 10
252.295
 20
2.24107
 11
252.41
 21
2.70921
  0
LINE
  8
0
 10
252.41
 20
2.70921
 11
252.634
 21
3.13613
  0
LINE
  8
0
 10
252.634
 20
3.13613
 11
252.954
 21
3.49702
  0
LINE
  8
0
 10
252.954
 20
3.49702
 11
253.351
 21
3.77091
  0
LINE
  8
0
 10
253.351
 20
3.77091
 11
253.801
 21
3.94188
  0
LINE
  8
0
 10
253.801
 20
3.94188
 11
254.28
 21
4
  0
LINE
  8
0
 10
254.28
 20
4
 11
254.759
 21
3.94188
  0
LINE
  8
0
 10
254.759
 20
3.94188
 11
255.209
 21
3.77091
  0
LINE
  8
0
 10
255.209
 20
3.77091
 11
255.606
 21
3.49702
  0
LINE
  8
0
 10
255.606
 20
3.49702
 11
255.926
 21
3.13613
  0
LINE
  8
0
 10
255.926
 20
3.13613
 11
256.15
 21
2.70921
  0
LINE
  8
0
 10
256.15
 20
2.70921
 11
256.265
 21
2.24107
  0
LINE
  8
0
 10
256.265
 20
2.24107
 11
256.265
 21
-1.14441e-07
  0
LINE
  8
0
 10
256.265
 20
-1.14441e-07
 11
302
 21
-1.14441e-07
  0
LINE
  8
0
 10
302
 20
-1.14441e-07
 11
302
 21
58.88
  0
LINE
  8
0
 10
302
 20
58.88
 11
301.905
 21
61.0589
  0
LINE
  8
0
 10
301.905
 20
61.0589
 11
301.62
 21
63.2212
  0
LINE
  8
0
 10
301.62
 20
63.2212
 11
301.148
 21
65.3505
  0
LINE
  8
0
 10
301.148
 20
65.3505
 11
300.492
 21
67.4305
  0
LINE
  8
0
 10
300.492
 20
67.4305
 11
299.658
 21
69.4455
  0
LINE
  8
0
 10
299.658
 20
69.4455
 11
298.651
 21
71.38
  0
LINE
  8
0
 10
298.651
 20
71.38
 11
297.479
 21
73.2194
  0
LINE
  8
0
 10
297.479
 20
73.2194
 11
296.151
 21
74.9497
  0
LINE
  8
0
 10
296.151
 20
74.9497
 11
294.678
 21
76.5577
  0
LINE
  8
0
 10
294.678
 20
76.5577
 11
293.07
 21
78.0311
  0
LINE
  8
0
 10
293.07
 20
78.0311
 11
291.339
 21
79.3588
  0
LINE
  8
0
 10
291.339
 20
79.3588
 11
289.5
 21
80.5306
  0
LINE
  8
0
 10
289.5
 20
80.5306
 11
287.565
 21
81.5377
  0
LINE
  8
0
 10
287.565
 20
81.5377
 11
285.551
 21
82.3723
  0
LINE
  8
0
 10
285.551
 20
82.3723
 11
283.47
 21
83.0281
  0
LINE
  8
0
 10
283.47
 20
83.0281
 11
281.341
 21
83.5002
  0
LINE
  8
0
 10
281.341
 20
83.5002
 11
279.179
 21
83.7849
  0
LINE
  8
0
 10
279.179
 20
83.7849
 11
277
 21
83.88
  0
LINE
  8
0
 10
277
 20
83.88
 11
0
 21
83.88
  0
LINE
  8
0
 10
0
 20
83.88
 11
0
 21
-1.14441e-07
  0
LINE
  8
0
 10
5.00461
 20
59.8833
 11
5.11406
 21
60.3628
  0
LINE
  8
0
 10
5.11406
 20
60.3628
 11
5.35998
 21
60.7888
  0
LINE
  8
0
 10
5.35998
 20
60.7888
 11
5.72052
 21
61.1233
  0
LINE
  8
0
 10
5.72052
 20
61.1233
 11
6.16365
 21
61.3367
  0
LINE
  8
0
 10
6.16365
 20
61.3367
 11
6.65
 21
61.41
  0
LINE
  8
0
 10
6.65
 20
61.41
 11
7.13635
 21
61.3367
  0
LINE
  8
0
 10
7.13635
 20
61.3367
 11
7.57948
 21
61.1233
  0
LINE
  8
0
 10
7.57948
 20
61.1233
 11
7.94002
 21
60.7888
  0
LINE
  8
0
 10
7.94002
 20
60.7888
 11
8.18594
 21
60.3628
  0
LINE
  8
0
 10
8.18594
 20
60.3628
 11
8.29539
 21
59.8833
  0
LINE
  8
0
 10
8.29539
 20
59.8833
 11
8.25863
 21
59.3928
  0
LINE
  8
0
 10
8.25863
 20
59.3928
 11
8.07894
 21
58.935
  0
LINE
  8
0
 10
8.07894
 20
58.935
 11
7.77228
 21
58.5505
  0
LINE
  8
0
 10
7.77228
 20
58.5505
 11
7.36591
 21
58.2734
  0
LINE
  8
0
 10
7.36591
 20
58.2734
 11
6.89592
 21
58.1284
  0
LINE
  8
0
 10
6.89592
 20
58.1284
 11
6.40408
 21
58.1284
  0
LINE
  8
0
 10
6.40408
 20
58.1284
 11
5.93409
 21
58.2734
  0
LINE
  8
0
 10
5.93409
 20
58.2734
 11
5.52771
 21
58.5505
  0
LINE
  8
0
 10
5.52771
 20
58.5505
 11
5.22106
 21
58.935
  0
LINE
  8
0
 10
5.22106
 20
58.935
 11
5.04137
 21
59.3928
  0
LINE
  8
0
 10
5.04137
 20
59.3928
 11
5.00461
 21
59.8833
  0
LINE
  8
0
 10
5.00461
 20
77.1033
 11
5.11406
 21
77.5828
  0
LINE
  8
0
 10
5.11406
 20
77.5828
 11
5.35998
 21
78.0088
  0
LINE
  8
0
 10
5.35998
 20
78.0088
 11
5.72052
 21
78.3433
  0
LINE
  8
0
 10
5.72052
 20
78.3433
 11
6.16365
 21
78.5567
  0
LINE
  8
0
 10
6.16365
 20
78.5567
 11
6.65
 21
78.63
  0
LINE
  8
0
 10
6.65
 20
78.63
 11
7.13635
 21
78.5567
  0
LINE
  8
0
 10
7.13635
 20
78.5567
 11
7.57948
 21
78.3433
  0
LINE
  8
0
 10
7.57948
 20
78.3433
 11
7.94002
 21
78.0088
  0
LINE
  8
0
 10
7.94002
 20
78.0088
 11
8.18594
 21
77.5828
  0
LINE
  8
0
 10
8.18594
 20
77.5828
 11
8.29539
 21
77.1033
  0
LINE
  8
0
 10
8.29539
 20
77.1033
 11
8.25863
 21
76.6128
  0
LINE
  8
0
 10
8.25863
 20
76.6128
 11
8.07894
 21
76.155
  0
LINE
  8
0
 10
8.07894
 20
76.155
 11
7.77228
 21
75.7705
  0
LINE
  8
0
 10
7.77228
 20
75.7705
 11
7.36591
 21
75.4934
  0
LINE
  8
0
 10
7.36591
 20
75.4934
 11
6.89592
 21
75.3484
  0
LINE
  8
0
 10
6.89592
 20
75.3484
 11
6.40408
 21
75.3484
  0
LINE
  8
0
 10
6.40408
 20
75.3484
 11
5.93409
 21
75.4934
  0
LINE
  8
0
 10
5.93409
 20
75.4934
 11
5.52771
 21
75.7705
  0
LINE
  8
0
 10
5.52771
 20
75.7705
 11
5.22106
 21
76.155
  0
LINE
  8
0
 10
5.22106
 20
76.155
 11
5.04137
 21
76.6128
  0
LINE
  8
0
 10
5.04137
 20
76.6128
 11
5.00461
 21
77.1033
  0
LINE
  8
0
 10
18.55
 20
6.65
 11
18.6233
 21
7.13635
  0
LINE
  8
0
 10
18.6233
 20
7.13635
 11
18.8367
 21
7.57948
  0
LINE
  8
0
 10
18.8367
 20
7.57948
 11
19.1712
 21
7.94002
  0
LINE
  8
0
 10
19.1712
 20
7.94002
 11
19.5972
 21
8.18594
  0
LINE
  8
0
 10
19.5972
 20
8.18594
 11
20.0767
 21
8.29539
  0
LINE
  8
0
 10
20.0767
 20
8.29539
 11
20.5672
 21
8.25863
  0
LINE
  8
0
 10
20.5672
 20
8.25863
 11
21.025
 21
8.07894
  0
LINE
  8
0
 10
21.025
 20
8.07894
 11
21.4095
 21
7.77228
  0
LINE
  8
0
 10
21.4095
 20
7.77228
 11
21.6866
 21
7.36591
  0
LINE
  8
0
 10
21.6866
 20
7.36591
 11
21.8316
 21
6.89592
  0
LINE
  8
0
 10
21.8316
 20
6.89592
 11
21.8316
 21
6.40408
  0
LINE
  8
0
 10
21.8316
 20
6.40408
 11
21.6866
 21
5.93409
  0
LINE
  8
0
 10
21.6866
 20
5.93409
 11
21.4095
 21
5.52771
  0
LINE
  8
0
 10
21.4095
 20
5.52771
 11
21.025
 21
5.22106
  0
LINE
  8
0
 10
21.025
 20
5.22106
 11
20.5672
 21
5.04137
  0
LINE
  8
0
 10
20.5672
 20
5.04137
 11
20.0767
 21
5.00461
  0
LINE
  8
0
 10
20.0767
 20
5.00461
 11
19.5972
 21
5.11406
  0
LINE
  8
0
 10
19.5972
 20
5.11406
 11
19.1712
 21
5.35998
  0
LINE
  8
0
 10
19.1712
 20
5.35998
 11
18.8367
 21
5.72052
  0
LINE
  8
0
 10
18.8367
 20
5.72052
 11
18.6233
 21
6.16365
  0
LINE
  8
0
 10
18.6233
 20
6.16365
 11
18.55
 21
6.65
  0
LINE
  8
0
 10
35.77
 20
6.65
 11
35.8433
 21
7.13635
  0
LINE
  8
0
 10
35.8433
 20
7.13635
 11
36.0567
 21
7.57948
  0
LINE
  8
0
 10
36.0567
 20
7.57948
 11
36.3912
 21
7.94002
  0
LINE
  8
0
 10
36.3912
 20
7.94002
 11
36.8172
 21
8.18594
  0
LINE
  8
0
 10
36.8172
 20
8.18594
 11
37.2967
 21
8.29539
  0
LINE
  8
0
 10
37.2967
 20
8.29539
 11
37.7872
 21
8.25863
  0
LINE
  8
0
 10
37.7872
 20
8.25863
 11
38.245
 21
8.07894
  0
LINE
  8
0
 10
38.245
 20
8.07894
 11
38.6295
 21
7.77228
  0
LINE
  8
0
 10
38.6295
 20
7.77228
 11
38.9066
 21
7.36591
  0
LINE
  8
0
 10
38.9066
 20
7.36591
 11
39.0516
 21
6.89592
  0
LINE
  8
0
 10
39.0516
 20
6.89592
 11
39.0516
 21
6.40408
  0
LINE
  8
0
 10
39.0516
 20
6.40408
 11
38.9066
 21
5.93409
  0
LINE
  8
0
 10
38.9066
 20
5.93409
 11
38.6295
 21
5.52771
  0
LINE
  8
0
 10
38.6295
 20
5.52771
 11
38.245
 21
5.22106
  0
LINE
  8
0
 10
38.245
 20
5.22106
 11
37.7872
 21
5.04137
  0
LINE
  8
0
 10
37.7872
 20
5.04137
 11
37.2967
 21
5.00461
  0
LINE
  8
0
 10
37.2967
 20
5.00461
 11
36.8172
 21
5.11406
  0
LINE
  8
0
 10
36.8172
 20
5.11406
 11
36.3912
 21
5.35998
  0
LINE
  8
0
 10
36.3912
 20
5.35998
 11
36.0567
 21
5.72052
  0
LINE
  8
0
 10
36.0567
 20
5.72052
 11
35.8433
 21
6.16365
  0
LINE
  8
0
 10
35.8433
 20
6.16365
 11
35.77
 21
6.65
  0
LINE
  8
0
 10
43.5
 20
44.3
 11
43.6085
 21
46.7839
  0
LINE
  8
0
 10
43.6085
 20
46.7839
 11
43.933
 21
49.249
  0
LINE
  8
0
 10
43.933
 20
49.249
 11
44.4711
 21
51.6763
  0
LINE
  8
0
 10
44.4711
 20
51.6763
 11
45.2188
 21
54.0476
  0
LINE
  8
0
 10
45.2188
 20
54.0476
 11
46.1702
 21
56.3446
  0
LINE
  8
0
 10
46.1702
 20
56.3446
 11
47.3183
 21
58.55
  0
LINE
  8
0
 10
47.3183
 20
58.55
 11
48.6542
 21
60.6469
  0
LINE
  8
0
 10
48.6542
 20
60.6469
 11
50.1677
 21
62.6194
  0
LINE
  8
0
 10
50.1677
 20
62.6194
 11
51.8475
 21
64.4525
  0
LINE
  8
0
 10
51.8475
 20
64.4525
 11
53.6806
 21
66.1323
  0
LINE
  8
0
 10
53.6806
 20
66.1323
 11
55.6531
 21
67.6458
  0
LINE
  8
0
 10
55.6531
 20
67.6458
 11
57.75
 21
68.9817
  0
LINE
  8
0
 10
57.75
 20
68.9817
 11
59.9554
 21
70.1298
  0
LINE
  8
0
 10
59.9554
 20
70.1298
 11
62.2524
 21
71.0812
  0
LINE
  8
0
 10
62.2524
 20
71.0812
 11
64.6237
 21
71.8289
  0
LINE
  8
0
 10
64.6237
 20
71.8289
 11
67.051
 21
72.367
  0
LINE
  8
0
 10
67.051
 20
72.367
 11
69.5161
 21
72.6915
  0
LINE
  8
0
 10
69.5161
 20
72.6915
 11
72
 21
72.8
  0
LINE
  8
0
 10
72
 20
72.8
 11
74.4839
 21
72.6915
  0
LINE
  8
0
 10
74.4839
 20
72.6915
 11
76.949
 21
72.367
  0
LINE
  8
0
 10
76.949
 20
72.367
 11
79.3763
 21
71.8289
  0
LINE
  8
0
 10
79.3763
 20
71.8289
 11
81.7476
 21
71.0812
  0
LINE
  8
0
 10
81.7476
 20
71.0812
 11
84.0446
 21
70.1298
  0
LINE
  8
0
 10
84.0446
 20
70.1298
 11
86.25
 21
68.9817
  0
LINE
  8
0
 10
86.25
 20
68.9817
 11
88.3469
 21
67.6458
  0
LINE
  8
0
 10
88.3469
 20
67.6458
 11
90.3194
 21
66.1323
  0
LINE
  8
0
 10
90.3194
 20
66.1323
 11
92.1525
 21
64.4525
  0
LINE
  8
0
 10
92.1525
 20
64.4525
 11
93.8323
 21
62.6194
  0
LINE
  8
0
 10
93.8323
 20
62.6194
 11
95.3458
 21
60.6469
  0
LINE
  8
0
 10
95.3458
 20
60.6469
 11
96.6817
 21
58.55
  0
LINE
  8
0
 10
96.6817
 20
58.55
 11
97.8298
 21
56.3446
  0
LINE
  8
0
 10
97.8298
 20
56.3446
 11
98.7812
 21
54.0476
  0
LINE
  8
0
 10
98.7812
 20
54.0476
 11
99.5289
 21
51.6763
  0
LINE
  8
0
 10
99.5289
 20
51.6763
 11
100.067
 21
49.249
  0
LINE
  8
0
 10
100.067
 20
49.249
 11
100.392
 21
46.7839
  0
LINE
  8
0
 10
100.392
 20
46.7839
 11
100.5
 21
44.3
  0
LINE
  8
0
 10
100.5
 20
44.3
 11
100.392
 21
41.8161
  0
LINE
  8
0
 10
100.392
 20
41.8161
 11
100.067
 21
39.351
  0
LINE
  8
0
 10
100.067
 20
39.351
 11
99.5289
 21
36.9237
  0
LINE
  8
0
 10
99.5289
 20
36.9237
 11
98.7812
 21
34.5524
  0
LINE
  8
0
 10
98.7812
 20
34.5524
 11
97.8298
 21
32.2554
  0
LINE
  8
0
 10
97.8298
 20
32.2554
 11
96.6817
 21
30.05
  0
LINE
  8
0
 10
96.6817
 20
30.05
 11
95.3458
 21
27.9531
  0
LINE
  8
0
 10
95.3458
 20
27.9531
 11
93.8323
 21
25.9806
  0
LINE
  8
0
 10
93.8323
 20
25.9806
 11
92.1525
 21
24.1475
  0
LINE
  8
0
 10
92.1525
 20
24.1475
 11
90.3194
 21
22.4677
  0
LINE
  8
0
 10
90.3194
 20
22.4677
 11
88.3469
 21
20.9542
  0
LINE
  8
0
 10
88.3469
 20
20.9542
 11
86.25
 21
19.6183
  0
LINE
  8
0
 10
86.25
 20
19.6183
 11
84.0446
 21
18.4702
  0
LINE
  8
0
 10
84.0446
 20
18.4702
 11
81.7476
 21
17.5188
  0
LINE
  8
0
 10
81.7476
 20
17.5188
 11
79.3763
 21
16.7711
  0
LINE
  8
0
 10
79.3763
 20
16.7711
 11
76.949
 21
16.233
  0
LINE
  8
0
 10
76.949
 20
16.233
 11
74.4839
 21
15.9085
  0
LINE
  8
0
 10
74.4839
 20
15.9085
 11
72
 21
15.8
  0
LINE
  8
0
 10
72
 20
15.8
 11
69.5161
 21
15.9085
  0
LINE
  8
0
 10
69.5161
 20
15.9085
 11
67.051
 21
16.233
  0
LINE
  8
0
 10
67.051
 20
16.233
 11
64.6237
 21
16.7711
  0
LINE
  8
0
 10
64.6237
 20
16.7711
 11
62.2524
 21
17.5188
  0
LINE
  8
0
 10
62.2524
 20
17.5188
 11
59.9554
 21
18.4702
  0
LINE
  8
0
 10
59.9554
 20
18.4702
 11
57.75
 21
19.6183
  0
LINE
  8
0
 10
57.75
 20
19.6183
 11
55.6531
 21
20.9542
  0
LINE
  8
0
 10
55.6531
 20
20.9542
 11
53.6806
 21
22.4677
  0
LINE
  8
0
 10
53.6806
 20
22.4677
 11
51.8475
 21
24.1475
  0
LINE
  8
0
 10
51.8475
 20
24.1475
 11
50.1677
 21
25.9806
  0
LINE
  8
0
 10
50.1677
 20
25.9806
 11
48.6542
 21
27.9531
  0
LINE
  8
0
 10
48.6542
 20
27.9531
 11
47.3183
 21
30.05
  0
LINE
  8
0
 10
47.3183
 20
30.05
 11
46.1702
 21
32.2554
  0
LINE
  8
0
 10
46.1702
 20
32.2554
 11
45.2188
 21
34.5524
  0
LINE
  8
0
 10
45.2188
 20
34.5524
 11
44.4711
 21
36.9237
  0
LINE
  8
0
 10
44.4711
 20
36.9237
 11
43.933
 21
39.351
  0
LINE
  8
0
 10
43.933
 20
39.351
 11
43.6085
 21
41.8161
  0
LINE
  8
0
 10
43.6085
 20
41.8161
 11
43.5
 21
44.3
  0
LINE
  8
0
 10
44.8
 20
19.3
 11
44.8552
 21
19.7895
  0
LINE
  8
0
 10
44.8552
 20
19.7895
 11
45.0179
 21
20.2545
  0
LINE
  8
0
 10
45.0179
 20
20.2545
 11
45.28
 21
20.6717
  0
LINE
  8
0
 10
45.28
 20
20.6717
 11
45.6283
 21
21.02
  0
LINE
  8
0
 10
45.6283
 20
21.02
 11
46.0455
 21
21.2821
  0
LINE
  8
0
 10
46.0455
 20
21.2821
 11
46.5105
 21
21.4448
  0
LINE
  8
0
 10
46.5105
 20
21.4448
 11
47
 21
21.5
  0
LINE
  8
0
 10
47
 20
21.5
 11
47.4895
 21
21.4448
  0
LINE
  8
0
 10
47.4895
 20
21.4448
 11
47.9545
 21
21.2821
  0
LINE
  8
0
 10
47.9545
 20
21.2821
 11
48.3717
 21
21.02
  0
LINE
  8
0
 10
48.3717
 20
21.02
 11
48.72
 21
20.6717
  0
LINE
  8
0
 10
48.72
 20
20.6717
 11
48.9821
 21
20.2545
  0
LINE
  8
0
 10
48.9821
 20
20.2545
 11
49.1448
 21
19.7895
  0
LINE
  8
0
 10
49.1448
 20
19.7895
 11
49.2
 21
19.3
  0
LINE
  8
0
 10
49.2
 20
19.3
 11
49.1448
 21
18.8105
  0
LINE
  8
0
 10
49.1448
 20
18.8105
 11
48.9821
 21
18.3455
  0
LINE
  8
0
 10
48.9821
 20
18.3455
 11
48.72
 21
17.9283
  0
LINE
  8
0
 10
48.72
 20
17.9283
 11
48.3717
 21
17.58
  0
LINE
  8
0
 10
48.3717
 20
17.58
 11
47.9545
 21
17.3179
  0
LINE
  8
0
 10
47.9545
 20
17.3179
 11
47.4895
 21
17.1552
  0
LINE
  8
0
 10
47.4895
 20
17.1552
 11
47
 21
17.1
  0
LINE
  8
0
 10
47
 20
17.1
 11
46.5105
 21
17.1552
  0
LINE
  8
0
 10
46.5105
 20
17.1552
 11
46.0455
 21
17.3179
  0
LINE
  8
0
 10
46.0455
 20
17.3179
 11
45.6283
 21
17.58
  0
LINE
  8
0
 10
45.6283
 20
17.58
 11
45.28
 21
17.9283
  0
LINE
  8
0
 10
45.28
 20
17.9283
 11
45.0179
 21
18.3455
  0
LINE
  8
0
 10
45.0179
 20
18.3455
 11
44.8552
 21
18.8105
  0
LINE
  8
0
 10
44.8552
 20
18.8105
 11
44.8
 21
19.3
  0
LINE
  8
0
 10
44.8
 20
69.3
 11
44.8552
 21
69.7895
  0
LINE
  8
0
 10
44.8552
 20
69.7895
 11
45.0179
 21
70.2545
  0
LINE
  8
0
 10
45.0179
 20
70.2545
 11
45.28
 21
70.6717
  0
LINE
  8
0
 10
45.28
 20
70.6717
 11
45.6283
 21
71.02
  0
LINE
  8
0
 10
45.6283
 20
71.02
 11
46.0455
 21
71.2821
  0
LINE
  8
0
 10
46.0455
 20
71.2821
 11
46.5105
 21
71.4448
  0
LINE
  8
0
 10
46.5105
 20
71.4448
 11
47
 21
71.5
  0
LINE
  8
0
 10
47
 20
71.5
 11
47.4895
 21
71.4448
  0
LINE
  8
0
 10
47.4895
 20
71.4448
 11
47.9545
 21
71.2821
  0
LINE
  8
0
 10
47.9545
 20
71.2821
 11
48.3717
 21
71.02
  0
LINE
  8
0
 10
48.3717
 20
71.02
 11
48.72
 21
70.6717
  0
LINE
  8
0
 10
48.72
 20
70.6717
 11
48.9821
 21
70.2545
  0
LINE
  8
0
 10
48.9821
 20
70.2545
 11
49.1448
 21
69.7895
  0
LINE
  8
0
 10
49.1448
 20
69.7895
 11
49.2
 21
69.3
  0
LINE
  8
0
 10
49.2
 20
69.3
 11
49.1448
 21
68.8105
  0
LINE
  8
0
 10
49.1448
 20
68.8105
 11
48.9821
 21
68.3455
  0
LINE
  8
0
 10
48.9821
 20
68.3455
 11
48.72
 21
67.9283
  0
LINE
  8
0
 10
48.72
 20
67.9283
 11
48.3717
 21
67.58
  0
LINE
  8
0
 10
48.3717
 20
67.58
 11
47.9545
 21
67.3179
  0
LINE
  8
0
 10
47.9545
 20
67.3179
 11
47.4895
 21
67.1552
  0
LINE
  8
0
 10
47.4895
 20
67.1552
 11
47
 21
67.1
  0
LINE
  8
0
 10
47
 20
67.1
 11
46.5105
 21
67.1552
  0
LINE
  8
0
 10
46.5105
 20
67.1552
 11
46.0455
 21
67.3179
  0
LINE
  8
0
 10
46.0455
 20
67.3179
 11
45.6283
 21
67.58
  0
LINE
  8
0
 10
45.6283
 20
67.58
 11
45.28
 21
67.9283
  0
LINE
  8
0
 10
45.28
 20
67.9283
 11
45.0179
 21
68.3455
  0
LINE
  8
0
 10
45.0179
 20
68.3455
 11
44.8552
 21
68.8105
  0
LINE
  8
0
 10
44.8552
 20
68.8105
 11
44.8
 21
69.3
  0
LINE
  8
0
 10
94.8
 20
19.3
 11
94.8552
 21
19.7895
  0
LINE
  8
0
 10
94.8552
 20
19.7895
 11
95.0179
 21
20.2545
  0
LINE
  8
0
 10
95.0179
 20
20.2545
 11
95.28
 21
20.6717
  0
LINE
  8
0
 10
95.28
 20
20.6717
 11
95.6283
 21
21.02
  0
LINE
  8
0
 10
95.6283
 20
21.02
 11
96.0455
 21
21.2821
  0
LINE
  8
0
 10
96.0455
 20
21.2821
 11
96.5105
 21
21.4448
  0
LINE
  8
0
 10
96.5105
 20
21.4448
 11
97
 21
21.5
  0
LINE
  8
0
 10
97
 20
21.5
 11
97.4895
 21
21.4448
  0
LINE
  8
0
 10
97.4895
 20
21.4448
 11
97.9545
 21
21.2821
  0
LINE
  8
0
 10
97.9545
 20
21.2821
 11
98.3717
 21
21.02
  0
LINE
  8
0
 10
98.3717
 20
21.02
 11
98.72
 21
20.6717
  0
LINE
  8
0
 10
98.72
 20
20.6717
 11
98.9821
 21
20.2545
  0
LINE
  8
0
 10
98.9821
 20
20.2545
 11
99.1448
 21
19.7895
  0
LINE
  8
0
 10
99.1448
 20
19.7895
 11
99.2
 21
19.3
  0
LINE
  8
0
 10
99.2
 20
19.3
 11
99.1448
 21
18.8105
  0
LINE
  8
0
 10
99.1448
 20
18.8105
 11
98.9821
 21
18.3455
  0
LINE
  8
0
 10
98.9821
 20
18.3455
 11
98.72
 21
17.9283
  0
LINE
  8
0
 10
98.72
 20
17.9283
 11
98.3717
 21
17.58
  0
LINE
  8
0
 10
98.3717
 20
17.58
 11
97.9545
 21
17.3179
  0
LINE
  8
0
 10
97.9545
 20
17.3179
 11
97.4895
 21
17.1552
  0
LINE
  8
0
 10
97.4895
 20
17.1552
 11
97
 21
17.1
  0
LINE
  8
0
 10
97
 20
17.1
 11
96.5105
 21
17.1552
  0
LINE
  8
0
 10
96.5105
 20
17.1552
 11
96.0455
 21
17.3179
  0
LINE
  8
0
 10
96.0455
 20
17.3179
 11
95.6283
 21
17.58
  0
LINE
  8
0
 10
95.6283
 20
17.58
 11
95.28
 21
17.9283
  0
LINE
  8
0
 10
95.28
 20
17.9283
 11
95.0179
 21
18.3455
  0
LINE
  8
0
 10
95.0179
 20
18.3455
 11
94.8552
 21
18.8105
  0
LINE
  8
0
 10
94.8552
 20
18.8105
 11
94.8
 21
19.3
  0
LINE
  8
0
 10
94.8
 20
69.3
 11
94.8552
 21
69.7895
  0
LINE
  8
0
 10
94.8552
 20
69.7895
 11
95.0179
 21
70.2545
  0
LINE
  8
0
 10
95.0179
 20
70.2545
 11
95.28
 21
70.6717
  0
LINE
  8
0
 10
95.28
 20
70.6717
 11
95.6283
 21
71.02
  0
LINE
  8
0
 10
95.6283
 20
71.02
 11
96.0455
 21
71.2821
  0
LINE
  8
0
 10
96.0455
 20
71.2821
 11
96.5105
 21
71.4448
  0
LINE
  8
0
 10
96.5105
 20
71.4448
 11
97
 21
71.5
  0
LINE
  8
0
 10
97
 20
71.5
 11
97.4895
 21
71.4448
  0
LINE
  8
0
 10
97.4895
 20
71.4448
 11
97.9545
 21
71.2821
  0
LINE
  8
0
 10
97.9545
 20
71.2821
 11
98.3717
 21
71.02
  0
LINE
  8
0
 10
98.3717
 20
71.02
 11
98.72
 21
70.6717
  0
LINE
  8
0
 10
98.72
 20
70.6717
 11
98.9821
 21
70.2545
  0
LINE
  8
0
 10
98.9821
 20
70.2545
 11
99.1448
 21
69.7895
  0
LINE
  8
0
 10
99.1448
 20
69.7895
 11
99.2
 21
69.3
  0
LINE
  8
0
 10
99.2
 20
69.3
 11
99.1448
 21
68.8105
  0
LINE
  8
0
 10
99.1448
 20
68.8105
 11
98.9821
 21
68.3455
  0
LINE
  8
0
 10
98.9821
 20
68.3455
 11
98.72
 21
67.9283
  0
LINE
  8
0
 10
98.72
 20
67.9283
 11
98.3717
 21
67.58
  0
LINE
  8
0
 10
98.3717
 20
67.58
 11
97.9545
 21
67.3179
  0
LINE
  8
0
 10
97.9545
 20
67.3179
 11
97.4895
 21
67.1552
  0
LINE
  8
0
 10
97.4895
 20
67.1552
 11
97
 21
67.1
  0
LINE
  8
0
 10
97
 20
67.1
 11
96.5105
 21
67.1552
  0
LINE
  8
0
 10
96.5105
 20
67.1552
 11
96.0455
 21
67.3179
  0
LINE
  8
0
 10
96.0455
 20
67.3179
 11
95.6283
 21
67.58
  0
LINE
  8
0
 10
95.6283
 20
67.58
 11
95.28
 21
67.9283
  0
LINE
  8
0
 10
95.28
 20
67.9283
 11
95.0179
 21
68.3455
  0
LINE
  8
0
 10
95.0179
 20
68.3455
 11
94.8552
 21
68.8105
  0
LINE
  8
0
 10
94.8552
 20
68.8105
 11
94.8
 21
69.3
  0
LINE
  8
0
 10
193.272
 20
57.7
 11
193.346
 21
58.1863
  0
LINE
  8
0
 10
193.346
 20
58.1863
 11
193.559
 21
58.6295
  0
LINE
  8
0
 10
193.559
 20
58.6295
 11
193.894
 21
58.99
  0
LINE
  8
0
 10
193.894
 20
58.99
 11
194.319
 21
59.2359
  0
LINE
  8
0
 10
194.319
 20
59.2359
 11
194.799
 21
59.3454
  0
LINE
  8
0
 10
194.799
 20
59.3454
 11
195.289
 21
59.3086
  0
LINE
  8
0
 10
195.289
 20
59.3086
 11
195.747
 21
59.1289
  0
LINE
  8
0
 10
195.747
 20
59.1289
 11
196.132
 21
58.8223
  0
LINE
  8
0
 10
196.132
 20
58.8223
 11
196.409
 21
58.4159
  0
LINE
  8
0
 10
196.409
 20
58.4159
 11
196.554
 21
57.9459
  0
LINE
  8
0
 10
196.554
 20
57.9459
 11
196.554
 21
57.4541
  0
LINE
  8
0
 10
196.554
 20
57.4541
 11
196.409
 21
56.9841
  0
LINE
  8
0
 10
196.409
 20
56.9841
 11
196.132
 21
56.5777
  0
LINE
  8
0
 10
196.132
 20
56.5777
 11
195.747
 21
56.2711
  0
LINE
  8
0
 10
195.747
 20
56.2711
 11
195.289
 21
56.0914
  0
LINE
  8
0
 10
195.289
 20
56.0914
 11
194.799
 21
56.0546
  0
LINE
  8
0
 10
194.799
 20
56.0546
 11
194.319
 21
56.1641
  0
LINE
  8
0
 10
194.319
 20
56.1641
 11
193.894
 21
56.41
  0
LINE
  8
0
 10
193.894
 20
56.41
 11
193.559
 21
56.7705
  0
LINE
  8
0
 10
193.559
 20
56.7705
 11
193.346
 21
57.2137
  0
LINE
  8
0
 10
193.346
 20
57.2137
 11
193.272
 21
57.7
  0
LINE
  8
0
 10
262.93
 20
6.65
 11
263.003
 21
7.13635
  0
LINE
  8
0
 10
263.003
 20
7.13635
 11
263.217
 21
7.57948
  0
LINE
  8
0
 10
263.217
 20
7.57948
 11
263.551
 21
7.94002
  0
LINE
  8
0
 10
263.551
 20
7.94002
 11
263.977
 21
8.18594
  0
LINE
  8
0
 10
263.977
 20
8.18594
 11
264.457
 21
8.29539
  0
LINE
  8
0
 10
264.457
 20
8.29539
 11
264.947
 21
8.25863
  0
LINE
  8
0
 10
264.947
 20
8.25863
 11
265.405
 21
8.07894
  0
LINE
  8
0
 10
265.405
 20
8.07894
 11
265.79
 21
7.77228
  0
LINE
  8
0
 10
265.79
 20
7.77228
 11
266.067
 21
7.36591
  0
LINE
  8
0
 10
266.067
 20
7.36591
 11
266.212
 21
6.89592
  0
LINE
  8
0
 10
266.212
 20
6.89592
 11
266.212
 21
6.40408
  0
LINE
  8
0
 10
266.212
 20
6.40408
 11
266.067
 21
5.93409
  0
LINE
  8
0
 10
266.067
 20
5.93409
 11
265.79
 21
5.52771
  0
LINE
  8
0
 10
265.79
 20
5.52771
 11
265.405
 21
5.22106
  0
LINE
  8
0
 10
265.405
 20
5.22106
 11
264.947
 21
5.04137
  0
LINE
  8
0
 10
264.947
 20
5.04137
 11
264.457
 21
5.00461
  0
LINE
  8
0
 10
264.457
 20
5.00461
 11
263.977
 21
5.11406
  0
LINE
  8
0
 10
263.977
 20
5.11406
 11
263.551
 21
5.35998
  0
LINE
  8
0
 10
263.551
 20
5.35998
 11
263.217
 21
5.72052
  0
LINE
  8
0
 10
263.217
 20
5.72052
 11
263.003
 21
6.16365
  0
LINE
  8
0
 10
263.003
 20
6.16365
 11
262.93
 21
6.65
  0
LINE
  8
0
 10
280.15
 20
6.65
 11
280.223
 21
7.13635
  0
LINE
  8
0
 10
280.223
 20
7.13635
 11
280.437
 21
7.57948
  0
LINE
  8
0
 10
280.437
 20
7.57948
 11
280.771
 21
7.94002
  0
LINE
  8
0
 10
280.771
 20
7.94002
 11
281.197
 21
8.18594
  0
LINE
  8
0
 10
281.197
 20
8.18594
 11
281.677
 21
8.29539
  0
LINE
  8
0
 10
281.677
 20
8.29539
 11
282.167
 21
8.25863
  0
LINE
  8
0
 10
282.167
 20
8.25863
 11
282.625
 21
8.07894
  0
LINE
  8
0
 10
282.625
 20
8.07894
 11
283.01
 21
7.77228
  0
LINE
  8
0
 10
283.01
 20
7.77228
 11
283.287
 21
7.36591
  0
LINE
  8
0
 10
283.287
 20
7.36591
 11
283.432
 21
6.89592
  0
LINE
  8
0
 10
283.432
 20
6.89592
 11
283.432
 21
6.40408
  0
LINE
  8
0
 10
283.432
 20
6.40408
 11
283.287
 21
5.93409
  0
LINE
  8
0
 10
283.287
 20
5.93409
 11
283.01
 21
5.52771
  0
LINE
  8
0
 10
283.01
 20
5.52771
 11
282.625
 21
5.22106
  0
LINE
  8
0
 10
282.625
 20
5.22106
 11
282.167
 21
5.04137
  0
LINE
  8
0
 10
282.167
 20
5.04137
 11
281.677
 21
5.00461
  0
LINE
  8
0
 10
281.677
 20
5.00461
 11
281.197
 21
5.11406
  0
LINE
  8
0
 10
281.197
 20
5.11406
 11
280.771
 21
5.35998
  0
LINE
  8
0
 10
280.771
 20
5.35998
 11
280.437
 21
5.72052
  0
LINE
  8
0
 10
280.437
 20
5.72052
 11
280.223
 21
6.16365
  0
LINE
  8
0
 10
280.223
 20
6.16365
 11
280.15
 21
6.65
  0
ENDSEC
  0
SECTION
  2
OBJECTS
  0
DICTIONARY
  0
ENDSEC
  0
EOF
