  0
SECTION
  2
BLOCKS
  0
ENDSEC
  0
SECTION
  2
ENTITIES
  0
LINE
  8
0
 10
5.15862
 20
50
 11
8.14137
 21
50
  0
LINE
  8
0
 10
8.14137
 20
50
 11
8.14137
 21
0
  0
LINE
  8
0
 10
8.14137
 20
0
 11
240.49
 21
0
  0
LINE
  8
0
 10
240.49
 20
0
 11
240.49
 21
3.24773
  0
LINE
  8
0
 10
240.49
 20
3.24773
 11
240.572
 21
3.73645
  0
LINE
  8
0
 10
240.572
 20
3.73645
 11
240.733
 21
4.20508
  0
LINE
  8
0
 10
240.733
 20
4.20508
 11
240.968
 21
4.64084
  0
LINE
  8
0
 10
240.968
 20
4.64084
 11
241.273
 21
5.03183
  0
LINE
  8
0
 10
241.273
 20
5.03183
 11
241.637
 21
5.36742
  0
LINE
  8
0
 10
241.637
 20
5.36742
 11
242.052
 21
5.63841
  0
LINE
  8
0
 10
242.052
 20
5.63841
 11
242.506
 21
5.83745
  0
LINE
  8
0
 10
242.506
 20
5.83745
 11
242.986
 21
5.95908
  0
LINE
  8
0
 10
242.986
 20
5.95908
 11
243.48
 21
6
  0
LINE
  8
0
 10
243.48
 20
6
 11
243.974
 21
5.95908
  0
LINE
  8
0
 10
243.974
 20
5.95908
 11
244.454
 21
5.83745
  0
LINE
  8
0
 10
244.454
 20
5.83745
 11
244.908
 21
5.63841
  0
LINE
  8
0
 10
244.908
 20
5.63841
 11
245.323
 21
5.36742
  0
LINE
  8
0
 10
245.323
 20
5.36742
 11
245.687
 21
5.03183
  0
LINE
  8
0
 10
245.687
 20
5.03183
 11
245.991
 21
4.64084
  0
LINE
  8
0
 10
245.991
 20
4.64084
 11
246.227
 21
4.20508
  0
LINE
  8
0
 10
246.227
 20
4.20508
 11
246.388
 21
3.73645
  0
LINE
  8
0
 10
246.388
 20
3.73645
 11
246.47
 21
3.24773
  0
LINE
  8
0
 10
246.47
 20
3.24773
 11
246.47
 21
0
  0
LINE
  8
0
 10
246.47
 20
0
 11
252.295
 21
0
  0
LINE
  8
0
 10
252.295
 20
0
 11
252.295
 21
2.24106
  0
LINE
  8
0
 10
252.295
 20
2.24106
 11
252.41
 21
2.7092
  0
LINE
  8
0
 10
252.41
 20
2.7092
 11
252.634
 21
3.13612
  0
LINE
  8
0
 10
252.634
 20
3.13612
 11
252.954
 21
3.49701
  0
LINE
  8
0
 10
252.954
 20
3.49701
 11
253.351
 21
3.7709
  0
LINE
  8
0
 10
253.351
 20
3.7709
 11
253.801
 21
3.94188
  0
LINE
  8
0
 10
253.801
 20
3.94188
 11
254.28
 21
4
  0
LINE
  8
0
 10
254.28
 20
4
 11
254.759
 21
3.94188
  0
LINE
  8
0
 10
254.759
 20
3.94188
 11
255.209
 21
3.7709
  0
LINE
  8
0
 10
255.209
 20
3.7709
 11
255.606
 21
3.49701
  0
LINE
  8
0
 10
255.606
 20
3.49701
 11
255.926
 21
3.13612
  0
LINE
  8
0
 10
255.926
 20
3.13612
 11
256.15
 21
2.7092
  0
LINE
  8
0
 10
256.15
 20
2.7092
 11
256.265
 21
2.24106
  0
LINE
  8
0
 10
256.265
 20
2.24106
 11
256.265
 21
0
  0
LINE
  8
0
 10
256.265
 20
0
 11
302
 21
0
  0
LINE
  8
0
 10
302
 20
0
 11
302
 21
58.88
  0
LINE
  8
0
 10
302
 20
58.88
 11
301.905
 21
61.0589
  0
LINE
  8
0
 10
301.905
 20
61.0589
 11
301.62
 21
63.2212
  0
LINE
  8
0
 10
301.62
 20
63.2212
 11
301.148
 21
65.3505
  0
LINE
  8
0
 10
301.148
 20
65.3505
 11
300.492
 21
67.4305
  0
LINE
  8
0
 10
300.492
 20
67.4305
 11
299.658
 21
69.4454
  0
LINE
  8
0
 10
299.658
 20
69.4454
 11
298.651
 21
71.38
  0
LINE
  8
0
 10
298.651
 20
71.38
 11
297.479
 21
73.2194
  0
LINE
  8
0
 10
297.479
 20
73.2194
 11
296.151
 21
74.9497
  0
LINE
  8
0
 10
296.151
 20
74.9497
 11
294.678
 21
76.5577
  0
LINE
  8
0
 10
294.678
 20
76.5577
 11
293.07
 21
78.0311
  0
LINE
  8
0
 10
293.07
 20
78.0311
 11
291.339
 21
79.3588
  0
LINE
  8
0
 10
291.339
 20
79.3588
 11
289.5
 21
80.5306
  0
LINE
  8
0
 10
289.5
 20
80.5306
 11
287.565
 21
81.5377
  0
LINE
  8
0
 10
287.565
 20
81.5377
 11
285.55
 21
82.3723
  0
LINE
  8
0
 10
285.55
 20
82.3723
 11
283.47
 21
83.0281
  0
LINE
  8
0
 10
283.47
 20
83.0281
 11
281.341
 21
83.5002
  0
LINE
  8
0
 10
281.341
 20
83.5002
 11
279.179
 21
83.7849
  0
LINE
  8
0
 10
279.179
 20
83.7849
 11
277
 21
83.88
  0
LINE
  8
0
 10
277
 20
83.88
 11
0
 21
83.88
  0
LINE
  8
0
 10
0
 20
83.88
 11
0
 21
0
  0
LINE
  8
0
 10
0
 20
0
 11
5.15862
 21
0
  0
LINE
  8
0
 10
5.15862
 20
0
 11
5.15862
 21
50
  0
LINE
  8
0
 10
6.40407
 20
75.3484
 11
5.93408
 21
75.4934
  0
LINE
  8
0
 10
5.93408
 20
75.4934
 11
5.52771
 21
75.7705
  0
LINE
  8
0
 10
5.52771
 20
75.7705
 11
5.22105
 21
76.155
  0
LINE
  8
0
 10
5.22105
 20
76.155
 11
5.04137
 21
76.6128
  0
LINE
  8
0
 10
5.04137
 20
76.6128
 11
5.00461
 21
77.1033
  0
LINE
  8
0
 10
5.00461
 20
77.1033
 11
5.11404
 21
77.5828
  0
LINE
  8
0
 10
5.11404
 20
77.5828
 11
5.35997
 21
78.0087
  0
LINE
  8
0
 10
5.35997
 20
78.0087
 11
5.72052
 21
78.3433
  0
LINE
  8
0
 10
5.72052
 20
78.3433
 11
6.16365
 21
78.5567
  0
LINE
  8
0
 10
6.16365
 20
78.5567
 11
6.64999
 21
78.63
  0
LINE
  8
0
 10
6.64999
 20
78.63
 11
7.13634
 21
78.5567
  0
LINE
  8
0
 10
7.13634
 20
78.5567
 11
7.57947
 21
78.3433
  0
LINE
  8
0
 10
7.57947
 20
78.3433
 11
7.94002
 21
78.0087
  0
LINE
  8
0
 10
7.94002
 20
78.0087
 11
8.18593
 21
77.5828
  0
LINE
  8
0
 10
8.18593
 20
77.5828
 11
8.29538
 21
77.1033
  0
LINE
  8
0
 10
8.29538
 20
77.1033
 11
8.25862
 21
76.6128
  0
LINE
  8
0
 10
8.25862
 20
76.6128
 11
8.07893
 21
76.155
  0
LINE
  8
0
 10
8.07893
 20
76.155
 11
7.77228
 21
75.7705
  0
LINE
  8
0
 10
7.77228
 20
75.7705
 11
7.36591
 21
75.4934
  0
LINE
  8
0
 10
7.36591
 20
75.4934
 11
6.8959
 21
75.3484
  0
LINE
  8
0
 10
6.8959
 20
75.3484
 11
6.40407
 21
75.3484
  0
LINE
  8
0
 10
69.5161
 20
15.9084
 11
67.051
 21
16.233
  0
LINE
  8
0
 10
67.051
 20
16.233
 11
64.6237
 21
16.7711
  0
LINE
  8
0
 10
64.6237
 20
16.7711
 11
62.2524
 21
17.5188
  0
LINE
  8
0
 10
62.2524
 20
17.5188
 11
59.9554
 21
18.4702
  0
LINE
  8
0
 10
59.9554
 20
18.4702
 11
57.75
 21
19.6183
  0
LINE
  8
0
 10
57.75
 20
19.6183
 11
55.6531
 21
20.9542
  0
LINE
  8
0
 10
55.6531
 20
20.9542
 11
53.6805
 21
22.4677
  0
LINE
  8
0
 10
53.6805
 20
22.4677
 11
51.8474
 21
24.1474
  0
LINE
  8
0
 10
51.8474
 20
24.1474
 11
50.1677
 21
25.9805
  0
LINE
  8
0
 10
50.1677
 20
25.9805
 11
48.6542
 21
27.9531
  0
LINE
  8
0
 10
48.6542
 20
27.9531
 11
47.3183
 21
30.05
  0
LINE
  8
0
 10
47.3183
 20
30.05
 11
46.1702
 21
32.2554
  0
LINE
  8
0
 10
46.1702
 20
32.2554
 11
45.2188
 21
34.5524
  0
LINE
  8
0
 10
45.2188
 20
34.5524
 11
44.4711
 21
36.9236
  0
LINE
  8
0
 10
44.4711
 20
36.9236
 11
43.933
 21
39.351
  0
LINE
  8
0
 10
43.933
 20
39.351
 11
43.6084
 21
41.8161
  0
LINE
  8
0
 10
43.6084
 20
41.8161
 11
43.5
 21
44.3
  0
LINE
  8
0
 10
43.5
 20
44.3
 11
43.6084
 21
46.7839
  0
LINE
  8
0
 10
43.6084
 20
46.7839
 11
43.933
 21
49.249
  0
LINE
  8
0
 10
43.933
 20
49.249
 11
44.4711
 21
51.6763
  0
LINE
  8
0
 10
44.4711
 20
51.6763
 11
45.2188
 21
54.0476
  0
LINE
  8
0
 10
45.2188
 20
54.0476
 11
46.1702
 21
56.3446
  0
LINE
  8
0
 10
46.1702
 20
56.3446
 11
47.3183
 21
58.55
  0
LINE
  8
0
 10
47.3183
 20
58.55
 11
48.6542
 21
60.6469
  0
LINE
  8
0
 10
48.6542
 20
60.6469
 11
50.1677
 21
62.6194
  0
LINE
  8
0
 10
50.1677
 20
62.6194
 11
51.8474
 21
64.4525
  0
LINE
  8
0
 10
51.8474
 20
64.4525
 11
53.6805
 21
66.1323
  0
LINE
  8
0
 10
53.6805
 20
66.1323
 11
55.6531
 21
67.6458
  0
LINE
  8
0
 10
55.6531
 20
67.6458
 11
57.75
 21
68.9817
  0
LINE
  8
0
 10
57.75
 20
68.9817
 11
59.9554
 21
70.1298
  0
LINE
  8
0
 10
59.9554
 20
70.1298
 11
62.2524
 21
71.0812
  0
LINE
  8
0
 10
62.2524
 20
71.0812
 11
64.6237
 21
71.8289
  0
LINE
  8
0
 10
64.6237
 20
71.8289
 11
67.051
 21
72.367
  0
LINE
  8
0
 10
67.051
 20
72.367
 11
69.5161
 21
72.6915
  0
LINE
  8
0
 10
69.5161
 20
72.6915
 11
72
 21
72.8
  0
LINE
  8
0
 10
72
 20
72.8
 11
74.4839
 21
72.6915
  0
LINE
  8
0
 10
74.4839
 20
72.6915
 11
76.949
 21
72.367
  0
LINE
  8
0
 10
76.949
 20
72.367
 11
79.3763
 21
71.8289
  0
LINE
  8
0
 10
79.3763
 20
71.8289
 11
81.7476
 21
71.0812
  0
LINE
  8
0
 10
81.7476
 20
71.0812
 11
84.0446
 21
70.1298
  0
LINE
  8
0
 10
84.0446
 20
70.1298
 11
86.25
 21
68.9817
  0
LINE
  8
0
 10
86.25
 20
68.9817
 11
88.3469
 21
67.6458
  0
LINE
  8
0
 10
88.3469
 20
67.6458
 11
90.3194
 21
66.1323
  0
LINE
  8
0
 10
90.3194
 20
66.1323
 11
92.1525
 21
64.4525
  0
LINE
  8
0
 10
92.1525
 20
64.4525
 11
93.8323
 21
62.6194
  0
LINE
  8
0
 10
93.8323
 20
62.6194
 11
95.3458
 21
60.6469
  0
LINE
  8
0
 10
95.3458
 20
60.6469
 11
96.6817
 21
58.55
  0
LINE
  8
0
 10
96.6817
 20
58.55
 11
97.8298
 21
56.3446
  0
LINE
  8
0
 10
97.8298
 20
56.3446
 11
98.7812
 21
54.0476
  0
LINE
  8
0
 10
98.7812
 20
54.0476
 11
99.5289
 21
51.6763
  0
LINE
  8
0
 10
99.5289
 20
51.6763
 11
100.067
 21
49.249
  0
LINE
  8
0
 10
100.067
 20
49.249
 11
100.392
 21
46.7839
  0
LINE
  8
0
 10
100.392
 20
46.7839
 11
100.5
 21
44.3
  0
LINE
  8
0
 10
100.5
 20
44.3
 11
100.392
 21
41.8161
  0
LINE
  8
0
 10
100.392
 20
41.8161
 11
100.067
 21
39.351
  0
LINE
  8
0
 10
100.067
 20
39.351
 11
99.5289
 21
36.9236
  0
LINE
  8
0
 10
99.5289
 20
36.9236
 11
98.7812
 21
34.5524
  0
LINE
  8
0
 10
98.7812
 20
34.5524
 11
97.8298
 21
32.2554
  0
LINE
  8
0
 10
97.8298
 20
32.2554
 11
96.6817
 21
30.05
  0
LINE
  8
0
 10
96.6817
 20
30.05
 11
95.3458
 21
27.9531
  0
LINE
  8
0
 10
95.3458
 20
27.9531
 11
93.8323
 21
25.9805
  0
LINE
  8
0
 10
93.8323
 20
25.9805
 11
92.1525
 21
24.1474
  0
LINE
  8
0
 10
92.1525
 20
24.1474
 11
90.3194
 21
22.4677
  0
LINE
  8
0
 10
90.3194
 20
22.4677
 11
88.3469
 21
20.9542
  0
LINE
  8
0
 10
88.3469
 20
20.9542
 11
86.25
 21
19.6183
  0
LINE
  8
0
 10
86.25
 20
19.6183
 11
84.0446
 21
18.4702
  0
LINE
  8
0
 10
84.0446
 20
18.4702
 11
81.7476
 21
17.5188
  0
LINE
  8
0
 10
81.7476
 20
17.5188
 11
79.3763
 21
16.7711
  0
LINE
  8
0
 10
79.3763
 20
16.7711
 11
76.949
 21
16.233
  0
LINE
  8
0
 10
76.949
 20
16.233
 11
74.4839
 21
15.9084
  0
LINE
  8
0
 10
74.4839
 20
15.9084
 11
72
 21
15.8
  0
LINE
  8
0
 10
72
 20
15.8
 11
69.5161
 21
15.9084
  0
LINE
  8
0
 10
46.5105
 20
67.1552
 11
46.0455
 21
67.3179
  0
LINE
  8
0
 10
46.0455
 20
67.3179
 11
45.6283
 21
67.58
  0
LINE
  8
0
 10
45.6283
 20
67.58
 11
45.28
 21
67.9283
  0
LINE
  8
0
 10
45.28
 20
67.9283
 11
45.0179
 21
68.3454
  0
LINE
  8
0
 10
45.0179
 20
68.3454
 11
44.8551
 21
68.8104
  0
LINE
  8
0
 10
44.8551
 20
68.8104
 11
44.8
 21
69.3
  0
LINE
  8
0
 10
44.8
 20
69.3
 11
44.8551
 21
69.7895
  0
LINE
  8
0
 10
44.8551
 20
69.7895
 11
45.0179
 21
70.2545
  0
LINE
  8
0
 10
45.0179
 20
70.2545
 11
45.28
 21
70.6717
  0
LINE
  8
0
 10
45.28
 20
70.6717
 11
45.6283
 21
71.02
  0
LINE
  8
0
 10
45.6283
 20
71.02
 11
46.0455
 21
71.2821
  0
LINE
  8
0
 10
46.0455
 20
71.2821
 11
46.5105
 21
71.4448
  0
LINE
  8
0
 10
46.5105
 20
71.4448
 11
47
 21
71.5
  0
LINE
  8
0
 10
47
 20
71.5
 11
47.4895
 21
71.4448
  0
LINE
  8
0
 10
47.4895
 20
71.4448
 11
47.9545
 21
71.2821
  0
LINE
  8
0
 10
47.9545
 20
71.2821
 11
48.3717
 21
71.02
  0
LINE
  8
0
 10
48.3717
 20
71.02
 11
48.72
 21
70.6717
  0
LINE
  8
0
 10
48.72
 20
70.6717
 11
48.9821
 21
70.2545
  0
LINE
  8
0
 10
48.9821
 20
70.2545
 11
49.1448
 21
69.7895
  0
LINE
  8
0
 10
49.1448
 20
69.7895
 11
49.2
 21
69.3
  0
LINE
  8
0
 10
49.2
 20
69.3
 11
49.1448
 21
68.8104
  0
LINE
  8
0
 10
49.1448
 20
68.8104
 11
48.9821
 21
68.3454
  0
LINE
  8
0
 10
48.9821
 20
68.3454
 11
48.72
 21
67.9283
  0
LINE
  8
0
 10
48.72
 20
67.9283
 11
48.3717
 21
67.58
  0
LINE
  8
0
 10
48.3717
 20
67.58
 11
47.9545
 21
67.3179
  0
LINE
  8
0
 10
47.9545
 20
67.3179
 11
47.4895
 21
67.1552
  0
LINE
  8
0
 10
47.4895
 20
67.1552
 11
47
 21
67.1
  0
LINE
  8
0
 10
47
 20
67.1
 11
46.5105
 21
67.1552
  0
LINE
  8
0
 10
96.5105
 20
67.1552
 11
96.0454
 21
67.3179
  0
LINE
  8
0
 10
96.0454
 20
67.3179
 11
95.6283
 21
67.58
  0
LINE
  8
0
 10
95.6283
 20
67.58
 11
95.28
 21
67.9283
  0
LINE
  8
0
 10
95.28
 20
67.9283
 11
95.0179
 21
68.3454
  0
LINE
  8
0
 10
95.0179
 20
68.3454
 11
94.8551
 21
68.8104
  0
LINE
  8
0
 10
94.8551
 20
68.8104
 11
94.8
 21
69.3
  0
LINE
  8
0
 10
94.8
 20
69.3
 11
94.8551
 21
69.7895
  0
LINE
  8
0
 10
94.8551
 20
69.7895
 11
95.0179
 21
70.2545
  0
LINE
  8
0
 10
95.0179
 20
70.2545
 11
95.28
 21
70.6717
  0
LINE
  8
0
 10
95.28
 20
70.6717
 11
95.6283
 21
71.02
  0
LINE
  8
0
 10
95.6283
 20
71.02
 11
96.0454
 21
71.2821
  0
LINE
  8
0
 10
96.0454
 20
71.2821
 11
96.5105
 21
71.4448
  0
LINE
  8
0
 10
96.5105
 20
71.4448
 11
97
 21
71.5
  0
LINE
  8
0
 10
97
 20
71.5
 11
97.4895
 21
71.4448
  0
LINE
  8
0
 10
97.4895
 20
71.4448
 11
97.9545
 21
71.2821
  0
LINE
  8
0
 10
97.9545
 20
71.2821
 11
98.3717
 21
71.02
  0
LINE
  8
0
 10
98.3717
 20
71.02
 11
98.72
 21
70.6717
  0
LINE
  8
0
 10
98.72
 20
70.6717
 11
98.9821
 21
70.2545
  0
LINE
  8
0
 10
98.9821
 20
70.2545
 11
99.1448
 21
69.7895
  0
LINE
  8
0
 10
99.1448
 20
69.7895
 11
99.2
 21
69.3
  0
LINE
  8
0
 10
99.2
 20
69.3
 11
99.1448
 21
68.8104
  0
LINE
  8
0
 10
99.1448
 20
68.8104
 11
98.9821
 21
68.3454
  0
LINE
  8
0
 10
98.9821
 20
68.3454
 11
98.72
 21
67.9283
  0
LINE
  8
0
 10
98.72
 20
67.9283
 11
98.3717
 21
67.58
  0
LINE
  8
0
 10
98.3717
 20
67.58
 11
97.9545
 21
67.3179
  0
LINE
  8
0
 10
97.9545
 20
67.3179
 11
97.4895
 21
67.1552
  0
LINE
  8
0
 10
97.4895
 20
67.1552
 11
97
 21
67.1
  0
LINE
  8
0
 10
97
 20
67.1
 11
96.5105
 21
67.1552
  0
LINE
  8
0
 10
6.40407
 20
58.1284
 11
5.93408
 21
58.2734
  0
LINE
  8
0
 10
5.93408
 20
58.2734
 11
5.52771
 21
58.5505
  0
LINE
  8
0
 10
5.52771
 20
58.5505
 11
5.22105
 21
58.935
  0
LINE
  8
0
 10
5.22105
 20
58.935
 11
5.04137
 21
59.3928
  0
LINE
  8
0
 10
5.04137
 20
59.3928
 11
5.00461
 21
59.8833
  0
LINE
  8
0
 10
5.00461
 20
59.8833
 11
5.11404
 21
60.3628
  0
LINE
  8
0
 10
5.11404
 20
60.3628
 11
5.35997
 21
60.7888
  0
LINE
  8
0
 10
5.35997
 20
60.7888
 11
5.72052
 21
61.1233
  0
LINE
  8
0
 10
5.72052
 20
61.1233
 11
6.16365
 21
61.3367
  0
LINE
  8
0
 10
6.16365
 20
61.3367
 11
6.64999
 21
61.41
  0
LINE
  8
0
 10
6.64999
 20
61.41
 11
7.13634
 21
61.3367
  0
LINE
  8
0
 10
7.13634
 20
61.3367
 11
7.57947
 21
61.1233
  0
LINE
  8
0
 10
7.57947
 20
61.1233
 11
7.94002
 21
60.7888
  0
LINE
  8
0
 10
7.94002
 20
60.7888
 11
8.18593
 21
60.3628
  0
LINE
  8
0
 10
8.18593
 20
60.3628
 11
8.29538
 21
59.8833
  0
LINE
  8
0
 10
8.29538
 20
59.8833
 11
8.25862
 21
59.3928
  0
LINE
  8
0
 10
8.25862
 20
59.3928
 11
8.07893
 21
58.935
  0
LINE
  8
0
 10
8.07893
 20
58.935
 11
7.77228
 21
58.5505
  0
LINE
  8
0
 10
7.77228
 20
58.5505
 11
7.36591
 21
58.2734
  0
LINE
  8
0
 10
7.36591
 20
58.2734
 11
6.8959
 21
58.1284
  0
LINE
  8
0
 10
6.8959
 20
58.1284
 11
6.40407
 21
58.1284
  0
LINE
  8
0
 10
194.319
 20
56.164
 11
193.894
 21
56.41
  0
LINE
  8
0
 10
193.894
 20
56.41
 11
193.559
 21
56.7705
  0
LINE
  8
0
 10
193.559
 20
56.7705
 11
193.346
 21
57.2136
  0
LINE
  8
0
 10
193.346
 20
57.2136
 11
193.272
 21
57.7
  0
LINE
  8
0
 10
193.272
 20
57.7
 11
193.346
 21
58.1863
  0
LINE
  8
0
 10
193.346
 20
58.1863
 11
193.559
 21
58.6295
  0
LINE
  8
0
 10
193.559
 20
58.6295
 11
193.894
 21
58.99
  0
LINE
  8
0
 10
193.894
 20
58.99
 11
194.319
 21
59.2359
  0
LINE
  8
0
 10
194.319
 20
59.2359
 11
194.799
 21
59.3454
  0
LINE
  8
0
 10
194.799
 20
59.3454
 11
195.289
 21
59.3086
  0
LINE
  8
0
 10
195.289
 20
59.3086
 11
195.747
 21
59.1289
  0
LINE
  8
0
 10
195.747
 20
59.1289
 11
196.132
 21
58.8223
  0
LINE
  8
0
 10
196.132
 20
58.8223
 11
196.409
 21
58.4159
  0
LINE
  8
0
 10
196.409
 20
58.4159
 11
196.554
 21
57.9459
  0
LINE
  8
0
 10
196.554
 20
57.9459
 11
196.554
 21
57.4541
  0
LINE
  8
0
 10
196.554
 20
57.4541
 11
196.409
 21
56.9841
  0
LINE
  8
0
 10
196.409
 20
56.9841
 11
196.132
 21
56.5777
  0
LINE
  8
0
 10
196.132
 20
56.5777
 11
195.747
 21
56.2711
  0
LINE
  8
0
 10
195.747
 20
56.2711
 11
195.289
 21
56.0914
  0
LINE
  8
0
 10
195.289
 20
56.0914
 11
194.799
 21
56.0546
  0
LINE
  8
0
 10
194.799
 20
56.0546
 11
194.319
 21
56.164
  0
LINE
  8
0
 10
46.5105
 20
17.1552
 11
46.0455
 21
17.3179
  0
LINE
  8
0
 10
46.0455
 20
17.3179
 11
45.6283
 21
17.58
  0
LINE
  8
0
 10
45.6283
 20
17.58
 11
45.28
 21
17.9283
  0
LINE
  8
0
 10
45.28
 20
17.9283
 11
45.0179
 21
18.3454
  0
LINE
  8
0
 10
45.0179
 20
18.3454
 11
44.8551
 21
18.8104
  0
LINE
  8
0
 10
44.8551
 20
18.8104
 11
44.8
 21
19.3
  0
LINE
  8
0
 10
44.8
 20
19.3
 11
44.8551
 21
19.7895
  0
LINE
  8
0
 10
44.8551
 20
19.7895
 11
45.0179
 21
20.2545
  0
LINE
  8
0
 10
45.0179
 20
20.2545
 11
45.28
 21
20.6717
  0
LINE
  8
0
 10
45.28
 20
20.6717
 11
45.6283
 21
21.02
  0
LINE
  8
0
 10
45.6283
 20
21.02
 11
46.0455
 21
21.2821
  0
LINE
  8
0
 10
46.0455
 20
21.2821
 11
46.5105
 21
21.4448
  0
LINE
  8
0
 10
46.5105
 20
21.4448
 11
47
 21
21.5
  0
LINE
  8
0
 10
47
 20
21.5
 11
47.4895
 21
21.4448
  0
LINE
  8
0
 10
47.4895
 20
21.4448
 11
47.9545
 21
21.2821
  0
LINE
  8
0
 10
47.9545
 20
21.2821
 11
48.3717
 21
21.02
  0
LINE
  8
0
 10
48.3717
 20
21.02
 11
48.72
 21
20.6717
  0
LINE
  8
0
 10
48.72
 20
20.6717
 11
48.9821
 21
20.2545
  0
LINE
  8
0
 10
48.9821
 20
20.2545
 11
49.1448
 21
19.7895
  0
LINE
  8
0
 10
49.1448
 20
19.7895
 11
49.2
 21
19.3
  0
LINE
  8
0
 10
49.2
 20
19.3
 11
49.1448
 21
18.8104
  0
LINE
  8
0
 10
49.1448
 20
18.8104
 11
48.9821
 21
18.3454
  0
LINE
  8
0
 10
48.9821
 20
18.3454
 11
48.72
 21
17.9283
  0
LINE
  8
0
 10
48.72
 20
17.9283
 11
48.3717
 21
17.58
  0
LINE
  8
0
 10
48.3717
 20
17.58
 11
47.9545
 21
17.3179
  0
LINE
  8
0
 10
47.9545
 20
17.3179
 11
47.4895
 21
17.1552
  0
LINE
  8
0
 10
47.4895
 20
17.1552
 11
47
 21
17.1
  0
LINE
  8
0
 10
47
 20
17.1
 11
46.5105
 21
17.1552
  0
LINE
  8
0
 10
96.5105
 20
17.1552
 11
96.0454
 21
17.3179
  0
LINE
  8
0
 10
96.0454
 20
17.3179
 11
95.6283
 21
17.58
  0
LINE
  8
0
 10
95.6283
 20
17.58
 11
95.28
 21
17.9283
  0
LINE
  8
0
 10
95.28
 20
17.9283
 11
95.0179
 21
18.3454
  0
LINE
  8
0
 10
95.0179
 20
18.3454
 11
94.8551
 21
18.8104
  0
LINE
  8
0
 10
94.8551
 20
18.8104
 11
94.8
 21
19.3
  0
LINE
  8
0
 10
94.8
 20
19.3
 11
94.8551
 21
19.7895
  0
LINE
  8
0
 10
94.8551
 20
19.7895
 11
95.0179
 21
20.2545
  0
LINE
  8
0
 10
95.0179
 20
20.2545
 11
95.28
 21
20.6717
  0
LINE
  8
0
 10
95.28
 20
20.6717
 11
95.6283
 21
21.02
  0
LINE
  8
0
 10
95.6283
 20
21.02
 11
96.0454
 21
21.2821
  0
LINE
  8
0
 10
96.0454
 20
21.2821
 11
96.5105
 21
21.4448
  0
LINE
  8
0
 10
96.5105
 20
21.4448
 11
97
 21
21.5
  0
LINE
  8
0
 10
97
 20
21.5
 11
97.4895
 21
21.4448
  0
LINE
  8
0
 10
97.4895
 20
21.4448
 11
97.9545
 21
21.2821
  0
LINE
  8
0
 10
97.9545
 20
21.2821
 11
98.3717
 21
21.02
  0
LINE
  8
0
 10
98.3717
 20
21.02
 11
98.72
 21
20.6717
  0
LINE
  8
0
 10
98.72
 20
20.6717
 11
98.9821
 21
20.2545
  0
LINE
  8
0
 10
98.9821
 20
20.2545
 11
99.1448
 21
19.7895
  0
LINE
  8
0
 10
99.1448
 20
19.7895
 11
99.2
 21
19.3
  0
LINE
  8
0
 10
99.2
 20
19.3
 11
99.1448
 21
18.8104
  0
LINE
  8
0
 10
99.1448
 20
18.8104
 11
98.9821
 21
18.3454
  0
LINE
  8
0
 10
98.9821
 20
18.3454
 11
98.72
 21
17.9283
  0
LINE
  8
0
 10
98.72
 20
17.9283
 11
98.3717
 21
17.58
  0
LINE
  8
0
 10
98.3717
 20
17.58
 11
97.9545
 21
17.3179
  0
LINE
  8
0
 10
97.9545
 20
17.3179
 11
97.4895
 21
17.1552
  0
LINE
  8
0
 10
97.4895
 20
17.1552
 11
97
 21
17.1
  0
LINE
  8
0
 10
97
 20
17.1
 11
96.5105
 21
17.1552
  0
LINE
  8
0
 10
281.197
 20
5.11404
 11
280.771
 21
5.35997
  0
LINE
  8
0
 10
280.771
 20
5.35997
 11
280.437
 21
5.72052
  0
LINE
  8
0
 10
280.437
 20
5.72052
 11
280.223
 21
6.16365
  0
LINE
  8
0
 10
280.223
 20
6.16365
 11
280.15
 21
6.64999
  0
LINE
  8
0
 10
280.15
 20
6.64999
 11
280.223
 21
7.13634
  0
LINE
  8
0
 10
280.223
 20
7.13634
 11
280.437
 21
7.57947
  0
LINE
  8
0
 10
280.437
 20
7.57947
 11
280.771
 21
7.94002
  0
LINE
  8
0
 10
280.771
 20
7.94002
 11
281.197
 21
8.18593
  0
LINE
  8
0
 10
281.197
 20
8.18593
 11
281.677
 21
8.29538
  0
LINE
  8
0
 10
281.677
 20
8.29538
 11
282.167
 21
8.25862
  0
LINE
  8
0
 10
282.167
 20
8.25862
 11
282.625
 21
8.07893
  0
LINE
  8
0
 10
282.625
 20
8.07893
 11
283.01
 21
7.77228
  0
LINE
  8
0
 10
283.01
 20
7.77228
 11
283.287
 21
7.36591
  0
LINE
  8
0
 10
283.287
 20
7.36591
 11
283.432
 21
6.8959
  0
LINE
  8
0
 10
283.432
 20
6.8959
 11
283.432
 21
6.40407
  0
LINE
  8
0
 10
283.432
 20
6.40407
 11
283.287
 21
5.93408
  0
LINE
  8
0
 10
283.287
 20
5.93408
 11
283.01
 21
5.52771
  0
LINE
  8
0
 10
283.01
 20
5.52771
 11
282.625
 21
5.22105
  0
LINE
  8
0
 10
282.625
 20
5.22105
 11
282.167
 21
5.04137
  0
LINE
  8
0
 10
282.167
 20
5.04137
 11
281.677
 21
5.00461
  0
LINE
  8
0
 10
281.677
 20
5.00461
 11
281.197
 21
5.11404
  0
LINE
  8
0
 10
19.5972
 20
5.11404
 11
19.1712
 21
5.35997
  0
LINE
  8
0
 10
19.1712
 20
5.35997
 11
18.8367
 21
5.72052
  0
LINE
  8
0
 10
18.8367
 20
5.72052
 11
18.6233
 21
6.16365
  0
LINE
  8
0
 10
18.6233
 20
6.16365
 11
18.55
 21
6.64999
  0
LINE
  8
0
 10
18.55
 20
6.64999
 11
18.6233
 21
7.13634
  0
LINE
  8
0
 10
18.6233
 20
7.13634
 11
18.8367
 21
7.57947
  0
LINE
  8
0
 10
18.8367
 20
7.57947
 11
19.1712
 21
7.94002
  0
LINE
  8
0
 10
19.1712
 20
7.94002
 11
19.5972
 21
8.18593
  0
LINE
  8
0
 10
19.5972
 20
8.18593
 11
20.0767
 21
8.29538
  0
LINE
  8
0
 10
20.0767
 20
8.29538
 11
20.5672
 21
8.25862
  0
LINE
  8
0
 10
20.5672
 20
8.25862
 11
21.025
 21
8.07893
  0
LINE
  8
0
 10
21.025
 20
8.07893
 11
21.4095
 21
7.77228
  0
LINE
  8
0
 10
21.4095
 20
7.77228
 11
21.6866
 21
7.36591
  0
LINE
  8
0
 10
21.6866
 20
7.36591
 11
21.8316
 21
6.8959
  0
LINE
  8
0
 10
21.8316
 20
6.8959
 11
21.8316
 21
6.40407
  0
LINE
  8
0
 10
21.8316
 20
6.40407
 11
21.6866
 21
5.93408
  0
LINE
  8
0
 10
21.6866
 20
5.93408
 11
21.4095
 21
5.52771
  0
LINE
  8
0
 10
21.4095
 20
5.52771
 11
21.025
 21
5.22105
  0
LINE
  8
0
 10
21.025
 20
5.22105
 11
20.5672
 21
5.04137
  0
LINE
  8
0
 10
20.5672
 20
5.04137
 11
20.0767
 21
5.00461
  0
LINE
  8
0
 10
20.0767
 20
5.00461
 11
19.5972
 21
5.11404
  0
LINE
  8
0
 10
36.8172
 20
5.11404
 11
36.3912
 21
5.35997
  0
LINE
  8
0
 10
36.3912
 20
5.35997
 11
36.0567
 21
5.72052
  0
LINE
  8
0
 10
36.0567
 20
5.72052
 11
35.8433
 21
6.16365
  0
LINE
  8
0
 10
35.8433
 20
6.16365
 11
35.77
 21
6.64999
  0
LINE
  8
0
 10
35.77
 20
6.64999
 11
35.8433
 21
7.13634
  0
LINE
  8
0
 10
35.8433
 20
7.13634
 11
36.0567
 21
7.57947
  0
LINE
  8
0
 10
36.0567
 20
7.57947
 11
36.3912
 21
7.94002
  0
LINE
  8
0
 10
36.3912
 20
7.94002
 11
36.8172
 21
8.18593
  0
LINE
  8
0
 10
36.8172
 20
8.18593
 11
37.2967
 21
8.29538
  0
LINE
  8
0
 10
37.2967
 20
8.29538
 11
37.7872
 21
8.25862
  0
LINE
  8
0
 10
37.7872
 20
8.25862
 11
38.245
 21
8.07893
  0
LINE
  8
0
 10
38.245
 20
8.07893
 11
38.6295
 21
7.77228
  0
LINE
  8
0
 10
38.6295
 20
7.77228
 11
38.9066
 21
7.36591
  0
LINE
  8
0
 10
38.9066
 20
7.36591
 11
39.0516
 21
6.8959
  0
LINE
  8
0
 10
39.0516
 20
6.8959
 11
39.0516
 21
6.40407
  0
LINE
  8
0
 10
39.0516
 20
6.40407
 11
38.9066
 21
5.93408
  0
LINE
  8
0
 10
38.9066
 20
5.93408
 11
38.6295
 21
5.52771
  0
LINE
  8
0
 10
38.6295
 20
5.52771
 11
38.245
 21
5.22105
  0
LINE
  8
0
 10
38.245
 20
5.22105
 11
37.7872
 21
5.04137
  0
LINE
  8
0
 10
37.7872
 20
5.04137
 11
37.2967
 21
5.00461
  0
LINE
  8
0
 10
37.2967
 20
5.00461
 11
36.8172
 21
5.11404
  0
LINE
  8
0
 10
263.977
 20
5.11404
 11
263.551
 21
5.35997
  0
LINE
  8
0
 10
263.551
 20
5.35997
 11
263.217
 21
5.72052
  0
LINE
  8
0
 10
263.217
 20
5.72052
 11
263.003
 21
6.16365
  0
LINE
  8
0
 10
263.003
 20
6.16365
 11
262.93
 21
6.64999
  0
LINE
  8
0
 10
262.93
 20
6.64999
 11
263.003
 21
7.13634
  0
LINE
  8
0
 10
263.003
 20
7.13634
 11
263.217
 21
7.57947
  0
LINE
  8
0
 10
263.217
 20
7.57947
 11
263.551
 21
7.94002
  0
LINE
  8
0
 10
263.551
 20
7.94002
 11
263.977
 21
8.18593
  0
LINE
  8
0
 10
263.977
 20
8.18593
 11
264.457
 21
8.29538
  0
LINE
  8
0
 10
264.457
 20
8.29538
 11
264.947
 21
8.25862
  0
LINE
  8
0
 10
264.947
 20
8.25862
 11
265.405
 21
8.07893
  0
LINE
  8
0
 10
265.405
 20
8.07893
 11
265.79
 21
7.77228
  0
LINE
  8
0
 10
265.79
 20
7.77228
 11
266.067
 21
7.36591
  0
LINE
  8
0
 10
266.067
 20
7.36591
 11
266.212
 21
6.8959
  0
LINE
  8
0
 10
266.212
 20
6.8959
 11
266.212
 21
6.40407
  0
LINE
  8
0
 10
266.212
 20
6.40407
 11
266.067
 21
5.93408
  0
LINE
  8
0
 10
266.067
 20
5.93408
 11
265.79
 21
5.52771
  0
LINE
  8
0
 10
265.79
 20
5.52771
 11
265.405
 21
5.22105
  0
LINE
  8
0
 10
265.405
 20
5.22105
 11
264.947
 21
5.04137
  0
LINE
  8
0
 10
264.947
 20
5.04137
 11
264.457
 21
5.00461
  0
LINE
  8
0
 10
264.457
 20
5.00461
 11
263.977
 21
5.11404
  0
LINE
  8
0
 10
279.179
 20
-87.7849
 11
281.341
 21
-87.5002
  0
LINE
  8
0
 10
281.341
 20
-87.5002
 11
283.47
 21
-87.0281
  0
LINE
  8
0
 10
283.47
 20
-87.0281
 11
285.55
 21
-86.3723
  0
LINE
  8
0
 10
285.55
 20
-86.3723
 11
287.565
 21
-85.5377
  0
LINE
  8
0
 10
287.565
 20
-85.5377
 11
289.5
 21
-84.5306
  0
LINE
  8
0
 10
289.5
 20
-84.5306
 11
291.339
 21
-83.3588
  0
LINE
  8
0
 10
291.339
 20
-83.3588
 11
293.07
 21
-82.0311
  0
LINE
  8
0
 10
293.07
 20
-82.0311
 11
294.678
 21
-80.5577
  0
LINE
  8
0
 10
294.678
 20
-80.5577
 11
296.151
 21
-78.9497
  0
LINE
  8
0
 10
296.151
 20
-78.9497
 11
297.479
 21
-77.2194
  0
LINE
  8
0
 10
297.479
 20
-77.2194
 11
298.651
 21
-75.38
  0
LINE
  8
0
 10
298.651
 20
-75.38
 11
299.658
 21
-73.4454
  0
LINE
  8
0
 10
299.658
 20
-73.4454
 11
300.492
 21
-71.4305
  0
LINE
  8
0
 10
300.492
 20
-71.4305
 11
301.148
 21
-69.3505
  0
LINE
  8
0
 10
301.148
 20
-69.3505
 11
301.62
 21
-67.2212
  0
LINE
  8
0
 10
301.62
 20
-67.2212
 11
301.905
 21
-65.0589
  0
LINE
  8
0
 10
301.905
 20
-65.0589
 11
302
 21
-62.88
  0
LINE
  8
0
 10
302
 20
-62.88
 11
302
 21
-3.99998
  0
LINE
  8
0
 10
302
 20
-3.99998
 11
256.265
 21
-3.99998
  0
LINE
  8
0
 10
256.265
 20
-3.99998
 11
256.265
 21
-6.24106
  0
LINE
  8
0
 10
256.265
 20
-6.24106
 11
256.15
 21
-6.7092
  0
LINE
  8
0
 10
256.15
 20
-6.7092
 11
255.926
 21
-7.13612
  0
LINE
  8
0
 10
255.926
 20
-7.13612
 11
255.606
 21
-7.49701
  0
LINE
  8
0
 10
255.606
 20
-7.49701
 11
255.209
 21
-7.7709
  0
LINE
  8
0
 10
255.209
 20
-7.7709
 11
254.759
 21
-7.94188
  0
LINE
  8
0
 10
254.759
 20
-7.94188
 11
254.28
 21
-8
  0
LINE
  8
0
 10
254.28
 20
-8
 11
253.801
 21
-7.94188
  0
LINE
  8
0
 10
253.801
 20
-7.94188
 11
253.351
 21
-7.7709
  0
LINE
  8
0
 10
253.351
 20
-7.7709
 11
252.954
 21
-7.49701
  0
LINE
  8
0
 10
252.954
 20
-7.49701
 11
252.634
 21
-7.13612
  0
LINE
  8
0
 10
252.634
 20
-7.13612
 11
252.41
 21
-6.7092
  0
LINE
  8
0
 10
252.41
 20
-6.7092
 11
252.295
 21
-6.24106
  0
LINE
  8
0
 10
252.295
 20
-6.24106
 11
252.295
 21
-3.99998
  0
LINE
  8
0
 10
252.295
 20
-3.99998
 11
246.47
 21
-3.99998
  0
LINE
  8
0
 10
246.47
 20
-3.99998
 11
246.47
 21
-7.24773
  0
LINE
  8
0
 10
246.47
 20
-7.24773
 11
246.388
 21
-7.73645
  0
LINE
  8
0
 10
246.388
 20
-7.73645
 11
246.227
 21
-8.20508
  0
LINE
  8
0
 10
246.227
 20
-8.20508
 11
245.991
 21
-8.64084
  0
LINE
  8
0
 10
245.991
 20
-8.64084
 11
245.687
 21
-9.03183
  0
LINE
  8
0
 10
245.687
 20
-9.03183
 11
245.323
 21
-9.36742
  0
LINE
  8
0
 10
245.323
 20
-9.36742
 11
244.908
 21
-9.63841
  0
LINE
  8
0
 10
244.908
 20
-9.63841
 11
244.454
 21
-9.83745
  0
LINE
  8
0
 10
244.454
 20
-9.83745
 11
243.974
 21
-9.95908
  0
LINE
  8
0
 10
243.974
 20
-9.95908
 11
243.48
 21
-10
  0
LINE
  8
0
 10
243.48
 20
-10
 11
242.986
 21
-9.95908
  0
LINE
  8
0
 10
242.986
 20
-9.95908
 11
242.506
 21
-9.83745
  0
LINE
  8
0
 10
242.506
 20
-9.83745
 11
242.052
 21
-9.63841
  0
LINE
  8
0
 10
242.052
 20
-9.63841
 11
241.637
 21
-9.36742
  0
LINE
  8
0
 10
241.637
 20
-9.36742
 11
241.273
 21
-9.03183
  0
LINE
  8
0
 10
241.273
 20
-9.03183
 11
240.968
 21
-8.64084
  0
LINE
  8
0
 10
240.968
 20
-8.64084
 11
240.733
 21
-8.20508
  0
LINE
  8
0
 10
240.733
 20
-8.20508
 11
240.572
 21
-7.73645
  0
LINE
  8
0
 10
240.572
 20
-7.73645
 11
240.49
 21
-7.24773
  0
LINE
  8
0
 10
240.49
 20
-7.24773
 11
240.49
 21
-3.99998
  0
LINE
  8
0
 10
240.49
 20
-3.99998
 11
0
 21
-3.99998
  0
LINE
  8
0
 10
0
 20
-3.99998
 11
0
 21
-17.3
  0
LINE
  8
0
 10
0
 20
-17.3
 11
2.5
 21
-17.3
  0
LINE
  8
0
 10
2.5
 20
-17.3
 11
2.98772
 21
-17.348
  0
LINE
  8
0
 10
2.98772
 20
-17.348
 11
3.4567
 21
-17.4903
  0
LINE
  8
0
 10
3.4567
 20
-17.4903
 11
3.88892
 21
-17.7213
  0
LINE
  8
0
 10
3.88892
 20
-17.7213
 11
4.26776
 21
-18.0322
  0
LINE
  8
0
 10
4.26776
 20
-18.0322
 11
4.57866
 21
-18.4111
  0
LINE
  8
0
 10
4.57866
 20
-18.4111
 11
4.80969
 21
-18.8433
  0
LINE
  8
0
 10
4.80969
 20
-18.8433
 11
4.95195
 21
-19.3123
  0
LINE
  8
0
 10
4.95195
 20
-19.3123
 11
5
 21
-19.8
  0
LINE
  8
0
 10
5
 20
-19.8
 11
4.95195
 21
-20.2877
  0
LINE
  8
0
 10
4.95195
 20
-20.2877
 11
4.80969
 21
-20.7567
  0
LINE
  8
0
 10
4.80969
 20
-20.7567
 11
4.57866
 21
-21.1889
  0
LINE
  8
0
 10
4.57866
 20
-21.1889
 11
4.26776
 21
-21.5678
  0
LINE
  8
0
 10
4.26776
 20
-21.5678
 11
3.88892
 21
-21.8787
  0
LINE
  8
0
 10
3.88892
 20
-21.8787
 11
3.4567
 21
-22.1097
  0
LINE
  8
0
 10
3.4567
 20
-22.1097
 11
2.98772
 21
-22.252
  0
LINE
  8
0
 10
2.98772
 20
-22.252
 11
2.49998
 21
-22.3
  0
LINE
  8
0
 10
2.49998
 20
-22.3
 11
0
 21
-22.3
  0
LINE
  8
0
 10
0
 20
-22.3
 11
0
 21
-27.3146
  0
LINE
  8
0
 10
0
 20
-27.3146
 11
2.24106
 21
-27.3146
  0
LINE
  8
0
 10
2.24106
 20
-27.3146
 11
2.7092
 21
-27.43
  0
LINE
  8
0
 10
2.7092
 20
-27.43
 11
3.13612
 21
-27.654
  0
LINE
  8
0
 10
3.13612
 20
-27.654
 11
3.49701
 21
-27.9737
  0
LINE
  8
0
 10
3.49701
 20
-27.9737
 11
3.7709
 21
-28.3705
  0
LINE
  8
0
 10
3.7709
 20
-28.3705
 11
3.94188
 21
-28.8214
  0
LINE
  8
0
 10
3.94188
 20
-28.8214
 11
4
 21
-29.3
  0
LINE
  8
0
 10
4
 20
-29.3
 11
3.94188
 21
-29.7786
  0
LINE
  8
0
 10
3.94188
 20
-29.7786
 11
3.7709
 21
-30.2294
  0
LINE
  8
0
 10
3.7709
 20
-30.2294
 11
3.49701
 21
-30.6262
  0
LINE
  8
0
 10
3.49701
 20
-30.6262
 11
3.13612
 21
-30.946
  0
LINE
  8
0
 10
3.13612
 20
-30.946
 11
2.7092
 21
-31.17
  0
LINE
  8
0
 10
2.7092
 20
-31.17
 11
2.24106
 21
-31.2854
  0
LINE
  8
0
 10
2.24106
 20
-31.2854
 11
0
 21
-31.2854
  0
LINE
  8
0
 10
0
 20
-31.2854
 11
0
 21
-62.2946
  0
LINE
  8
0
 10
0
 20
-62.2946
 11
2.24106
 21
-62.2946
  0
LINE
  8
0
 10
2.24106
 20
-62.2946
 11
2.7092
 21
-62.41
  0
LINE
  8
0
 10
2.7092
 20
-62.41
 11
3.13612
 21
-62.634
  0
LINE
  8
0
 10
3.13612
 20
-62.634
 11
3.49701
 21
-62.9538
  0
LINE
  8
0
 10
3.49701
 20
-62.9538
 11
3.7709
 21
-63.3505
  0
LINE
  8
0
 10
3.7709
 20
-63.3505
 11
3.94188
 21
-63.8014
  0
LINE
  8
0
 10
3.94188
 20
-63.8014
 11
4
 21
-64.28
  0
LINE
  8
0
 10
4
 20
-64.28
 11
3.94188
 21
-64.7586
  0
LINE
  8
0
 10
3.94188
 20
-64.7586
 11
3.7709
 21
-65.2094
  0
LINE
  8
0
 10
3.7709
 20
-65.2094
 11
3.49701
 21
-65.6062
  0
LINE
  8
0
 10
3.49701
 20
-65.6062
 11
3.13612
 21
-65.926
  0
LINE
  8
0
 10
3.13612
 20
-65.926
 11
2.7092
 21
-66.15
  0
LINE
  8
0
 10
2.7092
 20
-66.15
 11
2.24106
 21
-66.2654
  0
LINE
  8
0
 10
2.24106
 20
-66.2654
 11
0
 21
-66.2654
  0
LINE
  8
0
 10
0
 20
-66.2654
 11
0
 21
-72.28
  0
LINE
  8
0
 10
0
 20
-72.28
 11
3.5
 21
-72.28
  0
LINE
  8
0
 10
3.5
 20
-72.28
 11
3.99809
 21
-72.3156
  0
LINE
  8
0
 10
3.99809
 20
-72.3156
 11
4.48605
 21
-72.4218
  0
LINE
  8
0
 10
4.48605
 20
-72.4218
 11
4.95395
 21
-72.5963
  0
LINE
  8
0
 10
4.95395
 20
-72.5963
 11
5.39224
 21
-72.8356
  0
LINE
  8
0
 10
5.39224
 20
-72.8356
 11
5.79201
 21
-73.1349
  0
LINE
  8
0
 10
5.79201
 20
-73.1349
 11
6.14511
 21
-73.488
  0
LINE
  8
0
 10
6.14511
 20
-73.488
 11
6.44438
 21
-73.8877
  0
LINE
  8
0
 10
6.44438
 20
-73.8877
 11
6.6837
 21
-74.326
  0
LINE
  8
0
 10
6.6837
 20
-74.326
 11
6.85822
 21
-74.7939
  0
LINE
  8
0
 10
6.85822
 20
-74.7939
 11
6.96437
 21
-75.2819
  0
LINE
  8
0
 10
6.96437
 20
-75.2819
 11
7
 21
-75.78
  0
LINE
  8
0
 10
7
 20
-75.78
 11
6.96437
 21
-76.2781
  0
LINE
  8
0
 10
6.96437
 20
-76.2781
 11
6.85822
 21
-76.7661
  0
LINE
  8
0
 10
6.85822
 20
-76.7661
 11
6.6837
 21
-77.2339
  0
LINE
  8
0
 10
6.6837
 20
-77.2339
 11
6.44438
 21
-77.6722
  0
LINE
  8
0
 10
6.44438
 20
-77.6722
 11
6.14511
 21
-78.072
  0
LINE
  8
0
 10
6.14511
 20
-78.072
 11
5.79201
 21
-78.4251
  0
LINE
  8
0
 10
5.79201
 20
-78.4251
 11
5.39224
 21
-78.7244
  0
LINE
  8
0
 10
5.39224
 20
-78.7244
 11
4.95395
 21
-78.9637
  0
LINE
  8
0
 10
4.95395
 20
-78.9637
 11
4.48605
 21
-79.1382
  0
LINE
  8
0
 10
4.48605
 20
-79.1382
 11
3.99809
 21
-79.2444
  0
LINE
  8
0
 10
3.99809
 20
-79.2444
 11
3.49998
 21
-79.28
  0
LINE
  8
0
 10
3.49998
 20
-79.28
 11
0
 21
-79.28
  0
LINE
  8
0
 10
0
 20
-79.28
 11
0
 21
-87.88
  0
LINE
  8
0
 10
0
 20
-87.88
 11
277
 21
-87.88
  0
LINE
  8
0
 10
277
 20
-87.88
 11
279.179
 21
-87.7849
  0
LINE
  8
0
 10
19.8328
 20
-12.2586
 11
19.375
 21
-12.0789
  0
LINE
  8
0
 10
19.375
 20
-12.0789
 11
18.9905
 21
-11.7723
  0
LINE
  8
0
 10
18.9905
 20
-11.7723
 11
18.7134
 21
-11.3659
  0
LINE
  8
0
 10
18.7134
 20
-11.3659
 11
18.5684
 21
-10.8959
  0
LINE
  8
0
 10
18.5684
 20
-10.8959
 11
18.5684
 21
-10.4041
  0
LINE
  8
0
 10
18.5684
 20
-10.4041
 11
18.7134
 21
-9.93408
  0
LINE
  8
0
 10
18.7134
 20
-9.93408
 11
18.9905
 21
-9.52771
  0
LINE
  8
0
 10
18.9905
 20
-9.52771
 11
19.375
 21
-9.22105
  0
LINE
  8
0
 10
19.375
 20
-9.22105
 11
19.8328
 21
-9.04137
  0
LINE
  8
0
 10
19.8328
 20
-9.04137
 11
20.3233
 21
-9.00461
  0
LINE
  8
0
 10
20.3233
 20
-9.00461
 11
20.8028
 21
-9.11404
  0
LINE
  8
0
 10
20.8028
 20
-9.11404
 11
21.2287
 21
-9.35997
  0
LINE
  8
0
 10
21.2287
 20
-9.35997
 11
21.5633
 21
-9.72052
  0
LINE
  8
0
 10
21.5633
 20
-9.72052
 11
21.7767
 21
-10.1637
  0
LINE
  8
0
 10
21.7767
 20
-10.1637
 11
21.85
 21
-10.65
  0
LINE
  8
0
 10
21.85
 20
-10.65
 11
21.7767
 21
-11.1363
  0
LINE
  8
0
 10
21.7767
 20
-11.1363
 11
21.5633
 21
-11.5795
  0
LINE
  8
0
 10
21.5633
 20
-11.5795
 11
21.2287
 21
-11.94
  0
LINE
  8
0
 10
21.2287
 20
-11.94
 11
20.8028
 21
-12.1859
  0
LINE
  8
0
 10
20.8028
 20
-12.1859
 11
20.3233
 21
-12.2954
  0
LINE
  8
0
 10
20.3233
 20
-12.2954
 11
19.8328
 21
-12.2586
  0
LINE
  8
0
 10
37.0528
 20
-12.2586
 11
36.595
 21
-12.0789
  0
LINE
  8
0
 10
36.595
 20
-12.0789
 11
36.2104
 21
-11.7723
  0
LINE
  8
0
 10
36.2104
 20
-11.7723
 11
35.9334
 21
-11.3659
  0
LINE
  8
0
 10
35.9334
 20
-11.3659
 11
35.7884
 21
-10.8959
  0
LINE
  8
0
 10
35.7884
 20
-10.8959
 11
35.7884
 21
-10.4041
  0
LINE
  8
0
 10
35.7884
 20
-10.4041
 11
35.9334
 21
-9.93408
  0
LINE
  8
0
 10
35.9334
 20
-9.93408
 11
36.2104
 21
-9.52771
  0
LINE
  8
0
 10
36.2104
 20
-9.52771
 11
36.595
 21
-9.22105
  0
LINE
  8
0
 10
36.595
 20
-9.22105
 11
37.0528
 21
-9.04137
  0
LINE
  8
0
 10
37.0528
 20
-9.04137
 11
37.5433
 21
-9.00461
  0
LINE
  8
0
 10
37.5433
 20
-9.00461
 11
38.0228
 21
-9.11404
  0
LINE
  8
0
 10
38.0228
 20
-9.11404
 11
38.4487
 21
-9.35997
  0
LINE
  8
0
 10
38.4487
 20
-9.35997
 11
38.7833
 21
-9.72052
  0
LINE
  8
0
 10
38.7833
 20
-9.72052
 11
38.9967
 21
-10.1637
  0
LINE
  8
0
 10
38.9967
 20
-10.1637
 11
39.07
 21
-10.65
  0
LINE
  8
0
 10
39.07
 20
-10.65
 11
38.9967
 21
-11.1363
  0
LINE
  8
0
 10
38.9967
 20
-11.1363
 11
38.7833
 21
-11.5795
  0
LINE
  8
0
 10
38.7833
 20
-11.5795
 11
38.4487
 21
-11.94
  0
LINE
  8
0
 10
38.4487
 20
-11.94
 11
38.0228
 21
-12.1859
  0
LINE
  8
0
 10
38.0228
 20
-12.1859
 11
37.5433
 21
-12.2954
  0
LINE
  8
0
 10
37.5433
 20
-12.2954
 11
37.0528
 21
-12.2586
  0
LINE
  8
0
 10
264.213
 20
-12.2586
 11
263.755
 21
-12.0789
  0
LINE
  8
0
 10
263.755
 20
-12.0789
 11
263.37
 21
-11.7723
  0
LINE
  8
0
 10
263.37
 20
-11.7723
 11
263.093
 21
-11.3659
  0
LINE
  8
0
 10
263.093
 20
-11.3659
 11
262.948
 21
-10.8959
  0
LINE
  8
0
 10
262.948
 20
-10.8959
 11
262.948
 21
-10.4041
  0
LINE
  8
0
 10
262.948
 20
-10.4041
 11
263.093
 21
-9.93408
  0
LINE
  8
0
 10
263.093
 20
-9.93408
 11
263.37
 21
-9.52771
  0
LINE
  8
0
 10
263.37
 20
-9.52771
 11
263.755
 21
-9.22105
  0
LINE
  8
0
 10
263.755
 20
-9.22105
 11
264.213
 21
-9.04137
  0
LINE
  8
0
 10
264.213
 20
-9.04137
 11
264.703
 21
-9.00461
  0
LINE
  8
0
 10
264.703
 20
-9.00461
 11
265.183
 21
-9.11404
  0
LINE
  8
0
 10
265.183
 20
-9.11404
 11
265.609
 21
-9.35997
  0
LINE
  8
0
 10
265.609
 20
-9.35997
 11
265.943
 21
-9.72052
  0
LINE
  8
0
 10
265.943
 20
-9.72052
 11
266.157
 21
-10.1637
  0
LINE
  8
0
 10
266.157
 20
-10.1637
 11
266.23
 21
-10.65
  0
LINE
  8
0
 10
266.23
 20
-10.65
 11
266.157
 21
-11.1363
  0
LINE
  8
0
 10
266.157
 20
-11.1363
 11
265.943
 21
-11.5795
  0
LINE
  8
0
 10
265.943
 20
-11.5795
 11
265.609
 21
-11.94
  0
LINE
  8
0
 10
265.609
 20
-11.94
 11
265.183
 21
-12.1859
  0
LINE
  8
0
 10
265.183
 20
-12.1859
 11
264.703
 21
-12.2954
  0
LINE
  8
0
 10
264.703
 20
-12.2954
 11
264.213
 21
-12.2586
  0
LINE
  8
0
 10
281.433
 20
-12.2586
 11
280.975
 21
-12.0789
  0
LINE
  8
0
 10
280.975
 20
-12.0789
 11
280.59
 21
-11.7723
  0
LINE
  8
0
 10
280.59
 20
-11.7723
 11
280.313
 21
-11.3659
  0
LINE
  8
0
 10
280.313
 20
-11.3659
 11
280.168
 21
-10.8959
  0
LINE
  8
0
 10
280.168
 20
-10.8959
 11
280.168
 21
-10.4041
  0
LINE
  8
0
 10
280.168
 20
-10.4041
 11
280.313
 21
-9.93408
  0
LINE
  8
0
 10
280.313
 20
-9.93408
 11
280.59
 21
-9.52771
  0
LINE
  8
0
 10
280.59
 20
-9.52771
 11
280.975
 21
-9.22105
  0
LINE
  8
0
 10
280.975
 20
-9.22105
 11
281.433
 21
-9.04137
  0
LINE
  8
0
 10
281.433
 20
-9.04137
 11
281.923
 21
-9.00461
  0
LINE
  8
0
 10
281.923
 20
-9.00461
 11
282.403
 21
-9.11404
  0
LINE
  8
0
 10
282.403
 20
-9.11404
 11
282.829
 21
-9.35997
  0
LINE
  8
0
 10
282.829
 20
-9.35997
 11
283.163
 21
-9.72052
  0
LINE
  8
0
 10
283.163
 20
-9.72052
 11
283.377
 21
-10.1637
  0
LINE
  8
0
 10
283.377
 20
-10.1637
 11
283.45
 21
-10.65
  0
LINE
  8
0
 10
283.45
 20
-10.65
 11
283.377
 21
-11.1363
  0
LINE
  8
0
 10
283.377
 20
-11.1363
 11
283.163
 21
-11.5795
  0
LINE
  8
0
 10
283.163
 20
-11.5795
 11
282.829
 21
-11.94
  0
LINE
  8
0
 10
282.829
 20
-11.94
 11
282.403
 21
-12.1859
  0
LINE
  8
0
 10
282.403
 20
-12.1859
 11
281.923
 21
-12.2954
  0
LINE
  8
0
 10
281.923
 20
-12.2954
 11
281.433
 21
-12.2586
  0
LINE
  8
0
 10
138.174
 20
-25.9267
 11
137.731
 21
-25.7133
  0
LINE
  8
0
 10
137.731
 20
-25.7133
 11
137.37
 21
-25.3788
  0
LINE
  8
0
 10
137.37
 20
-25.3788
 11
137.124
 21
-24.9528
  0
LINE
  8
0
 10
137.124
 20
-24.9528
 11
137.015
 21
-24.4733
  0
LINE
  8
0
 10
137.015
 20
-24.4733
 11
137.051
 21
-23.9828
  0
LINE
  8
0
 10
137.051
 20
-23.9828
 11
137.231
 21
-23.525
  0
LINE
  8
0
 10
137.231
 20
-23.525
 11
137.538
 21
-23.1405
  0
LINE
  8
0
 10
137.538
 20
-23.1405
 11
137.944
 21
-22.8634
  0
LINE
  8
0
 10
137.944
 20
-22.8634
 11
138.414
 21
-22.7184
  0
LINE
  8
0
 10
138.414
 20
-22.7184
 11
138.906
 21
-22.7184
  0
LINE
  8
0
 10
138.906
 20
-22.7184
 11
139.376
 21
-22.8634
  0
LINE
  8
0
 10
139.376
 20
-22.8634
 11
139.782
 21
-23.1405
  0
LINE
  8
0
 10
139.782
 20
-23.1405
 11
140.089
 21
-23.525
  0
LINE
  8
0
 10
140.089
 20
-23.525
 11
140.269
 21
-23.9828
  0
LINE
  8
0
 10
140.269
 20
-23.9828
 11
140.305
 21
-24.4733
  0
LINE
  8
0
 10
140.305
 20
-24.4733
 11
140.196
 21
-24.9528
  0
LINE
  8
0
 10
140.196
 20
-24.9528
 11
139.95
 21
-25.3788
  0
LINE
  8
0
 10
139.95
 20
-25.3788
 11
139.589
 21
-25.7133
  0
LINE
  8
0
 10
139.589
 20
-25.7133
 11
139.146
 21
-25.9267
  0
LINE
  8
0
 10
139.146
 20
-25.9267
 11
138.66
 21
-26
  0
LINE
  8
0
 10
138.66
 20
-26
 11
138.174
 21
-25.9267
  0
LINE
  8
0
 10
232.154
 20
-25.9267
 11
231.711
 21
-25.7133
  0
LINE
  8
0
 10
231.711
 20
-25.7133
 11
231.35
 21
-25.3788
  0
LINE
  8
0
 10
231.35
 20
-25.3788
 11
231.104
 21
-24.9528
  0
LINE
  8
0
 10
231.104
 20
-24.9528
 11
230.995
 21
-24.4733
  0
LINE
  8
0
 10
230.995
 20
-24.4733
 11
231.031
 21
-23.9828
  0
LINE
  8
0
 10
231.031
 20
-23.9828
 11
231.211
 21
-23.525
  0
LINE
  8
0
 10
231.211
 20
-23.525
 11
231.518
 21
-23.1405
  0
LINE
  8
0
 10
231.518
 20
-23.1405
 11
231.924
 21
-22.8634
  0
LINE
  8
0
 10
231.924
 20
-22.8634
 11
232.394
 21
-22.7184
  0
LINE
  8
0
 10
232.394
 20
-22.7184
 11
232.886
 21
-22.7184
  0
LINE
  8
0
 10
232.886
 20
-22.7184
 11
233.356
 21
-22.8634
  0
LINE
  8
0
 10
233.356
 20
-22.8634
 11
233.762
 21
-23.1405
  0
LINE
  8
0
 10
233.762
 20
-23.1405
 11
234.069
 21
-23.525
  0
LINE
  8
0
 10
234.069
 20
-23.525
 11
234.249
 21
-23.9828
  0
LINE
  8
0
 10
234.249
 20
-23.9828
 11
234.285
 21
-24.4733
  0
LINE
  8
0
 10
234.285
 20
-24.4733
 11
234.176
 21
-24.9528
  0
LINE
  8
0
 10
234.176
 20
-24.9528
 11
233.93
 21
-25.3788
  0
LINE
  8
0
 10
233.93
 20
-25.3788
 11
233.569
 21
-25.7133
  0
LINE
  8
0
 10
233.569
 20
-25.7133
 11
233.126
 21
-25.9267
  0
LINE
  8
0
 10
233.126
 20
-25.9267
 11
232.64
 21
-26
  0
LINE
  8
0
 10
232.64
 20
-26
 11
232.154
 21
-25.9267
  0
LINE
  8
0
 10
19.0558
 20
-31.01
 11
18.3286
 21
-29.5
  0
LINE
  8
0
 10
18.3286
 20
-29.5
 11
19.0558
 21
-27.99
  0
LINE
  8
0
 10
19.0558
 20
-27.99
 11
20.6898
 21
-27.6171
  0
LINE
  8
0
 10
20.6898
 20
-27.6171
 11
22.0001
 21
-28.662
  0
LINE
  8
0
 10
22.0001
 20
-28.662
 11
22.0001
 21
-30.338
  0
LINE
  8
0
 10
22.0001
 20
-30.338
 11
20.6898
 21
-31.3829
  0
LINE
  8
0
 10
20.6898
 20
-31.3829
 11
19.0558
 21
-31.01
  0
LINE
  8
0
 10
64.0558
 20
-31.01
 11
63.3286
 21
-29.5
  0
LINE
  8
0
 10
63.3286
 20
-29.5
 11
64.0558
 21
-27.99
  0
LINE
  8
0
 10
64.0558
 20
-27.99
 11
65.6898
 21
-27.6171
  0
LINE
  8
0
 10
65.6898
 20
-27.6171
 11
67.0001
 21
-28.662
  0
LINE
  8
0
 10
67.0001
 20
-28.662
 11
67.0001
 21
-30.338
  0
LINE
  8
0
 10
67.0001
 20
-30.338
 11
65.6898
 21
-31.3829
  0
LINE
  8
0
 10
65.6898
 20
-31.3829
 11
64.0558
 21
-31.01
  0
LINE
  8
0
 10
194.319
 20
-32.8359
 11
193.894
 21
-32.59
  0
LINE
  8
0
 10
193.894
 20
-32.59
 11
193.559
 21
-32.2295
  0
LINE
  8
0
 10
193.559
 20
-32.2295
 11
193.346
 21
-31.7863
  0
LINE
  8
0
 10
193.346
 20
-31.7863
 11
193.272
 21
-31.3
  0
LINE
  8
0
 10
193.272
 20
-31.3
 11
193.346
 21
-30.8136
  0
LINE
  8
0
 10
193.346
 20
-30.8136
 11
193.559
 21
-30.3705
  0
LINE
  8
0
 10
193.559
 20
-30.3705
 11
193.894
 21
-30.01
  0
LINE
  8
0
 10
193.894
 20
-30.01
 11
194.319
 21
-29.7641
  0
LINE
  8
0
 10
194.319
 20
-29.7641
 11
194.799
 21
-29.6546
  0
LINE
  8
0
 10
194.799
 20
-29.6546
 11
195.289
 21
-29.6914
  0
LINE
  8
0
 10
195.289
 20
-29.6914
 11
195.747
 21
-29.871
  0
LINE
  8
0
 10
195.747
 20
-29.871
 11
196.132
 21
-30.1777
  0
LINE
  8
0
 10
196.132
 20
-30.1777
 11
196.409
 21
-30.5841
  0
LINE
  8
0
 10
196.409
 20
-30.5841
 11
196.554
 21
-31.0541
  0
LINE
  8
0
 10
196.554
 20
-31.0541
 11
196.554
 21
-31.5459
  0
LINE
  8
0
 10
196.554
 20
-31.5459
 11
196.409
 21
-32.0159
  0
LINE
  8
0
 10
196.409
 20
-32.0159
 11
196.132
 21
-32.4223
  0
LINE
  8
0
 10
196.132
 20
-32.4223
 11
195.747
 21
-32.7289
  0
LINE
  8
0
 10
195.747
 20
-32.7289
 11
195.289
 21
-32.9086
  0
LINE
  8
0
 10
195.289
 20
-32.9086
 11
194.799
 21
-32.9454
  0
LINE
  8
0
 10
194.799
 20
-32.9454
 11
194.319
 21
-32.8359
  0
LINE
  8
0
 10
6.40407
 20
-65.3916
 11
5.93408
 21
-65.2466
  0
LINE
  8
0
 10
5.93408
 20
-65.2466
 11
5.52771
 21
-64.9695
  0
LINE
  8
0
 10
5.52771
 20
-64.9695
 11
5.22105
 21
-64.585
  0
LINE
  8
0
 10
5.22105
 20
-64.585
 11
5.04137
 21
-64.1272
  0
LINE
  8
0
 10
5.04137
 20
-64.1272
 11
5.00461
 21
-63.6367
  0
LINE
  8
0
 10
5.00461
 20
-63.6367
 11
5.11404
 21
-63.1572
  0
LINE
  8
0
 10
5.11404
 20
-63.1572
 11
5.35997
 21
-62.7312
  0
LINE
  8
0
 10
5.35997
 20
-62.7312
 11
5.72052
 21
-62.3967
  0
LINE
  8
0
 10
5.72052
 20
-62.3967
 11
6.16365
 21
-62.1833
  0
LINE
  8
0
 10
6.16365
 20
-62.1833
 11
6.64999
 21
-62.11
  0
LINE
  8
0
 10
6.64999
 20
-62.11
 11
7.13634
 21
-62.1833
  0
LINE
  8
0
 10
7.13634
 20
-62.1833
 11
7.57947
 21
-62.3967
  0
LINE
  8
0
 10
7.57947
 20
-62.3967
 11
7.94002
 21
-62.7312
  0
LINE
  8
0
 10
7.94002
 20
-62.7312
 11
8.18593
 21
-63.1572
  0
LINE
  8
0
 10
8.18593
 20
-63.1572
 11
8.29538
 21
-63.6367
  0
LINE
  8
0
 10
8.29538
 20
-63.6367
 11
8.25862
 21
-64.1272
  0
LINE
  8
0
 10
8.25862
 20
-64.1272
 11
8.07893
 21
-64.585
  0
LINE
  8
0
 10
8.07893
 20
-64.585
 11
7.77228
 21
-64.9695
  0
LINE
  8
0
 10
7.77228
 20
-64.9695
 11
7.36591
 21
-65.2466
  0
LINE
  8
0
 10
7.36591
 20
-65.2466
 11
6.8959
 21
-65.3916
  0
LINE
  8
0
 10
6.8959
 20
-65.3916
 11
6.40407
 21
-65.3916
  0
LINE
  8
0
 10
138.174
 20
-69.1067
 11
137.731
 21
-68.8933
  0
LINE
  8
0
 10
137.731
 20
-68.8933
 11
137.37
 21
-68.5587
  0
LINE
  8
0
 10
137.37
 20
-68.5587
 11
137.124
 21
-68.1328
  0
LINE
  8
0
 10
137.124
 20
-68.1328
 11
137.015
 21
-67.6533
  0
LINE
  8
0
 10
137.015
 20
-67.6533
 11
137.051
 21
-67.1628
  0
LINE
  8
0
 10
137.051
 20
-67.1628
 11
137.231
 21
-66.705
  0
LINE
  8
0
 10
137.231
 20
-66.705
 11
137.538
 21
-66.3204
  0
LINE
  8
0
 10
137.538
 20
-66.3204
 11
137.944
 21
-66.0434
  0
LINE
  8
0
 10
137.944
 20
-66.0434
 11
138.414
 21
-65.8984
  0
LINE
  8
0
 10
138.414
 20
-65.8984
 11
138.906
 21
-65.8984
  0
LINE
  8
0
 10
138.906
 20
-65.8984
 11
139.376
 21
-66.0434
  0
LINE
  8
0
 10
139.376
 20
-66.0434
 11
139.782
 21
-66.3204
  0
LINE
  8
0
 10
139.782
 20
-66.3204
 11
140.089
 21
-66.705
  0
LINE
  8
0
 10
140.089
 20
-66.705
 11
140.269
 21
-67.1628
  0
LINE
  8
0
 10
140.269
 20
-67.1628
 11
140.305
 21
-67.6533
  0
LINE
  8
0
 10
140.305
 20
-67.6533
 11
140.196
 21
-68.1328
  0
LINE
  8
0
 10
140.196
 20
-68.1328
 11
139.95
 21
-68.5587
  0
LINE
  8
0
 10
139.95
 20
-68.5587
 11
139.589
 21
-68.8933
  0
LINE
  8
0
 10
139.589
 20
-68.8933
 11
139.146
 21
-69.1067
  0
LINE
  8
0
 10
139.146
 20
-69.1067
 11
138.66
 21
-69.18
  0
LINE
  8
0
 10
138.66
 20
-69.18
 11
138.174
 21
-69.1067
  0
LINE
  8
0
 10
232.154
 20
-69.1067
 11
231.711
 21
-68.8933
  0
LINE
  8
0
 10
231.711
 20
-68.8933
 11
231.35
 21
-68.5587
  0
LINE
  8
0
 10
231.35
 20
-68.5587
 11
231.104
 21
-68.1328
  0
LINE
  8
0
 10
231.104
 20
-68.1328
 11
230.995
 21
-67.6533
  0
LINE
  8
0
 10
230.995
 20
-67.6533
 11
231.031
 21
-67.1628
  0
LINE
  8
0
 10
231.031
 20
-67.1628
 11
231.211
 21
-66.705
  0
LINE
  8
0
 10
231.211
 20
-66.705
 11
231.518
 21
-66.3204
  0
LINE
  8
0
 10
231.518
 20
-66.3204
 11
231.924
 21
-66.0434
  0
LINE
  8
0
 10
231.924
 20
-66.0434
 11
232.394
 21
-65.8984
  0
LINE
  8
0
 10
232.394
 20
-65.8984
 11
232.886
 21
-65.8984
  0
LINE
  8
0
 10
232.886
 20
-65.8984
 11
233.356
 21
-66.0434
  0
LINE
  8
0
 10
233.356
 20
-66.0434
 11
233.762
 21
-66.3204
  0
LINE
  8
0
 10
233.762
 20
-66.3204
 11
234.069
 21
-66.705
  0
LINE
  8
0
 10
234.069
 20
-66.705
 11
234.249
 21
-67.1628
  0
LINE
  8
0
 10
234.249
 20
-67.1628
 11
234.285
 21
-67.6533
  0
LINE
  8
0
 10
234.285
 20
-67.6533
 11
234.176
 21
-68.1328
  0
LINE
  8
0
 10
234.176
 20
-68.1328
 11
233.93
 21
-68.5587
  0
LINE
  8
0
 10
233.93
 20
-68.5587
 11
233.569
 21
-68.8933
  0
LINE
  8
0
 10
233.569
 20
-68.8933
 11
233.126
 21
-69.1067
  0
LINE
  8
0
 10
233.126
 20
-69.1067
 11
232.64
 21
-69.18
  0
LINE
  8
0
 10
232.64
 20
-69.18
 11
232.154
 21
-69.1067
  0
LINE
  8
0
 10
6.40407
 20
-82.6116
 11
5.93408
 21
-82.4666
  0
LINE
  8
0
 10
5.93408
 20
-82.4666
 11
5.52771
 21
-82.1895
  0
LINE
  8
0
 10
5.52771
 20
-82.1895
 11
5.22105
 21
-81.805
  0
LINE
  8
0
 10
5.22105
 20
-81.805
 11
5.04137
 21
-81.3472
  0
LINE
  8
0
 10
5.04137
 20
-81.3472
 11
5.00461
 21
-80.8567
  0
LINE
  8
0
 10
5.00461
 20
-80.8567
 11
5.11404
 21
-80.3772
  0
LINE
  8
0
 10
5.11404
 20
-80.3772
 11
5.35997
 21
-79.9512
  0
LINE
  8
0
 10
5.35997
 20
-79.9512
 11
5.72052
 21
-79.6167
  0
LINE
  8
0
 10
5.72052
 20
-79.6167
 11
6.16365
 21
-79.4033
  0
LINE
  8
0
 10
6.16365
 20
-79.4033
 11
6.64999
 21
-79.33
  0
LINE
  8
0
 10
6.64999
 20
-79.33
 11
7.13634
 21
-79.4033
  0
LINE
  8
0
 10
7.13634
 20
-79.4033
 11
7.57947
 21
-79.6167
  0
LINE
  8
0
 10
7.57947
 20
-79.6167
 11
7.94002
 21
-79.9512
  0
LINE
  8
0
 10
7.94002
 20
-79.9512
 11
8.18593
 21
-80.3772
  0
LINE
  8
0
 10
8.18593
 20
-80.3772
 11
8.29538
 21
-80.8567
  0
LINE
  8
0
 10
8.29538
 20
-80.8567
 11
8.25862
 21
-81.3472
  0
LINE
  8
0
 10
8.25862
 20
-81.3472
 11
8.07893
 21
-81.805
  0
LINE
  8
0
 10
8.07893
 20
-81.805
 11
7.77228
 21
-82.1895
  0
LINE
  8
0
 10
7.77228
 20
-82.1895
 11
7.36591
 21
-82.4666
  0
LINE
  8
0
 10
7.36591
 20
-82.4666
 11
6.8959
 21
-82.6116
  0
LINE
  8
0
 10
6.8959
 20
-82.6116
 11
6.40407
 21
-82.6116
  0
ENDSEC
  0
SECTION
  2
OBJECTS
  0
DICTIONARY
  0
ENDSEC
  0
EOF
