  0
SECTION
  2
BLOCKS
  0
ENDSEC
  0
SECTION
  2
ENTITIES
  0
LINE
  8
0
 10
-172
 20
-96.5
 11
-171.905
 21
-98.6789
  0
LINE
  8
0
 10
-171.905
 20
-98.6789
 11
-171.62
 21
-100.841
  0
LINE
  8
0
 10
-171.62
 20
-100.841
 11
-171.148
 21
-102.97
  0
LINE
  8
0
 10
-171.148
 20
-102.97
 11
-170.492
 21
-105.051
  0
LINE
  8
0
 10
-170.492
 20
-105.051
 11
-169.658
 21
-107.065
  0
LINE
  8
0
 10
-169.658
 20
-107.065
 11
-168.651
 21
-109
  0
LINE
  8
0
 10
-168.651
 20
-109
 11
-167.479
 21
-110.839
  0
LINE
  8
0
 10
-167.479
 20
-110.839
 11
-166.151
 21
-112.57
  0
LINE
  8
0
 10
-166.151
 20
-112.57
 11
-164.678
 21
-114.178
  0
LINE
  8
0
 10
-164.678
 20
-114.178
 11
-163.07
 21
-115.651
  0
LINE
  8
0
 10
-163.07
 20
-115.651
 11
-161.339
 21
-116.979
  0
LINE
  8
0
 10
-161.339
 20
-116.979
 11
-159.5
 21
-118.151
  0
LINE
  8
0
 10
-159.5
 20
-118.151
 11
-157.565
 21
-119.158
  0
LINE
  8
0
 10
-157.565
 20
-119.158
 11
-155.551
 21
-119.992
  0
LINE
  8
0
 10
-155.551
 20
-119.992
 11
-153.47
 21
-120.648
  0
LINE
  8
0
 10
-153.47
 20
-120.648
 11
-151.341
 21
-121.12
  0
LINE
  8
0
 10
-151.341
 20
-121.12
 11
-149.179
 21
-121.405
  0
LINE
  8
0
 10
-149.179
 20
-121.405
 11
-147
 21
-121.5
  0
LINE
  8
0
 10
-147
 20
-121.5
 11
147
 21
-121.5
  0
LINE
  8
0
 10
147
 20
-121.5
 11
149.179
 21
-121.405
  0
LINE
  8
0
 10
149.179
 20
-121.405
 11
151.341
 21
-121.12
  0
LINE
  8
0
 10
151.341
 20
-121.12
 11
153.47
 21
-120.648
  0
LINE
  8
0
 10
153.47
 20
-120.648
 11
155.551
 21
-119.992
  0
LINE
  8
0
 10
155.551
 20
-119.992
 11
157.565
 21
-119.158
  0
LINE
  8
0
 10
157.565
 20
-119.158
 11
159.5
 21
-118.151
  0
LINE
  8
0
 10
159.5
 20
-118.151
 11
161.339
 21
-116.979
  0
LINE
  8
0
 10
161.339
 20
-116.979
 11
163.07
 21
-115.651
  0
LINE
  8
0
 10
163.07
 20
-115.651
 11
164.678
 21
-114.178
  0
LINE
  8
0
 10
164.678
 20
-114.178
 11
166.151
 21
-112.57
  0
LINE
  8
0
 10
166.151
 20
-112.57
 11
167.479
 21
-110.839
  0
LINE
  8
0
 10
167.479
 20
-110.839
 11
168.651
 21
-109
  0
LINE
  8
0
 10
168.651
 20
-109
 11
169.658
 21
-107.065
  0
LINE
  8
0
 10
169.658
 20
-107.065
 11
170.492
 21
-105.051
  0
LINE
  8
0
 10
170.492
 20
-105.051
 11
171.148
 21
-102.97
  0
LINE
  8
0
 10
171.148
 20
-102.97
 11
171.62
 21
-100.841
  0
LINE
  8
0
 10
171.62
 20
-100.841
 11
171.905
 21
-98.6789
  0
LINE
  8
0
 10
171.905
 20
-98.6789
 11
172
 21
-96.5
  0
LINE
  8
0
 10
172
 20
-96.5
 11
172
 21
96.5
  0
LINE
  8
0
 10
172
 20
96.5
 11
171.905
 21
98.6789
  0
LINE
  8
0
 10
171.905
 20
98.6789
 11
171.62
 21
100.841
  0
LINE
  8
0
 10
171.62
 20
100.841
 11
171.148
 21
102.97
  0
LINE
  8
0
 10
171.148
 20
102.97
 11
170.492
 21
105.051
  0
LINE
  8
0
 10
170.492
 20
105.051
 11
169.658
 21
107.065
  0
LINE
  8
0
 10
169.658
 20
107.065
 11
168.651
 21
109
  0
LINE
  8
0
 10
168.651
 20
109
 11
167.479
 21
110.839
  0
LINE
  8
0
 10
167.479
 20
110.839
 11
166.151
 21
112.57
  0
LINE
  8
0
 10
166.151
 20
112.57
 11
164.678
 21
114.178
  0
LINE
  8
0
 10
164.678
 20
114.178
 11
163.07
 21
115.651
  0
LINE
  8
0
 10
163.07
 20
115.651
 11
161.339
 21
116.979
  0
LINE
  8
0
 10
161.339
 20
116.979
 11
159.5
 21
118.151
  0
LINE
  8
0
 10
159.5
 20
118.151
 11
157.565
 21
119.158
  0
LINE
  8
0
 10
157.565
 20
119.158
 11
155.551
 21
119.992
  0
LINE
  8
0
 10
155.551
 20
119.992
 11
153.47
 21
120.648
  0
LINE
  8
0
 10
153.47
 20
120.648
 11
151.341
 21
121.12
  0
LINE
  8
0
 10
151.341
 20
121.12
 11
149.179
 21
121.405
  0
LINE
  8
0
 10
149.179
 20
121.405
 11
147
 21
121.5
  0
LINE
  8
0
 10
147
 20
121.5
 11
-147
 21
121.5
  0
LINE
  8
0
 10
-147
 20
121.5
 11
-149.179
 21
121.405
  0
LINE
  8
0
 10
-149.179
 20
121.405
 11
-151.341
 21
121.12
  0
LINE
  8
0
 10
-151.341
 20
121.12
 11
-153.47
 21
120.648
  0
LINE
  8
0
 10
-153.47
 20
120.648
 11
-155.551
 21
119.992
  0
LINE
  8
0
 10
-155.551
 20
119.992
 11
-157.565
 21
119.158
  0
LINE
  8
0
 10
-157.565
 20
119.158
 11
-159.5
 21
118.151
  0
LINE
  8
0
 10
-159.5
 20
118.151
 11
-161.339
 21
116.979
  0
LINE
  8
0
 10
-161.339
 20
116.979
 11
-163.07
 21
115.651
  0
LINE
  8
0
 10
-163.07
 20
115.651
 11
-164.678
 21
114.178
  0
LINE
  8
0
 10
-164.678
 20
114.178
 11
-166.151
 21
112.57
  0
LINE
  8
0
 10
-166.151
 20
112.57
 11
-167.479
 21
110.839
  0
LINE
  8
0
 10
-167.479
 20
110.839
 11
-168.651
 21
109
  0
LINE
  8
0
 10
-168.651
 20
109
 11
-169.658
 21
107.065
  0
LINE
  8
0
 10
-169.658
 20
107.065
 11
-170.492
 21
105.051
  0
LINE
  8
0
 10
-170.492
 20
105.051
 11
-171.148
 21
102.97
  0
LINE
  8
0
 10
-171.148
 20
102.97
 11
-171.62
 21
100.841
  0
LINE
  8
0
 10
-171.62
 20
100.841
 11
-171.905
 21
98.6789
  0
LINE
  8
0
 10
-171.905
 20
98.6789
 11
-172
 21
96.5
  0
LINE
  8
0
 10
-172
 20
96.5
 11
-172
 21
-96.5
  0
LINE
  8
0
 10
-158.122
 20
44.0241
 11
-158.122
 21
44.5159
  0
LINE
  8
0
 10
-158.122
 20
44.5159
 11
-157.977
 21
44.9859
  0
LINE
  8
0
 10
-157.977
 20
44.9859
 11
-157.7
 21
45.3923
  0
LINE
  8
0
 10
-157.7
 20
45.3923
 11
-157.315
 21
45.6989
  0
LINE
  8
0
 10
-157.315
 20
45.6989
 11
-156.857
 21
45.8786
  0
LINE
  8
0
 10
-156.857
 20
45.8786
 11
-156.367
 21
45.9154
  0
LINE
  8
0
 10
-156.367
 20
45.9154
 11
-155.887
 21
45.8059
  0
LINE
  8
0
 10
-155.887
 20
45.8059
 11
-155.461
 21
45.56
  0
LINE
  8
0
 10
-155.461
 20
45.56
 11
-155.127
 21
45.1995
  0
LINE
  8
0
 10
-155.127
 20
45.1995
 11
-154.913
 21
44.7563
  0
LINE
  8
0
 10
-154.913
 20
44.7563
 11
-154.84
 21
44.27
  0
LINE
  8
0
 10
-154.84
 20
44.27
 11
-154.913
 21
43.7837
  0
LINE
  8
0
 10
-154.913
 20
43.7837
 11
-155.127
 21
43.3405
  0
LINE
  8
0
 10
-155.127
 20
43.3405
 11
-155.461
 21
42.98
  0
LINE
  8
0
 10
-155.461
 20
42.98
 11
-155.887
 21
42.7341
  0
LINE
  8
0
 10
-155.887
 20
42.7341
 11
-156.367
 21
42.6246
  0
LINE
  8
0
 10
-156.367
 20
42.6246
 11
-156.857
 21
42.6614
  0
LINE
  8
0
 10
-156.857
 20
42.6614
 11
-157.315
 21
42.8411
  0
LINE
  8
0
 10
-157.315
 20
42.8411
 11
-157.7
 21
43.1477
  0
LINE
  8
0
 10
-157.7
 20
43.1477
 11
-157.977
 21
43.5541
  0
LINE
  8
0
 10
-157.977
 20
43.5541
 11
-158.122
 21
44.0241
  0
LINE
  8
0
 10
-151.492
 20
-0.246243
 11
-151.492
 21
0.246243
  0
LINE
  8
0
 10
-151.492
 20
0.246243
 11
-151.432
 21
0.734998
  0
LINE
  8
0
 10
-151.432
 20
0.734998
 11
-151.312
 21
1.21261
  0
LINE
  8
0
 10
-151.312
 20
1.21261
 11
-151.134
 21
1.67184
  0
LINE
  8
0
 10
-151.134
 20
1.67184
 11
-150.901
 21
2.10573
  0
LINE
  8
0
 10
-150.901
 20
2.10573
 11
-150.616
 21
2.5077
  0
LINE
  8
0
 10
-150.616
 20
2.5077
 11
-150.285
 21
2.87165
  0
LINE
  8
0
 10
-150.285
 20
2.87165
 11
-149.911
 21
3.19207
  0
LINE
  8
0
 10
-149.911
 20
3.19207
 11
-149.5
 21
3.4641
  0
LINE
  8
0
 10
-149.5
 20
3.4641
 11
-149.059
 21
3.68362
  0
LINE
  8
0
 10
-149.059
 20
3.68362
 11
-148.595
 21
3.8473
  0
LINE
  8
0
 10
-148.595
 20
3.8473
 11
-148.114
 21
3.95266
  0
LINE
  8
0
 10
-148.114
 20
3.95266
 11
-147.623
 21
3.9981
  0
LINE
  8
0
 10
-147.623
 20
3.9981
 11
-147.131
 21
3.98294
  0
LINE
  8
0
 10
-147.131
 20
3.98294
 11
-146.644
 21
3.90739
  0
LINE
  8
0
 10
-146.644
 20
3.90739
 11
-146.171
 21
3.77262
  0
LINE
  8
0
 10
-146.171
 20
3.77262
 11
-145.717
 21
3.58065
  0
LINE
  8
0
 10
-145.717
 20
3.58065
 11
-145.291
 21
3.33441
  0
LINE
  8
0
 10
-145.291
 20
3.33441
 11
-144.898
 21
3.03762
  0
LINE
  8
0
 10
-144.898
 20
3.03762
 11
-144.544
 21
2.69478
  0
LINE
  8
0
 10
-144.544
 20
2.69478
 11
-144.235
 21
2.3111
  0
LINE
  8
0
 10
-144.235
 20
2.3111
 11
-143.976
 21
1.89237
  0
LINE
  8
0
 10
-143.976
 20
1.89237
 11
-143.77
 21
1.44497
  0
LINE
  8
0
 10
-143.77
 20
1.44497
 11
-143.621
 21
0.975655
  0
LINE
  8
0
 10
-143.621
 20
0.975655
 11
-143.53
 21
0.491552
  0
LINE
  8
0
 10
-143.53
 20
0.491552
 11
-143.5
 21
0
  0
LINE
  8
0
 10
-143.5
 20
0
 11
-143.53
 21
-0.491552
  0
LINE
  8
0
 10
-143.53
 20
-0.491552
 11
-143.621
 21
-0.975655
  0
LINE
  8
0
 10
-143.621
 20
-0.975655
 11
-143.77
 21
-1.44497
  0
LINE
  8
0
 10
-143.77
 20
-1.44497
 11
-143.976
 21
-1.89237
  0
LINE
  8
0
 10
-143.976
 20
-1.89237
 11
-144.235
 21
-2.3111
  0
LINE
  8
0
 10
-144.235
 20
-2.3111
 11
-144.544
 21
-2.69478
  0
LINE
  8
0
 10
-144.544
 20
-2.69478
 11
-144.898
 21
-3.03762
  0
LINE
  8
0
 10
-144.898
 20
-3.03762
 11
-145.291
 21
-3.33441
  0
LINE
  8
0
 10
-145.291
 20
-3.33441
 11
-145.717
 21
-3.58065
  0
LINE
  8
0
 10
-145.717
 20
-3.58065
 11
-146.171
 21
-3.77262
  0
LINE
  8
0
 10
-146.171
 20
-3.77262
 11
-146.644
 21
-3.90739
  0
LINE
  8
0
 10
-146.644
 20
-3.90739
 11
-147.131
 21
-3.98294
  0
LINE
  8
0
 10
-147.131
 20
-3.98294
 11
-147.623
 21
-3.9981
  0
LINE
  8
0
 10
-147.623
 20
-3.9981
 11
-148.114
 21
-3.95266
  0
LINE
  8
0
 10
-148.114
 20
-3.95266
 11
-148.595
 21
-3.8473
  0
LINE
  8
0
 10
-148.595
 20
-3.8473
 11
-149.059
 21
-3.68362
  0
LINE
  8
0
 10
-149.059
 20
-3.68362
 11
-149.5
 21
-3.4641
  0
LINE
  8
0
 10
-149.5
 20
-3.4641
 11
-149.911
 21
-3.19207
  0
LINE
  8
0
 10
-149.911
 20
-3.19207
 11
-150.285
 21
-2.87165
  0
LINE
  8
0
 10
-150.285
 20
-2.87165
 11
-150.616
 21
-2.5077
  0
LINE
  8
0
 10
-150.616
 20
-2.5077
 11
-150.901
 21
-2.10573
  0
LINE
  8
0
 10
-150.901
 20
-2.10573
 11
-151.134
 21
-1.67184
  0
LINE
  8
0
 10
-151.134
 20
-1.67184
 11
-151.312
 21
-1.21261
  0
LINE
  8
0
 10
-151.312
 20
-1.21261
 11
-151.432
 21
-0.734998
  0
LINE
  8
0
 10
-151.432
 20
-0.734998
 11
-151.492
 21
-0.246243
  0
LINE
  8
0
 10
-121.142
 20
44.0241
 11
-121.142
 21
44.5159
  0
LINE
  8
0
 10
-121.142
 20
44.5159
 11
-120.997
 21
44.9859
  0
LINE
  8
0
 10
-120.997
 20
44.9859
 11
-120.72
 21
45.3923
  0
LINE
  8
0
 10
-120.72
 20
45.3923
 11
-120.335
 21
45.6989
  0
LINE
  8
0
 10
-120.335
 20
45.6989
 11
-119.877
 21
45.8786
  0
LINE
  8
0
 10
-119.877
 20
45.8786
 11
-119.387
 21
45.9154
  0
LINE
  8
0
 10
-119.387
 20
45.9154
 11
-118.907
 21
45.8059
  0
LINE
  8
0
 10
-118.907
 20
45.8059
 11
-118.481
 21
45.56
  0
LINE
  8
0
 10
-118.481
 20
45.56
 11
-118.147
 21
45.1995
  0
LINE
  8
0
 10
-118.147
 20
45.1995
 11
-117.933
 21
44.7563
  0
LINE
  8
0
 10
-117.933
 20
44.7563
 11
-117.86
 21
44.27
  0
LINE
  8
0
 10
-117.86
 20
44.27
 11
-117.933
 21
43.7837
  0
LINE
  8
0
 10
-117.933
 20
43.7837
 11
-118.147
 21
43.3405
  0
LINE
  8
0
 10
-118.147
 20
43.3405
 11
-118.481
 21
42.98
  0
LINE
  8
0
 10
-118.481
 20
42.98
 11
-118.907
 21
42.7341
  0
LINE
  8
0
 10
-118.907
 20
42.7341
 11
-119.387
 21
42.6246
  0
LINE
  8
0
 10
-119.387
 20
42.6246
 11
-119.877
 21
42.6614
  0
LINE
  8
0
 10
-119.877
 20
42.6614
 11
-120.335
 21
42.8411
  0
LINE
  8
0
 10
-120.335
 20
42.8411
 11
-120.72
 21
43.1477
  0
LINE
  8
0
 10
-120.72
 20
43.1477
 11
-120.997
 21
43.5541
  0
LINE
  8
0
 10
-120.997
 20
43.5541
 11
-121.142
 21
44.0241
  0
LINE
  8
0
 10
-120.795
 20
-106.113
 11
-120.759
 21
-105.623
  0
LINE
  8
0
 10
-120.759
 20
-105.623
 11
-120.579
 21
-105.165
  0
LINE
  8
0
 10
-120.579
 20
-105.165
 11
-120.272
 21
-104.78
  0
LINE
  8
0
 10
-120.272
 20
-104.78
 11
-119.866
 21
-104.503
  0
LINE
  8
0
 10
-119.866
 20
-104.503
 11
-119.396
 21
-104.358
  0
LINE
  8
0
 10
-119.396
 20
-104.358
 11
-118.904
 21
-104.358
  0
LINE
  8
0
 10
-118.904
 20
-104.358
 11
-118.434
 21
-104.503
  0
LINE
  8
0
 10
-118.434
 20
-104.503
 11
-118.028
 21
-104.78
  0
LINE
  8
0
 10
-118.028
 20
-104.78
 11
-117.721
 21
-105.165
  0
LINE
  8
0
 10
-117.721
 20
-105.165
 11
-117.541
 21
-105.623
  0
LINE
  8
0
 10
-117.541
 20
-105.623
 11
-117.505
 21
-106.113
  0
LINE
  8
0
 10
-117.505
 20
-106.113
 11
-117.614
 21
-106.593
  0
LINE
  8
0
 10
-117.614
 20
-106.593
 11
-117.86
 21
-107.019
  0
LINE
  8
0
 10
-117.86
 20
-107.019
 11
-118.221
 21
-107.353
  0
LINE
  8
0
 10
-118.221
 20
-107.353
 11
-118.664
 21
-107.567
  0
LINE
  8
0
 10
-118.664
 20
-107.567
 11
-119.15
 21
-107.64
  0
LINE
  8
0
 10
-119.15
 20
-107.64
 11
-119.636
 21
-107.567
  0
LINE
  8
0
 10
-119.636
 20
-107.567
 11
-120.079
 21
-107.353
  0
LINE
  8
0
 10
-120.079
 20
-107.353
 11
-120.44
 21
-107.019
  0
LINE
  8
0
 10
-120.44
 20
-107.019
 11
-120.686
 21
-106.593
  0
LINE
  8
0
 10
-120.686
 20
-106.593
 11
-120.795
 21
-106.113
  0
LINE
  8
0
 10
-120.795
 20
105.867
 11
-120.759
 21
106.357
  0
LINE
  8
0
 10
-120.759
 20
106.357
 11
-120.579
 21
106.815
  0
LINE
  8
0
 10
-120.579
 20
106.815
 11
-120.272
 21
107.2
  0
LINE
  8
0
 10
-120.272
 20
107.2
 11
-119.866
 21
107.477
  0
LINE
  8
0
 10
-119.866
 20
107.477
 11
-119.396
 21
107.622
  0
LINE
  8
0
 10
-119.396
 20
107.622
 11
-118.904
 21
107.622
  0
LINE
  8
0
 10
-118.904
 20
107.622
 11
-118.434
 21
107.477
  0
LINE
  8
0
 10
-118.434
 20
107.477
 11
-118.028
 21
107.2
  0
LINE
  8
0
 10
-118.028
 20
107.2
 11
-117.721
 21
106.815
  0
LINE
  8
0
 10
-117.721
 20
106.815
 11
-117.541
 21
106.357
  0
LINE
  8
0
 10
-117.541
 20
106.357
 11
-117.505
 21
105.867
  0
LINE
  8
0
 10
-117.505
 20
105.867
 11
-117.614
 21
105.387
  0
LINE
  8
0
 10
-117.614
 20
105.387
 11
-117.86
 21
104.961
  0
LINE
  8
0
 10
-117.86
 20
104.961
 11
-118.221
 21
104.627
  0
LINE
  8
0
 10
-118.221
 20
104.627
 11
-118.664
 21
104.413
  0
LINE
  8
0
 10
-118.664
 20
104.413
 11
-119.15
 21
104.34
  0
LINE
  8
0
 10
-119.15
 20
104.34
 11
-119.636
 21
104.413
  0
LINE
  8
0
 10
-119.636
 20
104.413
 11
-120.079
 21
104.627
  0
LINE
  8
0
 10
-120.079
 20
104.627
 11
-120.44
 21
104.961
  0
LINE
  8
0
 10
-120.44
 20
104.961
 11
-120.686
 21
105.387
  0
LINE
  8
0
 10
-120.686
 20
105.387
 11
-120.795
 21
105.867
  0
LINE
  8
0
 10
-95.2854
 20
-114.877
 11
-95.1759
 21
-114.397
  0
LINE
  8
0
 10
-95.1759
 20
-114.397
 11
-94.93
 21
-113.971
  0
LINE
  8
0
 10
-94.93
 20
-113.971
 11
-94.5695
 21
-113.637
  0
LINE
  8
0
 10
-94.5695
 20
-113.637
 11
-94.1263
 21
-113.423
  0
LINE
  8
0
 10
-94.1263
 20
-113.423
 11
-93.64
 21
-113.35
  0
LINE
  8
0
 10
-93.64
 20
-113.35
 11
-93.1537
 21
-113.423
  0
LINE
  8
0
 10
-93.1537
 20
-113.423
 11
-92.7105
 21
-113.637
  0
LINE
  8
0
 10
-92.7105
 20
-113.637
 11
-92.35
 21
-113.971
  0
LINE
  8
0
 10
-92.35
 20
-113.971
 11
-92.1041
 21
-114.397
  0
LINE
  8
0
 10
-92.1041
 20
-114.397
 11
-91.9946
 21
-114.877
  0
LINE
  8
0
 10
-91.9946
 20
-114.877
 11
-92.0314
 21
-115.367
  0
LINE
  8
0
 10
-92.0314
 20
-115.367
 11
-92.2111
 21
-115.825
  0
LINE
  8
0
 10
-92.2111
 20
-115.825
 11
-92.5177
 21
-116.21
  0
LINE
  8
0
 10
-92.5177
 20
-116.21
 11
-92.9241
 21
-116.487
  0
LINE
  8
0
 10
-92.9241
 20
-116.487
 11
-93.3941
 21
-116.632
  0
LINE
  8
0
 10
-93.3941
 20
-116.632
 11
-93.8859
 21
-116.632
  0
LINE
  8
0
 10
-93.8859
 20
-116.632
 11
-94.3559
 21
-116.487
  0
LINE
  8
0
 10
-94.3559
 20
-116.487
 11
-94.7623
 21
-116.21
  0
LINE
  8
0
 10
-94.7623
 20
-116.21
 11
-95.0689
 21
-115.825
  0
LINE
  8
0
 10
-95.0689
 20
-115.825
 11
-95.2486
 21
-115.367
  0
LINE
  8
0
 10
-95.2486
 20
-115.367
 11
-95.2854
 21
-114.877
  0
LINE
  8
0
 10
-95.2854
 20
115.123
 11
-95.1759
 21
115.603
  0
LINE
  8
0
 10
-95.1759
 20
115.603
 11
-94.93
 21
116.029
  0
LINE
  8
0
 10
-94.93
 20
116.029
 11
-94.5695
 21
116.363
  0
LINE
  8
0
 10
-94.5695
 20
116.363
 11
-94.1263
 21
116.577
  0
LINE
  8
0
 10
-94.1263
 20
116.577
 11
-93.64
 21
116.65
  0
LINE
  8
0
 10
-93.64
 20
116.65
 11
-93.1537
 21
116.577
  0
LINE
  8
0
 10
-93.1537
 20
116.577
 11
-92.7105
 21
116.363
  0
LINE
  8
0
 10
-92.7105
 20
116.363
 11
-92.35
 21
116.029
  0
LINE
  8
0
 10
-92.35
 20
116.029
 11
-92.1041
 21
115.603
  0
LINE
  8
0
 10
-92.1041
 20
115.603
 11
-91.9946
 21
115.123
  0
LINE
  8
0
 10
-91.9946
 20
115.123
 11
-92.0314
 21
114.633
  0
LINE
  8
0
 10
-92.0314
 20
114.633
 11
-92.2111
 21
114.175
  0
LINE
  8
0
 10
-92.2111
 20
114.175
 11
-92.5177
 21
113.79
  0
LINE
  8
0
 10
-92.5177
 20
113.79
 11
-92.9241
 21
113.513
  0
LINE
  8
0
 10
-92.9241
 20
113.513
 11
-93.3941
 21
113.368
  0
LINE
  8
0
 10
-93.3941
 20
113.368
 11
-93.8859
 21
113.368
  0
LINE
  8
0
 10
-93.8859
 20
113.368
 11
-94.3559
 21
113.513
  0
LINE
  8
0
 10
-94.3559
 20
113.513
 11
-94.7623
 21
113.79
  0
LINE
  8
0
 10
-94.7623
 20
113.79
 11
-95.0689
 21
114.175
  0
LINE
  8
0
 10
-95.0689
 20
114.175
 11
-95.2486
 21
114.633
  0
LINE
  8
0
 10
-95.2486
 20
114.633
 11
-95.2854
 21
115.123
  0
LINE
  8
0
 10
-70.8854
 20
-114.877
 11
-70.7759
 21
-114.397
  0
LINE
  8
0
 10
-70.7759
 20
-114.397
 11
-70.53
 21
-113.971
  0
LINE
  8
0
 10
-70.53
 20
-113.971
 11
-70.1695
 21
-113.637
  0
LINE
  8
0
 10
-70.1695
 20
-113.637
 11
-69.7263
 21
-113.423
  0
LINE
  8
0
 10
-69.7263
 20
-113.423
 11
-69.24
 21
-113.35
  0
LINE
  8
0
 10
-69.24
 20
-113.35
 11
-68.7537
 21
-113.423
  0
LINE
  8
0
 10
-68.7537
 20
-113.423
 11
-68.3105
 21
-113.637
  0
LINE
  8
0
 10
-68.3105
 20
-113.637
 11
-67.95
 21
-113.971
  0
LINE
  8
0
 10
-67.95
 20
-113.971
 11
-67.7041
 21
-114.397
  0
LINE
  8
0
 10
-67.7041
 20
-114.397
 11
-67.5946
 21
-114.877
  0
LINE
  8
0
 10
-67.5946
 20
-114.877
 11
-67.6314
 21
-115.367
  0
LINE
  8
0
 10
-67.6314
 20
-115.367
 11
-67.8111
 21
-115.825
  0
LINE
  8
0
 10
-67.8111
 20
-115.825
 11
-68.1177
 21
-116.21
  0
LINE
  8
0
 10
-68.1177
 20
-116.21
 11
-68.5241
 21
-116.487
  0
LINE
  8
0
 10
-68.5241
 20
-116.487
 11
-68.9941
 21
-116.632
  0
LINE
  8
0
 10
-68.9941
 20
-116.632
 11
-69.4859
 21
-116.632
  0
LINE
  8
0
 10
-69.4859
 20
-116.632
 11
-69.9559
 21
-116.487
  0
LINE
  8
0
 10
-69.9559
 20
-116.487
 11
-70.3623
 21
-116.21
  0
LINE
  8
0
 10
-70.3623
 20
-116.21
 11
-70.6689
 21
-115.825
  0
LINE
  8
0
 10
-70.6689
 20
-115.825
 11
-70.8486
 21
-115.367
  0
LINE
  8
0
 10
-70.8486
 20
-115.367
 11
-70.8854
 21
-114.877
  0
LINE
  8
0
 10
-70.8854
 20
115.123
 11
-70.7759
 21
115.603
  0
LINE
  8
0
 10
-70.7759
 20
115.603
 11
-70.53
 21
116.029
  0
LINE
  8
0
 10
-70.53
 20
116.029
 11
-70.1695
 21
116.363
  0
LINE
  8
0
 10
-70.1695
 20
116.363
 11
-69.7263
 21
116.577
  0
LINE
  8
0
 10
-69.7263
 20
116.577
 11
-69.24
 21
116.65
  0
LINE
  8
0
 10
-69.24
 20
116.65
 11
-68.7537
 21
116.577
  0
LINE
  8
0
 10
-68.7537
 20
116.577
 11
-68.3105
 21
116.363
  0
LINE
  8
0
 10
-68.3105
 20
116.363
 11
-67.95
 21
116.029
  0
LINE
  8
0
 10
-67.95
 20
116.029
 11
-67.7041
 21
115.603
  0
LINE
  8
0
 10
-67.7041
 20
115.603
 11
-67.5946
 21
115.123
  0
LINE
  8
0
 10
-67.5946
 20
115.123
 11
-67.6314
 21
114.633
  0
LINE
  8
0
 10
-67.6314
 20
114.633
 11
-67.8111
 21
114.175
  0
LINE
  8
0
 10
-67.8111
 20
114.175
 11
-68.1177
 21
113.79
  0
LINE
  8
0
 10
-68.1177
 20
113.79
 11
-68.5241
 21
113.513
  0
LINE
  8
0
 10
-68.5241
 20
113.513
 11
-68.9941
 21
113.368
  0
LINE
  8
0
 10
-68.9941
 20
113.368
 11
-69.4859
 21
113.368
  0
LINE
  8
0
 10
-69.4859
 20
113.368
 11
-69.9559
 21
113.513
  0
LINE
  8
0
 10
-69.9559
 20
113.513
 11
-70.3623
 21
113.79
  0
LINE
  8
0
 10
-70.3623
 20
113.79
 11
-70.6689
 21
114.175
  0
LINE
  8
0
 10
-70.6689
 20
114.175
 11
-70.8486
 21
114.633
  0
LINE
  8
0
 10
-70.8486
 20
114.633
 11
-70.8854
 21
115.123
  0
LINE
  8
0
 10
-52.1554
 20
100.323
 11
-52.1554
 21
110.323
  0
LINE
  8
0
 10
-52.1554
 20
110.323
 11
-52.0459
 21
110.803
  0
LINE
  8
0
 10
-52.0459
 20
110.803
 11
-51.8
 21
111.229
  0
LINE
  8
0
 10
-51.8
 20
111.229
 11
-51.4395
 21
111.563
  0
LINE
  8
0
 10
-51.4395
 20
111.563
 11
-50.9963
 21
111.777
  0
LINE
  8
0
 10
-50.9963
 20
111.777
 11
-50.51
 21
111.85
  0
LINE
  8
0
 10
-50.51
 20
111.85
 11
-50.0237
 21
111.777
  0
LINE
  8
0
 10
-50.0237
 20
111.777
 11
-49.5805
 21
111.563
  0
LINE
  8
0
 10
-49.5805
 20
111.563
 11
-49.22
 21
111.229
  0
LINE
  8
0
 10
-49.22
 20
111.229
 11
-48.9741
 21
110.803
  0
LINE
  8
0
 10
-48.9741
 20
110.803
 11
-48.8646
 21
110.323
  0
LINE
  8
0
 10
-48.8646
 20
110.323
 11
-48.8646
 21
100.323
  0
LINE
  8
0
 10
-48.8646
 20
100.323
 11
-48.9014
 21
99.8328
  0
LINE
  8
0
 10
-48.9014
 20
99.8328
 11
-49.0811
 21
99.375
  0
LINE
  8
0
 10
-49.0811
 20
99.375
 11
-49.3877
 21
98.9905
  0
LINE
  8
0
 10
-49.3877
 20
98.9905
 11
-49.7941
 21
98.7134
  0
LINE
  8
0
 10
-49.7941
 20
98.7134
 11
-50.2641
 21
98.5684
  0
LINE
  8
0
 10
-50.2641
 20
98.5684
 11
-50.7559
 21
98.5684
  0
LINE
  8
0
 10
-50.7559
 20
98.5684
 11
-51.2259
 21
98.7134
  0
LINE
  8
0
 10
-51.2259
 20
98.7134
 11
-51.6323
 21
98.9905
  0
LINE
  8
0
 10
-51.6323
 20
98.9905
 11
-51.9389
 21
99.375
  0
LINE
  8
0
 10
-51.9389
 20
99.375
 11
-52.1186
 21
99.8328
  0
LINE
  8
0
 10
-52.1186
 20
99.8328
 11
-52.1554
 21
100.323
  0
LINE
  8
0
 10
-41.2916
 20
39.7541
 11
-41.2916
 21
40.2459
  0
LINE
  8
0
 10
-41.2916
 20
40.2459
 11
-41.1466
 21
40.7159
  0
LINE
  8
0
 10
-41.1466
 20
40.7159
 11
-40.8695
 21
41.1223
  0
LINE
  8
0
 10
-40.8695
 20
41.1223
 11
-40.485
 21
41.4289
  0
LINE
  8
0
 10
-40.485
 20
41.4289
 11
-40.0272
 21
41.6086
  0
LINE
  8
0
 10
-40.0272
 20
41.6086
 11
-39.5367
 21
41.6454
  0
LINE
  8
0
 10
-39.5367
 20
41.6454
 11
-39.0572
 21
41.5359
  0
LINE
  8
0
 10
-39.0572
 20
41.5359
 11
-38.6312
 21
41.29
  0
LINE
  8
0
 10
-38.6312
 20
41.29
 11
-38.2967
 21
40.9295
  0
LINE
  8
0
 10
-38.2967
 20
40.9295
 11
-38.0833
 21
40.4863
  0
LINE
  8
0
 10
-38.0833
 20
40.4863
 11
-38.01
 21
40
  0
LINE
  8
0
 10
-38.01
 20
40
 11
-38.0833
 21
39.5137
  0
LINE
  8
0
 10
-38.0833
 20
39.5137
 11
-38.2967
 21
39.0705
  0
LINE
  8
0
 10
-38.2967
 20
39.0705
 11
-38.6312
 21
38.71
  0
LINE
  8
0
 10
-38.6312
 20
38.71
 11
-39.0572
 21
38.4641
  0
LINE
  8
0
 10
-39.0572
 20
38.4641
 11
-39.5367
 21
38.3546
  0
LINE
  8
0
 10
-39.5367
 20
38.3546
 11
-40.0272
 21
38.3914
  0
LINE
  8
0
 10
-40.0272
 20
38.3914
 11
-40.485
 21
38.5711
  0
LINE
  8
0
 10
-40.485
 20
38.5711
 11
-40.8695
 21
38.8777
  0
LINE
  8
0
 10
-40.8695
 20
38.8777
 11
-41.1466
 21
39.2841
  0
LINE
  8
0
 10
-41.1466
 20
39.2841
 11
-41.2916
 21
39.7541
  0
LINE
  8
0
 10
-34.6554
 20
-115.323
 11
-34.6186
 21
-114.833
  0
LINE
  8
0
 10
-34.6186
 20
-114.833
 11
-34.4389
 21
-114.375
  0
LINE
  8
0
 10
-34.4389
 20
-114.375
 11
-34.1323
 21
-113.99
  0
LINE
  8
0
 10
-34.1323
 20
-113.99
 11
-33.7259
 21
-113.713
  0
LINE
  8
0
 10
-33.7259
 20
-113.713
 11
-33.2559
 21
-113.568
  0
LINE
  8
0
 10
-33.2559
 20
-113.568
 11
-32.7641
 21
-113.568
  0
LINE
  8
0
 10
-32.7641
 20
-113.568
 11
-32.2941
 21
-113.713
  0
LINE
  8
0
 10
-32.2941
 20
-113.713
 11
-31.8877
 21
-113.99
  0
LINE
  8
0
 10
-31.8877
 20
-113.99
 11
-31.5811
 21
-114.375
  0
LINE
  8
0
 10
-31.5811
 20
-114.375
 11
-31.4014
 21
-114.833
  0
LINE
  8
0
 10
-31.4014
 20
-114.833
 11
-31.3646
 21
-115.323
  0
LINE
  8
0
 10
-31.3646
 20
-115.323
 11
-31.4741
 21
-115.803
  0
LINE
  8
0
 10
-31.4741
 20
-115.803
 11
-31.72
 21
-116.229
  0
LINE
  8
0
 10
-31.72
 20
-116.229
 11
-32.0805
 21
-116.563
  0
LINE
  8
0
 10
-32.0805
 20
-116.563
 11
-32.5237
 21
-116.777
  0
LINE
  8
0
 10
-32.5237
 20
-116.777
 11
-33.01
 21
-116.85
  0
LINE
  8
0
 10
-33.01
 20
-116.85
 11
-33.4963
 21
-116.777
  0
LINE
  8
0
 10
-33.4963
 20
-116.777
 11
-33.9395
 21
-116.563
  0
LINE
  8
0
 10
-33.9395
 20
-116.563
 11
-34.3
 21
-116.229
  0
LINE
  8
0
 10
-34.3
 20
-116.229
 11
-34.5459
 21
-115.803
  0
LINE
  8
0
 10
-34.5459
 20
-115.803
 11
-34.6554
 21
-115.323
  0
LINE
  8
0
 10
-34.6554
 20
-62.9233
 11
-34.6186
 21
-62.4328
  0
LINE
  8
0
 10
-34.6186
 20
-62.4328
 11
-34.4389
 21
-61.975
  0
LINE
  8
0
 10
-34.4389
 20
-61.975
 11
-34.1323
 21
-61.5905
  0
LINE
  8
0
 10
-34.1323
 20
-61.5905
 11
-33.7259
 21
-61.3134
  0
LINE
  8
0
 10
-33.7259
 20
-61.3134
 11
-33.2559
 21
-61.1684
  0
LINE
  8
0
 10
-33.2559
 20
-61.1684
 11
-32.7641
 21
-61.1684
  0
LINE
  8
0
 10
-32.7641
 20
-61.1684
 11
-32.2941
 21
-61.3134
  0
LINE
  8
0
 10
-32.2941
 20
-61.3134
 11
-31.8877
 21
-61.5905
  0
LINE
  8
0
 10
-31.8877
 20
-61.5905
 11
-31.5811
 21
-61.975
  0
LINE
  8
0
 10
-31.5811
 20
-61.975
 11
-31.4014
 21
-62.4328
  0
LINE
  8
0
 10
-31.4014
 20
-62.4328
 11
-31.3646
 21
-62.9233
  0
LINE
  8
0
 10
-31.3646
 20
-62.9233
 11
-31.4741
 21
-63.4028
  0
LINE
  8
0
 10
-31.4741
 20
-63.4028
 11
-31.72
 21
-63.8288
  0
LINE
  8
0
 10
-31.72
 20
-63.8288
 11
-32.0805
 21
-64.1633
  0
LINE
  8
0
 10
-32.0805
 20
-64.1633
 11
-32.5237
 21
-64.3767
  0
LINE
  8
0
 10
-32.5237
 20
-64.3767
 11
-33.01
 21
-64.45
  0
LINE
  8
0
 10
-33.01
 20
-64.45
 11
-33.4963
 21
-64.3767
  0
LINE
  8
0
 10
-33.4963
 20
-64.3767
 11
-33.9395
 21
-64.1633
  0
LINE
  8
0
 10
-33.9395
 20
-64.1633
 11
-34.3
 21
-63.8288
  0
LINE
  8
0
 10
-34.3
 20
-63.8288
 11
-34.5459
 21
-63.4028
  0
LINE
  8
0
 10
-34.5459
 20
-63.4028
 11
-34.6554
 21
-62.9233
  0
LINE
  8
0
 10
-9.65539
 20
-115.323
 11
-9.61863
 21
-114.833
  0
LINE
  8
0
 10
-9.61863
 20
-114.833
 11
-9.43894
 21
-114.375
  0
LINE
  8
0
 10
-9.43894
 20
-114.375
 11
-9.13229
 21
-113.99
  0
LINE
  8
0
 10
-9.13229
 20
-113.99
 11
-8.72591
 21
-113.713
  0
LINE
  8
0
 10
-8.72591
 20
-113.713
 11
-8.25592
 21
-113.568
  0
LINE
  8
0
 10
-8.25592
 20
-113.568
 11
-7.76408
 21
-113.568
  0
LINE
  8
0
 10
-7.76408
 20
-113.568
 11
-7.29409
 21
-113.713
  0
LINE
  8
0
 10
-7.29409
 20
-113.713
 11
-6.88772
 21
-113.99
  0
LINE
  8
0
 10
-6.88772
 20
-113.99
 11
-6.58106
 21
-114.375
  0
LINE
  8
0
 10
-6.58106
 20
-114.375
 11
-6.40137
 21
-114.833
  0
LINE
  8
0
 10
-6.40137
 20
-114.833
 11
-6.36461
 21
-115.323
  0
LINE
  8
0
 10
-6.36461
 20
-115.323
 11
-6.47406
 21
-115.803
  0
LINE
  8
0
 10
-6.47406
 20
-115.803
 11
-6.71998
 21
-116.229
  0
LINE
  8
0
 10
-6.71998
 20
-116.229
 11
-7.08052
 21
-116.563
  0
LINE
  8
0
 10
-7.08052
 20
-116.563
 11
-7.52365
 21
-116.777
  0
LINE
  8
0
 10
-7.52365
 20
-116.777
 11
-8.01
 21
-116.85
  0
LINE
  8
0
 10
-8.01
 20
-116.85
 11
-8.49635
 21
-116.777
  0
LINE
  8
0
 10
-8.49635
 20
-116.777
 11
-8.93948
 21
-116.563
  0
LINE
  8
0
 10
-8.93948
 20
-116.563
 11
-9.30002
 21
-116.229
  0
LINE
  8
0
 10
-9.30002
 20
-116.229
 11
-9.54594
 21
-115.803
  0
LINE
  8
0
 10
-9.54594
 20
-115.803
 11
-9.65539
 21
-115.323
  0
LINE
  8
0
 10
-9.65539
 20
-62.9233
 11
-9.61863
 21
-62.4328
  0
LINE
  8
0
 10
-9.61863
 20
-62.4328
 11
-9.43894
 21
-61.975
  0
LINE
  8
0
 10
-9.43894
 20
-61.975
 11
-9.13229
 21
-61.5905
  0
LINE
  8
0
 10
-9.13229
 20
-61.5905
 11
-8.72591
 21
-61.3134
  0
LINE
  8
0
 10
-8.72591
 20
-61.3134
 11
-8.25592
 21
-61.1684
  0
LINE
  8
0
 10
-8.25592
 20
-61.1684
 11
-7.76408
 21
-61.1684
  0
LINE
  8
0
 10
-7.76408
 20
-61.1684
 11
-7.29409
 21
-61.3134
  0
LINE
  8
0
 10
-7.29409
 20
-61.3134
 11
-6.88772
 21
-61.5905
  0
LINE
  8
0
 10
-6.88772
 20
-61.5905
 11
-6.58106
 21
-61.975
  0
LINE
  8
0
 10
-6.58106
 20
-61.975
 11
-6.40137
 21
-62.4328
  0
LINE
  8
0
 10
-6.40137
 20
-62.4328
 11
-6.36461
 21
-62.9233
  0
LINE
  8
0
 10
-6.36461
 20
-62.9233
 11
-6.47406
 21
-63.4028
  0
LINE
  8
0
 10
-6.47406
 20
-63.4028
 11
-6.71998
 21
-63.8288
  0
LINE
  8
0
 10
-6.71998
 20
-63.8288
 11
-7.08052
 21
-64.1633
  0
LINE
  8
0
 10
-7.08052
 20
-64.1633
 11
-7.52365
 21
-64.3767
  0
LINE
  8
0
 10
-7.52365
 20
-64.3767
 11
-8.01
 21
-64.45
  0
LINE
  8
0
 10
-8.01
 20
-64.45
 11
-8.49635
 21
-64.3767
  0
LINE
  8
0
 10
-8.49635
 20
-64.3767
 11
-8.93948
 21
-64.1633
  0
LINE
  8
0
 10
-8.93948
 20
-64.1633
 11
-9.30002
 21
-63.8288
  0
LINE
  8
0
 10
-9.30002
 20
-63.8288
 11
-9.54594
 21
-63.4028
  0
LINE
  8
0
 10
-9.54594
 20
-63.4028
 11
-9.65539
 21
-62.9233
  0
LINE
  8
0
 10
-6.01
 20
-89
 11
-5.96196
 21
-88.5123
  0
LINE
  8
0
 10
-5.96196
 20
-88.5123
 11
-5.8197
 21
-88.0433
  0
LINE
  8
0
 10
-5.8197
 20
-88.0433
 11
-5.58867
 21
-87.6111
  0
LINE
  8
0
 10
-5.58867
 20
-87.6111
 11
-5.27777
 21
-87.2322
  0
LINE
  8
0
 10
-5.27777
 20
-87.2322
 11
-4.89892
 21
-86.9213
  0
LINE
  8
0
 10
-4.89892
 20
-86.9213
 11
-4.46671
 21
-86.6903
  0
LINE
  8
0
 10
-4.46671
 20
-86.6903
 11
-3.99773
 21
-86.548
  0
LINE
  8
0
 10
-3.99773
 20
-86.548
 11
-3.51
 21
-86.5
  0
LINE
  8
0
 10
-3.51
 20
-86.5
 11
-3.02227
 21
-86.548
  0
LINE
  8
0
 10
-3.02227
 20
-86.548
 11
-2.55329
 21
-86.6903
  0
LINE
  8
0
 10
-2.55329
 20
-86.6903
 11
-2.12107
 21
-86.9213
  0
LINE
  8
0
 10
-2.12107
 20
-86.9213
 11
-1.74223
 21
-87.2322
  0
LINE
  8
0
 10
-1.74223
 20
-87.2322
 11
-1.43133
 21
-87.6111
  0
LINE
  8
0
 10
-1.43133
 20
-87.6111
 11
-1.2003
 21
-88.0433
  0
LINE
  8
0
 10
-1.2003
 20
-88.0433
 11
-1.05804
 21
-88.5123
  0
LINE
  8
0
 10
-1.05804
 20
-88.5123
 11
-1.01
 21
-89
  0
LINE
  8
0
 10
-1.01
 20
-89
 11
-1.05804
 21
-89.4877
  0
LINE
  8
0
 10
-1.05804
 20
-89.4877
 11
-1.2003
 21
-89.9567
  0
LINE
  8
0
 10
-1.2003
 20
-89.9567
 11
-1.43133
 21
-90.3889
  0
LINE
  8
0
 10
-1.43133
 20
-90.3889
 11
-1.74223
 21
-90.7678
  0
LINE
  8
0
 10
-1.74223
 20
-90.7678
 11
-2.12107
 21
-91.0787
  0
LINE
  8
0
 10
-2.12107
 20
-91.0787
 11
-2.55329
 21
-91.3097
  0
LINE
  8
0
 10
-2.55329
 20
-91.3097
 11
-3.02227
 21
-91.452
  0
LINE
  8
0
 10
-3.02227
 20
-91.452
 11
-3.51
 21
-91.5
  0
LINE
  8
0
 10
-3.51
 20
-91.5
 11
-3.99773
 21
-91.452
  0
LINE
  8
0
 10
-3.99773
 20
-91.452
 11
-4.46671
 21
-91.3097
  0
LINE
  8
0
 10
-4.46671
 20
-91.3097
 11
-4.89892
 21
-91.0787
  0
LINE
  8
0
 10
-4.89892
 20
-91.0787
 11
-5.27777
 21
-90.7678
  0
LINE
  8
0
 10
-5.27777
 20
-90.7678
 11
-5.58867
 21
-90.3889
  0
LINE
  8
0
 10
-5.58867
 20
-90.3889
 11
-5.8197
 21
-89.9567
  0
LINE
  8
0
 10
-5.8197
 20
-89.9567
 11
-5.96196
 21
-89.4877
  0
LINE
  8
0
 10
-5.96196
 20
-89.4877
 11
-6.01
 21
-89
  0
LINE
  8
0
 10
0.028429
 20
39.7541
 11
0.028429
 21
40.2459
  0
LINE
  8
0
 10
0.028429
 20
40.2459
 11
0.173401
 21
40.7159
  0
LINE
  8
0
 10
0.173401
 20
40.7159
 11
0.450464
 21
41.1223
  0
LINE
  8
0
 10
0.450464
 20
41.1223
 11
0.834999
 21
41.4289
  0
LINE
  8
0
 10
0.834999
 20
41.4289
 11
1.29284
 21
41.6086
  0
LINE
  8
0
 10
1.29284
 20
41.6086
 11
1.7833
 21
41.6454
  0
LINE
  8
0
 10
1.7833
 20
41.6454
 11
2.26281
 21
41.5359
  0
LINE
  8
0
 10
2.26281
 20
41.5359
 11
2.68876
 21
41.29
  0
LINE
  8
0
 10
2.68876
 20
41.29
 11
3.02329
 21
40.9295
  0
LINE
  8
0
 10
3.02329
 20
40.9295
 11
3.23669
 21
40.4863
  0
LINE
  8
0
 10
3.23669
 20
40.4863
 11
3.31
 21
40
  0
LINE
  8
0
 10
3.31
 20
40
 11
3.23669
 21
39.5137
  0
LINE
  8
0
 10
3.23669
 20
39.5137
 11
3.02329
 21
39.0705
  0
LINE
  8
0
 10
3.02329
 20
39.0705
 11
2.68876
 21
38.71
  0
LINE
  8
0
 10
2.68876
 20
38.71
 11
2.26281
 21
38.4641
  0
LINE
  8
0
 10
2.26281
 20
38.4641
 11
1.7833
 21
38.3546
  0
LINE
  8
0
 10
1.7833
 20
38.3546
 11
1.29284
 21
38.3914
  0
LINE
  8
0
 10
1.29284
 20
38.3914
 11
0.834999
 21
38.5711
  0
LINE
  8
0
 10
0.834999
 20
38.5711
 11
0.450464
 21
38.8777
  0
LINE
  8
0
 10
0.450464
 20
38.8777
 11
0.173401
 21
39.2841
  0
LINE
  8
0
 10
0.173401
 20
39.2841
 11
0.028429
 21
39.7541
  0
LINE
  8
0
 10
16.0051
 20
94.8761
 11
16.0459
 21
95.3682
  0
LINE
  8
0
 10
16.0459
 20
95.3682
 11
16.2443
 21
95.8204
  0
LINE
  8
0
 10
16.2443
 20
95.8204
 11
16.5787
 21
96.1837
  0
LINE
  8
0
 10
16.5787
 20
96.1837
 11
17.013
 21
96.4187
  0
LINE
  8
0
 10
17.013
 20
96.4187
 11
17.5
 21
96.5
  0
LINE
  8
0
 10
17.5
 20
96.5
 11
17.9871
 21
96.4187
  0
LINE
  8
0
 10
17.9871
 20
96.4187
 11
18.4213
 21
96.1837
  0
LINE
  8
0
 10
18.4213
 20
96.1837
 11
18.7558
 21
95.8204
  0
LINE
  8
0
 10
18.7558
 20
95.8204
 11
18.9541
 21
95.3682
  0
LINE
  8
0
 10
18.9541
 20
95.3682
 11
18.9949
 21
94.8761
  0
LINE
  8
0
 10
18.9949
 20
94.8761
 11
18.8737
 21
94.3975
  0
LINE
  8
0
 10
18.8737
 20
94.3975
 11
18.6036
 21
93.9841
  0
LINE
  8
0
 10
18.6036
 20
93.9841
 11
18.2139
 21
93.6808
  0
LINE
  8
0
 10
18.2139
 20
93.6808
 11
17.7469
 21
93.5205
  0
LINE
  8
0
 10
17.7469
 20
93.5205
 11
17.2531
 21
93.5205
  0
LINE
  8
0
 10
17.2531
 20
93.5205
 11
16.7861
 21
93.6808
  0
LINE
  8
0
 10
16.7861
 20
93.6808
 11
16.3964
 21
93.9841
  0
LINE
  8
0
 10
16.3964
 20
93.9841
 11
16.1263
 21
94.3975
  0
LINE
  8
0
 10
16.1263
 20
94.3975
 11
16.0051
 21
94.8761
  0
LINE
  8
0
 10
16.0051
 20
100.676
 11
16.0459
 21
101.168
  0
LINE
  8
0
 10
16.0459
 20
101.168
 11
16.2443
 21
101.62
  0
LINE
  8
0
 10
16.2443
 20
101.62
 11
16.5787
 21
101.984
  0
LINE
  8
0
 10
16.5787
 20
101.984
 11
17.013
 21
102.219
  0
LINE
  8
0
 10
17.013
 20
102.219
 11
17.5
 21
102.3
  0
LINE
  8
0
 10
17.5
 20
102.3
 11
17.9871
 21
102.219
  0
LINE
  8
0
 10
17.9871
 20
102.219
 11
18.4213
 21
101.984
  0
LINE
  8
0
 10
18.4213
 20
101.984
 11
18.7558
 21
101.62
  0
LINE
  8
0
 10
18.7558
 20
101.62
 11
18.9541
 21
101.168
  0
LINE
  8
0
 10
18.9541
 20
101.168
 11
18.9949
 21
100.676
  0
LINE
  8
0
 10
18.9949
 20
100.676
 11
18.8737
 21
100.197
  0
LINE
  8
0
 10
18.8737
 20
100.197
 11
18.6036
 21
99.7841
  0
LINE
  8
0
 10
18.6036
 20
99.7841
 11
18.2139
 21
99.4808
  0
LINE
  8
0
 10
18.2139
 20
99.4808
 11
17.7469
 21
99.3205
  0
LINE
  8
0
 10
17.7469
 20
99.3205
 11
17.2531
 21
99.3205
  0
LINE
  8
0
 10
17.2531
 20
99.3205
 11
16.7861
 21
99.4808
  0
LINE
  8
0
 10
16.7861
 20
99.4808
 11
16.3964
 21
99.7841
  0
LINE
  8
0
 10
16.3964
 20
99.7841
 11
16.1263
 21
100.197
  0
LINE
  8
0
 10
16.1263
 20
100.197
 11
16.0051
 21
100.676
  0
LINE
  8
0
 10
21.0051
 20
105.224
 11
21.1263
 21
105.703
  0
LINE
  8
0
 10
21.1263
 20
105.703
 11
21.3964
 21
106.116
  0
LINE
  8
0
 10
21.3964
 20
106.116
 11
21.7861
 21
106.419
  0
LINE
  8
0
 10
21.7861
 20
106.419
 11
22.2531
 21
106.58
  0
LINE
  8
0
 10
22.2531
 20
106.58
 11
22.7469
 21
106.58
  0
LINE
  8
0
 10
22.7469
 20
106.58
 11
23.2139
 21
106.419
  0
LINE
  8
0
 10
23.2139
 20
106.419
 11
23.6036
 21
106.116
  0
LINE
  8
0
 10
23.6036
 20
106.116
 11
23.8737
 21
105.703
  0
LINE
  8
0
 10
23.8737
 20
105.703
 11
23.9949
 21
105.224
  0
LINE
  8
0
 10
23.9949
 20
105.224
 11
23.9541
 21
104.732
  0
LINE
  8
0
 10
23.9541
 20
104.732
 11
23.7557
 21
104.28
  0
LINE
  8
0
 10
23.7557
 20
104.28
 11
23.4213
 21
103.916
  0
LINE
  8
0
 10
23.4213
 20
103.916
 11
22.987
 21
103.681
  0
LINE
  8
0
 10
22.987
 20
103.681
 11
22.5
 21
103.6
  0
LINE
  8
0
 10
22.5
 20
103.6
 11
22.0129
 21
103.681
  0
LINE
  8
0
 10
22.0129
 20
103.681
 11
21.5787
 21
103.916
  0
LINE
  8
0
 10
21.5787
 20
103.916
 11
21.2442
 21
104.28
  0
LINE
  8
0
 10
21.2442
 20
104.28
 11
21.0459
 21
104.732
  0
LINE
  8
0
 10
21.0459
 20
104.732
 11
21.0051
 21
105.224
  0
LINE
  8
0
 10
21.0051
 20
113.824
 11
21.1263
 21
114.303
  0
LINE
  8
0
 10
21.1263
 20
114.303
 11
21.3964
 21
114.716
  0
LINE
  8
0
 10
21.3964
 20
114.716
 11
21.7861
 21
115.019
  0
LINE
  8
0
 10
21.7861
 20
115.019
 11
22.2531
 21
115.18
  0
LINE
  8
0
 10
22.2531
 20
115.18
 11
22.7469
 21
115.18
  0
LINE
  8
0
 10
22.7469
 20
115.18
 11
23.2139
 21
115.019
  0
LINE
  8
0
 10
23.2139
 20
115.019
 11
23.6036
 21
114.716
  0
LINE
  8
0
 10
23.6036
 20
114.716
 11
23.8737
 21
114.303
  0
LINE
  8
0
 10
23.8737
 20
114.303
 11
23.9949
 21
113.824
  0
LINE
  8
0
 10
23.9949
 20
113.824
 11
23.9541
 21
113.332
  0
LINE
  8
0
 10
23.9541
 20
113.332
 11
23.7557
 21
112.88
  0
LINE
  8
0
 10
23.7557
 20
112.88
 11
23.4213
 21
112.516
  0
LINE
  8
0
 10
23.4213
 20
112.516
 11
22.987
 21
112.281
  0
LINE
  8
0
 10
22.987
 20
112.281
 11
22.5
 21
112.2
  0
LINE
  8
0
 10
22.5
 20
112.2
 11
22.0129
 21
112.281
  0
LINE
  8
0
 10
22.0129
 20
112.281
 11
21.5787
 21
112.516
  0
LINE
  8
0
 10
21.5787
 20
112.516
 11
21.2442
 21
112.88
  0
LINE
  8
0
 10
21.2442
 20
112.88
 11
21.0459
 21
113.332
  0
LINE
  8
0
 10
21.0459
 20
113.332
 11
21.0051
 21
113.824
  0
LINE
  8
0
 10
29.5946
 20
-99.6233
 11
29.6314
 21
-99.1328
  0
LINE
  8
0
 10
29.6314
 20
-99.1328
 11
29.8111
 21
-98.675
  0
LINE
  8
0
 10
29.8111
 20
-98.675
 11
30.1177
 21
-98.2905
  0
LINE
  8
0
 10
30.1177
 20
-98.2905
 11
30.5241
 21
-98.0134
  0
LINE
  8
0
 10
30.5241
 20
-98.0134
 11
30.9941
 21
-97.8684
  0
LINE
  8
0
 10
30.9941
 20
-97.8684
 11
31.4859
 21
-97.8684
  0
LINE
  8
0
 10
31.4859
 20
-97.8684
 11
31.9559
 21
-98.0134
  0
LINE
  8
0
 10
31.9559
 20
-98.0134
 11
32.3623
 21
-98.2905
  0
LINE
  8
0
 10
32.3623
 20
-98.2905
 11
32.6689
 21
-98.675
  0
LINE
  8
0
 10
32.6689
 20
-98.675
 11
32.8486
 21
-99.1328
  0
LINE
  8
0
 10
32.8486
 20
-99.1328
 11
32.8854
 21
-99.6233
  0
LINE
  8
0
 10
32.8854
 20
-99.6233
 11
32.7759
 21
-100.103
  0
LINE
  8
0
 10
32.7759
 20
-100.103
 11
32.53
 21
-100.529
  0
LINE
  8
0
 10
32.53
 20
-100.529
 11
32.1695
 21
-100.863
  0
LINE
  8
0
 10
32.1695
 20
-100.863
 11
31.7263
 21
-101.077
  0
LINE
  8
0
 10
31.7263
 20
-101.077
 11
31.24
 21
-101.15
  0
LINE
  8
0
 10
31.24
 20
-101.15
 11
30.7537
 21
-101.077
  0
LINE
  8
0
 10
30.7537
 20
-101.077
 11
30.3105
 21
-100.863
  0
LINE
  8
0
 10
30.3105
 20
-100.863
 11
29.95
 21
-100.529
  0
LINE
  8
0
 10
29.95
 20
-100.529
 11
29.7041
 21
-100.103
  0
LINE
  8
0
 10
29.7041
 20
-100.103
 11
29.5946
 21
-99.6233
  0
LINE
  8
0
 10
29.5946
 20
88.3767
 11
29.6314
 21
88.8672
  0
LINE
  8
0
 10
29.6314
 20
88.8672
 11
29.8111
 21
89.325
  0
LINE
  8
0
 10
29.8111
 20
89.325
 11
30.1177
 21
89.7095
  0
LINE
  8
0
 10
30.1177
 20
89.7095
 11
30.5241
 21
89.9866
  0
LINE
  8
0
 10
30.5241
 20
89.9866
 11
30.9941
 21
90.1316
  0
LINE
  8
0
 10
30.9941
 20
90.1316
 11
31.4859
 21
90.1316
  0
LINE
  8
0
 10
31.4859
 20
90.1316
 11
31.9559
 21
89.9866
  0
LINE
  8
0
 10
31.9559
 20
89.9866
 11
32.3623
 21
89.7095
  0
LINE
  8
0
 10
32.3623
 20
89.7095
 11
32.6689
 21
89.325
  0
LINE
  8
0
 10
32.6689
 20
89.325
 11
32.8486
 21
88.8672
  0
LINE
  8
0
 10
32.8486
 20
88.8672
 11
32.8854
 21
88.3767
  0
LINE
  8
0
 10
32.8854
 20
88.3767
 11
32.7759
 21
87.8972
  0
LINE
  8
0
 10
32.7759
 20
87.8972
 11
32.53
 21
87.4712
  0
LINE
  8
0
 10
32.53
 20
87.4712
 11
32.1695
 21
87.1367
  0
LINE
  8
0
 10
32.1695
 20
87.1367
 11
31.7263
 21
86.9233
  0
LINE
  8
0
 10
31.7263
 20
86.9233
 11
31.24
 21
86.85
  0
LINE
  8
0
 10
31.24
 20
86.85
 11
30.7537
 21
86.9233
  0
LINE
  8
0
 10
30.7537
 20
86.9233
 11
30.3105
 21
87.1367
  0
LINE
  8
0
 10
30.3105
 20
87.1367
 11
29.95
 21
87.4712
  0
LINE
  8
0
 10
29.95
 20
87.4712
 11
29.7041
 21
87.8972
  0
LINE
  8
0
 10
29.7041
 20
87.8972
 11
29.5946
 21
88.3767
  0
LINE
  8
0
 10
48.1205
 20
-77.2469
 11
48.1205
 21
-76.7531
  0
LINE
  8
0
 10
48.1205
 20
-76.7531
 11
48.2808
 21
-76.2861
  0
LINE
  8
0
 10
48.2808
 20
-76.2861
 11
48.5841
 21
-75.8964
  0
LINE
  8
0
 10
48.5841
 20
-75.8964
 11
48.9975
 21
-75.6263
  0
LINE
  8
0
 10
48.9975
 20
-75.6263
 11
49.4761
 21
-75.5051
  0
LINE
  8
0
 10
49.4761
 20
-75.5051
 11
49.9682
 21
-75.5459
  0
LINE
  8
0
 10
49.9682
 20
-75.5459
 11
50.4204
 21
-75.7443
  0
LINE
  8
0
 10
50.4204
 20
-75.7443
 11
50.7837
 21
-76.0787
  0
LINE
  8
0
 10
50.7837
 20
-76.0787
 11
51.0187
 21
-76.513
  0
LINE
  8
0
 10
51.0187
 20
-76.513
 11
51.1
 21
-77
  0
LINE
  8
0
 10
51.1
 20
-77
 11
51.0187
 21
-77.4871
  0
LINE
  8
0
 10
51.0187
 20
-77.4871
 11
50.7837
 21
-77.9213
  0
LINE
  8
0
 10
50.7837
 20
-77.9213
 11
50.4204
 21
-78.2558
  0
LINE
  8
0
 10
50.4204
 20
-78.2558
 11
49.9682
 21
-78.4541
  0
LINE
  8
0
 10
49.9682
 20
-78.4541
 11
49.4761
 21
-78.4949
  0
LINE
  8
0
 10
49.4761
 20
-78.4949
 11
48.9975
 21
-78.3737
  0
LINE
  8
0
 10
48.9975
 20
-78.3737
 11
48.5841
 21
-78.1036
  0
LINE
  8
0
 10
48.5841
 20
-78.1036
 11
48.2808
 21
-77.7139
  0
LINE
  8
0
 10
48.2808
 20
-77.7139
 11
48.1205
 21
-77.2469
  0
LINE
  8
0
 10
48.1205
 20
48.1731
 11
48.1205
 21
48.6669
  0
LINE
  8
0
 10
48.1205
 20
48.6669
 11
48.2808
 21
49.1339
  0
LINE
  8
0
 10
48.2808
 20
49.1339
 11
48.5841
 21
49.5236
  0
LINE
  8
0
 10
48.5841
 20
49.5236
 11
48.9975
 21
49.7937
  0
LINE
  8
0
 10
48.9975
 20
49.7937
 11
49.4761
 21
49.9149
  0
LINE
  8
0
 10
49.4761
 20
49.9149
 11
49.9682
 21
49.8741
  0
LINE
  8
0
 10
49.9682
 20
49.8741
 11
50.4204
 21
49.6757
  0
LINE
  8
0
 10
50.4204
 20
49.6757
 11
50.7837
 21
49.3413
  0
LINE
  8
0
 10
50.7837
 20
49.3413
 11
51.0187
 21
48.907
  0
LINE
  8
0
 10
51.0187
 20
48.907
 11
51.1
 21
48.42
  0
LINE
  8
0
 10
51.1
 20
48.42
 11
51.0187
 21
47.9329
  0
LINE
  8
0
 10
51.0187
 20
47.9329
 11
50.7837
 21
47.4987
  0
LINE
  8
0
 10
50.7837
 20
47.4987
 11
50.4204
 21
47.1642
  0
LINE
  8
0
 10
50.4204
 20
47.1642
 11
49.9682
 21
46.9659
  0
LINE
  8
0
 10
49.9682
 20
46.9659
 11
49.4761
 21
46.9251
  0
LINE
  8
0
 10
49.4761
 20
46.9251
 11
48.9975
 21
47.0463
  0
LINE
  8
0
 10
48.9975
 20
47.0463
 11
48.5841
 21
47.3164
  0
LINE
  8
0
 10
48.5841
 20
47.3164
 11
48.2808
 21
47.7061
  0
LINE
  8
0
 10
48.2808
 20
47.7061
 11
48.1205
 21
48.1731
  0
LINE
  8
0
 10
50.5
 20
-84.5
 11
50.5581
 21
-84.0214
  0
LINE
  8
0
 10
50.5581
 20
-84.0214
 11
50.7291
 21
-83.5706
  0
LINE
  8
0
 10
50.7291
 20
-83.5706
 11
51.003
 21
-83.1738
  0
LINE
  8
0
 10
51.003
 20
-83.1738
 11
51.3639
 21
-82.854
  0
LINE
  8
0
 10
51.3639
 20
-82.854
 11
51.7908
 21
-82.63
  0
LINE
  8
0
 10
51.7908
 20
-82.63
 11
52.2589
 21
-82.5146
  0
LINE
  8
0
 10
52.2589
 20
-82.5146
 11
52.7411
 21
-82.5146
  0
LINE
  8
0
 10
52.7411
 20
-82.5146
 11
53.2092
 21
-82.63
  0
LINE
  8
0
 10
53.2092
 20
-82.63
 11
53.6361
 21
-82.854
  0
LINE
  8
0
 10
53.6361
 20
-82.854
 11
53.997
 21
-83.1738
  0
LINE
  8
0
 10
53.997
 20
-83.1738
 11
54.2709
 21
-83.5706
  0
LINE
  8
0
 10
54.2709
 20
-83.5706
 11
54.4419
 21
-84.0214
  0
LINE
  8
0
 10
54.4419
 20
-84.0214
 11
54.5
 21
-84.5
  0
LINE
  8
0
 10
54.5
 20
-84.5
 11
54.4419
 21
-84.9786
  0
LINE
  8
0
 10
54.4419
 20
-84.9786
 11
54.2709
 21
-85.4294
  0
LINE
  8
0
 10
54.2709
 20
-85.4294
 11
53.997
 21
-85.8262
  0
LINE
  8
0
 10
53.997
 20
-85.8262
 11
53.6361
 21
-86.146
  0
LINE
  8
0
 10
53.6361
 20
-86.146
 11
53.2092
 21
-86.37
  0
LINE
  8
0
 10
53.2092
 20
-86.37
 11
52.7411
 21
-86.4854
  0
LINE
  8
0
 10
52.7411
 20
-86.4854
 11
52.2589
 21
-86.4854
  0
LINE
  8
0
 10
52.2589
 20
-86.4854
 11
51.7908
 21
-86.37
  0
LINE
  8
0
 10
51.7908
 20
-86.37
 11
51.3639
 21
-86.146
  0
LINE
  8
0
 10
51.3639
 20
-86.146
 11
51.003
 21
-85.8262
  0
LINE
  8
0
 10
51.003
 20
-85.8262
 11
50.7291
 21
-85.4294
  0
LINE
  8
0
 10
50.7291
 20
-85.4294
 11
50.5581
 21
-84.9786
  0
LINE
  8
0
 10
50.5581
 20
-84.9786
 11
50.5
 21
-84.5
  0
LINE
  8
0
 10
50.5
 20
62.92
 11
50.5581
 21
63.3986
  0
LINE
  8
0
 10
50.5581
 20
63.3986
 11
50.7291
 21
63.8494
  0
LINE
  8
0
 10
50.7291
 20
63.8494
 11
51.003
 21
64.2462
  0
LINE
  8
0
 10
51.003
 20
64.2462
 11
51.3639
 21
64.566
  0
LINE
  8
0
 10
51.3639
 20
64.566
 11
51.7908
 21
64.79
  0
LINE
  8
0
 10
51.7908
 20
64.79
 11
52.2589
 21
64.9054
  0
LINE
  8
0
 10
52.2589
 20
64.9054
 11
52.7411
 21
64.9054
  0
LINE
  8
0
 10
52.7411
 20
64.9054
 11
53.2092
 21
64.79
  0
LINE
  8
0
 10
53.2092
 20
64.79
 11
53.6361
 21
64.566
  0
LINE
  8
0
 10
53.6361
 20
64.566
 11
53.997
 21
64.2462
  0
LINE
  8
0
 10
53.997
 20
64.2462
 11
54.2709
 21
63.8494
  0
LINE
  8
0
 10
54.2709
 20
63.8494
 11
54.4419
 21
63.3986
  0
LINE
  8
0
 10
54.4419
 20
63.3986
 11
54.5
 21
62.92
  0
LINE
  8
0
 10
54.5
 20
62.92
 11
54.4419
 21
62.4414
  0
LINE
  8
0
 10
54.4419
 20
62.4414
 11
54.2709
 21
61.9906
  0
LINE
  8
0
 10
54.2709
 20
61.9906
 11
53.997
 21
61.5938
  0
LINE
  8
0
 10
53.997
 20
61.5938
 11
53.6361
 21
61.274
  0
LINE
  8
0
 10
53.6361
 20
61.274
 11
53.2092
 21
61.05
  0
LINE
  8
0
 10
53.2092
 20
61.05
 11
52.7411
 21
60.9346
  0
LINE
  8
0
 10
52.7411
 20
60.9346
 11
52.2589
 21
60.9346
  0
LINE
  8
0
 10
52.2589
 20
60.9346
 11
51.7908
 21
61.05
  0
LINE
  8
0
 10
51.7908
 20
61.05
 11
51.3639
 21
61.274
  0
LINE
  8
0
 10
51.3639
 20
61.274
 11
51.003
 21
61.5938
  0
LINE
  8
0
 10
51.003
 20
61.5938
 11
50.7291
 21
61.9906
  0
LINE
  8
0
 10
50.7291
 20
61.9906
 11
50.5581
 21
62.4414
  0
LINE
  8
0
 10
50.5581
 20
62.4414
 11
50.5
 21
62.92
  0
LINE
  8
0
 10
53.9205
 20
-77.2469
 11
53.9205
 21
-76.7531
  0
LINE
  8
0
 10
53.9205
 20
-76.7531
 11
54.0808
 21
-76.2861
  0
LINE
  8
0
 10
54.0808
 20
-76.2861
 11
54.3841
 21
-75.8964
  0
LINE
  8
0
 10
54.3841
 20
-75.8964
 11
54.7975
 21
-75.6263
  0
LINE
  8
0
 10
54.7975
 20
-75.6263
 11
55.2761
 21
-75.5051
  0
LINE
  8
0
 10
55.2761
 20
-75.5051
 11
55.7682
 21
-75.5459
  0
LINE
  8
0
 10
55.7682
 20
-75.5459
 11
56.2204
 21
-75.7443
  0
LINE
  8
0
 10
56.2204
 20
-75.7443
 11
56.5837
 21
-76.0787
  0
LINE
  8
0
 10
56.5837
 20
-76.0787
 11
56.8187
 21
-76.513
  0
LINE
  8
0
 10
56.8187
 20
-76.513
 11
56.9
 21
-77
  0
LINE
  8
0
 10
56.9
 20
-77
 11
56.8187
 21
-77.4871
  0
LINE
  8
0
 10
56.8187
 20
-77.4871
 11
56.5837
 21
-77.9213
  0
LINE
  8
0
 10
56.5837
 20
-77.9213
 11
56.2204
 21
-78.2558
  0
LINE
  8
0
 10
56.2204
 20
-78.2558
 11
55.7682
 21
-78.4541
  0
LINE
  8
0
 10
55.7682
 20
-78.4541
 11
55.2761
 21
-78.4949
  0
LINE
  8
0
 10
55.2761
 20
-78.4949
 11
54.7975
 21
-78.3737
  0
LINE
  8
0
 10
54.7975
 20
-78.3737
 11
54.3841
 21
-78.1036
  0
LINE
  8
0
 10
54.3841
 20
-78.1036
 11
54.0808
 21
-77.7139
  0
LINE
  8
0
 10
54.0808
 20
-77.7139
 11
53.9205
 21
-77.2469
  0
LINE
  8
0
 10
53.9205
 20
48.1731
 11
53.9205
 21
48.6669
  0
LINE
  8
0
 10
53.9205
 20
48.6669
 11
54.0808
 21
49.1339
  0
LINE
  8
0
 10
54.0808
 20
49.1339
 11
54.3841
 21
49.5236
  0
LINE
  8
0
 10
54.3841
 20
49.5236
 11
54.7975
 21
49.7937
  0
LINE
  8
0
 10
54.7975
 20
49.7937
 11
55.2761
 21
49.9149
  0
LINE
  8
0
 10
55.2761
 20
49.9149
 11
55.7682
 21
49.8741
  0
LINE
  8
0
 10
55.7682
 20
49.8741
 11
56.2204
 21
49.6757
  0
LINE
  8
0
 10
56.2204
 20
49.6757
 11
56.5837
 21
49.3413
  0
LINE
  8
0
 10
56.5837
 20
49.3413
 11
56.8187
 21
48.907
  0
LINE
  8
0
 10
56.8187
 20
48.907
 11
56.9
 21
48.42
  0
LINE
  8
0
 10
56.9
 20
48.42
 11
56.8187
 21
47.9329
  0
LINE
  8
0
 10
56.8187
 20
47.9329
 11
56.5837
 21
47.4987
  0
LINE
  8
0
 10
56.5837
 20
47.4987
 11
56.2204
 21
47.1642
  0
LINE
  8
0
 10
56.2204
 20
47.1642
 11
55.7682
 21
46.9659
  0
LINE
  8
0
 10
55.7682
 20
46.9659
 11
55.2761
 21
46.9251
  0
LINE
  8
0
 10
55.2761
 20
46.9251
 11
54.7975
 21
47.0463
  0
LINE
  8
0
 10
54.7975
 20
47.0463
 11
54.3841
 21
47.3164
  0
LINE
  8
0
 10
54.3841
 20
47.3164
 11
54.0808
 21
47.7061
  0
LINE
  8
0
 10
54.0808
 20
47.7061
 11
53.9205
 21
48.1731
  0
LINE
  8
0
 10
53.9946
 20
-99.6233
 11
54.0314
 21
-99.1328
  0
LINE
  8
0
 10
54.0314
 20
-99.1328
 11
54.2111
 21
-98.675
  0
LINE
  8
0
 10
54.2111
 20
-98.675
 11
54.5177
 21
-98.2905
  0
LINE
  8
0
 10
54.5177
 20
-98.2905
 11
54.9241
 21
-98.0134
  0
LINE
  8
0
 10
54.9241
 20
-98.0134
 11
55.3941
 21
-97.8684
  0
LINE
  8
0
 10
55.3941
 20
-97.8684
 11
55.8859
 21
-97.8684
  0
LINE
  8
0
 10
55.8859
 20
-97.8684
 11
56.3559
 21
-98.0134
  0
LINE
  8
0
 10
56.3559
 20
-98.0134
 11
56.7623
 21
-98.2905
  0
LINE
  8
0
 10
56.7623
 20
-98.2905
 11
57.0689
 21
-98.675
  0
LINE
  8
0
 10
57.0689
 20
-98.675
 11
57.2486
 21
-99.1328
  0
LINE
  8
0
 10
57.2486
 20
-99.1328
 11
57.2854
 21
-99.6233
  0
LINE
  8
0
 10
57.2854
 20
-99.6233
 11
57.1759
 21
-100.103
  0
LINE
  8
0
 10
57.1759
 20
-100.103
 11
56.93
 21
-100.529
  0
LINE
  8
0
 10
56.93
 20
-100.529
 11
56.5695
 21
-100.863
  0
LINE
  8
0
 10
56.5695
 20
-100.863
 11
56.1263
 21
-101.077
  0
LINE
  8
0
 10
56.1263
 20
-101.077
 11
55.64
 21
-101.15
  0
LINE
  8
0
 10
55.64
 20
-101.15
 11
55.1537
 21
-101.077
  0
LINE
  8
0
 10
55.1537
 20
-101.077
 11
54.7105
 21
-100.863
  0
LINE
  8
0
 10
54.7105
 20
-100.863
 11
54.35
 21
-100.529
  0
LINE
  8
0
 10
54.35
 20
-100.529
 11
54.1041
 21
-100.103
  0
LINE
  8
0
 10
54.1041
 20
-100.103
 11
53.9946
 21
-99.6233
  0
LINE
  8
0
 10
53.9946
 20
88.3767
 11
54.0314
 21
88.8672
  0
LINE
  8
0
 10
54.0314
 20
88.8672
 11
54.2111
 21
89.325
  0
LINE
  8
0
 10
54.2111
 20
89.325
 11
54.5177
 21
89.7095
  0
LINE
  8
0
 10
54.5177
 20
89.7095
 11
54.9241
 21
89.9866
  0
LINE
  8
0
 10
54.9241
 20
89.9866
 11
55.3941
 21
90.1316
  0
LINE
  8
0
 10
55.3941
 20
90.1316
 11
55.8859
 21
90.1316
  0
LINE
  8
0
 10
55.8859
 20
90.1316
 11
56.3559
 21
89.9866
  0
LINE
  8
0
 10
56.3559
 20
89.9866
 11
56.7623
 21
89.7095
  0
LINE
  8
0
 10
56.7623
 20
89.7095
 11
57.0689
 21
89.325
  0
LINE
  8
0
 10
57.0689
 20
89.325
 11
57.2486
 21
88.8672
  0
LINE
  8
0
 10
57.2486
 20
88.8672
 11
57.2854
 21
88.3767
  0
LINE
  8
0
 10
57.2854
 20
88.3767
 11
57.1759
 21
87.8972
  0
LINE
  8
0
 10
57.1759
 20
87.8972
 11
56.93
 21
87.4712
  0
LINE
  8
0
 10
56.93
 20
87.4712
 11
56.5695
 21
87.1367
  0
LINE
  8
0
 10
56.5695
 20
87.1367
 11
56.1263
 21
86.9233
  0
LINE
  8
0
 10
56.1263
 20
86.9233
 11
55.64
 21
86.85
  0
LINE
  8
0
 10
55.64
 20
86.85
 11
55.1537
 21
86.9233
  0
LINE
  8
0
 10
55.1537
 20
86.9233
 11
54.7105
 21
87.1367
  0
LINE
  8
0
 10
54.7105
 20
87.1367
 11
54.35
 21
87.4712
  0
LINE
  8
0
 10
54.35
 20
87.4712
 11
54.1041
 21
87.8972
  0
LINE
  8
0
 10
54.1041
 20
87.8972
 11
53.9946
 21
88.3767
  0
LINE
  8
0
 10
58.2
 20
-82
 11
58.2813
 21
-81.5129
  0
LINE
  8
0
 10
58.2813
 20
-81.5129
 11
58.5163
 21
-81.0787
  0
LINE
  8
0
 10
58.5163
 20
-81.0787
 11
58.8796
 21
-80.7442
  0
LINE
  8
0
 10
58.8796
 20
-80.7442
 11
59.3318
 21
-80.5459
  0
LINE
  8
0
 10
59.3318
 20
-80.5459
 11
59.8239
 21
-80.5051
  0
LINE
  8
0
 10
59.8239
 20
-80.5051
 11
60.3025
 21
-80.6263
  0
LINE
  8
0
 10
60.3025
 20
-80.6263
 11
60.7159
 21
-80.8964
  0
LINE
  8
0
 10
60.7159
 20
-80.8964
 11
61.0192
 21
-81.2861
  0
LINE
  8
0
 10
61.0192
 20
-81.2861
 11
61.1795
 21
-81.7531
  0
LINE
  8
0
 10
61.1795
 20
-81.7531
 11
61.1795
 21
-82.2469
  0
LINE
  8
0
 10
61.1795
 20
-82.2469
 11
61.0192
 21
-82.7139
  0
LINE
  8
0
 10
61.0192
 20
-82.7139
 11
60.7159
 21
-83.1036
  0
LINE
  8
0
 10
60.7159
 20
-83.1036
 11
60.3025
 21
-83.3737
  0
LINE
  8
0
 10
60.3025
 20
-83.3737
 11
59.8239
 21
-83.4949
  0
LINE
  8
0
 10
59.8239
 20
-83.4949
 11
59.3318
 21
-83.4541
  0
LINE
  8
0
 10
59.3318
 20
-83.4541
 11
58.8796
 21
-83.2557
  0
LINE
  8
0
 10
58.8796
 20
-83.2557
 11
58.5163
 21
-82.9213
  0
LINE
  8
0
 10
58.5163
 20
-82.9213
 11
58.2813
 21
-82.487
  0
LINE
  8
0
 10
58.2813
 20
-82.487
 11
58.2
 21
-82
  0
LINE
  8
0
 10
58.2
 20
43.42
 11
58.2813
 21
43.9071
  0
LINE
  8
0
 10
58.2813
 20
43.9071
 11
58.5163
 21
44.3413
  0
LINE
  8
0
 10
58.5163
 20
44.3413
 11
58.8796
 21
44.6758
  0
LINE
  8
0
 10
58.8796
 20
44.6758
 11
59.3318
 21
44.8741
  0
LINE
  8
0
 10
59.3318
 20
44.8741
 11
59.8239
 21
44.9149
  0
LINE
  8
0
 10
59.8239
 20
44.9149
 11
60.3025
 21
44.7937
  0
LINE
  8
0
 10
60.3025
 20
44.7937
 11
60.7159
 21
44.5236
  0
LINE
  8
0
 10
60.7159
 20
44.5236
 11
61.0192
 21
44.1339
  0
LINE
  8
0
 10
61.0192
 20
44.1339
 11
61.1795
 21
43.6669
  0
LINE
  8
0
 10
61.1795
 20
43.6669
 11
61.1795
 21
43.1731
  0
LINE
  8
0
 10
61.1795
 20
43.1731
 11
61.0192
 21
42.7061
  0
LINE
  8
0
 10
61.0192
 20
42.7061
 11
60.7159
 21
42.3164
  0
LINE
  8
0
 10
60.7159
 20
42.3164
 11
60.3025
 21
42.0463
  0
LINE
  8
0
 10
60.3025
 20
42.0463
 11
59.8239
 21
41.9251
  0
LINE
  8
0
 10
59.8239
 20
41.9251
 11
59.3318
 21
41.9659
  0
LINE
  8
0
 10
59.3318
 20
41.9659
 11
58.8796
 21
42.1643
  0
LINE
  8
0
 10
58.8796
 20
42.1643
 11
58.5163
 21
42.4987
  0
LINE
  8
0
 10
58.5163
 20
42.4987
 11
58.2813
 21
42.933
  0
LINE
  8
0
 10
58.2813
 20
42.933
 11
58.2
 21
43.42
  0
LINE
  8
0
 10
60.1
 20
53.42
 11
60.148
 21
53.9077
  0
LINE
  8
0
 10
60.148
 20
53.9077
 11
60.2903
 21
54.3767
  0
LINE
  8
0
 10
60.2903
 20
54.3767
 11
60.5213
 21
54.8089
  0
LINE
  8
0
 10
60.5213
 20
54.8089
 11
60.8322
 21
55.1878
  0
LINE
  8
0
 10
60.8322
 20
55.1878
 11
61.2111
 21
55.4987
  0
LINE
  8
0
 10
61.2111
 20
55.4987
 11
61.6433
 21
55.7297
  0
LINE
  8
0
 10
61.6433
 20
55.7297
 11
62.1123
 21
55.872
  0
LINE
  8
0
 10
62.1123
 20
55.872
 11
62.6
 21
55.92
  0
LINE
  8
0
 10
62.6
 20
55.92
 11
63.0877
 21
55.872
  0
LINE
  8
0
 10
63.0877
 20
55.872
 11
63.5567
 21
55.7297
  0
LINE
  8
0
 10
63.5567
 20
55.7297
 11
63.9889
 21
55.4987
  0
LINE
  8
0
 10
63.9889
 20
55.4987
 11
64.3678
 21
55.1878
  0
LINE
  8
0
 10
64.3678
 20
55.1878
 11
64.6787
 21
54.8089
  0
LINE
  8
0
 10
64.6787
 20
54.8089
 11
64.9097
 21
54.3767
  0
LINE
  8
0
 10
64.9097
 20
54.3767
 11
65.052
 21
53.9077
  0
LINE
  8
0
 10
65.052
 20
53.9077
 11
65.1
 21
53.42
  0
LINE
  8
0
 10
65.1
 20
53.42
 11
65.052
 21
52.9323
  0
LINE
  8
0
 10
65.052
 20
52.9323
 11
64.9097
 21
52.4633
  0
LINE
  8
0
 10
64.9097
 20
52.4633
 11
64.6787
 21
52.0311
  0
LINE
  8
0
 10
64.6787
 20
52.0311
 11
64.3678
 21
51.6522
  0
LINE
  8
0
 10
64.3678
 20
51.6522
 11
63.9889
 21
51.3413
  0
LINE
  8
0
 10
63.9889
 20
51.3413
 11
63.5567
 21
51.1103
  0
LINE
  8
0
 10
63.5567
 20
51.1103
 11
63.0877
 21
50.968
  0
LINE
  8
0
 10
63.0877
 20
50.968
 11
62.6
 21
50.92
  0
LINE
  8
0
 10
62.6
 20
50.92
 11
62.1123
 21
50.968
  0
LINE
  8
0
 10
62.1123
 20
50.968
 11
61.6433
 21
51.1103
  0
LINE
  8
0
 10
61.6433
 20
51.1103
 11
61.2111
 21
51.3413
  0
LINE
  8
0
 10
61.2111
 20
51.3413
 11
60.8322
 21
51.6522
  0
LINE
  8
0
 10
60.8322
 20
51.6522
 11
60.5213
 21
52.0311
  0
LINE
  8
0
 10
60.5213
 20
52.0311
 11
60.2903
 21
52.4633
  0
LINE
  8
0
 10
60.2903
 20
52.4633
 11
60.148
 21
52.9323
  0
LINE
  8
0
 10
60.148
 20
52.9323
 11
60.1
 21
53.42
  0
LINE
  8
0
 10
64
 20
-82
 11
64.0813
 21
-81.5129
  0
LINE
  8
0
 10
64.0813
 20
-81.5129
 11
64.3163
 21
-81.0787
  0
LINE
  8
0
 10
64.3163
 20
-81.0787
 11
64.6796
 21
-80.7442
  0
LINE
  8
0
 10
64.6796
 20
-80.7442
 11
65.1318
 21
-80.5459
  0
LINE
  8
0
 10
65.1318
 20
-80.5459
 11
65.6239
 21
-80.5051
  0
LINE
  8
0
 10
65.6239
 20
-80.5051
 11
66.1025
 21
-80.6263
  0
LINE
  8
0
 10
66.1025
 20
-80.6263
 11
66.5159
 21
-80.8964
  0
LINE
  8
0
 10
66.5159
 20
-80.8964
 11
66.8192
 21
-81.2861
  0
LINE
  8
0
 10
66.8192
 20
-81.2861
 11
66.9795
 21
-81.7531
  0
LINE
  8
0
 10
66.9795
 20
-81.7531
 11
66.9795
 21
-82.2469
  0
LINE
  8
0
 10
66.9795
 20
-82.2469
 11
66.8192
 21
-82.7139
  0
LINE
  8
0
 10
66.8192
 20
-82.7139
 11
66.5159
 21
-83.1036
  0
LINE
  8
0
 10
66.5159
 20
-83.1036
 11
66.1025
 21
-83.3737
  0
LINE
  8
0
 10
66.1025
 20
-83.3737
 11
65.6239
 21
-83.4949
  0
LINE
  8
0
 10
65.6239
 20
-83.4949
 11
65.1318
 21
-83.4541
  0
LINE
  8
0
 10
65.1318
 20
-83.4541
 11
64.6796
 21
-83.2557
  0
LINE
  8
0
 10
64.6796
 20
-83.2557
 11
64.3163
 21
-82.9213
  0
LINE
  8
0
 10
64.3163
 20
-82.9213
 11
64.0813
 21
-82.487
  0
LINE
  8
0
 10
64.0813
 20
-82.487
 11
64
 21
-82
  0
LINE
  8
0
 10
64
 20
43.42
 11
64.0813
 21
43.9071
  0
LINE
  8
0
 10
64.0813
 20
43.9071
 11
64.3163
 21
44.3413
  0
LINE
  8
0
 10
64.3163
 20
44.3413
 11
64.6796
 21
44.6758
  0
LINE
  8
0
 10
64.6796
 20
44.6758
 11
65.1318
 21
44.8741
  0
LINE
  8
0
 10
65.1318
 20
44.8741
 11
65.6239
 21
44.9149
  0
LINE
  8
0
 10
65.6239
 20
44.9149
 11
66.1025
 21
44.7937
  0
LINE
  8
0
 10
66.1025
 20
44.7937
 11
66.5159
 21
44.5236
  0
LINE
  8
0
 10
66.5159
 20
44.5236
 11
66.8192
 21
44.1339
  0
LINE
  8
0
 10
66.8192
 20
44.1339
 11
66.9795
 21
43.6669
  0
LINE
  8
0
 10
66.9795
 20
43.6669
 11
66.9795
 21
43.1731
  0
LINE
  8
0
 10
66.9795
 20
43.1731
 11
66.8192
 21
42.7061
  0
LINE
  8
0
 10
66.8192
 20
42.7061
 11
66.5159
 21
42.3164
  0
LINE
  8
0
 10
66.5159
 20
42.3164
 11
66.1025
 21
42.0463
  0
LINE
  8
0
 10
66.1025
 20
42.0463
 11
65.6239
 21
41.9251
  0
LINE
  8
0
 10
65.6239
 20
41.9251
 11
65.1318
 21
41.9659
  0
LINE
  8
0
 10
65.1318
 20
41.9659
 11
64.6796
 21
42.1643
  0
LINE
  8
0
 10
64.6796
 20
42.1643
 11
64.3163
 21
42.4987
  0
LINE
  8
0
 10
64.3163
 20
42.4987
 11
64.0813
 21
42.933
  0
LINE
  8
0
 10
64.0813
 20
42.933
 11
64
 21
43.42
  0
LINE
  8
0
 10
79.5046
 20
-105.867
 11
79.6141
 21
-105.387
  0
LINE
  8
0
 10
79.6141
 20
-105.387
 11
79.86
 21
-104.961
  0
LINE
  8
0
 10
79.86
 20
-104.961
 11
80.2205
 21
-104.627
  0
LINE
  8
0
 10
80.2205
 20
-104.627
 11
80.6637
 21
-104.413
  0
LINE
  8
0
 10
80.6637
 20
-104.413
 11
81.15
 21
-104.34
  0
LINE
  8
0
 10
81.15
 20
-104.34
 11
81.6363
 21
-104.413
  0
LINE
  8
0
 10
81.6363
 20
-104.413
 11
82.0795
 21
-104.627
  0
LINE
  8
0
 10
82.0795
 20
-104.627
 11
82.44
 21
-104.961
  0
LINE
  8
0
 10
82.44
 20
-104.961
 11
82.6859
 21
-105.387
  0
LINE
  8
0
 10
82.6859
 20
-105.387
 11
82.7954
 21
-105.867
  0
LINE
  8
0
 10
82.7954
 20
-105.867
 11
82.7586
 21
-106.357
  0
LINE
  8
0
 10
82.7586
 20
-106.357
 11
82.5789
 21
-106.815
  0
LINE
  8
0
 10
82.5789
 20
-106.815
 11
82.2723
 21
-107.2
  0
LINE
  8
0
 10
82.2723
 20
-107.2
 11
81.8659
 21
-107.477
  0
LINE
  8
0
 10
81.8659
 20
-107.477
 11
81.3959
 21
-107.622
  0
LINE
  8
0
 10
81.3959
 20
-107.622
 11
80.9041
 21
-107.622
  0
LINE
  8
0
 10
80.9041
 20
-107.622
 11
80.4341
 21
-107.477
  0
LINE
  8
0
 10
80.4341
 20
-107.477
 11
80.0277
 21
-107.2
  0
LINE
  8
0
 10
80.0277
 20
-107.2
 11
79.7211
 21
-106.815
  0
LINE
  8
0
 10
79.7211
 20
-106.815
 11
79.5414
 21
-106.357
  0
LINE
  8
0
 10
79.5414
 20
-106.357
 11
79.5046
 21
-105.867
  0
LINE
  8
0
 10
79.5046
 20
106.113
 11
79.6141
 21
106.593
  0
LINE
  8
0
 10
79.6141
 20
106.593
 11
79.86
 21
107.019
  0
LINE
  8
0
 10
79.86
 20
107.019
 11
80.2205
 21
107.353
  0
LINE
  8
0
 10
80.2205
 20
107.353
 11
80.6637
 21
107.567
  0
LINE
  8
0
 10
80.6637
 20
107.567
 11
81.15
 21
107.64
  0
LINE
  8
0
 10
81.15
 20
107.64
 11
81.6363
 21
107.567
  0
LINE
  8
0
 10
81.6363
 20
107.567
 11
82.0795
 21
107.353
  0
LINE
  8
0
 10
82.0795
 20
107.353
 11
82.44
 21
107.019
  0
LINE
  8
0
 10
82.44
 20
107.019
 11
82.6859
 21
106.593
  0
LINE
  8
0
 10
82.6859
 20
106.593
 11
82.7954
 21
106.113
  0
LINE
  8
0
 10
82.7954
 20
106.113
 11
82.7586
 21
105.623
  0
LINE
  8
0
 10
82.7586
 20
105.623
 11
82.5789
 21
105.165
  0
LINE
  8
0
 10
82.5789
 20
105.165
 11
82.2723
 21
104.78
  0
LINE
  8
0
 10
82.2723
 20
104.78
 11
81.8659
 21
104.503
  0
LINE
  8
0
 10
81.8659
 20
104.503
 11
81.3959
 21
104.358
  0
LINE
  8
0
 10
81.3959
 20
104.358
 11
80.9041
 21
104.358
  0
LINE
  8
0
 10
80.9041
 20
104.358
 11
80.4341
 21
104.503
  0
LINE
  8
0
 10
80.4341
 20
104.503
 11
80.0277
 21
104.78
  0
LINE
  8
0
 10
80.0277
 20
104.78
 11
79.7211
 21
105.165
  0
LINE
  8
0
 10
79.7211
 20
105.165
 11
79.5414
 21
105.623
  0
LINE
  8
0
 10
79.5414
 20
105.623
 11
79.5046
 21
106.113
  0
LINE
  8
0
 10
106.508
 20
-0.246243
 11
106.508
 21
0.246243
  0
LINE
  8
0
 10
106.508
 20
0.246243
 11
106.568
 21
0.734998
  0
LINE
  8
0
 10
106.568
 20
0.734998
 11
106.688
 21
1.21261
  0
LINE
  8
0
 10
106.688
 20
1.21261
 11
106.866
 21
1.67184
  0
LINE
  8
0
 10
106.866
 20
1.67184
 11
107.099
 21
2.10573
  0
LINE
  8
0
 10
107.099
 20
2.10573
 11
107.384
 21
2.5077
  0
LINE
  8
0
 10
107.384
 20
2.5077
 11
107.715
 21
2.87165
  0
LINE
  8
0
 10
107.715
 20
2.87165
 11
108.089
 21
3.19207
  0
LINE
  8
0
 10
108.089
 20
3.19207
 11
108.5
 21
3.4641
  0
LINE
  8
0
 10
108.5
 20
3.4641
 11
108.941
 21
3.68362
  0
LINE
  8
0
 10
108.941
 20
3.68362
 11
109.405
 21
3.8473
  0
LINE
  8
0
 10
109.405
 20
3.8473
 11
109.886
 21
3.95266
  0
LINE
  8
0
 10
109.886
 20
3.95266
 11
110.377
 21
3.9981
  0
LINE
  8
0
 10
110.377
 20
3.9981
 11
110.869
 21
3.98294
  0
LINE
  8
0
 10
110.869
 20
3.98294
 11
111.356
 21
3.90739
  0
LINE
  8
0
 10
111.356
 20
3.90739
 11
111.829
 21
3.77262
  0
LINE
  8
0
 10
111.829
 20
3.77262
 11
112.283
 21
3.58065
  0
LINE
  8
0
 10
112.283
 20
3.58065
 11
112.709
 21
3.33441
  0
LINE
  8
0
 10
112.709
 20
3.33441
 11
113.102
 21
3.03762
  0
LINE
  8
0
 10
113.102
 20
3.03762
 11
113.456
 21
2.69478
  0
LINE
  8
0
 10
113.456
 20
2.69478
 11
113.765
 21
2.3111
  0
LINE
  8
0
 10
113.765
 20
2.3111
 11
114.024
 21
1.89237
  0
LINE
  8
0
 10
114.024
 20
1.89237
 11
114.23
 21
1.44497
  0
LINE
  8
0
 10
114.23
 20
1.44497
 11
114.379
 21
0.975655
  0
LINE
  8
0
 10
114.379
 20
0.975655
 11
114.47
 21
0.491552
  0
LINE
  8
0
 10
114.47
 20
0.491552
 11
114.5
 21
0
  0
LINE
  8
0
 10
114.5
 20
0
 11
114.47
 21
-0.491552
  0
LINE
  8
0
 10
114.47
 20
-0.491552
 11
114.379
 21
-0.975655
  0
LINE
  8
0
 10
114.379
 20
-0.975655
 11
114.23
 21
-1.44497
  0
LINE
  8
0
 10
114.23
 20
-1.44497
 11
114.024
 21
-1.89237
  0
LINE
  8
0
 10
114.024
 20
-1.89237
 11
113.765
 21
-2.3111
  0
LINE
  8
0
 10
113.765
 20
-2.3111
 11
113.456
 21
-2.69478
  0
LINE
  8
0
 10
113.456
 20
-2.69478
 11
113.102
 21
-3.03762
  0
LINE
  8
0
 10
113.102
 20
-3.03762
 11
112.709
 21
-3.33441
  0
LINE
  8
0
 10
112.709
 20
-3.33441
 11
112.283
 21
-3.58065
  0
LINE
  8
0
 10
112.283
 20
-3.58065
 11
111.829
 21
-3.77262
  0
LINE
  8
0
 10
111.829
 20
-3.77262
 11
111.356
 21
-3.90739
  0
LINE
  8
0
 10
111.356
 20
-3.90739
 11
110.869
 21
-3.98294
  0
LINE
  8
0
 10
110.869
 20
-3.98294
 11
110.377
 21
-3.9981
  0
LINE
  8
0
 10
110.377
 20
-3.9981
 11
109.886
 21
-3.95266
  0
LINE
  8
0
 10
109.886
 20
-3.95266
 11
109.405
 21
-3.8473
  0
LINE
  8
0
 10
109.405
 20
-3.8473
 11
108.941
 21
-3.68362
  0
LINE
  8
0
 10
108.941
 20
-3.68362
 11
108.5
 21
-3.4641
  0
LINE
  8
0
 10
108.5
 20
-3.4641
 11
108.089
 21
-3.19207
  0
LINE
  8
0
 10
108.089
 20
-3.19207
 11
107.715
 21
-2.87165
  0
LINE
  8
0
 10
107.715
 20
-2.87165
 11
107.384
 21
-2.5077
  0
LINE
  8
0
 10
107.384
 20
-2.5077
 11
107.099
 21
-2.10573
  0
LINE
  8
0
 10
107.099
 20
-2.10573
 11
106.866
 21
-1.67184
  0
LINE
  8
0
 10
106.866
 20
-1.67184
 11
106.688
 21
-1.21261
  0
LINE
  8
0
 10
106.688
 20
-1.21261
 11
106.568
 21
-0.734998
  0
LINE
  8
0
 10
106.568
 20
-0.734998
 11
106.508
 21
-0.246243
  0
LINE
  8
0
 10
107.678
 20
44.0241
 11
107.678
 21
44.5159
  0
LINE
  8
0
 10
107.678
 20
44.5159
 11
107.823
 21
44.9859
  0
LINE
  8
0
 10
107.823
 20
44.9859
 11
108.1
 21
45.3923
  0
LINE
  8
0
 10
108.1
 20
45.3923
 11
108.485
 21
45.6989
  0
LINE
  8
0
 10
108.485
 20
45.6989
 11
108.943
 21
45.8786
  0
LINE
  8
0
 10
108.943
 20
45.8786
 11
109.433
 21
45.9154
  0
LINE
  8
0
 10
109.433
 20
45.9154
 11
109.913
 21
45.8059
  0
LINE
  8
0
 10
109.913
 20
45.8059
 11
110.339
 21
45.56
  0
LINE
  8
0
 10
110.339
 20
45.56
 11
110.673
 21
45.1995
  0
LINE
  8
0
 10
110.673
 20
45.1995
 11
110.887
 21
44.7563
  0
LINE
  8
0
 10
110.887
 20
44.7563
 11
110.96
 21
44.27
  0
LINE
  8
0
 10
110.96
 20
44.27
 11
110.887
 21
43.7837
  0
LINE
  8
0
 10
110.887
 20
43.7837
 11
110.673
 21
43.3405
  0
LINE
  8
0
 10
110.673
 20
43.3405
 11
110.339
 21
42.98
  0
LINE
  8
0
 10
110.339
 20
42.98
 11
109.913
 21
42.7341
  0
LINE
  8
0
 10
109.913
 20
42.7341
 11
109.433
 21
42.6246
  0
LINE
  8
0
 10
109.433
 20
42.6246
 11
108.943
 21
42.6614
  0
LINE
  8
0
 10
108.943
 20
42.6614
 11
108.485
 21
42.8411
  0
LINE
  8
0
 10
108.485
 20
42.8411
 11
108.1
 21
43.1477
  0
LINE
  8
0
 10
108.1
 20
43.1477
 11
107.823
 21
43.5541
  0
LINE
  8
0
 10
107.823
 20
43.5541
 11
107.678
 21
44.0241
  0
LINE
  8
0
 10
154.858
 20
44.0241
 11
154.858
 21
44.5159
  0
LINE
  8
0
 10
154.858
 20
44.5159
 11
155.003
 21
44.9859
  0
LINE
  8
0
 10
155.003
 20
44.9859
 11
155.28
 21
45.3923
  0
LINE
  8
0
 10
155.28
 20
45.3923
 11
155.665
 21
45.6989
  0
LINE
  8
0
 10
155.665
 20
45.6989
 11
156.123
 21
45.8786
  0
LINE
  8
0
 10
156.123
 20
45.8786
 11
156.613
 21
45.9154
  0
LINE
  8
0
 10
156.613
 20
45.9154
 11
157.093
 21
45.8059
  0
LINE
  8
0
 10
157.093
 20
45.8059
 11
157.519
 21
45.56
  0
LINE
  8
0
 10
157.519
 20
45.56
 11
157.853
 21
45.1995
  0
LINE
  8
0
 10
157.853
 20
45.1995
 11
158.067
 21
44.7563
  0
LINE
  8
0
 10
158.067
 20
44.7563
 11
158.14
 21
44.27
  0
LINE
  8
0
 10
158.14
 20
44.27
 11
158.067
 21
43.7837
  0
LINE
  8
0
 10
158.067
 20
43.7837
 11
157.853
 21
43.3405
  0
LINE
  8
0
 10
157.853
 20
43.3405
 11
157.519
 21
42.98
  0
LINE
  8
0
 10
157.519
 20
42.98
 11
157.093
 21
42.7341
  0
LINE
  8
0
 10
157.093
 20
42.7341
 11
156.613
 21
42.6246
  0
LINE
  8
0
 10
156.613
 20
42.6246
 11
156.123
 21
42.6614
  0
LINE
  8
0
 10
156.123
 20
42.6614
 11
155.665
 21
42.8411
  0
LINE
  8
0
 10
155.665
 20
42.8411
 11
155.28
 21
43.1477
  0
LINE
  8
0
 10
155.28
 20
43.1477
 11
155.003
 21
43.5541
  0
LINE
  8
0
 10
155.003
 20
43.5541
 11
154.858
 21
44.0241
  0
ENDSEC
  0
SECTION
  2
OBJECTS
  0
DICTIONARY
  0
ENDSEC
  0
EOF
