  0
SECTION
  2
BLOCKS
  0
ENDSEC
  0
SECTION
  2
ENTITIES
  0
LINE
  8
0
 10
0
 20
-83.88
 11
277
 21
-83.88
  0
LINE
  8
0
 10
277
 20
-83.88
 11
279.179
 21
-83.7849
  0
LINE
  8
0
 10
279.179
 20
-83.7849
 11
281.341
 21
-83.5002
  0
LINE
  8
0
 10
281.341
 20
-83.5002
 11
283.47
 21
-83.0281
  0
LINE
  8
0
 10
283.47
 20
-83.0281
 11
285.551
 21
-82.3723
  0
LINE
  8
0
 10
285.551
 20
-82.3723
 11
287.565
 21
-81.5377
  0
LINE
  8
0
 10
287.565
 20
-81.5377
 11
289.5
 21
-80.5306
  0
LINE
  8
0
 10
289.5
 20
-80.5306
 11
291.339
 21
-79.3588
  0
LINE
  8
0
 10
291.339
 20
-79.3588
 11
293.07
 21
-78.0311
  0
LINE
  8
0
 10
293.07
 20
-78.0311
 11
294.678
 21
-76.5577
  0
LINE
  8
0
 10
294.678
 20
-76.5577
 11
296.151
 21
-74.9497
  0
LINE
  8
0
 10
296.151
 20
-74.9497
 11
297.479
 21
-73.2194
  0
LINE
  8
0
 10
297.479
 20
-73.2194
 11
298.651
 21
-71.38
  0
LINE
  8
0
 10
298.651
 20
-71.38
 11
299.658
 21
-69.4455
  0
LINE
  8
0
 10
299.658
 20
-69.4455
 11
300.492
 21
-67.4305
  0
LINE
  8
0
 10
300.492
 20
-67.4305
 11
301.148
 21
-65.3505
  0
LINE
  8
0
 10
301.148
 20
-65.3505
 11
301.62
 21
-63.2212
  0
LINE
  8
0
 10
301.62
 20
-63.2212
 11
301.905
 21
-61.0589
  0
LINE
  8
0
 10
301.905
 20
-61.0589
 11
302
 21
-58.88
  0
LINE
  8
0
 10
302
 20
-58.88
 11
302
 21
1.14441e-07
  0
LINE
  8
0
 10
302
 20
1.14441e-07
 11
256.265
 21
1.14441e-07
  0
LINE
  8
0
 10
256.265
 20
1.14441e-07
 11
256.265
 21
-2.24107
  0
LINE
  8
0
 10
256.265
 20
-2.24107
 11
256.15
 21
-2.70921
  0
LINE
  8
0
 10
256.15
 20
-2.70921
 11
255.926
 21
-3.13613
  0
LINE
  8
0
 10
255.926
 20
-3.13613
 11
255.606
 21
-3.49702
  0
LINE
  8
0
 10
255.606
 20
-3.49702
 11
255.209
 21
-3.77091
  0
LINE
  8
0
 10
255.209
 20
-3.77091
 11
254.759
 21
-3.94188
  0
LINE
  8
0
 10
254.759
 20
-3.94188
 11
254.28
 21
-4
  0
LINE
  8
0
 10
254.28
 20
-4
 11
253.801
 21
-3.94188
  0
LINE
  8
0
 10
253.801
 20
-3.94188
 11
253.351
 21
-3.77091
  0
LINE
  8
0
 10
253.351
 20
-3.77091
 11
252.954
 21
-3.49702
  0
LINE
  8
0
 10
252.954
 20
-3.49702
 11
252.634
 21
-3.13613
  0
LINE
  8
0
 10
252.634
 20
-3.13613
 11
252.41
 21
-2.70921
  0
LINE
  8
0
 10
252.41
 20
-2.70921
 11
252.295
 21
-2.24107
  0
LINE
  8
0
 10
252.295
 20
-2.24107
 11
252.295
 21
1.14441e-07
  0
LINE
  8
0
 10
252.295
 20
1.14441e-07
 11
246.47
 21
1.14441e-07
  0
LINE
  8
0
 10
246.47
 20
1.14441e-07
 11
246.47
 21
-3.24774
  0
LINE
  8
0
 10
246.47
 20
-3.24774
 11
246.388
 21
-3.73646
  0
LINE
  8
0
 10
246.388
 20
-3.73646
 11
246.227
 21
-4.20509
  0
LINE
  8
0
 10
246.227
 20
-4.20509
 11
245.992
 21
-4.64084
  0
LINE
  8
0
 10
245.992
 20
-4.64084
 11
245.687
 21
-5.03184
  0
LINE
  8
0
 10
245.687
 20
-5.03184
 11
245.323
 21
-5.36742
  0
LINE
  8
0
 10
245.323
 20
-5.36742
 11
244.908
 21
-5.63842
  0
LINE
  8
0
 10
244.908
 20
-5.63842
 11
244.454
 21
-5.83745
  0
LINE
  8
0
 10
244.454
 20
-5.83745
 11
243.974
 21
-5.95908
  0
LINE
  8
0
 10
243.974
 20
-5.95908
 11
243.48
 21
-6
  0
LINE
  8
0
 10
243.48
 20
-6
 11
242.986
 21
-5.95908
  0
LINE
  8
0
 10
242.986
 20
-5.95908
 11
242.506
 21
-5.83745
  0
LINE
  8
0
 10
242.506
 20
-5.83745
 11
242.052
 21
-5.63842
  0
LINE
  8
0
 10
242.052
 20
-5.63842
 11
241.637
 21
-5.36742
  0
LINE
  8
0
 10
241.637
 20
-5.36742
 11
241.273
 21
-5.03184
  0
LINE
  8
0
 10
241.273
 20
-5.03184
 11
240.969
 21
-4.64084
  0
LINE
  8
0
 10
240.969
 20
-4.64084
 11
240.733
 21
-4.20509
  0
LINE
  8
0
 10
240.733
 20
-4.20509
 11
240.572
 21
-3.73646
  0
LINE
  8
0
 10
240.572
 20
-3.73646
 11
240.49
 21
-3.24774
  0
LINE
  8
0
 10
240.49
 20
-3.24774
 11
240.49
 21
1.14441e-07
  0
LINE
  8
0
 10
240.49
 20
1.14441e-07
 11
0
 21
1.14441e-07
  0
LINE
  8
0
 10
0
 20
1.14441e-07
 11
0
 21
-13.3
  0
LINE
  8
0
 10
0
 20
-13.3
 11
2.5
 21
-13.3
  0
LINE
  8
0
 10
2.5
 20
-13.3
 11
2.98773
 21
-13.348
  0
LINE
  8
0
 10
2.98773
 20
-13.348
 11
3.45671
 21
-13.4903
  0
LINE
  8
0
 10
3.45671
 20
-13.4903
 11
3.88893
 21
-13.7213
  0
LINE
  8
0
 10
3.88893
 20
-13.7213
 11
4.26777
 21
-14.0322
  0
LINE
  8
0
 10
4.26777
 20
-14.0322
 11
4.57867
 21
-14.4111
  0
LINE
  8
0
 10
4.57867
 20
-14.4111
 11
4.8097
 21
-14.8433
  0
LINE
  8
0
 10
4.8097
 20
-14.8433
 11
4.95196
 21
-15.3123
  0
LINE
  8
0
 10
4.95196
 20
-15.3123
 11
5
 21
-15.8
  0
LINE
  8
0
 10
5
 20
-15.8
 11
4.95196
 21
-16.2877
  0
LINE
  8
0
 10
4.95196
 20
-16.2877
 11
4.8097
 21
-16.7567
  0
LINE
  8
0
 10
4.8097
 20
-16.7567
 11
4.57867
 21
-17.1889
  0
LINE
  8
0
 10
4.57867
 20
-17.1889
 11
4.26777
 21
-17.5678
  0
LINE
  8
0
 10
4.26777
 20
-17.5678
 11
3.88893
 21
-17.8787
  0
LINE
  8
0
 10
3.88893
 20
-17.8787
 11
3.45671
 21
-18.1097
  0
LINE
  8
0
 10
3.45671
 20
-18.1097
 11
2.98773
 21
-18.252
  0
LINE
  8
0
 10
2.98773
 20
-18.252
 11
2.5
 21
-18.3
  0
LINE
  8
0
 10
2.5
 20
-18.3
 11
0
 21
-18.3
  0
LINE
  8
0
 10
0
 20
-18.3
 11
0
 21
-23.3146
  0
LINE
  8
0
 10
0
 20
-23.3146
 11
2.24107
 21
-23.3146
  0
LINE
  8
0
 10
2.24107
 20
-23.3146
 11
2.70921
 21
-23.43
  0
LINE
  8
0
 10
2.70921
 20
-23.43
 11
3.13613
 21
-23.654
  0
LINE
  8
0
 10
3.13613
 20
-23.654
 11
3.49702
 21
-23.9738
  0
LINE
  8
0
 10
3.49702
 20
-23.9738
 11
3.77091
 21
-24.3706
  0
LINE
  8
0
 10
3.77091
 20
-24.3706
 11
3.94188
 21
-24.8214
  0
LINE
  8
0
 10
3.94188
 20
-24.8214
 11
4
 21
-25.3
  0
LINE
  8
0
 10
4
 20
-25.3
 11
3.94188
 21
-25.7786
  0
LINE
  8
0
 10
3.94188
 20
-25.7786
 11
3.77091
 21
-26.2294
  0
LINE
  8
0
 10
3.77091
 20
-26.2294
 11
3.49702
 21
-26.6262
  0
LINE
  8
0
 10
3.49702
 20
-26.6262
 11
3.13613
 21
-26.946
  0
LINE
  8
0
 10
3.13613
 20
-26.946
 11
2.70921
 21
-27.17
  0
LINE
  8
0
 10
2.70921
 20
-27.17
 11
2.24107
 21
-27.2854
  0
LINE
  8
0
 10
2.24107
 20
-27.2854
 11
0
 21
-27.2854
  0
LINE
  8
0
 10
0
 20
-27.2854
 11
0
 21
-58.2946
  0
LINE
  8
0
 10
0
 20
-58.2946
 11
2.24107
 21
-58.2946
  0
LINE
  8
0
 10
2.24107
 20
-58.2946
 11
2.70921
 21
-58.41
  0
LINE
  8
0
 10
2.70921
 20
-58.41
 11
3.13613
 21
-58.634
  0
LINE
  8
0
 10
3.13613
 20
-58.634
 11
3.49702
 21
-58.9538
  0
LINE
  8
0
 10
3.49702
 20
-58.9538
 11
3.77091
 21
-59.3506
  0
LINE
  8
0
 10
3.77091
 20
-59.3506
 11
3.94188
 21
-59.8014
  0
LINE
  8
0
 10
3.94188
 20
-59.8014
 11
4
 21
-60.28
  0
LINE
  8
0
 10
4
 20
-60.28
 11
3.94188
 21
-60.7586
  0
LINE
  8
0
 10
3.94188
 20
-60.7586
 11
3.77091
 21
-61.2094
  0
LINE
  8
0
 10
3.77091
 20
-61.2094
 11
3.49702
 21
-61.6062
  0
LINE
  8
0
 10
3.49702
 20
-61.6062
 11
3.13613
 21
-61.926
  0
LINE
  8
0
 10
3.13613
 20
-61.926
 11
2.70921
 21
-62.15
  0
LINE
  8
0
 10
2.70921
 20
-62.15
 11
2.24107
 21
-62.2654
  0
LINE
  8
0
 10
2.24107
 20
-62.2654
 11
0
 21
-62.2654
  0
LINE
  8
0
 10
0
 20
-62.2654
 11
0
 21
-68.28
  0
LINE
  8
0
 10
0
 20
-68.28
 11
3.5
 21
-68.28
  0
LINE
  8
0
 10
3.5
 20
-68.28
 11
3.9981
 21
-68.3156
  0
LINE
  8
0
 10
3.9981
 20
-68.3156
 11
4.48606
 21
-68.4218
  0
LINE
  8
0
 10
4.48606
 20
-68.4218
 11
4.95395
 21
-68.5963
  0
LINE
  8
0
 10
4.95395
 20
-68.5963
 11
5.39224
 21
-68.8356
  0
LINE
  8
0
 10
5.39224
 20
-68.8356
 11
5.79201
 21
-69.1349
  0
LINE
  8
0
 10
5.79201
 20
-69.1349
 11
6.14512
 21
-69.488
  0
LINE
  8
0
 10
6.14512
 20
-69.488
 11
6.44439
 21
-69.8878
  0
LINE
  8
0
 10
6.44439
 20
-69.8878
 11
6.68371
 21
-70.326
  0
LINE
  8
0
 10
6.68371
 20
-70.326
 11
6.85822
 21
-70.7939
  0
LINE
  8
0
 10
6.85822
 20
-70.7939
 11
6.96437
 21
-71.2819
  0
LINE
  8
0
 10
6.96437
 20
-71.2819
 11
7
 21
-71.78
  0
LINE
  8
0
 10
7
 20
-71.78
 11
6.96437
 21
-72.2781
  0
LINE
  8
0
 10
6.96437
 20
-72.2781
 11
6.85822
 21
-72.7661
  0
LINE
  8
0
 10
6.85822
 20
-72.7661
 11
6.68371
 21
-73.234
  0
LINE
  8
0
 10
6.68371
 20
-73.234
 11
6.44439
 21
-73.6722
  0
LINE
  8
0
 10
6.44439
 20
-73.6722
 11
6.14512
 21
-74.072
  0
LINE
  8
0
 10
6.14512
 20
-74.072
 11
5.79201
 21
-74.4251
  0
LINE
  8
0
 10
5.79201
 20
-74.4251
 11
5.39224
 21
-74.7244
  0
LINE
  8
0
 10
5.39224
 20
-74.7244
 11
4.95395
 21
-74.9637
  0
LINE
  8
0
 10
4.95395
 20
-74.9637
 11
4.48606
 21
-75.1382
  0
LINE
  8
0
 10
4.48606
 20
-75.1382
 11
3.9981
 21
-75.2444
  0
LINE
  8
0
 10
3.9981
 20
-75.2444
 11
3.5
 21
-75.28
  0
LINE
  8
0
 10
3.5
 20
-75.28
 11
0
 21
-75.28
  0
LINE
  8
0
 10
0
 20
-75.28
 11
0
 21
-83.88
  0
LINE
  8
0
 10
5.00461
 20
-76.8567
 11
5.11406
 21
-76.3772
  0
LINE
  8
0
 10
5.11406
 20
-76.3772
 11
5.35998
 21
-75.9512
  0
LINE
  8
0
 10
5.35998
 20
-75.9512
 11
5.72052
 21
-75.6167
  0
LINE
  8
0
 10
5.72052
 20
-75.6167
 11
6.16365
 21
-75.4033
  0
LINE
  8
0
 10
6.16365
 20
-75.4033
 11
6.65
 21
-75.33
  0
LINE
  8
0
 10
6.65
 20
-75.33
 11
7.13635
 21
-75.4033
  0
LINE
  8
0
 10
7.13635
 20
-75.4033
 11
7.57948
 21
-75.6167
  0
LINE
  8
0
 10
7.57948
 20
-75.6167
 11
7.94002
 21
-75.9512
  0
LINE
  8
0
 10
7.94002
 20
-75.9512
 11
8.18594
 21
-76.3772
  0
LINE
  8
0
 10
8.18594
 20
-76.3772
 11
8.29539
 21
-76.8567
  0
LINE
  8
0
 10
8.29539
 20
-76.8567
 11
8.25863
 21
-77.3472
  0
LINE
  8
0
 10
8.25863
 20
-77.3472
 11
8.07894
 21
-77.805
  0
LINE
  8
0
 10
8.07894
 20
-77.805
 11
7.77228
 21
-78.1895
  0
LINE
  8
0
 10
7.77228
 20
-78.1895
 11
7.36591
 21
-78.4666
  0
LINE
  8
0
 10
7.36591
 20
-78.4666
 11
6.89592
 21
-78.6116
  0
LINE
  8
0
 10
6.89592
 20
-78.6116
 11
6.40408
 21
-78.6116
  0
LINE
  8
0
 10
6.40408
 20
-78.6116
 11
5.93409
 21
-78.4666
  0
LINE
  8
0
 10
5.93409
 20
-78.4666
 11
5.52771
 21
-78.1895
  0
LINE
  8
0
 10
5.52771
 20
-78.1895
 11
5.22106
 21
-77.805
  0
LINE
  8
0
 10
5.22106
 20
-77.805
 11
5.04137
 21
-77.3472
  0
LINE
  8
0
 10
5.04137
 20
-77.3472
 11
5.00461
 21
-76.8567
  0
LINE
  8
0
 10
5.00461
 20
-59.6367
 11
5.11406
 21
-59.1572
  0
LINE
  8
0
 10
5.11406
 20
-59.1572
 11
5.35998
 21
-58.7312
  0
LINE
  8
0
 10
5.35998
 20
-58.7312
 11
5.72052
 21
-58.3967
  0
LINE
  8
0
 10
5.72052
 20
-58.3967
 11
6.16365
 21
-58.1833
  0
LINE
  8
0
 10
6.16365
 20
-58.1833
 11
6.65
 21
-58.11
  0
LINE
  8
0
 10
6.65
 20
-58.11
 11
7.13635
 21
-58.1833
  0
LINE
  8
0
 10
7.13635
 20
-58.1833
 11
7.57948
 21
-58.3967
  0
LINE
  8
0
 10
7.57948
 20
-58.3967
 11
7.94002
 21
-58.7312
  0
LINE
  8
0
 10
7.94002
 20
-58.7312
 11
8.18594
 21
-59.1572
  0
LINE
  8
0
 10
8.18594
 20
-59.1572
 11
8.29539
 21
-59.6367
  0
LINE
  8
0
 10
8.29539
 20
-59.6367
 11
8.25863
 21
-60.1272
  0
LINE
  8
0
 10
8.25863
 20
-60.1272
 11
8.07894
 21
-60.585
  0
LINE
  8
0
 10
8.07894
 20
-60.585
 11
7.77228
 21
-60.9695
  0
LINE
  8
0
 10
7.77228
 20
-60.9695
 11
7.36591
 21
-61.2466
  0
LINE
  8
0
 10
7.36591
 20
-61.2466
 11
6.89592
 21
-61.3916
  0
LINE
  8
0
 10
6.89592
 20
-61.3916
 11
6.40408
 21
-61.3916
  0
LINE
  8
0
 10
6.40408
 20
-61.3916
 11
5.93409
 21
-61.2466
  0
LINE
  8
0
 10
5.93409
 20
-61.2466
 11
5.52771
 21
-60.9695
  0
LINE
  8
0
 10
5.52771
 20
-60.9695
 11
5.22106
 21
-60.585
  0
LINE
  8
0
 10
5.22106
 20
-60.585
 11
5.04137
 21
-60.1272
  0
LINE
  8
0
 10
5.04137
 20
-60.1272
 11
5.00461
 21
-59.6367
  0
LINE
  8
0
 10
18.3286
 20
-25.5
 11
19.0558
 21
-23.99
  0
LINE
  8
0
 10
19.0558
 20
-23.99
 11
20.6898
 21
-23.6171
  0
LINE
  8
0
 10
20.6898
 20
-23.6171
 11
22.0001
 21
-24.662
  0
LINE
  8
0
 10
22.0001
 20
-24.662
 11
22.0001
 21
-26.338
  0
LINE
  8
0
 10
22.0001
 20
-26.338
 11
20.6898
 21
-27.3829
  0
LINE
  8
0
 10
20.6898
 20
-27.3829
 11
19.0558
 21
-27.01
  0
LINE
  8
0
 10
19.0558
 20
-27.01
 11
18.3286
 21
-25.5
  0
LINE
  8
0
 10
18.5684
 20
-6.89592
 11
18.5684
 21
-6.40408
  0
LINE
  8
0
 10
18.5684
 20
-6.40408
 11
18.7134
 21
-5.93409
  0
LINE
  8
0
 10
18.7134
 20
-5.93409
 11
18.9905
 21
-5.52771
  0
LINE
  8
0
 10
18.9905
 20
-5.52771
 11
19.375
 21
-5.22106
  0
LINE
  8
0
 10
19.375
 20
-5.22106
 11
19.8328
 21
-5.04137
  0
LINE
  8
0
 10
19.8328
 20
-5.04137
 11
20.3233
 21
-5.00461
  0
LINE
  8
0
 10
20.3233
 20
-5.00461
 11
20.8028
 21
-5.11406
  0
LINE
  8
0
 10
20.8028
 20
-5.11406
 11
21.2288
 21
-5.35998
  0
LINE
  8
0
 10
21.2288
 20
-5.35998
 11
21.5633
 21
-5.72052
  0
LINE
  8
0
 10
21.5633
 20
-5.72052
 11
21.7767
 21
-6.16365
  0
LINE
  8
0
 10
21.7767
 20
-6.16365
 11
21.85
 21
-6.65
  0
LINE
  8
0
 10
21.85
 20
-6.65
 11
21.7767
 21
-7.13635
  0
LINE
  8
0
 10
21.7767
 20
-7.13635
 11
21.5633
 21
-7.57948
  0
LINE
  8
0
 10
21.5633
 20
-7.57948
 11
21.2288
 21
-7.94002
  0
LINE
  8
0
 10
21.2288
 20
-7.94002
 11
20.8028
 21
-8.18594
  0
LINE
  8
0
 10
20.8028
 20
-8.18594
 11
20.3233
 21
-8.29539
  0
LINE
  8
0
 10
20.3233
 20
-8.29539
 11
19.8328
 21
-8.25863
  0
LINE
  8
0
 10
19.8328
 20
-8.25863
 11
19.375
 21
-8.07894
  0
LINE
  8
0
 10
19.375
 20
-8.07894
 11
18.9905
 21
-7.77228
  0
LINE
  8
0
 10
18.9905
 20
-7.77228
 11
18.7134
 21
-7.36591
  0
LINE
  8
0
 10
18.7134
 20
-7.36591
 11
18.5684
 21
-6.89592
  0
LINE
  8
0
 10
35.7884
 20
-6.89592
 11
35.7884
 21
-6.40408
  0
LINE
  8
0
 10
35.7884
 20
-6.40408
 11
35.9334
 21
-5.93409
  0
LINE
  8
0
 10
35.9334
 20
-5.93409
 11
36.2105
 21
-5.52771
  0
LINE
  8
0
 10
36.2105
 20
-5.52771
 11
36.595
 21
-5.22106
  0
LINE
  8
0
 10
36.595
 20
-5.22106
 11
37.0528
 21
-5.04137
  0
LINE
  8
0
 10
37.0528
 20
-5.04137
 11
37.5433
 21
-5.00461
  0
LINE
  8
0
 10
37.5433
 20
-5.00461
 11
38.0228
 21
-5.11406
  0
LINE
  8
0
 10
38.0228
 20
-5.11406
 11
38.4488
 21
-5.35998
  0
LINE
  8
0
 10
38.4488
 20
-5.35998
 11
38.7833
 21
-5.72052
  0
LINE
  8
0
 10
38.7833
 20
-5.72052
 11
38.9967
 21
-6.16365
  0
LINE
  8
0
 10
38.9967
 20
-6.16365
 11
39.07
 21
-6.65
  0
LINE
  8
0
 10
39.07
 20
-6.65
 11
38.9967
 21
-7.13635
  0
LINE
  8
0
 10
38.9967
 20
-7.13635
 11
38.7833
 21
-7.57948
  0
LINE
  8
0
 10
38.7833
 20
-7.57948
 11
38.4488
 21
-7.94002
  0
LINE
  8
0
 10
38.4488
 20
-7.94002
 11
38.0228
 21
-8.18594
  0
LINE
  8
0
 10
38.0228
 20
-8.18594
 11
37.5433
 21
-8.29539
  0
LINE
  8
0
 10
37.5433
 20
-8.29539
 11
37.0528
 21
-8.25863
  0
LINE
  8
0
 10
37.0528
 20
-8.25863
 11
36.595
 21
-8.07894
  0
LINE
  8
0
 10
36.595
 20
-8.07894
 11
36.2105
 21
-7.77228
  0
LINE
  8
0
 10
36.2105
 20
-7.77228
 11
35.9334
 21
-7.36591
  0
LINE
  8
0
 10
35.9334
 20
-7.36591
 11
35.7884
 21
-6.89592
  0
LINE
  8
0
 10
63.3286
 20
-25.5
 11
64.0558
 21
-23.99
  0
LINE
  8
0
 10
64.0558
 20
-23.99
 11
65.6898
 21
-23.6171
  0
LINE
  8
0
 10
65.6898
 20
-23.6171
 11
67.0001
 21
-24.662
  0
LINE
  8
0
 10
67.0001
 20
-24.662
 11
67.0001
 21
-26.338
  0
LINE
  8
0
 10
67.0001
 20
-26.338
 11
65.6898
 21
-27.3829
  0
LINE
  8
0
 10
65.6898
 20
-27.3829
 11
64.0558
 21
-27.01
  0
LINE
  8
0
 10
64.0558
 20
-27.01
 11
63.3286
 21
-25.5
  0
LINE
  8
0
 10
137.015
 20
-63.6533
 11
137.051
 21
-63.1628
  0
LINE
  8
0
 10
137.051
 20
-63.1628
 11
137.231
 21
-62.705
  0
LINE
  8
0
 10
137.231
 20
-62.705
 11
137.538
 21
-62.3205
  0
LINE
  8
0
 10
137.538
 20
-62.3205
 11
137.944
 21
-62.0434
  0
LINE
  8
0
 10
137.944
 20
-62.0434
 11
138.414
 21
-61.8984
  0
LINE
  8
0
 10
138.414
 20
-61.8984
 11
138.906
 21
-61.8984
  0
LINE
  8
0
 10
138.906
 20
-61.8984
 11
139.376
 21
-62.0434
  0
LINE
  8
0
 10
139.376
 20
-62.0434
 11
139.782
 21
-62.3205
  0
LINE
  8
0
 10
139.782
 20
-62.3205
 11
140.089
 21
-62.705
  0
LINE
  8
0
 10
140.089
 20
-62.705
 11
140.269
 21
-63.1628
  0
LINE
  8
0
 10
140.269
 20
-63.1628
 11
140.305
 21
-63.6533
  0
LINE
  8
0
 10
140.305
 20
-63.6533
 11
140.196
 21
-64.1328
  0
LINE
  8
0
 10
140.196
 20
-64.1328
 11
139.95
 21
-64.5588
  0
LINE
  8
0
 10
139.95
 20
-64.5588
 11
139.589
 21
-64.8933
  0
LINE
  8
0
 10
139.589
 20
-64.8933
 11
139.146
 21
-65.1067
  0
LINE
  8
0
 10
139.146
 20
-65.1067
 11
138.66
 21
-65.18
  0
LINE
  8
0
 10
138.66
 20
-65.18
 11
138.174
 21
-65.1067
  0
LINE
  8
0
 10
138.174
 20
-65.1067
 11
137.731
 21
-64.8933
  0
LINE
  8
0
 10
137.731
 20
-64.8933
 11
137.37
 21
-64.5588
  0
LINE
  8
0
 10
137.37
 20
-64.5588
 11
137.124
 21
-64.1328
  0
LINE
  8
0
 10
137.124
 20
-64.1328
 11
137.015
 21
-63.6533
  0
LINE
  8
0
 10
137.015
 20
-20.4733
 11
137.051
 21
-19.9828
  0
LINE
  8
0
 10
137.051
 20
-19.9828
 11
137.231
 21
-19.525
  0
LINE
  8
0
 10
137.231
 20
-19.525
 11
137.538
 21
-19.1405
  0
LINE
  8
0
 10
137.538
 20
-19.1405
 11
137.944
 21
-18.8634
  0
LINE
  8
0
 10
137.944
 20
-18.8634
 11
138.414
 21
-18.7184
  0
LINE
  8
0
 10
138.414
 20
-18.7184
 11
138.906
 21
-18.7184
  0
LINE
  8
0
 10
138.906
 20
-18.7184
 11
139.376
 21
-18.8634
  0
LINE
  8
0
 10
139.376
 20
-18.8634
 11
139.782
 21
-19.1405
  0
LINE
  8
0
 10
139.782
 20
-19.1405
 11
140.089
 21
-19.525
  0
LINE
  8
0
 10
140.089
 20
-19.525
 11
140.269
 21
-19.9828
  0
LINE
  8
0
 10
140.269
 20
-19.9828
 11
140.305
 21
-20.4733
  0
LINE
  8
0
 10
140.305
 20
-20.4733
 11
140.196
 21
-20.9528
  0
LINE
  8
0
 10
140.196
 20
-20.9528
 11
139.95
 21
-21.3788
  0
LINE
  8
0
 10
139.95
 20
-21.3788
 11
139.589
 21
-21.7133
  0
LINE
  8
0
 10
139.589
 20
-21.7133
 11
139.146
 21
-21.9267
  0
LINE
  8
0
 10
139.146
 20
-21.9267
 11
138.66
 21
-22
  0
LINE
  8
0
 10
138.66
 20
-22
 11
138.174
 21
-21.9267
  0
LINE
  8
0
 10
138.174
 20
-21.9267
 11
137.731
 21
-21.7133
  0
LINE
  8
0
 10
137.731
 20
-21.7133
 11
137.37
 21
-21.3788
  0
LINE
  8
0
 10
137.37
 20
-21.3788
 11
137.124
 21
-20.9528
  0
LINE
  8
0
 10
137.124
 20
-20.9528
 11
137.015
 21
-20.4733
  0
LINE
  8
0
 10
193.272
 20
-27.3
 11
193.346
 21
-26.8137
  0
LINE
  8
0
 10
193.346
 20
-26.8137
 11
193.559
 21
-26.3705
  0
LINE
  8
0
 10
193.559
 20
-26.3705
 11
193.894
 21
-26.01
  0
LINE
  8
0
 10
193.894
 20
-26.01
 11
194.319
 21
-25.7641
  0
LINE
  8
0
 10
194.319
 20
-25.7641
 11
194.799
 21
-25.6546
  0
LINE
  8
0
 10
194.799
 20
-25.6546
 11
195.289
 21
-25.6914
  0
LINE
  8
0
 10
195.289
 20
-25.6914
 11
195.747
 21
-25.8711
  0
LINE
  8
0
 10
195.747
 20
-25.8711
 11
196.132
 21
-26.1777
  0
LINE
  8
0
 10
196.132
 20
-26.1777
 11
196.409
 21
-26.5841
  0
LINE
  8
0
 10
196.409
 20
-26.5841
 11
196.554
 21
-27.0541
  0
LINE
  8
0
 10
196.554
 20
-27.0541
 11
196.554
 21
-27.5459
  0
LINE
  8
0
 10
196.554
 20
-27.5459
 11
196.409
 21
-28.0159
  0
LINE
  8
0
 10
196.409
 20
-28.0159
 11
196.132
 21
-28.4223
  0
LINE
  8
0
 10
196.132
 20
-28.4223
 11
195.747
 21
-28.7289
  0
LINE
  8
0
 10
195.747
 20
-28.7289
 11
195.289
 21
-28.9086
  0
LINE
  8
0
 10
195.289
 20
-28.9086
 11
194.799
 21
-28.9454
  0
LINE
  8
0
 10
194.799
 20
-28.9454
 11
194.319
 21
-28.8359
  0
LINE
  8
0
 10
194.319
 20
-28.8359
 11
193.894
 21
-28.59
  0
LINE
  8
0
 10
193.894
 20
-28.59
 11
193.559
 21
-28.2295
  0
LINE
  8
0
 10
193.559
 20
-28.2295
 11
193.346
 21
-27.7863
  0
LINE
  8
0
 10
193.346
 20
-27.7863
 11
193.272
 21
-27.3
  0
LINE
  8
0
 10
230.995
 20
-63.6533
 11
231.031
 21
-63.1628
  0
LINE
  8
0
 10
231.031
 20
-63.1628
 11
231.211
 21
-62.705
  0
LINE
  8
0
 10
231.211
 20
-62.705
 11
231.518
 21
-62.3205
  0
LINE
  8
0
 10
231.518
 20
-62.3205
 11
231.924
 21
-62.0434
  0
LINE
  8
0
 10
231.924
 20
-62.0434
 11
232.394
 21
-61.8984
  0
LINE
  8
0
 10
232.394
 20
-61.8984
 11
232.886
 21
-61.8984
  0
LINE
  8
0
 10
232.886
 20
-61.8984
 11
233.356
 21
-62.0434
  0
LINE
  8
0
 10
233.356
 20
-62.0434
 11
233.762
 21
-62.3205
  0
LINE
  8
0
 10
233.762
 20
-62.3205
 11
234.069
 21
-62.705
  0
LINE
  8
0
 10
234.069
 20
-62.705
 11
234.249
 21
-63.1628
  0
LINE
  8
0
 10
234.249
 20
-63.1628
 11
234.285
 21
-63.6533
  0
LINE
  8
0
 10
234.285
 20
-63.6533
 11
234.176
 21
-64.1328
  0
LINE
  8
0
 10
234.176
 20
-64.1328
 11
233.93
 21
-64.5588
  0
LINE
  8
0
 10
233.93
 20
-64.5588
 11
233.569
 21
-64.8933
  0
LINE
  8
0
 10
233.569
 20
-64.8933
 11
233.126
 21
-65.1067
  0
LINE
  8
0
 10
233.126
 20
-65.1067
 11
232.64
 21
-65.18
  0
LINE
  8
0
 10
232.64
 20
-65.18
 11
232.154
 21
-65.1067
  0
LINE
  8
0
 10
232.154
 20
-65.1067
 11
231.711
 21
-64.8933
  0
LINE
  8
0
 10
231.711
 20
-64.8933
 11
231.35
 21
-64.5588
  0
LINE
  8
0
 10
231.35
 20
-64.5588
 11
231.104
 21
-64.1328
  0
LINE
  8
0
 10
231.104
 20
-64.1328
 11
230.995
 21
-63.6533
  0
LINE
  8
0
 10
230.995
 20
-20.4733
 11
231.031
 21
-19.9828
  0
LINE
  8
0
 10
231.031
 20
-19.9828
 11
231.211
 21
-19.525
  0
LINE
  8
0
 10
231.211
 20
-19.525
 11
231.518
 21
-19.1405
  0
LINE
  8
0
 10
231.518
 20
-19.1405
 11
231.924
 21
-18.8634
  0
LINE
  8
0
 10
231.924
 20
-18.8634
 11
232.394
 21
-18.7184
  0
LINE
  8
0
 10
232.394
 20
-18.7184
 11
232.886
 21
-18.7184
  0
LINE
  8
0
 10
232.886
 20
-18.7184
 11
233.356
 21
-18.8634
  0
LINE
  8
0
 10
233.356
 20
-18.8634
 11
233.762
 21
-19.1405
  0
LINE
  8
0
 10
233.762
 20
-19.1405
 11
234.069
 21
-19.525
  0
LINE
  8
0
 10
234.069
 20
-19.525
 11
234.249
 21
-19.9828
  0
LINE
  8
0
 10
234.249
 20
-19.9828
 11
234.285
 21
-20.4733
  0
LINE
  8
0
 10
234.285
 20
-20.4733
 11
234.176
 21
-20.9528
  0
LINE
  8
0
 10
234.176
 20
-20.9528
 11
233.93
 21
-21.3788
  0
LINE
  8
0
 10
233.93
 20
-21.3788
 11
233.569
 21
-21.7133
  0
LINE
  8
0
 10
233.569
 20
-21.7133
 11
233.126
 21
-21.9267
  0
LINE
  8
0
 10
233.126
 20
-21.9267
 11
232.64
 21
-22
  0
LINE
  8
0
 10
232.64
 20
-22
 11
232.154
 21
-21.9267
  0
LINE
  8
0
 10
232.154
 20
-21.9267
 11
231.711
 21
-21.7133
  0
LINE
  8
0
 10
231.711
 20
-21.7133
 11
231.35
 21
-21.3788
  0
LINE
  8
0
 10
231.35
 20
-21.3788
 11
231.104
 21
-20.9528
  0
LINE
  8
0
 10
231.104
 20
-20.9528
 11
230.995
 21
-20.4733
  0
LINE
  8
0
 10
262.948
 20
-6.89592
 11
262.948
 21
-6.40408
  0
LINE
  8
0
 10
262.948
 20
-6.40408
 11
263.093
 21
-5.93409
  0
LINE
  8
0
 10
263.093
 20
-5.93409
 11
263.37
 21
-5.52771
  0
LINE
  8
0
 10
263.37
 20
-5.52771
 11
263.755
 21
-5.22106
  0
LINE
  8
0
 10
263.755
 20
-5.22106
 11
264.213
 21
-5.04137
  0
LINE
  8
0
 10
264.213
 20
-5.04137
 11
264.703
 21
-5.00461
  0
LINE
  8
0
 10
264.703
 20
-5.00461
 11
265.183
 21
-5.11406
  0
LINE
  8
0
 10
265.183
 20
-5.11406
 11
265.609
 21
-5.35998
  0
LINE
  8
0
 10
265.609
 20
-5.35998
 11
265.943
 21
-5.72052
  0
LINE
  8
0
 10
265.943
 20
-5.72052
 11
266.157
 21
-6.16365
  0
LINE
  8
0
 10
266.157
 20
-6.16365
 11
266.23
 21
-6.65
  0
LINE
  8
0
 10
266.23
 20
-6.65
 11
266.157
 21
-7.13635
  0
LINE
  8
0
 10
266.157
 20
-7.13635
 11
265.943
 21
-7.57948
  0
LINE
  8
0
 10
265.943
 20
-7.57948
 11
265.609
 21
-7.94002
  0
LINE
  8
0
 10
265.609
 20
-7.94002
 11
265.183
 21
-8.18594
  0
LINE
  8
0
 10
265.183
 20
-8.18594
 11
264.703
 21
-8.29539
  0
LINE
  8
0
 10
264.703
 20
-8.29539
 11
264.213
 21
-8.25863
  0
LINE
  8
0
 10
264.213
 20
-8.25863
 11
263.755
 21
-8.07894
  0
LINE
  8
0
 10
263.755
 20
-8.07894
 11
263.37
 21
-7.77228
  0
LINE
  8
0
 10
263.37
 20
-7.77228
 11
263.093
 21
-7.36591
  0
LINE
  8
0
 10
263.093
 20
-7.36591
 11
262.948
 21
-6.89592
  0
LINE
  8
0
 10
280.168
 20
-6.89592
 11
280.168
 21
-6.40408
  0
LINE
  8
0
 10
280.168
 20
-6.40408
 11
280.313
 21
-5.93409
  0
LINE
  8
0
 10
280.313
 20
-5.93409
 11
280.59
 21
-5.52771
  0
LINE
  8
0
 10
280.59
 20
-5.52771
 11
280.975
 21
-5.22106
  0
LINE
  8
0
 10
280.975
 20
-5.22106
 11
281.433
 21
-5.04137
  0
LINE
  8
0
 10
281.433
 20
-5.04137
 11
281.923
 21
-5.00461
  0
LINE
  8
0
 10
281.923
 20
-5.00461
 11
282.403
 21
-5.11406
  0
LINE
  8
0
 10
282.403
 20
-5.11406
 11
282.829
 21
-5.35998
  0
LINE
  8
0
 10
282.829
 20
-5.35998
 11
283.163
 21
-5.72052
  0
LINE
  8
0
 10
283.163
 20
-5.72052
 11
283.377
 21
-6.16365
  0
LINE
  8
0
 10
283.377
 20
-6.16365
 11
283.45
 21
-6.65
  0
LINE
  8
0
 10
283.45
 20
-6.65
 11
283.377
 21
-7.13635
  0
LINE
  8
0
 10
283.377
 20
-7.13635
 11
283.163
 21
-7.57948
  0
LINE
  8
0
 10
283.163
 20
-7.57948
 11
282.829
 21
-7.94002
  0
LINE
  8
0
 10
282.829
 20
-7.94002
 11
282.403
 21
-8.18594
  0
LINE
  8
0
 10
282.403
 20
-8.18594
 11
281.923
 21
-8.29539
  0
LINE
  8
0
 10
281.923
 20
-8.29539
 11
281.433
 21
-8.25863
  0
LINE
  8
0
 10
281.433
 20
-8.25863
 11
280.975
 21
-8.07894
  0
LINE
  8
0
 10
280.975
 20
-8.07894
 11
280.59
 21
-7.77228
  0
LINE
  8
0
 10
280.59
 20
-7.77228
 11
280.313
 21
-7.36591
  0
LINE
  8
0
 10
280.313
 20
-7.36591
 11
280.168
 21
-6.89592
  0
ENDSEC
  0
SECTION
  2
OBJECTS
  0
DICTIONARY
  0
ENDSEC
  0
EOF
