<?xml version="1.0"?>
<svg xmlns="http://www.w3.org/2000/svg" version="1.1" height="182mm" width="312mm" >
 <g style="fill-opacity:1.0; stroke:black; stroke-width:1;">
  <line x1="5.158620mm" y1="83.880000mm" x2="5.158620mm" y2="83.880000mm" />
  <line x1="5.158620mm" y1="83.880000mm" x2="5.158620mm" y2="33.880000mm" />
  <line x1="5.158620mm" y1="33.880000mm" x2="8.141370mm" y2="33.880000mm" />
  <line x1="8.141370mm" y1="33.880000mm" x2="8.141370mm" y2="83.880000mm" />
  <line x1="8.141370mm" y1="83.880000mm" x2="240.490000mm" y2="83.880000mm" />
  <line x1="240.490000mm" y1="83.880000mm" x2="240.490000mm" y2="80.632270mm" />
  <line x1="240.490000mm" y1="80.632270mm" x2="240.572000mm" y2="80.143550mm" />
  <line x1="240.572000mm" y1="80.143550mm" x2="240.733000mm" y2="79.674920mm" />
  <line x1="240.733000mm" y1="79.674920mm" x2="240.968000mm" y2="79.239160mm" />
  <line x1="240.968000mm" y1="79.239160mm" x2="241.273000mm" y2="78.848170mm" />
  <line x1="241.273000mm" y1="78.848170mm" x2="241.637000mm" y2="78.512580mm" />
  <line x1="241.637000mm" y1="78.512580mm" x2="242.052000mm" y2="78.241590mm" />
  <line x1="242.052000mm" y1="78.241590mm" x2="242.506000mm" y2="78.042550mm" />
  <line x1="242.506000mm" y1="78.042550mm" x2="242.986000mm" y2="77.920920mm" />
  <line x1="242.986000mm" y1="77.920920mm" x2="243.480000mm" y2="77.880000mm" />
  <line x1="243.480000mm" y1="77.880000mm" x2="243.974000mm" y2="77.920920mm" />
  <line x1="243.974000mm" y1="77.920920mm" x2="244.454000mm" y2="78.042550mm" />
  <line x1="244.454000mm" y1="78.042550mm" x2="244.908000mm" y2="78.241590mm" />
  <line x1="244.908000mm" y1="78.241590mm" x2="245.323000mm" y2="78.512580mm" />
  <line x1="245.323000mm" y1="78.512580mm" x2="245.687000mm" y2="78.848170mm" />
  <line x1="245.687000mm" y1="78.848170mm" x2="245.991000mm" y2="79.239160mm" />
  <line x1="245.991000mm" y1="79.239160mm" x2="246.227000mm" y2="79.674920mm" />
  <line x1="246.227000mm" y1="79.674920mm" x2="246.388000mm" y2="80.143550mm" />
  <line x1="246.388000mm" y1="80.143550mm" x2="246.470000mm" y2="80.632270mm" />
  <line x1="246.470000mm" y1="80.632270mm" x2="246.470000mm" y2="83.880000mm" />
  <line x1="246.470000mm" y1="83.880000mm" x2="252.295000mm" y2="83.880000mm" />
  <line x1="252.295000mm" y1="83.880000mm" x2="252.295000mm" y2="81.638940mm" />
  <line x1="252.295000mm" y1="81.638940mm" x2="252.410000mm" y2="81.170800mm" />
  <line x1="252.410000mm" y1="81.170800mm" x2="252.634000mm" y2="80.743880mm" />
  <line x1="252.634000mm" y1="80.743880mm" x2="252.954000mm" y2="80.382990mm" />
  <line x1="252.954000mm" y1="80.382990mm" x2="253.351000mm" y2="80.109100mm" />
  <line x1="253.351000mm" y1="80.109100mm" x2="253.801000mm" y2="79.938120mm" />
  <line x1="253.801000mm" y1="79.938120mm" x2="254.280000mm" y2="79.880000mm" />
  <line x1="254.280000mm" y1="79.880000mm" x2="254.759000mm" y2="79.938120mm" />
  <line x1="254.759000mm" y1="79.938120mm" x2="255.209000mm" y2="80.109100mm" />
  <line x1="255.209000mm" y1="80.109100mm" x2="255.606000mm" y2="80.382990mm" />
  <line x1="255.606000mm" y1="80.382990mm" x2="255.926000mm" y2="80.743880mm" />
  <line x1="255.926000mm" y1="80.743880mm" x2="256.150000mm" y2="81.170800mm" />
  <line x1="256.150000mm" y1="81.170800mm" x2="256.265000mm" y2="81.638940mm" />
  <line x1="256.265000mm" y1="81.638940mm" x2="256.265000mm" y2="83.880000mm" />
  <line x1="256.265000mm" y1="83.880000mm" x2="302.000000mm" y2="83.880000mm" />
  <line x1="302.000000mm" y1="83.880000mm" x2="302.000000mm" y2="25.000000mm" />
  <line x1="302.000000mm" y1="25.000000mm" x2="301.905000mm" y2="22.821100mm" />
  <line x1="301.905000mm" y1="22.821100mm" x2="301.620000mm" y2="20.658800mm" />
  <line x1="301.620000mm" y1="20.658800mm" x2="301.148000mm" y2="18.529500mm" />
  <line x1="301.148000mm" y1="18.529500mm" x2="300.492000mm" y2="16.449500mm" />
  <line x1="300.492000mm" y1="16.449500mm" x2="299.658000mm" y2="14.434600mm" />
  <line x1="299.658000mm" y1="14.434600mm" x2="298.651000mm" y2="12.500000mm" />
  <line x1="298.651000mm" y1="12.500000mm" x2="297.479000mm" y2="10.660600mm" />
  <line x1="297.479000mm" y1="10.660600mm" x2="296.151000mm" y2="8.930300mm" />
  <line x1="296.151000mm" y1="8.930300mm" x2="294.678000mm" y2="7.322300mm" />
  <line x1="294.678000mm" y1="7.322300mm" x2="293.070000mm" y2="5.848900mm" />
  <line x1="293.070000mm" y1="5.848900mm" x2="291.339000mm" y2="4.521200mm" />
  <line x1="291.339000mm" y1="4.521200mm" x2="289.500000mm" y2="3.349400mm" />
  <line x1="289.500000mm" y1="3.349400mm" x2="287.565000mm" y2="2.342300mm" />
  <line x1="287.565000mm" y1="2.342300mm" x2="285.550000mm" y2="1.507700mm" />
  <line x1="285.550000mm" y1="1.507700mm" x2="283.470000mm" y2="0.851900mm" />
  <line x1="283.470000mm" y1="0.851900mm" x2="281.341000mm" y2="0.379800mm" />
  <line x1="281.341000mm" y1="0.379800mm" x2="279.179000mm" y2="0.095100mm" />
  <line x1="279.179000mm" y1="0.095100mm" x2="277.000000mm" y2="0.000000mm" />
  <line x1="277.000000mm" y1="0.000000mm" x2="0.000000mm" y2="0.000000mm" />
  <line x1="0.000000mm" y1="0.000000mm" x2="0.000000mm" y2="83.880000mm" />
  <line x1="0.000000mm" y1="83.880000mm" x2="5.158620mm" y2="83.880000mm" />
  <circle cx="6.649975mm" cy="6.900030mm" r="1.650000mm" fill="none"/>
  <line x1="9.949975mm" y1="6.900030mm" x2="3.349975mm" y2="6.900030mm" />
  <line x1="6.649975mm" y1="3.600029mm" x2="6.649975mm" y2="10.200030mm" />
  <text x="8mm" y="5mm" font-size="24">
   3.3
  </text>
  <circle cx="72.000000mm" cy="39.580014mm" r="28.499986mm" fill="none"/>
  <line x1="128.999972mm" y1="39.580014mm" x2="15.000028mm" y2="39.580014mm" />
  <line x1="72.000000mm" y1="-17.419958mm" x2="72.000000mm" y2="96.579986mm" />
  <text x="100mm" y="11mm" font-size="24">
   57.0
  </text>
  <circle cx="47.000000mm" cy="14.580033mm" r="2.199967mm" fill="none"/>
  <line x1="51.399934mm" y1="14.580033mm" x2="42.600066mm" y2="14.580033mm" />
  <line x1="47.000000mm" y1="10.180100mm" x2="47.000000mm" y2="18.979967mm" />
  <text x="49mm" y="12mm" font-size="24">
   4.4
  </text>
  <circle cx="97.000000mm" cy="14.580033mm" r="2.199967mm" fill="none"/>
  <line x1="101.399934mm" y1="14.580033mm" x2="92.600066mm" y2="14.580033mm" />
  <line x1="97.000000mm" y1="10.180100mm" x2="97.000000mm" y2="18.979967mm" />
  <text x="99mm" y="12mm" font-size="24">
   4.4
  </text>
  <circle cx="6.650008mm" cy="24.120004mm" r="1.650021mm" fill="none"/>
  <line x1="9.950050mm" y1="24.120004mm" x2="3.349966mm" y2="24.120004mm" />
  <line x1="6.650008mm" y1="20.819962mm" x2="6.650008mm" y2="27.420046mm" />
  <text x="8mm" y="22mm" font-size="24">
   3.3
  </text>
  <circle cx="194.922343mm" cy="26.179977mm" r="1.650039mm" fill="none"/>
  <line x1="198.222421mm" y1="26.179977mm" x2="191.622264mm" y2="26.179977mm" />
  <line x1="194.922343mm" y1="22.879898mm" x2="194.922343mm" y2="29.480056mm" />
  <text x="196mm" y="24mm" font-size="24">
   3.3
  </text>
  <circle cx="47.000000mm" cy="64.580033mm" r="2.199967mm" fill="none"/>
  <line x1="51.399934mm" y1="64.580033mm" x2="42.600066mm" y2="64.580033mm" />
  <line x1="47.000000mm" y1="60.180100mm" x2="47.000000mm" y2="68.979967mm" />
  <text x="49mm" y="62mm" font-size="24">
   4.4
  </text>
  <circle cx="97.000000mm" cy="64.580033mm" r="2.199967mm" fill="none"/>
  <line x1="101.399934mm" y1="64.580033mm" x2="92.600066mm" y2="64.580033mm" />
  <line x1="97.000000mm" y1="60.180100mm" x2="97.000000mm" y2="68.979967mm" />
  <text x="99mm" y="62mm" font-size="24">
   4.4
  </text>
  <circle cx="281.800355mm" cy="77.229975mm" r="1.650032mm" fill="none"/>
  <line x1="285.100419mm" y1="77.229975mm" x2="278.500291mm" y2="77.229975mm" />
  <line x1="281.800355mm" y1="73.929911mm" x2="281.800355mm" y2="80.530039mm" />
  <text x="283mm" y="75mm" font-size="24">
   3.3
  </text>
  <circle cx="20.200001mm" cy="77.230002mm" r="1.650002mm" fill="none"/>
  <line x1="23.500005mm" y1="77.230002mm" x2="16.899997mm" y2="77.230002mm" />
  <line x1="20.200001mm" y1="73.929998mm" x2="20.200001mm" y2="80.530005mm" />
  <text x="21mm" y="75mm" font-size="24">
   3.3
  </text>
  <circle cx="37.420001mm" cy="77.230002mm" r="1.650002mm" fill="none"/>
  <line x1="40.720005mm" y1="77.230002mm" x2="34.119997mm" y2="77.230002mm" />
  <line x1="37.420001mm" y1="73.929998mm" x2="37.420001mm" y2="80.530005mm" />
  <text x="39mm" y="75mm" font-size="24">
   3.3
  </text>
  <circle cx="264.580355mm" cy="77.229975mm" r="1.650032mm" fill="none"/>
  <line x1="267.880419mm" y1="77.229975mm" x2="261.280291mm" y2="77.229975mm" />
  <line x1="264.580355mm" y1="73.929911mm" x2="264.580355mm" y2="80.530039mm" />
  <text x="266mm" y="75mm" font-size="24">
   3.3
  </text>
  <line x1="277.000000mm" y1="171.760000mm" x2="277.000000mm" y2="171.760000mm" />
  <line x1="277.000000mm" y1="171.760000mm" x2="279.179000mm" y2="171.664900mm" />
  <line x1="279.179000mm" y1="171.664900mm" x2="281.341000mm" y2="171.380200mm" />
  <line x1="281.341000mm" y1="171.380200mm" x2="283.470000mm" y2="170.908100mm" />
  <line x1="283.470000mm" y1="170.908100mm" x2="285.550000mm" y2="170.252300mm" />
  <line x1="285.550000mm" y1="170.252300mm" x2="287.565000mm" y2="169.417700mm" />
  <line x1="287.565000mm" y1="169.417700mm" x2="289.500000mm" y2="168.410600mm" />
  <line x1="289.500000mm" y1="168.410600mm" x2="291.339000mm" y2="167.238800mm" />
  <line x1="291.339000mm" y1="167.238800mm" x2="293.070000mm" y2="165.911100mm" />
  <line x1="293.070000mm" y1="165.911100mm" x2="294.678000mm" y2="164.437700mm" />
  <line x1="294.678000mm" y1="164.437700mm" x2="296.151000mm" y2="162.829700mm" />
  <line x1="296.151000mm" y1="162.829700mm" x2="297.479000mm" y2="161.099400mm" />
  <line x1="297.479000mm" y1="161.099400mm" x2="298.651000mm" y2="159.260000mm" />
  <line x1="298.651000mm" y1="159.260000mm" x2="299.658000mm" y2="157.325400mm" />
  <line x1="299.658000mm" y1="157.325400mm" x2="300.492000mm" y2="155.310500mm" />
  <line x1="300.492000mm" y1="155.310500mm" x2="301.148000mm" y2="153.230500mm" />
  <line x1="301.148000mm" y1="153.230500mm" x2="301.620000mm" y2="151.101200mm" />
  <line x1="301.620000mm" y1="151.101200mm" x2="301.905000mm" y2="148.938900mm" />
  <line x1="301.905000mm" y1="148.938900mm" x2="302.000000mm" y2="146.760000mm" />
  <line x1="302.000000mm" y1="146.760000mm" x2="302.000000mm" y2="87.879980mm" />
  <line x1="302.000000mm" y1="87.879980mm" x2="256.265000mm" y2="87.879980mm" />
  <line x1="256.265000mm" y1="87.879980mm" x2="256.265000mm" y2="90.121060mm" />
  <line x1="256.265000mm" y1="90.121060mm" x2="256.150000mm" y2="90.589200mm" />
  <line x1="256.150000mm" y1="90.589200mm" x2="255.926000mm" y2="91.016120mm" />
  <line x1="255.926000mm" y1="91.016120mm" x2="255.606000mm" y2="91.377010mm" />
  <line x1="255.606000mm" y1="91.377010mm" x2="255.209000mm" y2="91.650900mm" />
  <line x1="255.209000mm" y1="91.650900mm" x2="254.759000mm" y2="91.821880mm" />
  <line x1="254.759000mm" y1="91.821880mm" x2="254.280000mm" y2="91.880000mm" />
  <line x1="254.280000mm" y1="91.880000mm" x2="253.801000mm" y2="91.821880mm" />
  <line x1="253.801000mm" y1="91.821880mm" x2="253.351000mm" y2="91.650900mm" />
  <line x1="253.351000mm" y1="91.650900mm" x2="252.954000mm" y2="91.377010mm" />
  <line x1="252.954000mm" y1="91.377010mm" x2="252.634000mm" y2="91.016120mm" />
  <line x1="252.634000mm" y1="91.016120mm" x2="252.410000mm" y2="90.589200mm" />
  <line x1="252.410000mm" y1="90.589200mm" x2="252.295000mm" y2="90.121060mm" />
  <line x1="252.295000mm" y1="90.121060mm" x2="252.295000mm" y2="87.879980mm" />
  <line x1="252.295000mm" y1="87.879980mm" x2="246.470000mm" y2="87.879980mm" />
  <line x1="246.470000mm" y1="87.879980mm" x2="246.470000mm" y2="91.127730mm" />
  <line x1="246.470000mm" y1="91.127730mm" x2="246.388000mm" y2="91.616450mm" />
  <line x1="246.388000mm" y1="91.616450mm" x2="246.227000mm" y2="92.085080mm" />
  <line x1="246.227000mm" y1="92.085080mm" x2="245.991000mm" y2="92.520840mm" />
  <line x1="245.991000mm" y1="92.520840mm" x2="245.687000mm" y2="92.911830mm" />
  <line x1="245.687000mm" y1="92.911830mm" x2="245.323000mm" y2="93.247420mm" />
  <line x1="245.323000mm" y1="93.247420mm" x2="244.908000mm" y2="93.518410mm" />
  <line x1="244.908000mm" y1="93.518410mm" x2="244.454000mm" y2="93.717450mm" />
  <line x1="244.454000mm" y1="93.717450mm" x2="243.974000mm" y2="93.839080mm" />
  <line x1="243.974000mm" y1="93.839080mm" x2="243.480000mm" y2="93.880000mm" />
  <line x1="243.480000mm" y1="93.880000mm" x2="242.986000mm" y2="93.839080mm" />
  <line x1="242.986000mm" y1="93.839080mm" x2="242.506000mm" y2="93.717450mm" />
  <line x1="242.506000mm" y1="93.717450mm" x2="242.052000mm" y2="93.518410mm" />
  <line x1="242.052000mm" y1="93.518410mm" x2="241.637000mm" y2="93.247420mm" />
  <line x1="241.637000mm" y1="93.247420mm" x2="241.273000mm" y2="92.911830mm" />
  <line x1="241.273000mm" y1="92.911830mm" x2="240.968000mm" y2="92.520840mm" />
  <line x1="240.968000mm" y1="92.520840mm" x2="240.733000mm" y2="92.085080mm" />
  <line x1="240.733000mm" y1="92.085080mm" x2="240.572000mm" y2="91.616450mm" />
  <line x1="240.572000mm" y1="91.616450mm" x2="240.490000mm" y2="91.127730mm" />
  <line x1="240.490000mm" y1="91.127730mm" x2="240.490000mm" y2="87.879980mm" />
  <line x1="240.490000mm" y1="87.879980mm" x2="0.000000mm" y2="87.879980mm" />
  <line x1="0.000000mm" y1="87.879980mm" x2="0.000000mm" y2="101.180000mm" />
  <line x1="0.000000mm" y1="101.180000mm" x2="2.500000mm" y2="101.180000mm" />
  <line x1="2.500000mm" y1="101.180000mm" x2="2.987720mm" y2="101.228000mm" />
  <line x1="2.987720mm" y1="101.228000mm" x2="3.456700mm" y2="101.370300mm" />
  <line x1="3.456700mm" y1="101.370300mm" x2="3.888920mm" y2="101.601300mm" />
  <line x1="3.888920mm" y1="101.601300mm" x2="4.267760mm" y2="101.912200mm" />
  <line x1="4.267760mm" y1="101.912200mm" x2="4.578660mm" y2="102.291100mm" />
  <line x1="4.578660mm" y1="102.291100mm" x2="4.809690mm" y2="102.723300mm" />
  <line x1="4.809690mm" y1="102.723300mm" x2="4.951950mm" y2="103.192300mm" />
  <line x1="4.951950mm" y1="103.192300mm" x2="5.000000mm" y2="103.680000mm" />
  <line x1="5.000000mm" y1="103.680000mm" x2="4.951950mm" y2="104.167700mm" />
  <line x1="4.951950mm" y1="104.167700mm" x2="4.809690mm" y2="104.636700mm" />
  <line x1="4.809690mm" y1="104.636700mm" x2="4.578660mm" y2="105.068900mm" />
  <line x1="4.578660mm" y1="105.068900mm" x2="4.267760mm" y2="105.447800mm" />
  <line x1="4.267760mm" y1="105.447800mm" x2="3.888920mm" y2="105.758700mm" />
  <line x1="3.888920mm" y1="105.758700mm" x2="3.456700mm" y2="105.989700mm" />
  <line x1="3.456700mm" y1="105.989700mm" x2="2.987720mm" y2="106.132000mm" />
  <line x1="2.987720mm" y1="106.132000mm" x2="2.499980mm" y2="106.180000mm" />
  <line x1="2.499980mm" y1="106.180000mm" x2="0.000000mm" y2="106.180000mm" />
  <line x1="0.000000mm" y1="106.180000mm" x2="0.000000mm" y2="111.194600mm" />
  <line x1="0.000000mm" y1="111.194600mm" x2="2.241060mm" y2="111.194600mm" />
  <line x1="2.241060mm" y1="111.194600mm" x2="2.709200mm" y2="111.310000mm" />
  <line x1="2.709200mm" y1="111.310000mm" x2="3.136120mm" y2="111.534000mm" />
  <line x1="3.136120mm" y1="111.534000mm" x2="3.497010mm" y2="111.853700mm" />
  <line x1="3.497010mm" y1="111.853700mm" x2="3.770900mm" y2="112.250500mm" />
  <line x1="3.770900mm" y1="112.250500mm" x2="3.941880mm" y2="112.701400mm" />
  <line x1="3.941880mm" y1="112.701400mm" x2="4.000000mm" y2="113.180000mm" />
  <line x1="4.000000mm" y1="113.180000mm" x2="3.941880mm" y2="113.658600mm" />
  <line x1="3.941880mm" y1="113.658600mm" x2="3.770900mm" y2="114.109400mm" />
  <line x1="3.770900mm" y1="114.109400mm" x2="3.497010mm" y2="114.506200mm" />
  <line x1="3.497010mm" y1="114.506200mm" x2="3.136120mm" y2="114.826000mm" />
  <line x1="3.136120mm" y1="114.826000mm" x2="2.709200mm" y2="115.050000mm" />
  <line x1="2.709200mm" y1="115.050000mm" x2="2.241060mm" y2="115.165400mm" />
  <line x1="2.241060mm" y1="115.165400mm" x2="0.000000mm" y2="115.165400mm" />
  <line x1="0.000000mm" y1="115.165400mm" x2="0.000000mm" y2="146.174600mm" />
  <line x1="0.000000mm" y1="146.174600mm" x2="2.241060mm" y2="146.174600mm" />
  <line x1="2.241060mm" y1="146.174600mm" x2="2.709200mm" y2="146.290000mm" />
  <line x1="2.709200mm" y1="146.290000mm" x2="3.136120mm" y2="146.514000mm" />
  <line x1="3.136120mm" y1="146.514000mm" x2="3.497010mm" y2="146.833800mm" />
  <line x1="3.497010mm" y1="146.833800mm" x2="3.770900mm" y2="147.230500mm" />
  <line x1="3.770900mm" y1="147.230500mm" x2="3.941880mm" y2="147.681400mm" />
  <line x1="3.941880mm" y1="147.681400mm" x2="4.000000mm" y2="148.160000mm" />
  <line x1="4.000000mm" y1="148.160000mm" x2="3.941880mm" y2="148.638600mm" />
  <line x1="3.941880mm" y1="148.638600mm" x2="3.770900mm" y2="149.089400mm" />
  <line x1="3.770900mm" y1="149.089400mm" x2="3.497010mm" y2="149.486200mm" />
  <line x1="3.497010mm" y1="149.486200mm" x2="3.136120mm" y2="149.806000mm" />
  <line x1="3.136120mm" y1="149.806000mm" x2="2.709200mm" y2="150.030000mm" />
  <line x1="2.709200mm" y1="150.030000mm" x2="2.241060mm" y2="150.145400mm" />
  <line x1="2.241060mm" y1="150.145400mm" x2="0.000000mm" y2="150.145400mm" />
  <line x1="0.000000mm" y1="150.145400mm" x2="0.000000mm" y2="156.160000mm" />
  <line x1="0.000000mm" y1="156.160000mm" x2="3.500000mm" y2="156.160000mm" />
  <line x1="3.500000mm" y1="156.160000mm" x2="3.998090mm" y2="156.195600mm" />
  <line x1="3.998090mm" y1="156.195600mm" x2="4.486050mm" y2="156.301800mm" />
  <line x1="4.486050mm" y1="156.301800mm" x2="4.953950mm" y2="156.476300mm" />
  <line x1="4.953950mm" y1="156.476300mm" x2="5.392240mm" y2="156.715600mm" />
  <line x1="5.392240mm" y1="156.715600mm" x2="5.792010mm" y2="157.014900mm" />
  <line x1="5.792010mm" y1="157.014900mm" x2="6.145110mm" y2="157.368000mm" />
  <line x1="6.145110mm" y1="157.368000mm" x2="6.444380mm" y2="157.767700mm" />
  <line x1="6.444380mm" y1="157.767700mm" x2="6.683700mm" y2="158.206000mm" />
  <line x1="6.683700mm" y1="158.206000mm" x2="6.858220mm" y2="158.673900mm" />
  <line x1="6.858220mm" y1="158.673900mm" x2="6.964370mm" y2="159.161900mm" />
  <line x1="6.964370mm" y1="159.161900mm" x2="7.000000mm" y2="159.660000mm" />
  <line x1="7.000000mm" y1="159.660000mm" x2="6.964370mm" y2="160.158100mm" />
  <line x1="6.964370mm" y1="160.158100mm" x2="6.858220mm" y2="160.646100mm" />
  <line x1="6.858220mm" y1="160.646100mm" x2="6.683700mm" y2="161.113900mm" />
  <line x1="6.683700mm" y1="161.113900mm" x2="6.444380mm" y2="161.552200mm" />
  <line x1="6.444380mm" y1="161.552200mm" x2="6.145110mm" y2="161.952000mm" />
  <line x1="6.145110mm" y1="161.952000mm" x2="5.792010mm" y2="162.305100mm" />
  <line x1="5.792010mm" y1="162.305100mm" x2="5.392240mm" y2="162.604400mm" />
  <line x1="5.392240mm" y1="162.604400mm" x2="4.953950mm" y2="162.843700mm" />
  <line x1="4.953950mm" y1="162.843700mm" x2="4.486050mm" y2="163.018200mm" />
  <line x1="4.486050mm" y1="163.018200mm" x2="3.998090mm" y2="163.124400mm" />
  <line x1="3.998090mm" y1="163.124400mm" x2="3.499980mm" y2="163.160000mm" />
  <line x1="3.499980mm" y1="163.160000mm" x2="0.000000mm" y2="163.160000mm" />
  <line x1="0.000000mm" y1="163.160000mm" x2="0.000000mm" y2="171.760000mm" />
  <line x1="0.000000mm" y1="171.760000mm" x2="277.000000mm" y2="171.760000mm" />
  <circle cx="20.200000mm" cy="94.530005mm" r="1.650009mm" fill="none"/>
  <line x1="23.500017mm" y1="94.530005mm" x2="16.899983mm" y2="94.530005mm" />
  <line x1="20.200000mm" y1="91.229988mm" x2="20.200000mm" y2="97.830022mm" />
  <text x="21mm" y="92mm" font-size="24">
   3.3
  </text>
  <circle cx="37.420000mm" cy="94.530005mm" r="1.650009mm" fill="none"/>
  <line x1="40.720017mm" y1="94.530005mm" x2="34.119983mm" y2="94.530005mm" />
  <line x1="37.420000mm" y1="91.229988mm" x2="37.420000mm" y2="97.830022mm" />
  <text x="39mm" y="92mm" font-size="24">
   3.3
  </text>
  <circle cx="264.579646mm" cy="94.529979mm" r="1.650039mm" fill="none"/>
  <line x1="267.879723mm" y1="94.529979mm" x2="261.279569mm" y2="94.529979mm" />
  <line x1="264.579646mm" y1="91.229901mm" x2="264.579646mm" y2="97.830056mm" />
  <text x="266mm" y="92mm" font-size="24">
   3.3
  </text>
  <circle cx="281.799646mm" cy="94.529979mm" r="1.650039mm" fill="none"/>
  <line x1="285.099723mm" y1="94.529979mm" x2="278.499569mm" y2="94.529979mm" />
  <line x1="281.799646mm" y1="91.229901mm" x2="281.799646mm" y2="97.830056mm" />
  <text x="283mm" y="92mm" font-size="24">
   3.3
  </text>
  <circle cx="138.660000mm" cy="108.229966mm" r="1.650034mm" fill="none"/>
  <line x1="141.960067mm" y1="108.229966mm" x2="135.359933mm" y2="108.229966mm" />
  <line x1="138.660000mm" y1="104.929899mm" x2="138.660000mm" y2="111.530034mm" />
  <text x="140mm" y="106mm" font-size="24">
   3.3
  </text>
  <circle cx="232.640000mm" cy="108.229966mm" r="1.650034mm" fill="none"/>
  <line x1="235.940067mm" y1="108.229966mm" x2="229.339933mm" y2="108.229966mm" />
  <line x1="232.640000mm" y1="104.929899mm" x2="232.640000mm" y2="111.530034mm" />
  <text x="234mm" y="106mm" font-size="24">
   3.3
  </text>
  <line x1="20.689800mm" y1="115.262900mm" x2="20.689800mm" y2="115.262900mm" />
  <line x1="20.689800mm" y1="115.262900mm" x2="19.055800mm" y2="114.890000mm" />
  <line x1="19.055800mm" y1="114.890000mm" x2="18.328600mm" y2="113.380000mm" />
  <line x1="18.328600mm" y1="113.380000mm" x2="19.055800mm" y2="111.870000mm" />
  <line x1="19.055800mm" y1="111.870000mm" x2="20.689800mm" y2="111.497100mm" />
  <line x1="20.689800mm" y1="111.497100mm" x2="22.000100mm" y2="112.542000mm" />
  <line x1="22.000100mm" y1="112.542000mm" x2="22.000100mm" y2="114.218000mm" />
  <line x1="22.000100mm" y1="114.218000mm" x2="20.689800mm" y2="115.262900mm" />
  <line x1="65.689800mm" y1="115.262900mm" x2="65.689800mm" y2="115.262900mm" />
  <line x1="65.689800mm" y1="115.262900mm" x2="64.055800mm" y2="114.890000mm" />
  <line x1="64.055800mm" y1="114.890000mm" x2="63.328600mm" y2="113.380000mm" />
  <line x1="63.328600mm" y1="113.380000mm" x2="64.055800mm" y2="111.870000mm" />
  <line x1="64.055800mm" y1="111.870000mm" x2="65.689800mm" y2="111.497100mm" />
  <line x1="65.689800mm" y1="111.497100mm" x2="67.000100mm" y2="112.542000mm" />
  <line x1="67.000100mm" y1="112.542000mm" x2="67.000100mm" y2="114.218000mm" />
  <line x1="67.000100mm" y1="114.218000mm" x2="65.689800mm" y2="115.262900mm" />
  <circle cx="194.922343mm" cy="115.179977mm" r="1.650039mm" fill="none"/>
  <line x1="198.222421mm" y1="115.179977mm" x2="191.622264mm" y2="115.179977mm" />
  <line x1="194.922343mm" y1="111.879898mm" x2="194.922343mm" y2="118.480056mm" />
  <text x="196mm" y="113mm" font-size="24">
   3.3
  </text>
  <circle cx="6.650008mm" cy="147.640004mm" r="1.650021mm" fill="none"/>
  <line x1="9.950050mm" y1="147.640004mm" x2="3.349966mm" y2="147.640004mm" />
  <line x1="6.650008mm" y1="144.339962mm" x2="6.650008mm" y2="150.940046mm" />
  <text x="8mm" y="145mm" font-size="24">
   3.3
  </text>
  <circle cx="138.660000mm" cy="151.409966mm" r="1.650034mm" fill="none"/>
  <line x1="141.960067mm" y1="151.409966mm" x2="135.359933mm" y2="151.409966mm" />
  <line x1="138.660000mm" y1="148.109899mm" x2="138.660000mm" y2="154.710034mm" />
  <text x="140mm" y="149mm" font-size="24">
   3.3
  </text>
  <circle cx="232.640000mm" cy="151.409966mm" r="1.650034mm" fill="none"/>
  <line x1="235.940067mm" y1="151.409966mm" x2="229.339933mm" y2="151.409966mm" />
  <line x1="232.640000mm" y1="148.109899mm" x2="232.640000mm" y2="154.710034mm" />
  <text x="234mm" y="149mm" font-size="24">
   3.3
  </text>
  <circle cx="6.650008mm" cy="164.860004mm" r="1.650021mm" fill="none"/>
  <line x1="9.950050mm" y1="164.860004mm" x2="3.349966mm" y2="164.860004mm" />
  <line x1="6.650008mm" y1="161.559962mm" x2="6.650008mm" y2="168.160046mm" />
  <text x="8mm" y="163mm" font-size="24">
   3.3
  </text>
 </g>
</svg>
