  0
SECTION
  2
BLOCKS
  0
ENDSEC
  0
SECTION
  2
ENTITIES
  0
LINE
  8
0
 10
-172
 20
0
 11
-140.98
 21
0
  0
LINE
  8
0
 10
-140.98
 20
0
 11
-140.98
 21
2.5
  0
LINE
  8
0
 10
-140.98
 20
2.5
 11
-140.932
 21
2.98773
  0
LINE
  8
0
 10
-140.932
 20
2.98773
 11
-140.79
 21
3.45671
  0
LINE
  8
0
 10
-140.79
 20
3.45671
 11
-140.559
 21
3.88893
  0
LINE
  8
0
 10
-140.559
 20
3.88893
 11
-140.248
 21
4.26777
  0
LINE
  8
0
 10
-140.248
 20
4.26777
 11
-139.869
 21
4.57867
  0
LINE
  8
0
 10
-139.869
 20
4.57867
 11
-139.437
 21
4.8097
  0
LINE
  8
0
 10
-139.437
 20
4.8097
 11
-138.968
 21
4.95196
  0
LINE
  8
0
 10
-138.968
 20
4.95196
 11
-138.48
 21
5
  0
LINE
  8
0
 10
-138.48
 20
5
 11
-137.992
 21
4.95196
  0
LINE
  8
0
 10
-137.992
 20
4.95196
 11
-137.523
 21
4.8097
  0
LINE
  8
0
 10
-137.523
 20
4.8097
 11
-137.091
 21
4.57867
  0
LINE
  8
0
 10
-137.091
 20
4.57867
 11
-136.712
 21
4.26777
  0
LINE
  8
0
 10
-136.712
 20
4.26777
 11
-136.401
 21
3.88893
  0
LINE
  8
0
 10
-136.401
 20
3.88893
 11
-136.17
 21
3.45671
  0
LINE
  8
0
 10
-136.17
 20
3.45671
 11
-136.028
 21
2.98773
  0
LINE
  8
0
 10
-136.028
 20
2.98773
 11
-135.98
 21
2.5
  0
LINE
  8
0
 10
-135.98
 20
2.5
 11
-135.98
 21
0
  0
LINE
  8
0
 10
-135.98
 20
0
 11
-104
 21
0
  0
LINE
  8
0
 10
-104
 20
0
 11
-104
 21
206.1
  0
LINE
  8
0
 10
-104
 20
206.1
 11
-103.994
 21
206.349
  0
LINE
  8
0
 10
-103.994
 20
206.349
 11
-103.944
 21
206.845
  0
LINE
  8
0
 10
-103.944
 20
206.845
 11
-103.845
 21
207.334
  0
LINE
  8
0
 10
-103.845
 20
207.334
 11
-103.698
 21
207.81
  0
LINE
  8
0
 10
-103.698
 20
207.81
 11
-103.505
 21
208.269
  0
LINE
  8
0
 10
-103.505
 20
208.269
 11
-103.266
 21
208.707
  0
LINE
  8
0
 10
-103.266
 20
208.707
 11
-102.986
 21
209.119
  0
LINE
  8
0
 10
-102.986
 20
209.119
 11
-102.665
 21
209.501
  0
LINE
  8
0
 10
-102.665
 20
209.501
 11
-102.308
 21
209.849
  0
LINE
  8
0
 10
-102.308
 20
209.849
 11
-101.919
 21
210.16
  0
LINE
  8
0
 10
-101.919
 20
210.16
 11
-101.5
 21
210.43
  0
LINE
  8
0
 10
-101.5
 20
210.43
 11
-101.056
 21
210.658
  0
LINE
  8
0
 10
-101.056
 20
210.658
 11
-100.592
 21
210.84
  0
LINE
  8
0
 10
-100.592
 20
210.84
 11
-100.113
 21
210.975
  0
LINE
  8
0
 10
-100.113
 20
210.975
 11
-99.6217
 21
211.061
  0
LINE
  8
0
 10
-99.6217
 20
211.061
 11
-99.1246
 21
211.098
  0
LINE
  8
0
 10
-99.1246
 20
211.098
 11
-99
 21
211.1
  0
LINE
  8
0
 10
-99
 20
211.1
 11
61
 21
211.1
  0
LINE
  8
0
 10
61
 20
211.1
 11
61.3736
 21
211.086
  0
LINE
  8
0
 10
61.3736
 20
211.086
 11
61.8682
 21
211.024
  0
LINE
  8
0
 10
61.8682
 20
211.024
 11
62.3542
 21
210.913
  0
LINE
  8
0
 10
62.3542
 20
210.913
 11
62.8267
 21
210.754
  0
LINE
  8
0
 10
62.8267
 20
210.754
 11
63.2811
 21
210.549
  0
LINE
  8
0
 10
63.2811
 20
210.549
 11
63.7127
 21
210.3
  0
LINE
  8
0
 10
63.7127
 20
210.3
 11
64.1174
 21
210.009
  0
LINE
  8
0
 10
64.1174
 20
210.009
 11
64.4912
 21
209.679
  0
LINE
  8
0
 10
64.4912
 20
209.679
 11
64.8302
 21
209.314
  0
LINE
  8
0
 10
64.8302
 20
209.314
 11
65.1312
 21
208.917
  0
LINE
  8
0
 10
65.1312
 20
208.917
 11
65.3911
 21
208.491
  0
LINE
  8
0
 10
65.3911
 20
208.491
 11
65.6074
 21
208.042
  0
LINE
  8
0
 10
65.6074
 20
208.042
 11
65.7779
 21
207.574
  0
LINE
  8
0
 10
65.7779
 20
207.574
 11
65.9008
 21
207.091
  0
LINE
  8
0
 10
65.9008
 20
207.091
 11
65.9751
 21
206.598
  0
LINE
  8
0
 10
65.9751
 20
206.598
 11
66
 21
206.1
  0
LINE
  8
0
 10
66
 20
206.1
 11
66
 21
0
  0
LINE
  8
0
 10
66
 20
0
 11
172
 21
0
  0
LINE
  8
0
 10
172
 20
0
 11
172
 21
277
  0
LINE
  8
0
 10
172
 20
277
 11
171.905
 21
279.179
  0
LINE
  8
0
 10
171.905
 20
279.179
 11
171.62
 21
281.341
  0
LINE
  8
0
 10
171.62
 20
281.341
 11
171.148
 21
283.47
  0
LINE
  8
0
 10
171.148
 20
283.47
 11
170.492
 21
285.551
  0
LINE
  8
0
 10
170.492
 20
285.551
 11
169.658
 21
287.565
  0
LINE
  8
0
 10
169.658
 20
287.565
 11
168.651
 21
289.5
  0
LINE
  8
0
 10
168.651
 20
289.5
 11
167.479
 21
291.339
  0
LINE
  8
0
 10
167.479
 20
291.339
 11
166.151
 21
293.07
  0
LINE
  8
0
 10
166.151
 20
293.07
 11
164.678
 21
294.678
  0
LINE
  8
0
 10
164.678
 20
294.678
 11
163.07
 21
296.151
  0
LINE
  8
0
 10
163.07
 20
296.151
 11
161.339
 21
297.479
  0
LINE
  8
0
 10
161.339
 20
297.479
 11
159.5
 21
298.651
  0
LINE
  8
0
 10
159.5
 20
298.651
 11
157.565
 21
299.658
  0
LINE
  8
0
 10
157.565
 20
299.658
 11
155.551
 21
300.492
  0
LINE
  8
0
 10
155.551
 20
300.492
 11
153.47
 21
301.148
  0
LINE
  8
0
 10
153.47
 20
301.148
 11
151.341
 21
301.62
  0
LINE
  8
0
 10
151.341
 20
301.62
 11
149.179
 21
301.905
  0
LINE
  8
0
 10
149.179
 20
301.905
 11
147
 21
302
  0
LINE
  8
0
 10
147
 20
302
 11
-147
 21
302
  0
LINE
  8
0
 10
-147
 20
302
 11
-149.179
 21
301.905
  0
LINE
  8
0
 10
-149.179
 20
301.905
 11
-151.341
 21
301.62
  0
LINE
  8
0
 10
-151.341
 20
301.62
 11
-153.47
 21
301.148
  0
LINE
  8
0
 10
-153.47
 20
301.148
 11
-155.551
 21
300.492
  0
LINE
  8
0
 10
-155.551
 20
300.492
 11
-157.565
 21
299.658
  0
LINE
  8
0
 10
-157.565
 20
299.658
 11
-159.5
 21
298.651
  0
LINE
  8
0
 10
-159.5
 20
298.651
 11
-161.339
 21
297.479
  0
LINE
  8
0
 10
-161.339
 20
297.479
 11
-163.07
 21
296.151
  0
LINE
  8
0
 10
-163.07
 20
296.151
 11
-164.678
 21
294.678
  0
LINE
  8
0
 10
-164.678
 20
294.678
 11
-166.151
 21
293.07
  0
LINE
  8
0
 10
-166.151
 20
293.07
 11
-167.479
 21
291.339
  0
LINE
  8
0
 10
-167.479
 20
291.339
 11
-168.651
 21
289.5
  0
LINE
  8
0
 10
-168.651
 20
289.5
 11
-169.658
 21
287.565
  0
LINE
  8
0
 10
-169.658
 20
287.565
 11
-170.492
 21
285.551
  0
LINE
  8
0
 10
-170.492
 20
285.551
 11
-171.148
 21
283.47
  0
LINE
  8
0
 10
-171.148
 20
283.47
 11
-171.62
 21
281.341
  0
LINE
  8
0
 10
-171.62
 20
281.341
 11
-171.905
 21
279.179
  0
LINE
  8
0
 10
-171.905
 20
279.179
 11
-172
 21
277
  0
LINE
  8
0
 10
-172
 20
277
 11
-172
 21
0
  0
LINE
  8
0
 10
-168.632
 20
99.8541
 11
-168.632
 21
100.346
  0
LINE
  8
0
 10
-168.632
 20
100.346
 11
-168.487
 21
100.816
  0
LINE
  8
0
 10
-168.487
 20
100.816
 11
-168.21
 21
101.222
  0
LINE
  8
0
 10
-168.21
 20
101.222
 11
-167.825
 21
101.529
  0
LINE
  8
0
 10
-167.825
 20
101.529
 11
-167.367
 21
101.709
  0
LINE
  8
0
 10
-167.367
 20
101.709
 11
-166.877
 21
101.745
  0
LINE
  8
0
 10
-166.877
 20
101.745
 11
-166.397
 21
101.636
  0
LINE
  8
0
 10
-166.397
 20
101.636
 11
-165.971
 21
101.39
  0
LINE
  8
0
 10
-165.971
 20
101.39
 11
-165.637
 21
101.029
  0
LINE
  8
0
 10
-165.637
 20
101.029
 11
-165.423
 21
100.586
  0
LINE
  8
0
 10
-165.423
 20
100.586
 11
-165.35
 21
100.1
  0
LINE
  8
0
 10
-165.35
 20
100.1
 11
-165.423
 21
99.6137
  0
LINE
  8
0
 10
-165.423
 20
99.6137
 11
-165.637
 21
99.1705
  0
LINE
  8
0
 10
-165.637
 20
99.1705
 11
-165.971
 21
98.81
  0
LINE
  8
0
 10
-165.971
 20
98.81
 11
-166.397
 21
98.5641
  0
LINE
  8
0
 10
-166.397
 20
98.5641
 11
-166.877
 21
98.4546
  0
LINE
  8
0
 10
-166.877
 20
98.4546
 11
-167.367
 21
98.4914
  0
LINE
  8
0
 10
-167.367
 20
98.4914
 11
-167.825
 21
98.6711
  0
LINE
  8
0
 10
-167.825
 20
98.6711
 11
-168.21
 21
98.9777
  0
LINE
  8
0
 10
-168.21
 20
98.9777
 11
-168.487
 21
99.3841
  0
LINE
  8
0
 10
-168.487
 20
99.3841
 11
-168.632
 21
99.8541
  0
LINE
  8
0
 10
-168.632
 20
139.254
 11
-168.632
 21
139.746
  0
LINE
  8
0
 10
-168.632
 20
139.746
 11
-168.487
 21
140.216
  0
LINE
  8
0
 10
-168.487
 20
140.216
 11
-168.21
 21
140.622
  0
LINE
  8
0
 10
-168.21
 20
140.622
 11
-167.825
 21
140.929
  0
LINE
  8
0
 10
-167.825
 20
140.929
 11
-167.367
 21
141.109
  0
LINE
  8
0
 10
-167.367
 20
141.109
 11
-166.877
 21
141.145
  0
LINE
  8
0
 10
-166.877
 20
141.145
 11
-166.397
 21
141.036
  0
LINE
  8
0
 10
-166.397
 20
141.036
 11
-165.971
 21
140.79
  0
LINE
  8
0
 10
-165.971
 20
140.79
 11
-165.637
 21
140.429
  0
LINE
  8
0
 10
-165.637
 20
140.429
 11
-165.423
 21
139.986
  0
LINE
  8
0
 10
-165.423
 20
139.986
 11
-165.35
 21
139.5
  0
LINE
  8
0
 10
-165.35
 20
139.5
 11
-165.423
 21
139.014
  0
LINE
  8
0
 10
-165.423
 20
139.014
 11
-165.637
 21
138.571
  0
LINE
  8
0
 10
-165.637
 20
138.571
 11
-165.971
 21
138.21
  0
LINE
  8
0
 10
-165.971
 20
138.21
 11
-166.397
 21
137.964
  0
LINE
  8
0
 10
-166.397
 20
137.964
 11
-166.877
 21
137.855
  0
LINE
  8
0
 10
-166.877
 20
137.855
 11
-167.367
 21
137.891
  0
LINE
  8
0
 10
-167.367
 20
137.891
 11
-167.825
 21
138.071
  0
LINE
  8
0
 10
-167.825
 20
138.071
 11
-168.21
 21
138.378
  0
LINE
  8
0
 10
-168.21
 20
138.378
 11
-168.487
 21
138.784
  0
LINE
  8
0
 10
-168.487
 20
138.784
 11
-168.632
 21
139.254
  0
LINE
  8
0
 10
-166.75
 20
6.65
 11
-166.677
 21
7.13635
  0
LINE
  8
0
 10
-166.677
 20
7.13635
 11
-166.463
 21
7.57948
  0
LINE
  8
0
 10
-166.463
 20
7.57948
 11
-166.129
 21
7.94002
  0
LINE
  8
0
 10
-166.129
 20
7.94002
 11
-165.703
 21
8.18594
  0
LINE
  8
0
 10
-165.703
 20
8.18594
 11
-165.223
 21
8.29539
  0
LINE
  8
0
 10
-165.223
 20
8.29539
 11
-164.733
 21
8.25863
  0
LINE
  8
0
 10
-164.733
 20
8.25863
 11
-164.275
 21
8.07894
  0
LINE
  8
0
 10
-164.275
 20
8.07894
 11
-163.89
 21
7.77228
  0
LINE
  8
0
 10
-163.89
 20
7.77228
 11
-163.613
 21
7.36591
  0
LINE
  8
0
 10
-163.613
 20
7.36591
 11
-163.468
 21
6.89592
  0
LINE
  8
0
 10
-163.468
 20
6.89592
 11
-163.468
 21
6.40408
  0
LINE
  8
0
 10
-163.468
 20
6.40408
 11
-163.613
 21
5.93409
  0
LINE
  8
0
 10
-163.613
 20
5.93409
 11
-163.89
 21
5.52771
  0
LINE
  8
0
 10
-163.89
 20
5.52771
 11
-164.275
 21
5.22106
  0
LINE
  8
0
 10
-164.275
 20
5.22106
 11
-164.733
 21
5.04137
  0
LINE
  8
0
 10
-164.733
 20
5.04137
 11
-165.223
 21
5.00461
  0
LINE
  8
0
 10
-165.223
 20
5.00461
 11
-165.703
 21
5.11406
  0
LINE
  8
0
 10
-165.703
 20
5.11406
 11
-166.129
 21
5.35998
  0
LINE
  8
0
 10
-166.129
 20
5.35998
 11
-166.463
 21
5.72052
  0
LINE
  8
0
 10
-166.463
 20
5.72052
 11
-166.677
 21
6.16365
  0
LINE
  8
0
 10
-166.677
 20
6.16365
 11
-166.75
 21
6.65
  0
LINE
  8
0
 10
-161.345
 20
44.8733
 11
-161.345
 21
55.3733
  0
LINE
  8
0
 10
-161.345
 20
55.3733
 11
-161.236
 21
55.8528
  0
LINE
  8
0
 10
-161.236
 20
55.8528
 11
-160.99
 21
56.2788
  0
LINE
  8
0
 10
-160.99
 20
56.2788
 11
-160.629
 21
56.6133
  0
LINE
  8
0
 10
-160.629
 20
56.6133
 11
-160.186
 21
56.8267
  0
LINE
  8
0
 10
-160.186
 20
56.8267
 11
-159.7
 21
56.9
  0
LINE
  8
0
 10
-159.7
 20
56.9
 11
-159.214
 21
56.8267
  0
LINE
  8
0
 10
-159.214
 20
56.8267
 11
-158.771
 21
56.6133
  0
LINE
  8
0
 10
-158.771
 20
56.6133
 11
-158.41
 21
56.2788
  0
LINE
  8
0
 10
-158.41
 20
56.2788
 11
-158.164
 21
55.8528
  0
LINE
  8
0
 10
-158.164
 20
55.8528
 11
-158.055
 21
55.3733
  0
LINE
  8
0
 10
-158.055
 20
55.3733
 11
-158.055
 21
44.8733
  0
LINE
  8
0
 10
-158.055
 20
44.8733
 11
-158.091
 21
44.3828
  0
LINE
  8
0
 10
-158.091
 20
44.3828
 11
-158.271
 21
43.925
  0
LINE
  8
0
 10
-158.271
 20
43.925
 11
-158.578
 21
43.5405
  0
LINE
  8
0
 10
-158.578
 20
43.5405
 11
-158.984
 21
43.2634
  0
LINE
  8
0
 10
-158.984
 20
43.2634
 11
-159.454
 21
43.1184
  0
LINE
  8
0
 10
-159.454
 20
43.1184
 11
-159.946
 21
43.1184
  0
LINE
  8
0
 10
-159.946
 20
43.1184
 11
-160.416
 21
43.2634
  0
LINE
  8
0
 10
-160.416
 20
43.2634
 11
-160.822
 21
43.5405
  0
LINE
  8
0
 10
-160.822
 20
43.5405
 11
-161.129
 21
43.925
  0
LINE
  8
0
 10
-161.129
 20
43.925
 11
-161.309
 21
44.3828
  0
LINE
  8
0
 10
-161.309
 20
44.3828
 11
-161.345
 21
44.8733
  0
LINE
  8
0
 10
-149.53
 20
6.65
 11
-149.457
 21
7.13635
  0
LINE
  8
0
 10
-149.457
 20
7.13635
 11
-149.243
 21
7.57948
  0
LINE
  8
0
 10
-149.243
 20
7.57948
 11
-148.909
 21
7.94002
  0
LINE
  8
0
 10
-148.909
 20
7.94002
 11
-148.483
 21
8.18594
  0
LINE
  8
0
 10
-148.483
 20
8.18594
 11
-148.003
 21
8.29539
  0
LINE
  8
0
 10
-148.003
 20
8.29539
 11
-147.513
 21
8.25863
  0
LINE
  8
0
 10
-147.513
 20
8.25863
 11
-147.055
 21
8.07894
  0
LINE
  8
0
 10
-147.055
 20
8.07894
 11
-146.67
 21
7.77228
  0
LINE
  8
0
 10
-146.67
 20
7.77228
 11
-146.393
 21
7.36591
  0
LINE
  8
0
 10
-146.393
 20
7.36591
 11
-146.248
 21
6.89592
  0
LINE
  8
0
 10
-146.248
 20
6.89592
 11
-146.248
 21
6.40408
  0
LINE
  8
0
 10
-146.248
 20
6.40408
 11
-146.393
 21
5.93409
  0
LINE
  8
0
 10
-146.393
 20
5.93409
 11
-146.67
 21
5.52771
  0
LINE
  8
0
 10
-146.67
 20
5.52771
 11
-147.055
 21
5.22106
  0
LINE
  8
0
 10
-147.055
 20
5.22106
 11
-147.513
 21
5.04137
  0
LINE
  8
0
 10
-147.513
 20
5.04137
 11
-148.003
 21
5.00461
  0
LINE
  8
0
 10
-148.003
 20
5.00461
 11
-148.483
 21
5.11406
  0
LINE
  8
0
 10
-148.483
 20
5.11406
 11
-148.909
 21
5.35998
  0
LINE
  8
0
 10
-148.909
 20
5.35998
 11
-149.243
 21
5.72052
  0
LINE
  8
0
 10
-149.243
 20
5.72052
 11
-149.457
 21
6.16365
  0
LINE
  8
0
 10
-149.457
 20
6.16365
 11
-149.53
 21
6.65
  0
LINE
  8
0
 10
-148
 20
62
 11
-147.942
 21
62.4786
  0
LINE
  8
0
 10
-147.942
 20
62.4786
 11
-147.771
 21
62.9294
  0
LINE
  8
0
 10
-147.771
 20
62.9294
 11
-147.497
 21
63.3262
  0
LINE
  8
0
 10
-147.497
 20
63.3262
 11
-147.136
 21
63.646
  0
LINE
  8
0
 10
-147.136
 20
63.646
 11
-146.709
 21
63.87
  0
LINE
  8
0
 10
-146.709
 20
63.87
 11
-146.241
 21
63.9854
  0
LINE
  8
0
 10
-146.241
 20
63.9854
 11
-145.759
 21
63.9854
  0
LINE
  8
0
 10
-145.759
 20
63.9854
 11
-145.291
 21
63.87
  0
LINE
  8
0
 10
-145.291
 20
63.87
 11
-144.864
 21
63.646
  0
LINE
  8
0
 10
-144.864
 20
63.646
 11
-144.503
 21
63.3262
  0
LINE
  8
0
 10
-144.503
 20
63.3262
 11
-144.229
 21
62.9294
  0
LINE
  8
0
 10
-144.229
 20
62.9294
 11
-144.058
 21
62.4786
  0
LINE
  8
0
 10
-144.058
 20
62.4786
 11
-144
 21
62
  0
LINE
  8
0
 10
-144
 20
62
 11
-144.058
 21
61.5214
  0
LINE
  8
0
 10
-144.058
 20
61.5214
 11
-144.229
 21
61.0706
  0
LINE
  8
0
 10
-144.229
 20
61.0706
 11
-144.503
 21
60.6738
  0
LINE
  8
0
 10
-144.503
 20
60.6738
 11
-144.864
 21
60.354
  0
LINE
  8
0
 10
-144.864
 20
60.354
 11
-145.291
 21
60.13
  0
LINE
  8
0
 10
-145.291
 20
60.13
 11
-145.759
 21
60.0146
  0
LINE
  8
0
 10
-145.759
 20
60.0146
 11
-146.241
 21
60.0146
  0
LINE
  8
0
 10
-146.241
 20
60.0146
 11
-146.709
 21
60.13
  0
LINE
  8
0
 10
-146.709
 20
60.13
 11
-147.136
 21
60.354
  0
LINE
  8
0
 10
-147.136
 20
60.354
 11
-147.497
 21
60.6738
  0
LINE
  8
0
 10
-147.497
 20
60.6738
 11
-147.771
 21
61.0706
  0
LINE
  8
0
 10
-147.771
 20
61.0706
 11
-147.942
 21
61.5214
  0
LINE
  8
0
 10
-147.942
 20
61.5214
 11
-148
 21
62
  0
LINE
  8
0
 10
-143
 20
287
 11
-142.942
 21
287.479
  0
LINE
  8
0
 10
-142.942
 20
287.479
 11
-142.771
 21
287.929
  0
LINE
  8
0
 10
-142.771
 20
287.929
 11
-142.497
 21
288.326
  0
LINE
  8
0
 10
-142.497
 20
288.326
 11
-142.136
 21
288.646
  0
LINE
  8
0
 10
-142.136
 20
288.646
 11
-141.709
 21
288.87
  0
LINE
  8
0
 10
-141.709
 20
288.87
 11
-141.241
 21
288.985
  0
LINE
  8
0
 10
-141.241
 20
288.985
 11
-140.759
 21
288.985
  0
LINE
  8
0
 10
-140.759
 20
288.985
 11
-140.291
 21
288.87
  0
LINE
  8
0
 10
-140.291
 20
288.87
 11
-139.864
 21
288.646
  0
LINE
  8
0
 10
-139.864
 20
288.646
 11
-139.503
 21
288.326
  0
LINE
  8
0
 10
-139.503
 20
288.326
 11
-139.229
 21
287.929
  0
LINE
  8
0
 10
-139.229
 20
287.929
 11
-139.058
 21
287.479
  0
LINE
  8
0
 10
-139.058
 20
287.479
 11
-139
 21
287
  0
LINE
  8
0
 10
-139
 20
287
 11
-139.058
 21
286.521
  0
LINE
  8
0
 10
-139.058
 20
286.521
 11
-139.229
 21
286.071
  0
LINE
  8
0
 10
-139.229
 20
286.071
 11
-139.503
 21
285.674
  0
LINE
  8
0
 10
-139.503
 20
285.674
 11
-139.864
 21
285.354
  0
LINE
  8
0
 10
-139.864
 20
285.354
 11
-140.291
 21
285.13
  0
LINE
  8
0
 10
-140.291
 20
285.13
 11
-140.759
 21
285.015
  0
LINE
  8
0
 10
-140.759
 20
285.015
 11
-141.241
 21
285.015
  0
LINE
  8
0
 10
-141.241
 20
285.015
 11
-141.709
 21
285.13
  0
LINE
  8
0
 10
-141.709
 20
285.13
 11
-142.136
 21
285.354
  0
LINE
  8
0
 10
-142.136
 20
285.354
 11
-142.497
 21
285.674
  0
LINE
  8
0
 10
-142.497
 20
285.674
 11
-142.771
 21
286.071
  0
LINE
  8
0
 10
-142.771
 20
286.071
 11
-142.942
 21
286.521
  0
LINE
  8
0
 10
-142.942
 20
286.521
 11
-143
 21
287
  0
LINE
  8
0
 10
-141.345
 20
295.377
 11
-141.309
 21
295.867
  0
LINE
  8
0
 10
-141.309
 20
295.867
 11
-141.129
 21
296.325
  0
LINE
  8
0
 10
-141.129
 20
296.325
 11
-140.822
 21
296.71
  0
LINE
  8
0
 10
-140.822
 20
296.71
 11
-140.416
 21
296.987
  0
LINE
  8
0
 10
-140.416
 20
296.987
 11
-139.946
 21
297.132
  0
LINE
  8
0
 10
-139.946
 20
297.132
 11
-139.454
 21
297.132
  0
LINE
  8
0
 10
-139.454
 20
297.132
 11
-138.984
 21
296.987
  0
LINE
  8
0
 10
-138.984
 20
296.987
 11
-138.578
 21
296.71
  0
LINE
  8
0
 10
-138.578
 20
296.71
 11
-138.271
 21
296.325
  0
LINE
  8
0
 10
-138.271
 20
296.325
 11
-138.091
 21
295.867
  0
LINE
  8
0
 10
-138.091
 20
295.867
 11
-138.055
 21
295.377
  0
LINE
  8
0
 10
-138.055
 20
295.377
 11
-138.164
 21
294.897
  0
LINE
  8
0
 10
-138.164
 20
294.897
 11
-138.41
 21
294.471
  0
LINE
  8
0
 10
-138.41
 20
294.471
 11
-138.771
 21
294.137
  0
LINE
  8
0
 10
-138.771
 20
294.137
 11
-139.214
 21
293.923
  0
LINE
  8
0
 10
-139.214
 20
293.923
 11
-139.7
 21
293.85
  0
LINE
  8
0
 10
-139.7
 20
293.85
 11
-140.186
 21
293.923
  0
LINE
  8
0
 10
-140.186
 20
293.923
 11
-140.629
 21
294.137
  0
LINE
  8
0
 10
-140.629
 20
294.137
 11
-140.99
 21
294.471
  0
LINE
  8
0
 10
-140.99
 20
294.471
 11
-141.236
 21
294.897
  0
LINE
  8
0
 10
-141.236
 20
294.897
 11
-141.345
 21
295.377
  0
LINE
  8
0
 10
-136.945
 20
44.8733
 11
-136.945
 21
55.3733
  0
LINE
  8
0
 10
-136.945
 20
55.3733
 11
-136.836
 21
55.8528
  0
LINE
  8
0
 10
-136.836
 20
55.8528
 11
-136.59
 21
56.2788
  0
LINE
  8
0
 10
-136.59
 20
56.2788
 11
-136.229
 21
56.6133
  0
LINE
  8
0
 10
-136.229
 20
56.6133
 11
-135.786
 21
56.8267
  0
LINE
  8
0
 10
-135.786
 20
56.8267
 11
-135.3
 21
56.9
  0
LINE
  8
0
 10
-135.3
 20
56.9
 11
-134.814
 21
56.8267
  0
LINE
  8
0
 10
-134.814
 20
56.8267
 11
-134.371
 21
56.6133
  0
LINE
  8
0
 10
-134.371
 20
56.6133
 11
-134.01
 21
56.2788
  0
LINE
  8
0
 10
-134.01
 20
56.2788
 11
-133.764
 21
55.8528
  0
LINE
  8
0
 10
-133.764
 20
55.8528
 11
-133.655
 21
55.3733
  0
LINE
  8
0
 10
-133.655
 20
55.3733
 11
-133.655
 21
44.8733
  0
LINE
  8
0
 10
-133.655
 20
44.8733
 11
-133.691
 21
44.3828
  0
LINE
  8
0
 10
-133.691
 20
44.3828
 11
-133.871
 21
43.925
  0
LINE
  8
0
 10
-133.871
 20
43.925
 11
-134.178
 21
43.5405
  0
LINE
  8
0
 10
-134.178
 20
43.5405
 11
-134.584
 21
43.2634
  0
LINE
  8
0
 10
-134.584
 20
43.2634
 11
-135.054
 21
43.1184
  0
LINE
  8
0
 10
-135.054
 20
43.1184
 11
-135.546
 21
43.1184
  0
LINE
  8
0
 10
-135.546
 20
43.1184
 11
-136.016
 21
43.2634
  0
LINE
  8
0
 10
-136.016
 20
43.2634
 11
-136.422
 21
43.5405
  0
LINE
  8
0
 10
-136.422
 20
43.5405
 11
-136.729
 21
43.925
  0
LINE
  8
0
 10
-136.729
 20
43.925
 11
-136.909
 21
44.3828
  0
LINE
  8
0
 10
-136.909
 20
44.3828
 11
-136.945
 21
44.8733
  0
LINE
  8
0
 10
-129.77
 20
6.65
 11
-129.697
 21
7.13635
  0
LINE
  8
0
 10
-129.697
 20
7.13635
 11
-129.483
 21
7.57948
  0
LINE
  8
0
 10
-129.483
 20
7.57948
 11
-129.149
 21
7.94002
  0
LINE
  8
0
 10
-129.149
 20
7.94002
 11
-128.723
 21
8.18594
  0
LINE
  8
0
 10
-128.723
 20
8.18594
 11
-128.243
 21
8.29539
  0
LINE
  8
0
 10
-128.243
 20
8.29539
 11
-127.753
 21
8.25863
  0
LINE
  8
0
 10
-127.753
 20
8.25863
 11
-127.295
 21
8.07894
  0
LINE
  8
0
 10
-127.295
 20
8.07894
 11
-126.91
 21
7.77228
  0
LINE
  8
0
 10
-126.91
 20
7.77228
 11
-126.633
 21
7.36591
  0
LINE
  8
0
 10
-126.633
 20
7.36591
 11
-126.488
 21
6.89592
  0
LINE
  8
0
 10
-126.488
 20
6.89592
 11
-126.488
 21
6.40408
  0
LINE
  8
0
 10
-126.488
 20
6.40408
 11
-126.633
 21
5.93409
  0
LINE
  8
0
 10
-126.633
 20
5.93409
 11
-126.91
 21
5.52771
  0
LINE
  8
0
 10
-126.91
 20
5.52771
 11
-127.295
 21
5.22106
  0
LINE
  8
0
 10
-127.295
 20
5.22106
 11
-127.753
 21
5.04137
  0
LINE
  8
0
 10
-127.753
 20
5.04137
 11
-128.243
 21
5.00461
  0
LINE
  8
0
 10
-128.243
 20
5.00461
 11
-128.723
 21
5.11406
  0
LINE
  8
0
 10
-128.723
 20
5.11406
 11
-129.149
 21
5.35998
  0
LINE
  8
0
 10
-129.149
 20
5.35998
 11
-129.483
 21
5.72052
  0
LINE
  8
0
 10
-129.483
 20
5.72052
 11
-129.697
 21
6.16365
  0
LINE
  8
0
 10
-129.697
 20
6.16365
 11
-129.77
 21
6.65
  0
LINE
  8
0
 10
-120.795
 20
28.9333
 11
-120.686
 21
29.4128
  0
LINE
  8
0
 10
-120.686
 20
29.4128
 11
-120.44
 21
29.8388
  0
LINE
  8
0
 10
-120.44
 20
29.8388
 11
-120.079
 21
30.1733
  0
LINE
  8
0
 10
-120.079
 20
30.1733
 11
-119.636
 21
30.3867
  0
LINE
  8
0
 10
-119.636
 20
30.3867
 11
-119.15
 21
30.46
  0
LINE
  8
0
 10
-119.15
 20
30.46
 11
-118.664
 21
30.3867
  0
LINE
  8
0
 10
-118.664
 20
30.3867
 11
-118.221
 21
30.1733
  0
LINE
  8
0
 10
-118.221
 20
30.1733
 11
-117.86
 21
29.8388
  0
LINE
  8
0
 10
-117.86
 20
29.8388
 11
-117.614
 21
29.4128
  0
LINE
  8
0
 10
-117.614
 20
29.4128
 11
-117.505
 21
28.9333
  0
LINE
  8
0
 10
-117.505
 20
28.9333
 11
-117.541
 21
28.4428
  0
LINE
  8
0
 10
-117.541
 20
28.4428
 11
-117.721
 21
27.985
  0
LINE
  8
0
 10
-117.721
 20
27.985
 11
-118.028
 21
27.6005
  0
LINE
  8
0
 10
-118.028
 20
27.6005
 11
-118.434
 21
27.3234
  0
LINE
  8
0
 10
-118.434
 20
27.3234
 11
-118.904
 21
27.1784
  0
LINE
  8
0
 10
-118.904
 20
27.1784
 11
-119.396
 21
27.1784
  0
LINE
  8
0
 10
-119.396
 20
27.1784
 11
-119.866
 21
27.3234
  0
LINE
  8
0
 10
-119.866
 20
27.3234
 11
-120.272
 21
27.6005
  0
LINE
  8
0
 10
-120.272
 20
27.6005
 11
-120.579
 21
27.985
  0
LINE
  8
0
 10
-120.579
 20
27.985
 11
-120.759
 21
28.4428
  0
LINE
  8
0
 10
-120.759
 20
28.4428
 11
-120.795
 21
28.9333
  0
LINE
  8
0
 10
-120.795
 20
273.313
 11
-120.686
 21
273.793
  0
LINE
  8
0
 10
-120.686
 20
273.793
 11
-120.44
 21
274.219
  0
LINE
  8
0
 10
-120.44
 20
274.219
 11
-120.079
 21
274.553
  0
LINE
  8
0
 10
-120.079
 20
274.553
 11
-119.636
 21
274.767
  0
LINE
  8
0
 10
-119.636
 20
274.767
 11
-119.15
 21
274.84
  0
LINE
  8
0
 10
-119.15
 20
274.84
 11
-118.664
 21
274.767
  0
LINE
  8
0
 10
-118.664
 20
274.767
 11
-118.221
 21
274.553
  0
LINE
  8
0
 10
-118.221
 20
274.553
 11
-117.86
 21
274.219
  0
LINE
  8
0
 10
-117.86
 20
274.219
 11
-117.614
 21
273.793
  0
LINE
  8
0
 10
-117.614
 20
273.793
 11
-117.505
 21
273.313
  0
LINE
  8
0
 10
-117.505
 20
273.313
 11
-117.541
 21
272.823
  0
LINE
  8
0
 10
-117.541
 20
272.823
 11
-117.721
 21
272.365
  0
LINE
  8
0
 10
-117.721
 20
272.365
 11
-118.028
 21
271.98
  0
LINE
  8
0
 10
-118.028
 20
271.98
 11
-118.434
 21
271.703
  0
LINE
  8
0
 10
-118.434
 20
271.703
 11
-118.904
 21
271.558
  0
LINE
  8
0
 10
-118.904
 20
271.558
 11
-119.396
 21
271.558
  0
LINE
  8
0
 10
-119.396
 20
271.558
 11
-119.866
 21
271.703
  0
LINE
  8
0
 10
-119.866
 20
271.703
 11
-120.272
 21
271.98
  0
LINE
  8
0
 10
-120.272
 20
271.98
 11
-120.579
 21
272.365
  0
LINE
  8
0
 10
-120.579
 20
272.365
 11
-120.759
 21
272.823
  0
LINE
  8
0
 10
-120.759
 20
272.823
 11
-120.795
 21
273.313
  0
LINE
  8
0
 10
-117.795
 20
251.504
 11
-117.674
 21
251.983
  0
LINE
  8
0
 10
-117.674
 20
251.983
 11
-117.404
 21
252.396
  0
LINE
  8
0
 10
-117.404
 20
252.396
 11
-117.014
 21
252.699
  0
LINE
  8
0
 10
-117.014
 20
252.699
 11
-116.547
 21
252.86
  0
LINE
  8
0
 10
-116.547
 20
252.86
 11
-116.053
 21
252.86
  0
LINE
  8
0
 10
-116.053
 20
252.86
 11
-115.586
 21
252.699
  0
LINE
  8
0
 10
-115.586
 20
252.699
 11
-115.196
 21
252.396
  0
LINE
  8
0
 10
-115.196
 20
252.396
 11
-114.926
 21
251.983
  0
LINE
  8
0
 10
-114.926
 20
251.983
 11
-114.805
 21
251.504
  0
LINE
  8
0
 10
-114.805
 20
251.504
 11
-114.846
 21
251.012
  0
LINE
  8
0
 10
-114.846
 20
251.012
 11
-115.044
 21
250.56
  0
LINE
  8
0
 10
-115.044
 20
250.56
 11
-115.379
 21
250.196
  0
LINE
  8
0
 10
-115.379
 20
250.196
 11
-115.813
 21
249.961
  0
LINE
  8
0
 10
-115.813
 20
249.961
 11
-116.3
 21
249.88
  0
LINE
  8
0
 10
-116.3
 20
249.88
 11
-116.787
 21
249.961
  0
LINE
  8
0
 10
-116.787
 20
249.961
 11
-117.221
 21
250.196
  0
LINE
  8
0
 10
-117.221
 20
250.196
 11
-117.556
 21
250.56
  0
LINE
  8
0
 10
-117.556
 20
250.56
 11
-117.754
 21
251.012
  0
LINE
  8
0
 10
-117.754
 20
251.012
 11
-117.795
 21
251.504
  0
LINE
  8
0
 10
-117.795
 20
257.304
 11
-117.674
 21
257.783
  0
LINE
  8
0
 10
-117.674
 20
257.783
 11
-117.404
 21
258.196
  0
LINE
  8
0
 10
-117.404
 20
258.196
 11
-117.014
 21
258.499
  0
LINE
  8
0
 10
-117.014
 20
258.499
 11
-116.547
 21
258.66
  0
LINE
  8
0
 10
-116.547
 20
258.66
 11
-116.053
 21
258.66
  0
LINE
  8
0
 10
-116.053
 20
258.66
 11
-115.586
 21
258.499
  0
LINE
  8
0
 10
-115.586
 20
258.499
 11
-115.196
 21
258.196
  0
LINE
  8
0
 10
-115.196
 20
258.196
 11
-114.926
 21
257.783
  0
LINE
  8
0
 10
-114.926
 20
257.783
 11
-114.805
 21
257.304
  0
LINE
  8
0
 10
-114.805
 20
257.304
 11
-114.846
 21
256.812
  0
LINE
  8
0
 10
-114.846
 20
256.812
 11
-115.044
 21
256.36
  0
LINE
  8
0
 10
-115.044
 20
256.36
 11
-115.379
 21
255.996
  0
LINE
  8
0
 10
-115.379
 20
255.996
 11
-115.813
 21
255.761
  0
LINE
  8
0
 10
-115.813
 20
255.761
 11
-116.3
 21
255.68
  0
LINE
  8
0
 10
-116.3
 20
255.68
 11
-116.787
 21
255.761
  0
LINE
  8
0
 10
-116.787
 20
255.761
 11
-117.221
 21
255.996
  0
LINE
  8
0
 10
-117.221
 20
255.996
 11
-117.556
 21
256.36
  0
LINE
  8
0
 10
-117.556
 20
256.36
 11
-117.754
 21
256.812
  0
LINE
  8
0
 10
-117.754
 20
256.812
 11
-117.795
 21
257.304
  0
LINE
  8
0
 10
-116.945
 20
295.377
 11
-116.909
 21
295.867
  0
LINE
  8
0
 10
-116.909
 20
295.867
 11
-116.729
 21
296.325
  0
LINE
  8
0
 10
-116.729
 20
296.325
 11
-116.422
 21
296.71
  0
LINE
  8
0
 10
-116.422
 20
296.71
 11
-116.016
 21
296.987
  0
LINE
  8
0
 10
-116.016
 20
296.987
 11
-115.546
 21
297.132
  0
LINE
  8
0
 10
-115.546
 20
297.132
 11
-115.054
 21
297.132
  0
LINE
  8
0
 10
-115.054
 20
297.132
 11
-114.584
 21
296.987
  0
LINE
  8
0
 10
-114.584
 20
296.987
 11
-114.178
 21
296.71
  0
LINE
  8
0
 10
-114.178
 20
296.71
 11
-113.871
 21
296.325
  0
LINE
  8
0
 10
-113.871
 20
296.325
 11
-113.691
 21
295.867
  0
LINE
  8
0
 10
-113.691
 20
295.867
 11
-113.655
 21
295.377
  0
LINE
  8
0
 10
-113.655
 20
295.377
 11
-113.764
 21
294.897
  0
LINE
  8
0
 10
-113.764
 20
294.897
 11
-114.01
 21
294.471
  0
LINE
  8
0
 10
-114.01
 20
294.471
 11
-114.371
 21
294.137
  0
LINE
  8
0
 10
-114.371
 20
294.137
 11
-114.814
 21
293.923
  0
LINE
  8
0
 10
-114.814
 20
293.923
 11
-115.3
 21
293.85
  0
LINE
  8
0
 10
-115.3
 20
293.85
 11
-115.786
 21
293.923
  0
LINE
  8
0
 10
-115.786
 20
293.923
 11
-116.229
 21
294.137
  0
LINE
  8
0
 10
-116.229
 20
294.137
 11
-116.59
 21
294.471
  0
LINE
  8
0
 10
-116.59
 20
294.471
 11
-116.836
 21
294.897
  0
LINE
  8
0
 10
-116.836
 20
294.897
 11
-116.945
 21
295.377
  0
LINE
  8
0
 10
-112.795
 20
239.756
 11
-112.754
 21
240.248
  0
LINE
  8
0
 10
-112.754
 20
240.248
 11
-112.556
 21
240.7
  0
LINE
  8
0
 10
-112.556
 20
240.7
 11
-112.221
 21
241.064
  0
LINE
  8
0
 10
-112.221
 20
241.064
 11
-111.787
 21
241.299
  0
LINE
  8
0
 10
-111.787
 20
241.299
 11
-111.3
 21
241.38
  0
LINE
  8
0
 10
-111.3
 20
241.38
 11
-110.813
 21
241.299
  0
LINE
  8
0
 10
-110.813
 20
241.299
 11
-110.379
 21
241.064
  0
LINE
  8
0
 10
-110.379
 20
241.064
 11
-110.044
 21
240.7
  0
LINE
  8
0
 10
-110.044
 20
240.7
 11
-109.846
 21
240.248
  0
LINE
  8
0
 10
-109.846
 20
240.248
 11
-109.805
 21
239.756
  0
LINE
  8
0
 10
-109.805
 20
239.756
 11
-109.926
 21
239.277
  0
LINE
  8
0
 10
-109.926
 20
239.277
 11
-110.196
 21
238.864
  0
LINE
  8
0
 10
-110.196
 20
238.864
 11
-110.586
 21
238.561
  0
LINE
  8
0
 10
-110.586
 20
238.561
 11
-111.053
 21
238.4
  0
LINE
  8
0
 10
-111.053
 20
238.4
 11
-111.547
 21
238.4
  0
LINE
  8
0
 10
-111.547
 20
238.4
 11
-112.014
 21
238.561
  0
LINE
  8
0
 10
-112.014
 20
238.561
 11
-112.404
 21
238.864
  0
LINE
  8
0
 10
-112.404
 20
238.864
 11
-112.674
 21
239.277
  0
LINE
  8
0
 10
-112.674
 20
239.277
 11
-112.795
 21
239.756
  0
LINE
  8
0
 10
-112.795
 20
246.956
 11
-112.754
 21
247.448
  0
LINE
  8
0
 10
-112.754
 20
247.448
 11
-112.556
 21
247.9
  0
LINE
  8
0
 10
-112.556
 20
247.9
 11
-112.221
 21
248.264
  0
LINE
  8
0
 10
-112.221
 20
248.264
 11
-111.787
 21
248.499
  0
LINE
  8
0
 10
-111.787
 20
248.499
 11
-111.3
 21
248.58
  0
LINE
  8
0
 10
-111.3
 20
248.58
 11
-110.813
 21
248.499
  0
LINE
  8
0
 10
-110.813
 20
248.499
 11
-110.379
 21
248.264
  0
LINE
  8
0
 10
-110.379
 20
248.264
 11
-110.044
 21
247.9
  0
LINE
  8
0
 10
-110.044
 20
247.9
 11
-109.846
 21
247.448
  0
LINE
  8
0
 10
-109.846
 20
247.448
 11
-109.805
 21
246.956
  0
LINE
  8
0
 10
-109.805
 20
246.956
 11
-109.926
 21
246.477
  0
LINE
  8
0
 10
-109.926
 20
246.477
 11
-110.196
 21
246.064
  0
LINE
  8
0
 10
-110.196
 20
246.064
 11
-110.586
 21
245.761
  0
LINE
  8
0
 10
-110.586
 20
245.761
 11
-111.053
 21
245.6
  0
LINE
  8
0
 10
-111.053
 20
245.6
 11
-111.547
 21
245.6
  0
LINE
  8
0
 10
-111.547
 20
245.6
 11
-112.014
 21
245.761
  0
LINE
  8
0
 10
-112.014
 20
245.761
 11
-112.404
 21
246.064
  0
LINE
  8
0
 10
-112.404
 20
246.064
 11
-112.674
 21
246.477
  0
LINE
  8
0
 10
-112.674
 20
246.477
 11
-112.795
 21
246.956
  0
LINE
  8
0
 10
-112.55
 20
6.65
 11
-112.477
 21
7.13635
  0
LINE
  8
0
 10
-112.477
 20
7.13635
 11
-112.263
 21
7.57948
  0
LINE
  8
0
 10
-112.263
 20
7.57948
 11
-111.929
 21
7.94002
  0
LINE
  8
0
 10
-111.929
 20
7.94002
 11
-111.503
 21
8.18594
  0
LINE
  8
0
 10
-111.503
 20
8.18594
 11
-111.023
 21
8.29539
  0
LINE
  8
0
 10
-111.023
 20
8.29539
 11
-110.533
 21
8.25863
  0
LINE
  8
0
 10
-110.533
 20
8.25863
 11
-110.075
 21
8.07894
  0
LINE
  8
0
 10
-110.075
 20
8.07894
 11
-109.69
 21
7.77228
  0
LINE
  8
0
 10
-109.69
 20
7.77228
 11
-109.413
 21
7.36591
  0
LINE
  8
0
 10
-109.413
 20
7.36591
 11
-109.268
 21
6.89592
  0
LINE
  8
0
 10
-109.268
 20
6.89592
 11
-109.268
 21
6.40408
  0
LINE
  8
0
 10
-109.268
 20
6.40408
 11
-109.413
 21
5.93409
  0
LINE
  8
0
 10
-109.413
 20
5.93409
 11
-109.69
 21
5.52771
  0
LINE
  8
0
 10
-109.69
 20
5.52771
 11
-110.075
 21
5.22106
  0
LINE
  8
0
 10
-110.075
 20
5.22106
 11
-110.533
 21
5.04137
  0
LINE
  8
0
 10
-110.533
 20
5.04137
 11
-111.023
 21
5.00461
  0
LINE
  8
0
 10
-111.023
 20
5.00461
 11
-111.503
 21
5.11406
  0
LINE
  8
0
 10
-111.503
 20
5.11406
 11
-111.929
 21
5.35998
  0
LINE
  8
0
 10
-111.929
 20
5.35998
 11
-112.263
 21
5.72052
  0
LINE
  8
0
 10
-112.263
 20
5.72052
 11
-112.477
 21
6.16365
  0
LINE
  8
0
 10
-112.477
 20
6.16365
 11
-112.55
 21
6.65
  0
LINE
  8
0
 10
71.8051
 20
251.504
 11
71.9263
 21
251.983
  0
LINE
  8
0
 10
71.9263
 20
251.983
 11
72.1964
 21
252.396
  0
LINE
  8
0
 10
72.1964
 20
252.396
 11
72.5861
 21
252.699
  0
LINE
  8
0
 10
72.5861
 20
252.699
 11
73.0531
 21
252.86
  0
LINE
  8
0
 10
73.0531
 20
252.86
 11
73.5469
 21
252.86
  0
LINE
  8
0
 10
73.5469
 20
252.86
 11
74.0139
 21
252.699
  0
LINE
  8
0
 10
74.0139
 20
252.699
 11
74.4036
 21
252.396
  0
LINE
  8
0
 10
74.4036
 20
252.396
 11
74.6737
 21
251.983
  0
LINE
  8
0
 10
74.6737
 20
251.983
 11
74.7949
 21
251.504
  0
LINE
  8
0
 10
74.7949
 20
251.504
 11
74.7541
 21
251.012
  0
LINE
  8
0
 10
74.7541
 20
251.012
 11
74.5558
 21
250.56
  0
LINE
  8
0
 10
74.5558
 20
250.56
 11
74.2213
 21
250.196
  0
LINE
  8
0
 10
74.2213
 20
250.196
 11
73.7871
 21
249.961
  0
LINE
  8
0
 10
73.7871
 20
249.961
 11
73.3
 21
249.88
  0
LINE
  8
0
 10
73.3
 20
249.88
 11
72.813
 21
249.961
  0
LINE
  8
0
 10
72.813
 20
249.961
 11
72.3787
 21
250.196
  0
LINE
  8
0
 10
72.3787
 20
250.196
 11
72.0443
 21
250.56
  0
LINE
  8
0
 10
72.0443
 20
250.56
 11
71.8459
 21
251.012
  0
LINE
  8
0
 10
71.8459
 20
251.012
 11
71.8051
 21
251.504
  0
LINE
  8
0
 10
71.8051
 20
257.304
 11
71.9263
 21
257.783
  0
LINE
  8
0
 10
71.9263
 20
257.783
 11
72.1964
 21
258.196
  0
LINE
  8
0
 10
72.1964
 20
258.196
 11
72.5861
 21
258.499
  0
LINE
  8
0
 10
72.5861
 20
258.499
 11
73.0531
 21
258.66
  0
LINE
  8
0
 10
73.0531
 20
258.66
 11
73.5469
 21
258.66
  0
LINE
  8
0
 10
73.5469
 20
258.66
 11
74.0139
 21
258.499
  0
LINE
  8
0
 10
74.0139
 20
258.499
 11
74.4036
 21
258.196
  0
LINE
  8
0
 10
74.4036
 20
258.196
 11
74.6737
 21
257.783
  0
LINE
  8
0
 10
74.6737
 20
257.783
 11
74.7949
 21
257.304
  0
LINE
  8
0
 10
74.7949
 20
257.304
 11
74.7541
 21
256.812
  0
LINE
  8
0
 10
74.7541
 20
256.812
 11
74.5558
 21
256.36
  0
LINE
  8
0
 10
74.5558
 20
256.36
 11
74.2213
 21
255.996
  0
LINE
  8
0
 10
74.2213
 20
255.996
 11
73.7871
 21
255.761
  0
LINE
  8
0
 10
73.7871
 20
255.761
 11
73.3
 21
255.68
  0
LINE
  8
0
 10
73.3
 20
255.68
 11
72.813
 21
255.761
  0
LINE
  8
0
 10
72.813
 20
255.761
 11
72.3787
 21
255.996
  0
LINE
  8
0
 10
72.3787
 20
255.996
 11
72.0443
 21
256.36
  0
LINE
  8
0
 10
72.0443
 20
256.36
 11
71.8459
 21
256.812
  0
LINE
  8
0
 10
71.8459
 20
256.812
 11
71.8051
 21
257.304
  0
LINE
  8
0
 10
76.8051
 20
239.756
 11
76.8459
 21
240.248
  0
LINE
  8
0
 10
76.8459
 20
240.248
 11
77.0442
 21
240.7
  0
LINE
  8
0
 10
77.0442
 20
240.7
 11
77.3787
 21
241.064
  0
LINE
  8
0
 10
77.3787
 20
241.064
 11
77.8129
 21
241.299
  0
LINE
  8
0
 10
77.8129
 20
241.299
 11
78.3
 21
241.38
  0
LINE
  8
0
 10
78.3
 20
241.38
 11
78.787
 21
241.299
  0
LINE
  8
0
 10
78.787
 20
241.299
 11
79.2213
 21
241.064
  0
LINE
  8
0
 10
79.2213
 20
241.064
 11
79.5557
 21
240.7
  0
LINE
  8
0
 10
79.5557
 20
240.7
 11
79.7541
 21
240.248
  0
LINE
  8
0
 10
79.7541
 20
240.248
 11
79.7949
 21
239.756
  0
LINE
  8
0
 10
79.7949
 20
239.756
 11
79.6737
 21
239.277
  0
LINE
  8
0
 10
79.6737
 20
239.277
 11
79.4036
 21
238.864
  0
LINE
  8
0
 10
79.4036
 20
238.864
 11
79.0139
 21
238.561
  0
LINE
  8
0
 10
79.0139
 20
238.561
 11
78.5469
 21
238.4
  0
LINE
  8
0
 10
78.5469
 20
238.4
 11
78.0531
 21
238.4
  0
LINE
  8
0
 10
78.0531
 20
238.4
 11
77.5861
 21
238.561
  0
LINE
  8
0
 10
77.5861
 20
238.561
 11
77.1964
 21
238.864
  0
LINE
  8
0
 10
77.1964
 20
238.864
 11
76.9263
 21
239.277
  0
LINE
  8
0
 10
76.9263
 20
239.277
 11
76.8051
 21
239.756
  0
LINE
  8
0
 10
76.8051
 20
246.956
 11
76.8459
 21
247.448
  0
LINE
  8
0
 10
76.8459
 20
247.448
 11
77.0442
 21
247.9
  0
LINE
  8
0
 10
77.0442
 20
247.9
 11
77.3787
 21
248.264
  0
LINE
  8
0
 10
77.3787
 20
248.264
 11
77.8129
 21
248.499
  0
LINE
  8
0
 10
77.8129
 20
248.499
 11
78.3
 21
248.58
  0
LINE
  8
0
 10
78.3
 20
248.58
 11
78.787
 21
248.499
  0
LINE
  8
0
 10
78.787
 20
248.499
 11
79.2213
 21
248.264
  0
LINE
  8
0
 10
79.2213
 20
248.264
 11
79.5557
 21
247.9
  0
LINE
  8
0
 10
79.5557
 20
247.9
 11
79.7541
 21
247.448
  0
LINE
  8
0
 10
79.7541
 20
247.448
 11
79.7949
 21
246.956
  0
LINE
  8
0
 10
79.7949
 20
246.956
 11
79.6737
 21
246.477
  0
LINE
  8
0
 10
79.6737
 20
246.477
 11
79.4036
 21
246.064
  0
LINE
  8
0
 10
79.4036
 20
246.064
 11
79.0139
 21
245.761
  0
LINE
  8
0
 10
79.0139
 20
245.761
 11
78.5469
 21
245.6
  0
LINE
  8
0
 10
78.5469
 20
245.6
 11
78.0531
 21
245.6
  0
LINE
  8
0
 10
78.0531
 20
245.6
 11
77.5861
 21
245.761
  0
LINE
  8
0
 10
77.5861
 20
245.761
 11
77.1964
 21
246.064
  0
LINE
  8
0
 10
77.1964
 20
246.064
 11
76.9263
 21
246.477
  0
LINE
  8
0
 10
76.9263
 20
246.477
 11
76.8051
 21
246.956
  0
LINE
  8
0
 10
79.5046
 20
28.6867
 11
79.5414
 21
29.1772
  0
LINE
  8
0
 10
79.5414
 20
29.1772
 11
79.7211
 21
29.635
  0
LINE
  8
0
 10
79.7211
 20
29.635
 11
80.0277
 21
30.0195
  0
LINE
  8
0
 10
80.0277
 20
30.0195
 11
80.4341
 21
30.2966
  0
LINE
  8
0
 10
80.4341
 20
30.2966
 11
80.9041
 21
30.4416
  0
LINE
  8
0
 10
80.9041
 20
30.4416
 11
81.3959
 21
30.4416
  0
LINE
  8
0
 10
81.3959
 20
30.4416
 11
81.8659
 21
30.2966
  0
LINE
  8
0
 10
81.8659
 20
30.2966
 11
82.2723
 21
30.0195
  0
LINE
  8
0
 10
82.2723
 20
30.0195
 11
82.5789
 21
29.635
  0
LINE
  8
0
 10
82.5789
 20
29.635
 11
82.7586
 21
29.1772
  0
LINE
  8
0
 10
82.7586
 20
29.1772
 11
82.7954
 21
28.6867
  0
LINE
  8
0
 10
82.7954
 20
28.6867
 11
82.6859
 21
28.2072
  0
LINE
  8
0
 10
82.6859
 20
28.2072
 11
82.44
 21
27.7812
  0
LINE
  8
0
 10
82.44
 20
27.7812
 11
82.0795
 21
27.4467
  0
LINE
  8
0
 10
82.0795
 20
27.4467
 11
81.6363
 21
27.2333
  0
LINE
  8
0
 10
81.6363
 20
27.2333
 11
81.15
 21
27.16
  0
LINE
  8
0
 10
81.15
 20
27.16
 11
80.6637
 21
27.2333
  0
LINE
  8
0
 10
80.6637
 20
27.2333
 11
80.2205
 21
27.4467
  0
LINE
  8
0
 10
80.2205
 20
27.4467
 11
79.86
 21
27.7812
  0
LINE
  8
0
 10
79.86
 20
27.7812
 11
79.6141
 21
28.2072
  0
LINE
  8
0
 10
79.6141
 20
28.2072
 11
79.5046
 21
28.6867
  0
LINE
  8
0
 10
79.5046
 20
273.067
 11
79.5414
 21
273.557
  0
LINE
  8
0
 10
79.5414
 20
273.557
 11
79.7211
 21
274.015
  0
LINE
  8
0
 10
79.7211
 20
274.015
 11
80.0277
 21
274.4
  0
LINE
  8
0
 10
80.0277
 20
274.4
 11
80.4341
 21
274.677
  0
LINE
  8
0
 10
80.4341
 20
274.677
 11
80.9041
 21
274.822
  0
LINE
  8
0
 10
80.9041
 20
274.822
 11
81.3959
 21
274.822
  0
LINE
  8
0
 10
81.3959
 20
274.822
 11
81.8659
 21
274.677
  0
LINE
  8
0
 10
81.8659
 20
274.677
 11
82.2723
 21
274.4
  0
LINE
  8
0
 10
82.2723
 20
274.4
 11
82.5789
 21
274.015
  0
LINE
  8
0
 10
82.5789
 20
274.015
 11
82.7586
 21
273.557
  0
LINE
  8
0
 10
82.7586
 20
273.557
 11
82.7954
 21
273.067
  0
LINE
  8
0
 10
82.7954
 20
273.067
 11
82.6859
 21
272.587
  0
LINE
  8
0
 10
82.6859
 20
272.587
 11
82.44
 21
272.161
  0
LINE
  8
0
 10
82.44
 20
272.161
 11
82.0795
 21
271.827
  0
LINE
  8
0
 10
82.0795
 20
271.827
 11
81.6363
 21
271.613
  0
LINE
  8
0
 10
81.6363
 20
271.613
 11
81.15
 21
271.54
  0
LINE
  8
0
 10
81.15
 20
271.54
 11
80.6637
 21
271.613
  0
LINE
  8
0
 10
80.6637
 20
271.613
 11
80.2205
 21
271.827
  0
LINE
  8
0
 10
80.2205
 20
271.827
 11
79.86
 21
272.161
  0
LINE
  8
0
 10
79.86
 20
272.161
 11
79.6141
 21
272.587
  0
LINE
  8
0
 10
79.6141
 20
272.587
 11
79.5046
 21
273.067
  0
LINE
  8
0
 10
81.6546
 20
295.377
 11
81.6914
 21
295.867
  0
LINE
  8
0
 10
81.6914
 20
295.867
 11
81.8711
 21
296.325
  0
LINE
  8
0
 10
81.8711
 20
296.325
 11
82.1777
 21
296.71
  0
LINE
  8
0
 10
82.1777
 20
296.71
 11
82.5841
 21
296.987
  0
LINE
  8
0
 10
82.5841
 20
296.987
 11
83.0541
 21
297.132
  0
LINE
  8
0
 10
83.0541
 20
297.132
 11
83.5459
 21
297.132
  0
LINE
  8
0
 10
83.5459
 20
297.132
 11
84.0159
 21
296.987
  0
LINE
  8
0
 10
84.0159
 20
296.987
 11
84.4223
 21
296.71
  0
LINE
  8
0
 10
84.4223
 20
296.71
 11
84.7289
 21
296.325
  0
LINE
  8
0
 10
84.7289
 20
296.325
 11
84.9086
 21
295.867
  0
LINE
  8
0
 10
84.9086
 20
295.867
 11
84.9454
 21
295.377
  0
LINE
  8
0
 10
84.9454
 20
295.377
 11
84.8359
 21
294.897
  0
LINE
  8
0
 10
84.8359
 20
294.897
 11
84.59
 21
294.471
  0
LINE
  8
0
 10
84.59
 20
294.471
 11
84.2295
 21
294.137
  0
LINE
  8
0
 10
84.2295
 20
294.137
 11
83.7863
 21
293.923
  0
LINE
  8
0
 10
83.7863
 20
293.923
 11
83.3
 21
293.85
  0
LINE
  8
0
 10
83.3
 20
293.85
 11
82.8137
 21
293.923
  0
LINE
  8
0
 10
82.8137
 20
293.923
 11
82.3705
 21
294.137
  0
LINE
  8
0
 10
82.3705
 20
294.137
 11
82.01
 21
294.471
  0
LINE
  8
0
 10
82.01
 20
294.471
 11
81.7641
 21
294.897
  0
LINE
  8
0
 10
81.7641
 20
294.897
 11
81.6546
 21
295.377
  0
LINE
  8
0
 10
96.6546
 20
44.8733
 11
96.6546
 21
55.3733
  0
LINE
  8
0
 10
96.6546
 20
55.3733
 11
96.7641
 21
55.8528
  0
LINE
  8
0
 10
96.7641
 20
55.8528
 11
97.01
 21
56.2788
  0
LINE
  8
0
 10
97.01
 20
56.2788
 11
97.3705
 21
56.6133
  0
LINE
  8
0
 10
97.3705
 20
56.6133
 11
97.8137
 21
56.8267
  0
LINE
  8
0
 10
97.8137
 20
56.8267
 11
98.3
 21
56.9
  0
LINE
  8
0
 10
98.3
 20
56.9
 11
98.7863
 21
56.8267
  0
LINE
  8
0
 10
98.7863
 20
56.8267
 11
99.2295
 21
56.6133
  0
LINE
  8
0
 10
99.2295
 20
56.6133
 11
99.59
 21
56.2788
  0
LINE
  8
0
 10
99.59
 20
56.2788
 11
99.8359
 21
55.8528
  0
LINE
  8
0
 10
99.8359
 20
55.8528
 11
99.9454
 21
55.3733
  0
LINE
  8
0
 10
99.9454
 20
55.3733
 11
99.9454
 21
44.8733
  0
LINE
  8
0
 10
99.9454
 20
44.8733
 11
99.9086
 21
44.3828
  0
LINE
  8
0
 10
99.9086
 20
44.3828
 11
99.7289
 21
43.925
  0
LINE
  8
0
 10
99.7289
 20
43.925
 11
99.4223
 21
43.5405
  0
LINE
  8
0
 10
99.4223
 20
43.5405
 11
99.0159
 21
43.2634
  0
LINE
  8
0
 10
99.0159
 20
43.2634
 11
98.5459
 21
43.1184
  0
LINE
  8
0
 10
98.5459
 20
43.1184
 11
98.0541
 21
43.1184
  0
LINE
  8
0
 10
98.0541
 20
43.1184
 11
97.5841
 21
43.2634
  0
LINE
  8
0
 10
97.5841
 20
43.2634
 11
97.1777
 21
43.5405
  0
LINE
  8
0
 10
97.1777
 20
43.5405
 11
96.8711
 21
43.925
  0
LINE
  8
0
 10
96.8711
 20
43.925
 11
96.6914
 21
44.3828
  0
LINE
  8
0
 10
96.6914
 20
44.3828
 11
96.6546
 21
44.8733
  0
LINE
  8
0
 10
99.05
 20
6.65
 11
99.1233
 21
7.13635
  0
LINE
  8
0
 10
99.1233
 20
7.13635
 11
99.3367
 21
7.57948
  0
LINE
  8
0
 10
99.3367
 20
7.57948
 11
99.6712
 21
7.94002
  0
LINE
  8
0
 10
99.6712
 20
7.94002
 11
100.097
 21
8.18594
  0
LINE
  8
0
 10
100.097
 20
8.18594
 11
100.577
 21
8.29539
  0
LINE
  8
0
 10
100.577
 20
8.29539
 11
101.067
 21
8.25863
  0
LINE
  8
0
 10
101.067
 20
8.25863
 11
101.525
 21
8.07894
  0
LINE
  8
0
 10
101.525
 20
8.07894
 11
101.91
 21
7.77228
  0
LINE
  8
0
 10
101.91
 20
7.77228
 11
102.187
 21
7.36591
  0
LINE
  8
0
 10
102.187
 20
7.36591
 11
102.332
 21
6.89592
  0
LINE
  8
0
 10
102.332
 20
6.89592
 11
102.332
 21
6.40408
  0
LINE
  8
0
 10
102.332
 20
6.40408
 11
102.187
 21
5.93409
  0
LINE
  8
0
 10
102.187
 20
5.93409
 11
101.91
 21
5.52771
  0
LINE
  8
0
 10
101.91
 20
5.52771
 11
101.525
 21
5.22106
  0
LINE
  8
0
 10
101.525
 20
5.22106
 11
101.067
 21
5.04137
  0
LINE
  8
0
 10
101.067
 20
5.04137
 11
100.577
 21
5.00461
  0
LINE
  8
0
 10
100.577
 20
5.00461
 11
100.097
 21
5.11406
  0
LINE
  8
0
 10
100.097
 20
5.11406
 11
99.6712
 21
5.35998
  0
LINE
  8
0
 10
99.6712
 20
5.35998
 11
99.3367
 21
5.72052
  0
LINE
  8
0
 10
99.3367
 20
5.72052
 11
99.1233
 21
6.16365
  0
LINE
  8
0
 10
99.1233
 20
6.16365
 11
99.05
 21
6.65
  0
LINE
  8
0
 10
106.055
 20
295.377
 11
106.091
 21
295.867
  0
LINE
  8
0
 10
106.091
 20
295.867
 11
106.271
 21
296.325
  0
LINE
  8
0
 10
106.271
 20
296.325
 11
106.578
 21
296.71
  0
LINE
  8
0
 10
106.578
 20
296.71
 11
106.984
 21
296.987
  0
LINE
  8
0
 10
106.984
 20
296.987
 11
107.454
 21
297.132
  0
LINE
  8
0
 10
107.454
 20
297.132
 11
107.946
 21
297.132
  0
LINE
  8
0
 10
107.946
 20
297.132
 11
108.416
 21
296.987
  0
LINE
  8
0
 10
108.416
 20
296.987
 11
108.822
 21
296.71
  0
LINE
  8
0
 10
108.822
 20
296.71
 11
109.129
 21
296.325
  0
LINE
  8
0
 10
109.129
 20
296.325
 11
109.309
 21
295.867
  0
LINE
  8
0
 10
109.309
 20
295.867
 11
109.345
 21
295.377
  0
LINE
  8
0
 10
109.345
 20
295.377
 11
109.236
 21
294.897
  0
LINE
  8
0
 10
109.236
 20
294.897
 11
108.99
 21
294.471
  0
LINE
  8
0
 10
108.99
 20
294.471
 11
108.629
 21
294.137
  0
LINE
  8
0
 10
108.629
 20
294.137
 11
108.186
 21
293.923
  0
LINE
  8
0
 10
108.186
 20
293.923
 11
107.7
 21
293.85
  0
LINE
  8
0
 10
107.7
 20
293.85
 11
107.214
 21
293.923
  0
LINE
  8
0
 10
107.214
 20
293.923
 11
106.771
 21
294.137
  0
LINE
  8
0
 10
106.771
 20
294.137
 11
106.41
 21
294.471
  0
LINE
  8
0
 10
106.41
 20
294.471
 11
106.164
 21
294.897
  0
LINE
  8
0
 10
106.164
 20
294.897
 11
106.055
 21
295.377
  0
LINE
  8
0
 10
106.5
 20
16.8
 11
106.548
 21
17.2877
  0
LINE
  8
0
 10
106.548
 20
17.2877
 11
106.69
 21
17.7567
  0
LINE
  8
0
 10
106.69
 20
17.7567
 11
106.921
 21
18.1889
  0
LINE
  8
0
 10
106.921
 20
18.1889
 11
107.232
 21
18.5678
  0
LINE
  8
0
 10
107.232
 20
18.5678
 11
107.611
 21
18.8787
  0
LINE
  8
0
 10
107.611
 20
18.8787
 11
108.043
 21
19.1097
  0
LINE
  8
0
 10
108.043
 20
19.1097
 11
108.512
 21
19.252
  0
LINE
  8
0
 10
108.512
 20
19.252
 11
109
 21
19.3
  0
LINE
  8
0
 10
109
 20
19.3
 11
109.488
 21
19.252
  0
LINE
  8
0
 10
109.488
 20
19.252
 11
109.957
 21
19.1097
  0
LINE
  8
0
 10
109.957
 20
19.1097
 11
110.389
 21
18.8787
  0
LINE
  8
0
 10
110.389
 20
18.8787
 11
110.768
 21
18.5678
  0
LINE
  8
0
 10
110.768
 20
18.5678
 11
111.079
 21
18.1889
  0
LINE
  8
0
 10
111.079
 20
18.1889
 11
111.31
 21
17.7567
  0
LINE
  8
0
 10
111.31
 20
17.7567
 11
111.452
 21
17.2877
  0
LINE
  8
0
 10
111.452
 20
17.2877
 11
111.5
 21
16.8
  0
LINE
  8
0
 10
111.5
 20
16.8
 11
111.452
 21
16.3123
  0
LINE
  8
0
 10
111.452
 20
16.3123
 11
111.31
 21
15.8433
  0
LINE
  8
0
 10
111.31
 20
15.8433
 11
111.079
 21
15.4111
  0
LINE
  8
0
 10
111.079
 20
15.4111
 11
110.768
 21
15.0322
  0
LINE
  8
0
 10
110.768
 20
15.0322
 11
110.389
 21
14.7213
  0
LINE
  8
0
 10
110.389
 20
14.7213
 11
109.957
 21
14.4903
  0
LINE
  8
0
 10
109.957
 20
14.4903
 11
109.488
 21
14.348
  0
LINE
  8
0
 10
109.488
 20
14.348
 11
109
 21
14.3
  0
LINE
  8
0
 10
109
 20
14.3
 11
108.512
 21
14.348
  0
LINE
  8
0
 10
108.512
 20
14.348
 11
108.043
 21
14.4903
  0
LINE
  8
0
 10
108.043
 20
14.4903
 11
107.611
 21
14.7213
  0
LINE
  8
0
 10
107.611
 20
14.7213
 11
107.232
 21
15.0322
  0
LINE
  8
0
 10
107.232
 20
15.0322
 11
106.921
 21
15.4111
  0
LINE
  8
0
 10
106.921
 20
15.4111
 11
106.69
 21
15.8433
  0
LINE
  8
0
 10
106.69
 20
15.8433
 11
106.548
 21
16.3123
  0
LINE
  8
0
 10
106.548
 20
16.3123
 11
106.5
 21
16.8
  0
LINE
  8
0
 10
116.27
 20
6.65
 11
116.343
 21
7.13635
  0
LINE
  8
0
 10
116.343
 20
7.13635
 11
116.557
 21
7.57948
  0
LINE
  8
0
 10
116.557
 20
7.57948
 11
116.891
 21
7.94002
  0
LINE
  8
0
 10
116.891
 20
7.94002
 11
117.317
 21
8.18594
  0
LINE
  8
0
 10
117.317
 20
8.18594
 11
117.797
 21
8.29539
  0
LINE
  8
0
 10
117.797
 20
8.29539
 11
118.287
 21
8.25863
  0
LINE
  8
0
 10
118.287
 20
8.25863
 11
118.745
 21
8.07894
  0
LINE
  8
0
 10
118.745
 20
8.07894
 11
119.13
 21
7.77228
  0
LINE
  8
0
 10
119.13
 20
7.77228
 11
119.407
 21
7.36591
  0
LINE
  8
0
 10
119.407
 20
7.36591
 11
119.552
 21
6.89592
  0
LINE
  8
0
 10
119.552
 20
6.89592
 11
119.552
 21
6.40408
  0
LINE
  8
0
 10
119.552
 20
6.40408
 11
119.407
 21
5.93409
  0
LINE
  8
0
 10
119.407
 20
5.93409
 11
119.13
 21
5.52771
  0
LINE
  8
0
 10
119.13
 20
5.52771
 11
118.745
 21
5.22106
  0
LINE
  8
0
 10
118.745
 20
5.22106
 11
118.287
 21
5.04137
  0
LINE
  8
0
 10
118.287
 20
5.04137
 11
117.797
 21
5.00461
  0
LINE
  8
0
 10
117.797
 20
5.00461
 11
117.317
 21
5.11406
  0
LINE
  8
0
 10
117.317
 20
5.11406
 11
116.891
 21
5.35998
  0
LINE
  8
0
 10
116.891
 20
5.35998
 11
116.557
 21
5.72052
  0
LINE
  8
0
 10
116.557
 20
5.72052
 11
116.343
 21
6.16365
  0
LINE
  8
0
 10
116.343
 20
6.16365
 11
116.27
 21
6.65
  0
LINE
  8
0
 10
121.055
 20
44.8733
 11
121.055
 21
55.3733
  0
LINE
  8
0
 10
121.055
 20
55.3733
 11
121.164
 21
55.8528
  0
LINE
  8
0
 10
121.164
 20
55.8528
 11
121.41
 21
56.2788
  0
LINE
  8
0
 10
121.41
 20
56.2788
 11
121.771
 21
56.6133
  0
LINE
  8
0
 10
121.771
 20
56.6133
 11
122.214
 21
56.8267
  0
LINE
  8
0
 10
122.214
 20
56.8267
 11
122.7
 21
56.9
  0
LINE
  8
0
 10
122.7
 20
56.9
 11
123.186
 21
56.8267
  0
LINE
  8
0
 10
123.186
 20
56.8267
 11
123.629
 21
56.6133
  0
LINE
  8
0
 10
123.629
 20
56.6133
 11
123.99
 21
56.2788
  0
LINE
  8
0
 10
123.99
 20
56.2788
 11
124.236
 21
55.8528
  0
LINE
  8
0
 10
124.236
 20
55.8528
 11
124.345
 21
55.3733
  0
LINE
  8
0
 10
124.345
 20
55.3733
 11
124.345
 21
44.8733
  0
LINE
  8
0
 10
124.345
 20
44.8733
 11
124.309
 21
44.3828
  0
LINE
  8
0
 10
124.309
 20
44.3828
 11
124.129
 21
43.925
  0
LINE
  8
0
 10
124.129
 20
43.925
 11
123.822
 21
43.5405
  0
LINE
  8
0
 10
123.822
 20
43.5405
 11
123.416
 21
43.2634
  0
LINE
  8
0
 10
123.416
 20
43.2634
 11
122.946
 21
43.1184
  0
LINE
  8
0
 10
122.946
 20
43.1184
 11
122.454
 21
43.1184
  0
LINE
  8
0
 10
122.454
 20
43.1184
 11
121.984
 21
43.2634
  0
LINE
  8
0
 10
121.984
 20
43.2634
 11
121.578
 21
43.5405
  0
LINE
  8
0
 10
121.578
 20
43.5405
 11
121.271
 21
43.925
  0
LINE
  8
0
 10
121.271
 20
43.925
 11
121.091
 21
44.3828
  0
LINE
  8
0
 10
121.091
 20
44.3828
 11
121.055
 21
44.8733
  0
LINE
  8
0
 10
128.518
 20
277.454
 11
128.518
 21
277.946
  0
LINE
  8
0
 10
128.518
 20
277.946
 11
128.663
 21
278.416
  0
LINE
  8
0
 10
128.663
 20
278.416
 11
128.94
 21
278.822
  0
LINE
  8
0
 10
128.94
 20
278.822
 11
129.325
 21
279.129
  0
LINE
  8
0
 10
129.325
 20
279.129
 11
129.783
 21
279.309
  0
LINE
  8
0
 10
129.783
 20
279.309
 11
130.273
 21
279.345
  0
LINE
  8
0
 10
130.273
 20
279.345
 11
130.753
 21
279.236
  0
LINE
  8
0
 10
130.753
 20
279.236
 11
131.179
 21
278.99
  0
LINE
  8
0
 10
131.179
 20
278.99
 11
131.513
 21
278.629
  0
LINE
  8
0
 10
131.513
 20
278.629
 11
131.727
 21
278.186
  0
LINE
  8
0
 10
131.727
 20
278.186
 11
131.8
 21
277.7
  0
LINE
  8
0
 10
131.8
 20
277.7
 11
131.727
 21
277.214
  0
LINE
  8
0
 10
131.727
 20
277.214
 11
131.513
 21
276.771
  0
LINE
  8
0
 10
131.513
 20
276.771
 11
131.179
 21
276.41
  0
LINE
  8
0
 10
131.179
 20
276.41
 11
130.753
 21
276.164
  0
LINE
  8
0
 10
130.753
 20
276.164
 11
130.273
 21
276.055
  0
LINE
  8
0
 10
130.273
 20
276.055
 11
129.783
 21
276.091
  0
LINE
  8
0
 10
129.783
 20
276.091
 11
129.325
 21
276.271
  0
LINE
  8
0
 10
129.325
 20
276.271
 11
128.94
 21
276.578
  0
LINE
  8
0
 10
128.94
 20
276.578
 11
128.663
 21
276.984
  0
LINE
  8
0
 10
128.663
 20
276.984
 11
128.518
 21
277.454
  0
LINE
  8
0
 10
132.05
 20
287.7
 11
132.145
 21
288.178
  0
LINE
  8
0
 10
132.145
 20
288.178
 11
132.416
 21
288.584
  0
LINE
  8
0
 10
132.416
 20
288.584
 11
132.822
 21
288.855
  0
LINE
  8
0
 10
132.822
 20
288.855
 11
133.3
 21
288.95
  0
LINE
  8
0
 10
133.3
 20
288.95
 11
160.7
 21
288.95
  0
LINE
  8
0
 10
160.7
 20
288.95
 11
161.178
 21
288.855
  0
LINE
  8
0
 10
161.178
 20
288.855
 11
161.584
 21
288.584
  0
LINE
  8
0
 10
161.584
 20
288.584
 11
161.855
 21
288.178
  0
LINE
  8
0
 10
161.855
 20
288.178
 11
161.95
 21
287.7
  0
LINE
  8
0
 10
161.95
 20
287.7
 11
161.855
 21
287.222
  0
LINE
  8
0
 10
161.855
 20
287.222
 11
161.584
 21
286.816
  0
LINE
  8
0
 10
161.584
 20
286.816
 11
161.178
 21
286.545
  0
LINE
  8
0
 10
161.178
 20
286.545
 11
160.7
 21
286.45
  0
LINE
  8
0
 10
160.7
 20
286.45
 11
133.3
 21
286.45
  0
LINE
  8
0
 10
133.3
 20
286.45
 11
132.822
 21
286.545
  0
LINE
  8
0
 10
132.822
 20
286.545
 11
132.416
 21
286.816
  0
LINE
  8
0
 10
132.416
 20
286.816
 11
132.145
 21
287.222
  0
LINE
  8
0
 10
132.145
 20
287.222
 11
132.05
 21
287.7
  0
LINE
  8
0
 10
146.23
 20
6.65
 11
146.303
 21
7.13635
  0
LINE
  8
0
 10
146.303
 20
7.13635
 11
146.517
 21
7.57948
  0
LINE
  8
0
 10
146.517
 20
7.57948
 11
146.851
 21
7.94002
  0
LINE
  8
0
 10
146.851
 20
7.94002
 11
147.277
 21
8.18594
  0
LINE
  8
0
 10
147.277
 20
8.18594
 11
147.757
 21
8.29539
  0
LINE
  8
0
 10
147.757
 20
8.29539
 11
148.247
 21
8.25863
  0
LINE
  8
0
 10
148.247
 20
8.25863
 11
148.705
 21
8.07894
  0
LINE
  8
0
 10
148.705
 20
8.07894
 11
149.09
 21
7.77228
  0
LINE
  8
0
 10
149.09
 20
7.77228
 11
149.367
 21
7.36591
  0
LINE
  8
0
 10
149.367
 20
7.36591
 11
149.512
 21
6.89592
  0
LINE
  8
0
 10
149.512
 20
6.89592
 11
149.512
 21
6.40408
  0
LINE
  8
0
 10
149.512
 20
6.40408
 11
149.367
 21
5.93409
  0
LINE
  8
0
 10
149.367
 20
5.93409
 11
149.09
 21
5.52771
  0
LINE
  8
0
 10
149.09
 20
5.52771
 11
148.705
 21
5.22106
  0
LINE
  8
0
 10
148.705
 20
5.22106
 11
148.247
 21
5.04137
  0
LINE
  8
0
 10
148.247
 20
5.04137
 11
147.757
 21
5.00461
  0
LINE
  8
0
 10
147.757
 20
5.00461
 11
147.277
 21
5.11406
  0
LINE
  8
0
 10
147.277
 20
5.11406
 11
146.851
 21
5.35998
  0
LINE
  8
0
 10
146.851
 20
5.35998
 11
146.517
 21
5.72052
  0
LINE
  8
0
 10
146.517
 20
5.72052
 11
146.303
 21
6.16365
  0
LINE
  8
0
 10
146.303
 20
6.16365
 11
146.23
 21
6.65
  0
LINE
  8
0
 10
162.218
 20
277.454
 11
162.218
 21
277.946
  0
LINE
  8
0
 10
162.218
 20
277.946
 11
162.363
 21
278.416
  0
LINE
  8
0
 10
162.363
 20
278.416
 11
162.64
 21
278.822
  0
LINE
  8
0
 10
162.64
 20
278.822
 11
163.025
 21
279.129
  0
LINE
  8
0
 10
163.025
 20
279.129
 11
163.483
 21
279.309
  0
LINE
  8
0
 10
163.483
 20
279.309
 11
163.973
 21
279.345
  0
LINE
  8
0
 10
163.973
 20
279.345
 11
164.453
 21
279.236
  0
LINE
  8
0
 10
164.453
 20
279.236
 11
164.879
 21
278.99
  0
LINE
  8
0
 10
164.879
 20
278.99
 11
165.213
 21
278.629
  0
LINE
  8
0
 10
165.213
 20
278.629
 11
165.427
 21
278.186
  0
LINE
  8
0
 10
165.427
 20
278.186
 11
165.5
 21
277.7
  0
LINE
  8
0
 10
165.5
 20
277.7
 11
165.427
 21
277.214
  0
LINE
  8
0
 10
165.427
 20
277.214
 11
165.213
 21
276.771
  0
LINE
  8
0
 10
165.213
 20
276.771
 11
164.879
 21
276.41
  0
LINE
  8
0
 10
164.879
 20
276.41
 11
164.453
 21
276.164
  0
LINE
  8
0
 10
164.453
 20
276.164
 11
163.973
 21
276.055
  0
LINE
  8
0
 10
163.973
 20
276.055
 11
163.483
 21
276.091
  0
LINE
  8
0
 10
163.483
 20
276.091
 11
163.025
 21
276.271
  0
LINE
  8
0
 10
163.025
 20
276.271
 11
162.64
 21
276.578
  0
LINE
  8
0
 10
162.64
 20
276.578
 11
162.363
 21
276.984
  0
LINE
  8
0
 10
162.363
 20
276.984
 11
162.218
 21
277.454
  0
LINE
  8
0
 10
163.45
 20
6.65
 11
163.523
 21
7.13635
  0
LINE
  8
0
 10
163.523
 20
7.13635
 11
163.737
 21
7.57948
  0
LINE
  8
0
 10
163.737
 20
7.57948
 11
164.071
 21
7.94002
  0
LINE
  8
0
 10
164.071
 20
7.94002
 11
164.497
 21
8.18594
  0
LINE
  8
0
 10
164.497
 20
8.18594
 11
164.977
 21
8.29539
  0
LINE
  8
0
 10
164.977
 20
8.29539
 11
165.467
 21
8.25863
  0
LINE
  8
0
 10
165.467
 20
8.25863
 11
165.925
 21
8.07894
  0
LINE
  8
0
 10
165.925
 20
8.07894
 11
166.31
 21
7.77228
  0
LINE
  8
0
 10
166.31
 20
7.77228
 11
166.587
 21
7.36591
  0
LINE
  8
0
 10
166.587
 20
7.36591
 11
166.732
 21
6.89592
  0
LINE
  8
0
 10
166.732
 20
6.89592
 11
166.732
 21
6.40408
  0
LINE
  8
0
 10
166.732
 20
6.40408
 11
166.587
 21
5.93409
  0
LINE
  8
0
 10
166.587
 20
5.93409
 11
166.31
 21
5.52771
  0
LINE
  8
0
 10
166.31
 20
5.52771
 11
165.925
 21
5.22106
  0
LINE
  8
0
 10
165.925
 20
5.22106
 11
165.467
 21
5.04137
  0
LINE
  8
0
 10
165.467
 20
5.04137
 11
164.977
 21
5.00461
  0
LINE
  8
0
 10
164.977
 20
5.00461
 11
164.497
 21
5.11406
  0
LINE
  8
0
 10
164.497
 20
5.11406
 11
164.071
 21
5.35998
  0
LINE
  8
0
 10
164.071
 20
5.35998
 11
163.737
 21
5.72052
  0
LINE
  8
0
 10
163.737
 20
5.72052
 11
163.523
 21
6.16365
  0
LINE
  8
0
 10
163.523
 20
6.16365
 11
163.45
 21
6.65
  0
ENDSEC
  0
SECTION
  2
OBJECTS
  0
DICTIONARY
  0
ENDSEC
  0
EOF
