<?xml version="1.0"?>
<svg xmlns="http://www.w3.org/2000/svg" version="1.1" height="312mm" width="354mm" >
 <g style="fill-opacity:1.0; stroke:black; stroke-width:1;">
  <line x1="31.020000mm" y1="302.000000mm" x2="31.020000mm" y2="302.000000mm" />
  <line x1="31.020000mm" y1="302.000000mm" x2="31.020000mm" y2="299.500000mm" />
  <line x1="31.020000mm" y1="299.500000mm" x2="31.068000mm" y2="299.012280mm" />
  <line x1="31.068000mm" y1="299.012280mm" x2="31.210000mm" y2="298.543300mm" />
  <line x1="31.210000mm" y1="298.543300mm" x2="31.441000mm" y2="298.111080mm" />
  <line x1="31.441000mm" y1="298.111080mm" x2="31.752000mm" y2="297.732240mm" />
  <line x1="31.752000mm" y1="297.732240mm" x2="32.131000mm" y2="297.421340mm" />
  <line x1="32.131000mm" y1="297.421340mm" x2="32.563000mm" y2="297.190310mm" />
  <line x1="32.563000mm" y1="297.190310mm" x2="33.032000mm" y2="297.048050mm" />
  <line x1="33.032000mm" y1="297.048050mm" x2="33.520000mm" y2="297.000000mm" />
  <line x1="33.520000mm" y1="297.000000mm" x2="34.008000mm" y2="297.048050mm" />
  <line x1="34.008000mm" y1="297.048050mm" x2="34.477000mm" y2="297.190310mm" />
  <line x1="34.477000mm" y1="297.190310mm" x2="34.909000mm" y2="297.421340mm" />
  <line x1="34.909000mm" y1="297.421340mm" x2="35.288000mm" y2="297.732240mm" />
  <line x1="35.288000mm" y1="297.732240mm" x2="35.599000mm" y2="298.111080mm" />
  <line x1="35.599000mm" y1="298.111080mm" x2="35.830000mm" y2="298.543300mm" />
  <line x1="35.830000mm" y1="298.543300mm" x2="35.972000mm" y2="299.012280mm" />
  <line x1="35.972000mm" y1="299.012280mm" x2="36.020000mm" y2="299.500020mm" />
  <line x1="36.020000mm" y1="299.500020mm" x2="36.020000mm" y2="302.000000mm" />
  <line x1="36.020000mm" y1="302.000000mm" x2="68.000000mm" y2="302.000000mm" />
  <line x1="68.000000mm" y1="302.000000mm" x2="68.000000mm" y2="95.900000mm" />
  <line x1="68.000000mm" y1="95.900000mm" x2="68.006000mm" y2="95.651000mm" />
  <line x1="68.006000mm" y1="95.651000mm" x2="68.056000mm" y2="95.155000mm" />
  <line x1="68.056000mm" y1="95.155000mm" x2="68.155000mm" y2="94.666000mm" />
  <line x1="68.155000mm" y1="94.666000mm" x2="68.302000mm" y2="94.190000mm" />
  <line x1="68.302000mm" y1="94.190000mm" x2="68.495000mm" y2="93.731000mm" />
  <line x1="68.495000mm" y1="93.731000mm" x2="68.734000mm" y2="93.293000mm" />
  <line x1="68.734000mm" y1="93.293000mm" x2="69.014000mm" y2="92.881000mm" />
  <line x1="69.014000mm" y1="92.881000mm" x2="69.335000mm" y2="92.499000mm" />
  <line x1="69.335000mm" y1="92.499000mm" x2="69.692000mm" y2="92.151000mm" />
  <line x1="69.692000mm" y1="92.151000mm" x2="70.081000mm" y2="91.840000mm" />
  <line x1="70.081000mm" y1="91.840000mm" x2="70.500000mm" y2="91.570000mm" />
  <line x1="70.500000mm" y1="91.570000mm" x2="70.944000mm" y2="91.342000mm" />
  <line x1="70.944000mm" y1="91.342000mm" x2="71.408000mm" y2="91.160000mm" />
  <line x1="71.408000mm" y1="91.160000mm" x2="71.887000mm" y2="91.025000mm" />
  <line x1="71.887000mm" y1="91.025000mm" x2="72.378300mm" y2="90.939000mm" />
  <line x1="72.378300mm" y1="90.939000mm" x2="72.875400mm" y2="90.902000mm" />
  <line x1="72.875400mm" y1="90.902000mm" x2="73.000000mm" y2="90.900000mm" />
  <line x1="73.000000mm" y1="90.900000mm" x2="233.000000mm" y2="90.900000mm" />
  <line x1="233.000000mm" y1="90.900000mm" x2="233.373600mm" y2="90.914000mm" />
  <line x1="233.373600mm" y1="90.914000mm" x2="233.868200mm" y2="90.976000mm" />
  <line x1="233.868200mm" y1="90.976000mm" x2="234.354200mm" y2="91.087000mm" />
  <line x1="234.354200mm" y1="91.087000mm" x2="234.826700mm" y2="91.246000mm" />
  <line x1="234.826700mm" y1="91.246000mm" x2="235.281100mm" y2="91.451000mm" />
  <line x1="235.281100mm" y1="91.451000mm" x2="235.712700mm" y2="91.700000mm" />
  <line x1="235.712700mm" y1="91.700000mm" x2="236.117400mm" y2="91.991000mm" />
  <line x1="236.117400mm" y1="91.991000mm" x2="236.491200mm" y2="92.321000mm" />
  <line x1="236.491200mm" y1="92.321000mm" x2="236.830200mm" y2="92.686000mm" />
  <line x1="236.830200mm" y1="92.686000mm" x2="237.131200mm" y2="93.083000mm" />
  <line x1="237.131200mm" y1="93.083000mm" x2="237.391100mm" y2="93.509000mm" />
  <line x1="237.391100mm" y1="93.509000mm" x2="237.607400mm" y2="93.958000mm" />
  <line x1="237.607400mm" y1="93.958000mm" x2="237.777900mm" y2="94.426000mm" />
  <line x1="237.777900mm" y1="94.426000mm" x2="237.900800mm" y2="94.909000mm" />
  <line x1="237.900800mm" y1="94.909000mm" x2="237.975100mm" y2="95.402000mm" />
  <line x1="237.975100mm" y1="95.402000mm" x2="238.000000mm" y2="95.900000mm" />
  <line x1="238.000000mm" y1="95.900000mm" x2="238.000000mm" y2="302.000000mm" />
  <line x1="238.000000mm" y1="302.000000mm" x2="344.000000mm" y2="302.000000mm" />
  <line x1="344.000000mm" y1="302.000000mm" x2="344.000000mm" y2="25.000000mm" />
  <line x1="344.000000mm" y1="25.000000mm" x2="343.905000mm" y2="22.821000mm" />
  <line x1="343.905000mm" y1="22.821000mm" x2="343.620000mm" y2="20.659000mm" />
  <line x1="343.620000mm" y1="20.659000mm" x2="343.148000mm" y2="18.530000mm" />
  <line x1="343.148000mm" y1="18.530000mm" x2="342.492000mm" y2="16.450000mm" />
  <line x1="342.492000mm" y1="16.450000mm" x2="341.658000mm" y2="14.435000mm" />
  <line x1="341.658000mm" y1="14.435000mm" x2="340.651000mm" y2="12.500000mm" />
  <line x1="340.651000mm" y1="12.500000mm" x2="339.479000mm" y2="10.661000mm" />
  <line x1="339.479000mm" y1="10.661000mm" x2="338.151000mm" y2="8.930000mm" />
  <line x1="338.151000mm" y1="8.930000mm" x2="336.678000mm" y2="7.322000mm" />
  <line x1="336.678000mm" y1="7.322000mm" x2="335.070000mm" y2="5.849000mm" />
  <line x1="335.070000mm" y1="5.849000mm" x2="333.339000mm" y2="4.521000mm" />
  <line x1="333.339000mm" y1="4.521000mm" x2="331.500000mm" y2="3.349000mm" />
  <line x1="331.500000mm" y1="3.349000mm" x2="329.565000mm" y2="2.342000mm" />
  <line x1="329.565000mm" y1="2.342000mm" x2="327.550000mm" y2="1.508000mm" />
  <line x1="327.550000mm" y1="1.508000mm" x2="325.470000mm" y2="0.852000mm" />
  <line x1="325.470000mm" y1="0.852000mm" x2="323.341000mm" y2="0.380000mm" />
  <line x1="323.341000mm" y1="0.380000mm" x2="321.179000mm" y2="0.095000mm" />
  <line x1="321.179000mm" y1="0.095000mm" x2="319.000000mm" y2="0.000000mm" />
  <line x1="319.000000mm" y1="0.000000mm" x2="25.000000mm" y2="0.000000mm" />
  <line x1="25.000000mm" y1="0.000000mm" x2="22.821000mm" y2="0.095000mm" />
  <line x1="22.821000mm" y1="0.095000mm" x2="20.659000mm" y2="0.380000mm" />
  <line x1="20.659000mm" y1="0.380000mm" x2="18.530000mm" y2="0.852000mm" />
  <line x1="18.530000mm" y1="0.852000mm" x2="16.450000mm" y2="1.508000mm" />
  <line x1="16.450000mm" y1="1.508000mm" x2="14.435000mm" y2="2.342000mm" />
  <line x1="14.435000mm" y1="2.342000mm" x2="12.500000mm" y2="3.349000mm" />
  <line x1="12.500000mm" y1="3.349000mm" x2="10.661000mm" y2="4.521000mm" />
  <line x1="10.661000mm" y1="4.521000mm" x2="8.930000mm" y2="5.849000mm" />
  <line x1="8.930000mm" y1="5.849000mm" x2="7.322000mm" y2="7.322000mm" />
  <line x1="7.322000mm" y1="7.322000mm" x2="5.849000mm" y2="8.930000mm" />
  <line x1="5.849000mm" y1="8.930000mm" x2="4.521000mm" y2="10.661000mm" />
  <line x1="4.521000mm" y1="10.661000mm" x2="3.349000mm" y2="12.500000mm" />
  <line x1="3.349000mm" y1="12.500000mm" x2="2.342000mm" y2="14.435000mm" />
  <line x1="2.342000mm" y1="14.435000mm" x2="1.508000mm" y2="16.450000mm" />
  <line x1="1.508000mm" y1="16.450000mm" x2="0.852000mm" y2="18.530000mm" />
  <line x1="0.852000mm" y1="18.530000mm" x2="0.380000mm" y2="20.659000mm" />
  <line x1="0.380000mm" y1="20.659000mm" x2="0.095000mm" y2="22.821000mm" />
  <line x1="0.095000mm" y1="22.821000mm" x2="0.000000mm" y2="25.000000mm" />
  <line x1="0.000000mm" y1="25.000000mm" x2="0.000000mm" y2="302.000000mm" />
  <line x1="0.000000mm" y1="302.000000mm" x2="31.020000mm" y2="302.000000mm" />
  <circle cx="279.700000mm" cy="6.499966mm" r="1.650034mm" fill="none"/>
  <line x1="283.000067mm" y1="6.499966mm" x2="276.399933mm" y2="6.499966mm" />
  <line x1="279.700000mm" y1="3.199899mm" x2="279.700000mm" y2="9.800034mm" />
  <text x="281mm" y="4mm" font-size="24">
   3.3
  </text>
  <circle cx="255.299950mm" cy="6.499995mm" r="1.650005mm" fill="none"/>
  <line x1="258.599959mm" y1="6.499995mm" x2="251.999941mm" y2="6.499995mm" />
  <line x1="255.299950mm" y1="3.199986mm" x2="255.299950mm" y2="9.800005mm" />
  <text x="256mm" y="4mm" font-size="24">
   3.3
  </text>
  <circle cx="32.300000mm" cy="6.499966mm" r="1.650034mm" fill="none"/>
  <line x1="35.600067mm" y1="6.499966mm" x2="28.999933mm" y2="6.499966mm" />
  <line x1="32.300000mm" y1="3.199899mm" x2="32.300000mm" y2="9.800034mm" />
  <text x="33mm" y="4mm" font-size="24">
   3.3
  </text>
  <circle cx="56.700000mm" cy="6.499966mm" r="1.650034mm" fill="none"/>
  <line x1="60.000067mm" y1="6.499966mm" x2="53.399933mm" y2="6.499966mm" />
  <line x1="56.700000mm" y1="3.199899mm" x2="56.700000mm" y2="9.800034mm" />
  <text x="58mm" y="4mm" font-size="24">
   3.3
  </text>
  <circle cx="31.000000mm" cy="14.999798mm" r="1.999777mm" fill="none"/>
  <line x1="34.999554mm" y1="14.999798mm" x2="27.000446mm" y2="14.999798mm" />
  <line x1="31.000000mm" y1="11.000245mm" x2="31.000000mm" y2="18.999352mm" />
  <text x="32mm" y="13mm" font-size="24">
   4.0
  </text>
  <line x1="332.700000mm" y1="15.550000mm" x2="332.700000mm" y2="15.550000mm" />
  <line x1="332.700000mm" y1="15.550000mm" x2="305.300000mm" y2="15.550000mm" />
  <line x1="305.300000mm" y1="15.550000mm" x2="304.822000mm" y2="15.455000mm" />
  <line x1="304.822000mm" y1="15.455000mm" x2="304.416000mm" y2="15.184000mm" />
  <line x1="304.416000mm" y1="15.184000mm" x2="304.145000mm" y2="14.778000mm" />
  <line x1="304.145000mm" y1="14.778000mm" x2="304.050000mm" y2="14.300000mm" />
  <line x1="304.050000mm" y1="14.300000mm" x2="304.145000mm" y2="13.822000mm" />
  <line x1="304.145000mm" y1="13.822000mm" x2="304.416000mm" y2="13.416000mm" />
  <line x1="304.416000mm" y1="13.416000mm" x2="304.822000mm" y2="13.145000mm" />
  <line x1="304.822000mm" y1="13.145000mm" x2="305.300000mm" y2="13.050000mm" />
  <line x1="305.300000mm" y1="13.050000mm" x2="332.700000mm" y2="13.050000mm" />
  <line x1="332.700000mm" y1="13.050000mm" x2="333.178000mm" y2="13.145000mm" />
  <line x1="333.178000mm" y1="13.145000mm" x2="333.584000mm" y2="13.416000mm" />
  <line x1="333.584000mm" y1="13.416000mm" x2="333.855000mm" y2="13.822000mm" />
  <line x1="333.855000mm" y1="13.822000mm" x2="333.950000mm" y2="14.300000mm" />
  <line x1="333.950000mm" y1="14.300000mm" x2="333.855000mm" y2="14.778000mm" />
  <line x1="333.855000mm" y1="14.778000mm" x2="333.584000mm" y2="15.184000mm" />
  <line x1="333.584000mm" y1="15.184000mm" x2="333.178000mm" y2="15.455000mm" />
  <line x1="333.178000mm" y1="15.455000mm" x2="332.700000mm" y2="15.550000mm" />
  <circle cx="302.149456mm" cy="24.299805mm" r="1.649827mm" fill="none"/>
  <line x1="305.449111mm" y1="24.299805mm" x2="298.849802mm" y2="24.299805mm" />
  <line x1="302.149456mm" y1="21.000151mm" x2="302.149456mm" y2="27.599459mm" />
  <text x="303mm" y="22mm" font-size="24">
   3.3
  </text>
  <circle cx="335.849456mm" cy="24.299805mm" r="1.649827mm" fill="none"/>
  <line x1="339.149111mm" y1="24.299805mm" x2="332.549802mm" y2="24.299805mm" />
  <line x1="335.849456mm" y1="21.000151mm" x2="335.849456mm" y2="27.599459mm" />
  <text x="337mm" y="22mm" font-size="24">
   3.3
  </text>
  <circle cx="52.850037mm" cy="28.810202mm" r="1.650231mm" fill="none"/>
  <line x1="56.150499mm" y1="28.810202mm" x2="49.549575mm" y2="28.810202mm" />
  <line x1="52.850037mm" y1="25.509740mm" x2="52.850037mm" y2="32.110664mm" />
  <text x="54mm" y="27mm" font-size="24">
   3.3
  </text>
  <circle cx="253.150000mm" cy="28.810024mm" r="1.649976mm" fill="none"/>
  <line x1="256.449952mm" y1="28.810024mm" x2="249.850048mm" y2="28.810024mm" />
  <line x1="253.150000mm" y1="25.510073mm" x2="253.150000mm" y2="32.109976mm" />
  <text x="254mm" y="27mm" font-size="24">
   3.3
  </text>
  <circle cx="55.700000mm" cy="44.819647mm" r="1.500353mm" fill="none"/>
  <line x1="58.700706mm" y1="44.819647mm" x2="52.699294mm" y2="44.819647mm" />
  <line x1="55.700000mm" y1="41.818941mm" x2="55.700000mm" y2="47.820353mm" />
  <text x="57mm" y="43mm" font-size="24">
   3.0
  </text>
  <circle cx="245.299950mm" cy="44.819876mm" r="1.500124mm" fill="none"/>
  <line x1="248.300199mm" y1="44.819876mm" x2="242.299701mm" y2="44.819876mm" />
  <line x1="245.299950mm" y1="41.819627mm" x2="245.299950mm" y2="47.820124mm" />
  <text x="246mm" y="43mm" font-size="24">
   3.0
  </text>
  <circle cx="55.700000mm" cy="50.619647mm" r="1.500353mm" fill="none"/>
  <line x1="58.700706mm" y1="50.619647mm" x2="52.699294mm" y2="50.619647mm" />
  <line x1="55.700000mm" y1="47.618941mm" x2="55.700000mm" y2="53.620353mm" />
  <text x="57mm" y="49mm" font-size="24">
   3.0
  </text>
  <circle cx="245.299950mm" cy="50.619876mm" r="1.500124mm" fill="none"/>
  <line x1="248.300199mm" y1="50.619876mm" x2="242.299701mm" y2="50.619876mm" />
  <line x1="245.299950mm" y1="47.619627mm" x2="245.299950mm" y2="53.620124mm" />
  <text x="246mm" y="49mm" font-size="24">
   3.0
  </text>
  <circle cx="250.299956mm" cy="54.920454mm" r="1.500013mm" fill="none"/>
  <line x1="253.299981mm" y1="54.920454mm" x2="247.299931mm" y2="54.920454mm" />
  <line x1="250.299956mm" y1="51.920429mm" x2="250.299956mm" y2="57.920479mm" />
  <text x="251mm" y="53mm" font-size="24">
   3.0
  </text>
  <circle cx="60.700136mm" cy="54.920380mm" r="1.500072mm" fill="none"/>
  <line x1="63.700281mm" y1="54.920380mm" x2="57.699992mm" y2="54.920380mm" />
  <line x1="60.700136mm" y1="51.920236mm" x2="60.700136mm" y2="57.920525mm" />
  <text x="62mm" y="53mm" font-size="24">
   3.0
  </text>
  <circle cx="250.299956mm" cy="62.120454mm" r="1.500013mm" fill="none"/>
  <line x1="253.299981mm" y1="62.120454mm" x2="247.299931mm" y2="62.120454mm" />
  <line x1="250.299956mm" y1="59.120429mm" x2="250.299956mm" y2="65.120479mm" />
  <text x="251mm" y="60mm" font-size="24">
   3.0
  </text>
  <circle cx="60.700136mm" cy="62.120380mm" r="1.500072mm" fill="none"/>
  <line x1="63.700281mm" y1="62.120380mm" x2="57.699992mm" y2="62.120380mm" />
  <line x1="60.700136mm" y1="59.120236mm" x2="60.700136mm" y2="65.120525mm" />
  <text x="62mm" y="60mm" font-size="24">
   3.0
  </text>
  <circle cx="4.999456mm" cy="162.499805mm" r="1.649827mm" fill="none"/>
  <line x1="8.299111mm" y1="162.499805mm" x2="1.699802mm" y2="162.499805mm" />
  <line x1="4.999456mm" y1="159.200151mm" x2="4.999456mm" y2="165.799459mm" />
  <text x="6mm" y="160mm" font-size="24">
   3.3
  </text>
  <circle cx="4.999476mm" cy="201.900070mm" r="1.649960mm" fill="none"/>
  <line x1="8.299396mm" y1="201.900070mm" x2="1.699556mm" y2="201.900070mm" />
  <line x1="4.999476mm" y1="198.600150mm" x2="4.999476mm" y2="205.199990mm" />
  <text x="6mm" y="200mm" font-size="24">
   3.3
  </text>
  <circle cx="26.000000mm" cy="239.999943mm" r="2.000030mm" fill="none"/>
  <line x1="30.000060mm" y1="239.999943mm" x2="21.999940mm" y2="239.999943mm" />
  <line x1="26.000000mm" y1="235.999883mm" x2="26.000000mm" y2="244.000003mm" />
  <text x="28mm" y="237mm" font-size="24">
   4.0
  </text>
  <line x1="12.546000mm" y1="258.881600mm" x2="12.546000mm" y2="258.881600mm" />
  <line x1="12.546000mm" y1="258.881600mm" x2="12.054000mm" y2="258.881600mm" />
  <line x1="12.054000mm" y1="258.881600mm" x2="11.584000mm" y2="258.736600mm" />
  <line x1="11.584000mm" y1="258.736600mm" x2="11.178000mm" y2="258.459500mm" />
  <line x1="11.178000mm" y1="258.459500mm" x2="10.871000mm" y2="258.075000mm" />
  <line x1="10.871000mm" y1="258.075000mm" x2="10.691000mm" y2="257.617200mm" />
  <line x1="10.691000mm" y1="257.617200mm" x2="10.655000mm" y2="257.126700mm" />
  <line x1="10.655000mm" y1="257.126700mm" x2="10.655000mm" y2="246.626700mm" />
  <line x1="10.655000mm" y1="246.626700mm" x2="10.764000mm" y2="246.147200mm" />
  <line x1="10.764000mm" y1="246.147200mm" x2="11.010000mm" y2="245.721300mm" />
  <line x1="11.010000mm" y1="245.721300mm" x2="11.371000mm" y2="245.386700mm" />
  <line x1="11.371000mm" y1="245.386700mm" x2="11.814000mm" y2="245.173300mm" />
  <line x1="11.814000mm" y1="245.173300mm" x2="12.300000mm" y2="245.100000mm" />
  <line x1="12.300000mm" y1="245.100000mm" x2="12.786000mm" y2="245.173300mm" />
  <line x1="12.786000mm" y1="245.173300mm" x2="13.229000mm" y2="245.386700mm" />
  <line x1="13.229000mm" y1="245.386700mm" x2="13.590000mm" y2="245.721300mm" />
  <line x1="13.590000mm" y1="245.721300mm" x2="13.836000mm" y2="246.147200mm" />
  <line x1="13.836000mm" y1="246.147200mm" x2="13.945000mm" y2="246.626700mm" />
  <line x1="13.945000mm" y1="246.626700mm" x2="13.945000mm" y2="257.126700mm" />
  <line x1="13.945000mm" y1="257.126700mm" x2="13.909000mm" y2="257.617200mm" />
  <line x1="13.909000mm" y1="257.617200mm" x2="13.729000mm" y2="258.075000mm" />
  <line x1="13.729000mm" y1="258.075000mm" x2="13.422000mm" y2="258.459500mm" />
  <line x1="13.422000mm" y1="258.459500mm" x2="13.016000mm" y2="258.736600mm" />
  <line x1="13.016000mm" y1="258.736600mm" x2="12.546000mm" y2="258.881600mm" />
  <line x1="36.946000mm" y1="258.881600mm" x2="36.946000mm" y2="258.881600mm" />
  <line x1="36.946000mm" y1="258.881600mm" x2="36.454000mm" y2="258.881600mm" />
  <line x1="36.454000mm" y1="258.881600mm" x2="35.984000mm" y2="258.736600mm" />
  <line x1="35.984000mm" y1="258.736600mm" x2="35.578000mm" y2="258.459500mm" />
  <line x1="35.578000mm" y1="258.459500mm" x2="35.271000mm" y2="258.075000mm" />
  <line x1="35.271000mm" y1="258.075000mm" x2="35.091000mm" y2="257.617200mm" />
  <line x1="35.091000mm" y1="257.617200mm" x2="35.055000mm" y2="257.126700mm" />
  <line x1="35.055000mm" y1="257.126700mm" x2="35.055000mm" y2="246.626700mm" />
  <line x1="35.055000mm" y1="246.626700mm" x2="35.164000mm" y2="246.147200mm" />
  <line x1="35.164000mm" y1="246.147200mm" x2="35.410000mm" y2="245.721300mm" />
  <line x1="35.410000mm" y1="245.721300mm" x2="35.771000mm" y2="245.386700mm" />
  <line x1="35.771000mm" y1="245.386700mm" x2="36.214000mm" y2="245.173300mm" />
  <line x1="36.214000mm" y1="245.173300mm" x2="36.700000mm" y2="245.100000mm" />
  <line x1="36.700000mm" y1="245.100000mm" x2="37.186000mm" y2="245.173300mm" />
  <line x1="37.186000mm" y1="245.173300mm" x2="37.629000mm" y2="245.386700mm" />
  <line x1="37.629000mm" y1="245.386700mm" x2="37.990000mm" y2="245.721300mm" />
  <line x1="37.990000mm" y1="245.721300mm" x2="38.236000mm" y2="246.147200mm" />
  <line x1="38.236000mm" y1="246.147200mm" x2="38.345000mm" y2="246.626700mm" />
  <line x1="38.345000mm" y1="246.626700mm" x2="38.345000mm" y2="257.126700mm" />
  <line x1="38.345000mm" y1="257.126700mm" x2="38.309000mm" y2="257.617200mm" />
  <line x1="38.309000mm" y1="257.617200mm" x2="38.129000mm" y2="258.075000mm" />
  <line x1="38.129000mm" y1="258.075000mm" x2="37.822000mm" y2="258.459500mm" />
  <line x1="37.822000mm" y1="258.459500mm" x2="37.416000mm" y2="258.736600mm" />
  <line x1="37.416000mm" y1="258.736600mm" x2="36.946000mm" y2="258.881600mm" />
  <line x1="270.545900mm" y1="258.881600mm" x2="270.545900mm" y2="258.881600mm" />
  <line x1="270.545900mm" y1="258.881600mm" x2="270.054100mm" y2="258.881600mm" />
  <line x1="270.054100mm" y1="258.881600mm" x2="269.584100mm" y2="258.736600mm" />
  <line x1="269.584100mm" y1="258.736600mm" x2="269.177700mm" y2="258.459500mm" />
  <line x1="269.177700mm" y1="258.459500mm" x2="268.871000mm" y2="258.075000mm" />
  <line x1="268.871000mm" y1="258.075000mm" x2="268.691400mm" y2="257.617200mm" />
  <line x1="268.691400mm" y1="257.617200mm" x2="268.654600mm" y2="257.126700mm" />
  <line x1="268.654600mm" y1="257.126700mm" x2="268.654600mm" y2="246.626700mm" />
  <line x1="268.654600mm" y1="246.626700mm" x2="268.764100mm" y2="246.147200mm" />
  <line x1="268.764100mm" y1="246.147200mm" x2="269.010000mm" y2="245.721300mm" />
  <line x1="269.010000mm" y1="245.721300mm" x2="269.370500mm" y2="245.386700mm" />
  <line x1="269.370500mm" y1="245.386700mm" x2="269.813600mm" y2="245.173300mm" />
  <line x1="269.813600mm" y1="245.173300mm" x2="270.300000mm" y2="245.100000mm" />
  <line x1="270.300000mm" y1="245.100000mm" x2="270.786300mm" y2="245.173300mm" />
  <line x1="270.786300mm" y1="245.173300mm" x2="271.229500mm" y2="245.386700mm" />
  <line x1="271.229500mm" y1="245.386700mm" x2="271.590000mm" y2="245.721300mm" />
  <line x1="271.590000mm" y1="245.721300mm" x2="271.835900mm" y2="246.147200mm" />
  <line x1="271.835900mm" y1="246.147200mm" x2="271.945400mm" y2="246.626700mm" />
  <line x1="271.945400mm" y1="246.626700mm" x2="271.945400mm" y2="257.126700mm" />
  <line x1="271.945400mm" y1="257.126700mm" x2="271.908600mm" y2="257.617200mm" />
  <line x1="271.908600mm" y1="257.617200mm" x2="271.728900mm" y2="258.075000mm" />
  <line x1="271.728900mm" y1="258.075000mm" x2="271.422300mm" y2="258.459500mm" />
  <line x1="271.422300mm" y1="258.459500mm" x2="271.015900mm" y2="258.736600mm" />
  <line x1="271.015900mm" y1="258.736600mm" x2="270.545900mm" y2="258.881600mm" />
  <line x1="294.946000mm" y1="258.881600mm" x2="294.946000mm" y2="258.881600mm" />
  <line x1="294.946000mm" y1="258.881600mm" x2="294.454000mm" y2="258.881600mm" />
  <line x1="294.454000mm" y1="258.881600mm" x2="293.984000mm" y2="258.736600mm" />
  <line x1="293.984000mm" y1="258.736600mm" x2="293.578000mm" y2="258.459500mm" />
  <line x1="293.578000mm" y1="258.459500mm" x2="293.271000mm" y2="258.075000mm" />
  <line x1="293.271000mm" y1="258.075000mm" x2="293.091000mm" y2="257.617200mm" />
  <line x1="293.091000mm" y1="257.617200mm" x2="293.055000mm" y2="257.126700mm" />
  <line x1="293.055000mm" y1="257.126700mm" x2="293.055000mm" y2="246.626700mm" />
  <line x1="293.055000mm" y1="246.626700mm" x2="293.164000mm" y2="246.147200mm" />
  <line x1="293.164000mm" y1="246.147200mm" x2="293.410000mm" y2="245.721300mm" />
  <line x1="293.410000mm" y1="245.721300mm" x2="293.771000mm" y2="245.386700mm" />
  <line x1="293.771000mm" y1="245.386700mm" x2="294.214000mm" y2="245.173300mm" />
  <line x1="294.214000mm" y1="245.173300mm" x2="294.700000mm" y2="245.100000mm" />
  <line x1="294.700000mm" y1="245.100000mm" x2="295.186000mm" y2="245.173300mm" />
  <line x1="295.186000mm" y1="245.173300mm" x2="295.629000mm" y2="245.386700mm" />
  <line x1="295.629000mm" y1="245.386700mm" x2="295.990000mm" y2="245.721300mm" />
  <line x1="295.990000mm" y1="245.721300mm" x2="296.236000mm" y2="246.147200mm" />
  <line x1="296.236000mm" y1="246.147200mm" x2="296.345000mm" y2="246.626700mm" />
  <line x1="296.345000mm" y1="246.626700mm" x2="296.345000mm" y2="257.126700mm" />
  <line x1="296.345000mm" y1="257.126700mm" x2="296.309000mm" y2="257.617200mm" />
  <line x1="296.309000mm" y1="257.617200mm" x2="296.129000mm" y2="258.075000mm" />
  <line x1="296.129000mm" y1="258.075000mm" x2="295.822000mm" y2="258.459500mm" />
  <line x1="295.822000mm" y1="258.459500mm" x2="295.416000mm" y2="258.736600mm" />
  <line x1="295.416000mm" y1="258.736600mm" x2="294.946000mm" y2="258.881600mm" />
  <circle cx="52.849945mm" cy="273.190037mm" r="1.650012mm" fill="none"/>
  <line x1="56.149970mm" y1="273.190037mm" x2="49.549921mm" y2="273.190037mm" />
  <line x1="52.849945mm" y1="269.890012mm" x2="52.849945mm" y2="276.490062mm" />
  <text x="54mm" y="271mm" font-size="24">
   3.3
  </text>
  <circle cx="253.150000mm" cy="273.190024mm" r="1.649976mm" fill="none"/>
  <line x1="256.449952mm" y1="273.190024mm" x2="249.850048mm" y2="273.190024mm" />
  <line x1="253.150000mm" y1="269.890073mm" x2="253.150000mm" y2="276.489976mm" />
  <text x="254mm" y="271mm" font-size="24">
   3.3
  </text>
  <circle cx="281.000028mm" cy="285.199820mm" r="2.500180mm" fill="none"/>
  <line x1="286.000388mm" y1="285.199820mm" x2="275.999668mm" y2="285.199820mm" />
  <line x1="281.000028mm" y1="280.199460mm" x2="281.000028mm" y2="290.200180mm" />
  <text x="283mm" y="282mm" font-size="24">
   5.0
  </text>
  <circle cx="6.900355mm" cy="295.349975mm" r="1.650032mm" fill="none"/>
  <line x1="10.200419mm" y1="295.349975mm" x2="3.600291mm" y2="295.349975mm" />
  <line x1="6.900355mm" y1="292.049911mm" x2="6.900355mm" y2="298.650039mm" />
  <text x="8mm" y="293mm" font-size="24">
   3.3
  </text>
  <circle cx="289.920355mm" cy="295.349975mm" r="1.650032mm" fill="none"/>
  <line x1="293.220419mm" y1="295.349975mm" x2="286.620291mm" y2="295.349975mm" />
  <line x1="289.920355mm" y1="292.049911mm" x2="289.920355mm" y2="298.650039mm" />
  <text x="291mm" y="293mm" font-size="24">
   3.3
  </text>
  <circle cx="24.120355mm" cy="295.349975mm" r="1.650032mm" fill="none"/>
  <line x1="27.420419mm" y1="295.349975mm" x2="20.820291mm" y2="295.349975mm" />
  <line x1="24.120355mm" y1="292.049911mm" x2="24.120355mm" y2="298.650039mm" />
  <text x="25mm" y="293mm" font-size="24">
   3.3
  </text>
  <circle cx="43.880355mm" cy="295.349975mm" r="1.650032mm" fill="none"/>
  <line x1="47.180419mm" y1="295.349975mm" x2="40.580291mm" y2="295.349975mm" />
  <line x1="43.880355mm" y1="292.049911mm" x2="43.880355mm" y2="298.650039mm" />
  <text x="45mm" y="293mm" font-size="24">
   3.3
  </text>
  <circle cx="61.100355mm" cy="295.349975mm" r="1.650032mm" fill="none"/>
  <line x1="64.400419mm" y1="295.349975mm" x2="57.800291mm" y2="295.349975mm" />
  <line x1="61.100355mm" y1="292.049911mm" x2="61.100355mm" y2="298.650039mm" />
  <text x="62mm" y="293mm" font-size="24">
   3.3
  </text>
  <circle cx="337.100355mm" cy="295.349975mm" r="1.650032mm" fill="none"/>
  <line x1="340.400419mm" y1="295.349975mm" x2="333.800291mm" y2="295.349975mm" />
  <line x1="337.100355mm" y1="292.049911mm" x2="337.100355mm" y2="298.650039mm" />
  <text x="338mm" y="293mm" font-size="24">
   3.3
  </text>
  <circle cx="272.700218mm" cy="295.349882mm" r="1.650115mm" fill="none"/>
  <line x1="276.000448mm" y1="295.349882mm" x2="269.399989mm" y2="295.349882mm" />
  <line x1="272.700218mm" y1="292.049653mm" x2="272.700218mm" y2="298.650112mm" />
  <text x="274mm" y="293mm" font-size="24">
   3.3
  </text>
  <circle cx="319.880355mm" cy="295.349975mm" r="1.650032mm" fill="none"/>
  <line x1="323.180419mm" y1="295.349975mm" x2="316.580291mm" y2="295.349975mm" />
  <line x1="319.880355mm" y1="292.049911mm" x2="319.880355mm" y2="298.650039mm" />
  <text x="321mm" y="293mm" font-size="24">
   3.3
  </text>
  <line x1="73.000000mm" y1="302.000000mm" x2="73.000000mm" y2="302.000000mm" />
  <line x1="73.000000mm" y1="302.000000mm" x2="233.247700mm" y2="301.989761mm" />
  <line x1="233.247700mm" y1="301.989761mm" x2="233.736500mm" y2="301.908203mm" />
  <line x1="233.736500mm" y1="301.908203mm" x2="234.205100mm" y2="301.747330mm" />
  <line x1="234.205100mm" y1="301.747330mm" x2="234.640800mm" y2="301.511505mm" />
  <line x1="234.640800mm" y1="301.511505mm" x2="235.031800mm" y2="301.207184mm" />
  <line x1="235.031800mm" y1="301.207184mm" x2="235.367400mm" y2="300.842650mm" />
  <line x1="235.367400mm" y1="300.842650mm" x2="235.638400mm" y2="300.427860mm" />
  <line x1="235.638400mm" y1="300.427860mm" x2="235.837400mm" y2="299.974110mm" />
  <line x1="235.837400mm" y1="299.974110mm" x2="235.959100mm" y2="299.493790mm" />
  <line x1="235.959100mm" y1="299.493790mm" x2="236.000000mm" y2="299.000000mm" />
  <line x1="236.000000mm" y1="299.000000mm" x2="235.989700mm" y2="204.752300mm" />
  <line x1="235.989700mm" y1="204.752300mm" x2="235.908200mm" y2="204.263500mm" />
  <line x1="235.908200mm" y1="204.263500mm" x2="235.747300mm" y2="203.794900mm" />
  <line x1="235.747300mm" y1="203.794900mm" x2="235.511500mm" y2="203.359200mm" />
  <line x1="235.511500mm" y1="203.359200mm" x2="235.207200mm" y2="202.968200mm" />
  <line x1="235.207200mm" y1="202.968200mm" x2="234.842600mm" y2="202.632600mm" />
  <line x1="234.842600mm" y1="202.632600mm" x2="234.427800mm" y2="202.361600mm" />
  <line x1="234.427800mm" y1="202.361600mm" x2="233.974100mm" y2="202.162600mm" />
  <line x1="233.974100mm" y1="202.162600mm" x2="233.493800mm" y2="202.040900mm" />
  <line x1="233.493800mm" y1="202.040900mm" x2="233.000000mm" y2="202.000000mm" />
  <line x1="233.000000mm" y1="202.000000mm" x2="171.510010mm" y2="202.003900mm" />
  <line x1="171.510010mm" y1="202.003900mm" x2="171.510010mm" y2="207.000000mm" />
  <line x1="171.510010mm" y1="207.000000mm" x2="134.490000mm" y2="207.000000mm" />
  <line x1="134.490000mm" y1="207.000000mm" x2="134.490000mm" y2="202.006300mm" />
  <line x1="134.490000mm" y1="202.006300mm" x2="72.752300mm" y2="202.010300mm" />
  <line x1="72.752300mm" y1="202.010300mm" x2="72.263500mm" y2="202.091800mm" />
  <line x1="72.263500mm" y1="202.091800mm" x2="71.795000mm" y2="202.252700mm" />
  <line x1="71.795000mm" y1="202.252700mm" x2="71.359000mm" y2="202.488500mm" />
  <line x1="71.359000mm" y1="202.488500mm" x2="70.968000mm" y2="202.792800mm" />
  <line x1="70.968000mm" y1="202.792800mm" x2="70.633000mm" y2="203.157400mm" />
  <line x1="70.633000mm" y1="203.157400mm" x2="70.362000mm" y2="203.572200mm" />
  <line x1="70.362000mm" y1="203.572200mm" x2="70.163000mm" y2="204.025900mm" />
  <line x1="70.163000mm" y1="204.025900mm" x2="70.041000mm" y2="204.506200mm" />
  <line x1="70.041000mm" y1="204.506200mm" x2="70.000000mm" y2="205.000000mm" />
  <line x1="70.000000mm" y1="205.000000mm" x2="70.010000mm" y2="299.247740mm" />
  <line x1="70.010000mm" y1="299.247740mm" x2="70.092000mm" y2="299.736470mm" />
  <line x1="70.092000mm" y1="299.736470mm" x2="70.253000mm" y2="300.205090mm" />
  <line x1="70.253000mm" y1="300.205090mm" x2="70.489000mm" y2="300.640850mm" />
  <line x1="70.489000mm" y1="300.640850mm" x2="70.793000mm" y2="301.031845mm" />
  <line x1="70.793000mm" y1="301.031845mm" x2="71.157000mm" y2="301.367432mm" />
  <line x1="71.157000mm" y1="301.367432mm" x2="71.572000mm" y2="301.638428mm" />
  <line x1="71.572000mm" y1="301.638428mm" x2="72.025900mm" y2="301.837463mm" />
  <line x1="72.025900mm" y1="301.837463mm" x2="72.506200mm" y2="301.959091mm" />
  <line x1="72.506200mm" y1="301.959091mm" x2="73.000000mm" y2="302.000000mm" />
  <circle cx="132.340012mm" cy="212.000003mm" r="1.650009mm" fill="none"/>
  <line x1="135.640030mm" y1="212.000003mm" x2="129.039993mm" y2="212.000003mm" />
  <line x1="132.340012mm" y1="208.699984mm" x2="132.340012mm" y2="215.300022mm" />
  <text x="133mm" y="210mm" font-size="24">
   3.3
  </text>
  <circle cx="173.660003mm" cy="212.000009mm" r="1.650003mm" fill="none"/>
  <line x1="176.960010mm" y1="212.000009mm" x2="170.359996mm" y2="212.000009mm" />
  <line x1="173.660003mm" y1="208.700002mm" x2="173.660003mm" y2="215.300016mm" />
  <text x="175mm" y="210mm" font-size="24">
   3.3
  </text>
  <circle cx="99.819988mm" cy="219.000003mm" r="1.650009mm" fill="none"/>
  <line x1="103.120007mm" y1="219.000003mm" x2="96.519970mm" y2="219.000003mm" />
  <line x1="99.819988mm" y1="215.699984mm" x2="99.819988mm" y2="222.300022mm" />
  <text x="101mm" y="217mm" font-size="24">
   3.3
  </text>
  <circle cx="226.999950mm" cy="230.000015mm" r="1.249985mm" fill="none"/>
  <line x1="229.499921mm" y1="230.000015mm" x2="224.499979mm" y2="230.000015mm" />
  <line x1="226.999950mm" y1="227.500044mm" x2="226.999950mm" y2="232.499985mm" />
  <text x="228mm" y="228mm" font-size="24">
   2.5
  </text>
  <circle cx="79.000050mm" cy="230.000015mm" r="1.249985mm" fill="none"/>
  <line x1="81.500021mm" y1="230.000015mm" x2="76.500079mm" y2="230.000015mm" />
  <line x1="79.000050mm" y1="227.500044mm" x2="79.000050mm" y2="232.499985mm" />
  <text x="80mm" y="228mm" font-size="24">
   2.5
  </text>
  <circle cx="76.299988mm" cy="232.000003mm" r="1.650009mm" fill="none"/>
  <line x1="79.600007mm" y1="232.000003mm" x2="72.999970mm" y2="232.000003mm" />
  <line x1="76.299988mm" y1="228.699984mm" x2="76.299988mm" y2="235.300022mm" />
  <text x="77mm" y="230mm" font-size="24">
   3.3
  </text>
  <circle cx="121.490019mm" cy="241.575424mm" r="1.649991mm" fill="none"/>
  <line x1="124.790001mm" y1="241.575424mm" x2="118.190038mm" y2="241.575424mm" />
  <line x1="121.490019mm" y1="238.275443mm" x2="121.490019mm" y2="244.875406mm" />
  <text x="123mm" y="239mm" font-size="24">
   3.3
  </text>
  <circle cx="229.699988mm" cy="245.500003mm" r="1.650009mm" fill="none"/>
  <line x1="233.000007mm" y1="245.500003mm" x2="226.399970mm" y2="245.500003mm" />
  <line x1="229.699988mm" y1="242.199984mm" x2="229.699988mm" y2="248.800022mm" />
  <text x="231mm" y="243mm" font-size="24">
   3.3
  </text>
  <circle cx="121.490012mm" cy="246.675403mm" r="1.650009mm" fill="none"/>
  <line x1="124.790030mm" y1="246.675403mm" x2="118.189993mm" y2="246.675403mm" />
  <line x1="121.490012mm" y1="243.375384mm" x2="121.490012mm" y2="249.975422mm" />
  <text x="123mm" y="245mm" font-size="24">
   3.3
  </text>
  <circle cx="121.489988mm" cy="256.224603mm" r="1.650009mm" fill="none"/>
  <line x1="124.790007mm" y1="256.224603mm" x2="118.189970mm" y2="256.224603mm" />
  <line x1="121.489988mm" y1="252.924584mm" x2="121.489988mm" y2="259.524622mm" />
  <text x="123mm" y="254mm" font-size="24">
   3.3
  </text>
  <circle cx="206.179988mm" cy="258.500003mm" r="1.650009mm" fill="none"/>
  <line x1="209.480007mm" y1="258.500003mm" x2="202.879970mm" y2="258.500003mm" />
  <line x1="206.179988mm" y1="255.199984mm" x2="206.179988mm" y2="261.800022mm" />
  <text x="207mm" y="256mm" font-size="24">
   3.3
  </text>
  <circle cx="121.490012mm" cy="261.324603mm" r="1.650009mm" fill="none"/>
  <line x1="124.790030mm" y1="261.324603mm" x2="118.189993mm" y2="261.324603mm" />
  <line x1="121.490012mm" y1="258.024584mm" x2="121.490012mm" y2="264.624622mm" />
  <text x="123mm" y="259mm" font-size="24">
   3.3
  </text>
  <circle cx="99.819988mm" cy="272.000003mm" r="1.650009mm" fill="none"/>
  <line x1="103.120007mm" y1="272.000003mm" x2="96.519970mm" y2="272.000003mm" />
  <line x1="99.819988mm" y1="268.699984mm" x2="99.819988mm" y2="275.300022mm" />
  <text x="101mm" y="270mm" font-size="24">
   3.3
  </text>
  <circle cx="226.999950mm" cy="274.000015mm" r="1.249985mm" fill="none"/>
  <line x1="229.499921mm" y1="274.000015mm" x2="224.499979mm" y2="274.000015mm" />
  <line x1="226.999950mm" y1="271.500044mm" x2="226.999950mm" y2="276.499985mm" />
  <text x="228mm" y="272mm" font-size="24">
   2.5
  </text>
  <circle cx="79.000050mm" cy="274.000015mm" r="1.249985mm" fill="none"/>
  <line x1="81.500021mm" y1="274.000015mm" x2="76.500079mm" y2="274.000015mm" />
  <line x1="79.000050mm" y1="271.500044mm" x2="79.000050mm" y2="276.499985mm" />
  <text x="80mm" y="272mm" font-size="24">
   2.5
  </text>
  <circle cx="76.299988mm" cy="285.000003mm" r="1.650009mm" fill="none"/>
  <line x1="79.600007mm" y1="285.000003mm" x2="72.999970mm" y2="285.000003mm" />
  <line x1="76.299988mm" y1="281.699984mm" x2="76.299988mm" y2="288.300022mm" />
  <text x="77mm" y="283mm" font-size="24">
   3.3
  </text>
 </g>
</svg>
