  0
SECTION
  2
BLOCKS
  0
ENDSEC
  0
SECTION
  2
ENTITIES
  0
LINE
  8
0
 10
-83
 20
47
 11
-82.9898
 21
-47.2477
  0
LINE
  8
0
 10
-82.9898
 20
-47.2477
 11
-82.9082
 21
-47.7365
  0
LINE
  8
0
 10
-82.9082
 20
-47.7365
 11
-82.7473
 21
-48.2051
  0
LINE
  8
0
 10
-82.7473
 20
-48.2051
 11
-82.5115
 21
-48.6408
  0
LINE
  8
0
 10
-82.5115
 20
-48.6408
 11
-82.2072
 21
-49.0318
  0
LINE
  8
0
 10
-82.2072
 20
-49.0318
 11
-81.8426
 21
-49.3674
  0
LINE
  8
0
 10
-81.8426
 20
-49.3674
 11
-81.4278
 21
-49.6384
  0
LINE
  8
0
 10
-81.4278
 20
-49.6384
 11
-80.9741
 21
-49.8375
  0
LINE
  8
0
 10
-80.9741
 20
-49.8375
 11
-80.4938
 21
-49.9591
  0
LINE
  8
0
 10
-80.4938
 20
-49.9591
 11
-80
 21
-50
  0
LINE
  8
0
 10
-80
 20
-50
 11
80.2477
 21
-49.9898
  0
LINE
  8
0
 10
80.2477
 20
-49.9898
 11
80.7365
 21
-49.9082
  0
LINE
  8
0
 10
80.7365
 20
-49.9082
 11
81.2051
 21
-49.7473
  0
LINE
  8
0
 10
81.2051
 20
-49.7473
 11
81.6408
 21
-49.5115
  0
LINE
  8
0
 10
81.6408
 20
-49.5115
 11
82.0318
 21
-49.2072
  0
LINE
  8
0
 10
82.0318
 20
-49.2072
 11
82.3674
 21
-48.8426
  0
LINE
  8
0
 10
82.3674
 20
-48.8426
 11
82.6384
 21
-48.4278
  0
LINE
  8
0
 10
82.6384
 20
-48.4278
 11
82.8375
 21
-47.9741
  0
LINE
  8
0
 10
82.8375
 20
-47.9741
 11
82.9591
 21
-47.4938
  0
LINE
  8
0
 10
82.9591
 20
-47.4938
 11
83
 21
-47
  0
LINE
  8
0
 10
83
 20
-47
 11
82.9898
 21
47.2477
  0
LINE
  8
0
 10
82.9898
 20
47.2477
 11
82.9082
 21
47.7365
  0
LINE
  8
0
 10
82.9082
 20
47.7365
 11
82.7473
 21
48.2051
  0
LINE
  8
0
 10
82.7473
 20
48.2051
 11
82.5115
 21
48.6408
  0
LINE
  8
0
 10
82.5115
 20
48.6408
 11
82.2072
 21
49.0318
  0
LINE
  8
0
 10
82.2072
 20
49.0318
 11
81.8426
 21
49.3674
  0
LINE
  8
0
 10
81.8426
 20
49.3674
 11
81.4278
 21
49.6384
  0
LINE
  8
0
 10
81.4278
 20
49.6384
 11
80.9741
 21
49.8375
  0
LINE
  8
0
 10
80.9741
 20
49.8375
 11
80.4938
 21
49.9591
  0
LINE
  8
0
 10
80.4938
 20
49.9591
 11
80
 21
50
  0
LINE
  8
0
 10
80
 20
50
 11
18.51
 21
49.9961
  0
LINE
  8
0
 10
18.51
 20
49.9961
 11
18.51
 21
45
  0
LINE
  8
0
 10
18.51
 20
45
 11
-18.51
 21
45
  0
LINE
  8
0
 10
-18.51
 20
45
 11
-18.51
 21
49.9937
  0
LINE
  8
0
 10
-18.51
 20
49.9937
 11
-80.2477
 21
49.9898
  0
LINE
  8
0
 10
-80.2477
 20
49.9898
 11
-80.7365
 21
49.9082
  0
LINE
  8
0
 10
-80.7365
 20
49.9082
 11
-81.2051
 21
49.7473
  0
LINE
  8
0
 10
-81.2051
 20
49.7473
 11
-81.6408
 21
49.5115
  0
LINE
  8
0
 10
-81.6408
 20
49.5115
 11
-82.0318
 21
49.2072
  0
LINE
  8
0
 10
-82.0318
 20
49.2072
 11
-82.3674
 21
48.8426
  0
LINE
  8
0
 10
-82.3674
 20
48.8426
 11
-82.6384
 21
48.4278
  0
LINE
  8
0
 10
-82.6384
 20
48.4278
 11
-82.8375
 21
47.9741
  0
LINE
  8
0
 10
-82.8375
 20
47.9741
 11
-82.9591
 21
47.4938
  0
LINE
  8
0
 10
-82.9591
 20
47.4938
 11
-83
 21
47
  0
LINE
  8
0
 10
-78.35
 20
-33
 11
-78.2767
 21
-32.5137
  0
LINE
  8
0
 10
-78.2767
 20
-32.5137
 11
-78.0633
 21
-32.0705
  0
LINE
  8
0
 10
-78.0633
 20
-32.0705
 11
-77.7288
 21
-31.71
  0
LINE
  8
0
 10
-77.7288
 20
-31.71
 11
-77.3028
 21
-31.4641
  0
LINE
  8
0
 10
-77.3028
 20
-31.4641
 11
-76.8233
 21
-31.3546
  0
LINE
  8
0
 10
-76.8233
 20
-31.3546
 11
-76.3328
 21
-31.3914
  0
LINE
  8
0
 10
-76.3328
 20
-31.3914
 11
-75.875
 21
-31.5711
  0
LINE
  8
0
 10
-75.875
 20
-31.5711
 11
-75.4905
 21
-31.8777
  0
LINE
  8
0
 10
-75.4905
 20
-31.8777
 11
-75.2134
 21
-32.2841
  0
LINE
  8
0
 10
-75.2134
 20
-32.2841
 11
-75.0684
 21
-32.7541
  0
LINE
  8
0
 10
-75.0684
 20
-32.7541
 11
-75.0684
 21
-33.2459
  0
LINE
  8
0
 10
-75.0684
 20
-33.2459
 11
-75.2134
 21
-33.7159
  0
LINE
  8
0
 10
-75.2134
 20
-33.7159
 11
-75.4905
 21
-34.1223
  0
LINE
  8
0
 10
-75.4905
 20
-34.1223
 11
-75.875
 21
-34.4289
  0
LINE
  8
0
 10
-75.875
 20
-34.4289
 11
-76.3328
 21
-34.6086
  0
LINE
  8
0
 10
-76.3328
 20
-34.6086
 11
-76.8233
 21
-34.6454
  0
LINE
  8
0
 10
-76.8233
 20
-34.6454
 11
-77.3028
 21
-34.5359
  0
LINE
  8
0
 10
-77.3028
 20
-34.5359
 11
-77.7288
 21
-34.29
  0
LINE
  8
0
 10
-77.7288
 20
-34.29
 11
-78.0633
 21
-33.9295
  0
LINE
  8
0
 10
-78.0633
 20
-33.9295
 11
-78.2767
 21
-33.4863
  0
LINE
  8
0
 10
-78.2767
 20
-33.4863
 11
-78.35
 21
-33
  0
LINE
  8
0
 10
-78.35
 20
20
 11
-78.2767
 21
20.4863
  0
LINE
  8
0
 10
-78.2767
 20
20.4863
 11
-78.0633
 21
20.9295
  0
LINE
  8
0
 10
-78.0633
 20
20.9295
 11
-77.7288
 21
21.29
  0
LINE
  8
0
 10
-77.7288
 20
21.29
 11
-77.3028
 21
21.5359
  0
LINE
  8
0
 10
-77.3028
 20
21.5359
 11
-76.8233
 21
21.6454
  0
LINE
  8
0
 10
-76.8233
 20
21.6454
 11
-76.3328
 21
21.6086
  0
LINE
  8
0
 10
-76.3328
 20
21.6086
 11
-75.875
 21
21.4289
  0
LINE
  8
0
 10
-75.875
 20
21.4289
 11
-75.4905
 21
21.1223
  0
LINE
  8
0
 10
-75.4905
 20
21.1223
 11
-75.2134
 21
20.7159
  0
LINE
  8
0
 10
-75.2134
 20
20.7159
 11
-75.0684
 21
20.2459
  0
LINE
  8
0
 10
-75.0684
 20
20.2459
 11
-75.0684
 21
19.7541
  0
LINE
  8
0
 10
-75.0684
 20
19.7541
 11
-75.2134
 21
19.2841
  0
LINE
  8
0
 10
-75.2134
 20
19.2841
 11
-75.4905
 21
18.8777
  0
LINE
  8
0
 10
-75.4905
 20
18.8777
 11
-75.875
 21
18.5711
  0
LINE
  8
0
 10
-75.875
 20
18.5711
 11
-76.3328
 21
18.3914
  0
LINE
  8
0
 10
-76.3328
 20
18.3914
 11
-76.8233
 21
18.3546
  0
LINE
  8
0
 10
-76.8233
 20
18.3546
 11
-77.3028
 21
18.4641
  0
LINE
  8
0
 10
-77.3028
 20
18.4641
 11
-77.7288
 21
18.71
  0
LINE
  8
0
 10
-77.7288
 20
18.71
 11
-78.0633
 21
19.0705
  0
LINE
  8
0
 10
-78.0633
 20
19.0705
 11
-78.2767
 21
19.5137
  0
LINE
  8
0
 10
-78.2767
 20
19.5137
 11
-78.35
 21
20
  0
LINE
  8
0
 10
-75.25
 20
-22
 11
-75.1548
 21
-21.5216
  0
LINE
  8
0
 10
-75.1548
 20
-21.5216
 11
-74.8839
 21
-21.1161
  0
LINE
  8
0
 10
-74.8839
 20
-21.1161
 11
-74.4784
 21
-20.8451
  0
LINE
  8
0
 10
-74.4784
 20
-20.8451
 11
-74
 21
-20.75
  0
LINE
  8
0
 10
-74
 20
-20.75
 11
-73.5216
 21
-20.8451
  0
LINE
  8
0
 10
-73.5216
 20
-20.8451
 11
-73.1161
 21
-21.1161
  0
LINE
  8
0
 10
-73.1161
 20
-21.1161
 11
-72.8451
 21
-21.5216
  0
LINE
  8
0
 10
-72.8451
 20
-21.5216
 11
-72.75
 21
-22
  0
LINE
  8
0
 10
-72.75
 20
-22
 11
-72.8451
 21
-22.4784
  0
LINE
  8
0
 10
-72.8451
 20
-22.4784
 11
-73.1161
 21
-22.8839
  0
LINE
  8
0
 10
-73.1161
 20
-22.8839
 11
-73.5216
 21
-23.1548
  0
LINE
  8
0
 10
-73.5216
 20
-23.1548
 11
-74
 21
-23.25
  0
LINE
  8
0
 10
-74
 20
-23.25
 11
-74.4784
 21
-23.1548
  0
LINE
  8
0
 10
-74.4784
 20
-23.1548
 11
-74.8839
 21
-22.8839
  0
LINE
  8
0
 10
-74.8839
 20
-22.8839
 11
-75.1548
 21
-22.4784
  0
LINE
  8
0
 10
-75.1548
 20
-22.4784
 11
-75.25
 21
-22
  0
LINE
  8
0
 10
-75.25
 20
22
 11
-75.1548
 21
22.4784
  0
LINE
  8
0
 10
-75.1548
 20
22.4784
 11
-74.8839
 21
22.8839
  0
LINE
  8
0
 10
-74.8839
 20
22.8839
 11
-74.4784
 21
23.1548
  0
LINE
  8
0
 10
-74.4784
 20
23.1548
 11
-74
 21
23.25
  0
LINE
  8
0
 10
-74
 20
23.25
 11
-73.5216
 21
23.1548
  0
LINE
  8
0
 10
-73.5216
 20
23.1548
 11
-73.1161
 21
22.8839
  0
LINE
  8
0
 10
-73.1161
 20
22.8839
 11
-72.8451
 21
22.4784
  0
LINE
  8
0
 10
-72.8451
 20
22.4784
 11
-72.75
 21
22
  0
LINE
  8
0
 10
-72.75
 20
22
 11
-72.8451
 21
21.5216
  0
LINE
  8
0
 10
-72.8451
 20
21.5216
 11
-73.1161
 21
21.1161
  0
LINE
  8
0
 10
-73.1161
 20
21.1161
 11
-73.5216
 21
20.8451
  0
LINE
  8
0
 10
-73.5216
 20
20.8451
 11
-74
 21
20.75
  0
LINE
  8
0
 10
-74
 20
20.75
 11
-74.4784
 21
20.8451
  0
LINE
  8
0
 10
-74.4784
 20
20.8451
 11
-74.8839
 21
21.1161
  0
LINE
  8
0
 10
-74.8839
 20
21.1161
 11
-75.1548
 21
21.5216
  0
LINE
  8
0
 10
-75.1548
 20
21.5216
 11
-75.25
 21
22
  0
LINE
  8
0
 10
-54.83
 20
-20
 11
-54.7567
 21
-19.5137
  0
LINE
  8
0
 10
-54.7567
 20
-19.5137
 11
-54.5433
 21
-19.0705
  0
LINE
  8
0
 10
-54.5433
 20
-19.0705
 11
-54.2088
 21
-18.71
  0
LINE
  8
0
 10
-54.2088
 20
-18.71
 11
-53.7828
 21
-18.4641
  0
LINE
  8
0
 10
-53.7828
 20
-18.4641
 11
-53.3033
 21
-18.3546
  0
LINE
  8
0
 10
-53.3033
 20
-18.3546
 11
-52.8128
 21
-18.3914
  0
LINE
  8
0
 10
-52.8128
 20
-18.3914
 11
-52.355
 21
-18.5711
  0
LINE
  8
0
 10
-52.355
 20
-18.5711
 11
-51.9705
 21
-18.8777
  0
LINE
  8
0
 10
-51.9705
 20
-18.8777
 11
-51.6934
 21
-19.2841
  0
LINE
  8
0
 10
-51.6934
 20
-19.2841
 11
-51.5484
 21
-19.7541
  0
LINE
  8
0
 10
-51.5484
 20
-19.7541
 11
-51.5484
 21
-20.2459
  0
LINE
  8
0
 10
-51.5484
 20
-20.2459
 11
-51.6934
 21
-20.7159
  0
LINE
  8
0
 10
-51.6934
 20
-20.7159
 11
-51.9705
 21
-21.1223
  0
LINE
  8
0
 10
-51.9705
 20
-21.1223
 11
-52.355
 21
-21.4289
  0
LINE
  8
0
 10
-52.355
 20
-21.4289
 11
-52.8128
 21
-21.6086
  0
LINE
  8
0
 10
-52.8128
 20
-21.6086
 11
-53.3033
 21
-21.6454
  0
LINE
  8
0
 10
-53.3033
 20
-21.6454
 11
-53.7828
 21
-21.5359
  0
LINE
  8
0
 10
-53.7828
 20
-21.5359
 11
-54.2088
 21
-21.29
  0
LINE
  8
0
 10
-54.2088
 20
-21.29
 11
-54.5433
 21
-20.9295
  0
LINE
  8
0
 10
-54.5433
 20
-20.9295
 11
-54.7567
 21
-20.4863
  0
LINE
  8
0
 10
-54.7567
 20
-20.4863
 11
-54.83
 21
-20
  0
LINE
  8
0
 10
-54.83
 20
33
 11
-54.7567
 21
33.4863
  0
LINE
  8
0
 10
-54.7567
 20
33.4863
 11
-54.5433
 21
33.9295
  0
LINE
  8
0
 10
-54.5433
 20
33.9295
 11
-54.2088
 21
34.29
  0
LINE
  8
0
 10
-54.2088
 20
34.29
 11
-53.7828
 21
34.5359
  0
LINE
  8
0
 10
-53.7828
 20
34.5359
 11
-53.3033
 21
34.6454
  0
LINE
  8
0
 10
-53.3033
 20
34.6454
 11
-52.8128
 21
34.6086
  0
LINE
  8
0
 10
-52.8128
 20
34.6086
 11
-52.355
 21
34.4289
  0
LINE
  8
0
 10
-52.355
 20
34.4289
 11
-51.9705
 21
34.1223
  0
LINE
  8
0
 10
-51.9705
 20
34.1223
 11
-51.6934
 21
33.7159
  0
LINE
  8
0
 10
-51.6934
 20
33.7159
 11
-51.5484
 21
33.2459
  0
LINE
  8
0
 10
-51.5484
 20
33.2459
 11
-51.5484
 21
32.7541
  0
LINE
  8
0
 10
-51.5484
 20
32.7541
 11
-51.6934
 21
32.2841
  0
LINE
  8
0
 10
-51.6934
 20
32.2841
 11
-51.9705
 21
31.8777
  0
LINE
  8
0
 10
-51.9705
 20
31.8777
 11
-52.355
 21
31.5711
  0
LINE
  8
0
 10
-52.355
 20
31.5711
 11
-52.8128
 21
31.3914
  0
LINE
  8
0
 10
-52.8128
 20
31.3914
 11
-53.3033
 21
31.3546
  0
LINE
  8
0
 10
-53.3033
 20
31.3546
 11
-53.7828
 21
31.4641
  0
LINE
  8
0
 10
-53.7828
 20
31.4641
 11
-54.2088
 21
31.71
  0
LINE
  8
0
 10
-54.2088
 20
31.71
 11
-54.5433
 21
32.0705
  0
LINE
  8
0
 10
-54.5433
 20
32.0705
 11
-54.7567
 21
32.5137
  0
LINE
  8
0
 10
-54.7567
 20
32.5137
 11
-54.83
 21
33
  0
LINE
  8
0
 10
-33.16
 20
-4.22458
 11
-33.0867
 21
-3.73824
  0
LINE
  8
0
 10
-33.0867
 20
-3.73824
 11
-32.8733
 21
-3.2951
  0
LINE
  8
0
 10
-32.8733
 20
-3.2951
 11
-32.5388
 21
-2.93456
  0
LINE
  8
0
 10
-32.5388
 20
-2.93456
 11
-32.1128
 21
-2.68864
  0
LINE
  8
0
 10
-32.1128
 20
-2.68864
 11
-31.6333
 21
-2.5792
  0
LINE
  8
0
 10
-31.6333
 20
-2.5792
 11
-31.1428
 21
-2.61595
  0
LINE
  8
0
 10
-31.1428
 20
-2.61595
 11
-30.685
 21
-2.79564
  0
LINE
  8
0
 10
-30.685
 20
-2.79564
 11
-30.3005
 21
-3.1023
  0
LINE
  8
0
 10
-30.3005
 20
-3.1023
 11
-30.0234
 21
-3.50867
  0
LINE
  8
0
 10
-30.0234
 20
-3.50867
 11
-29.8784
 21
-3.97866
  0
LINE
  8
0
 10
-29.8784
 20
-3.97866
 11
-29.8784
 21
-4.4705
  0
LINE
  8
0
 10
-29.8784
 20
-4.4705
 11
-30.0234
 21
-4.94049
  0
LINE
  8
0
 10
-30.0234
 20
-4.94049
 11
-30.3005
 21
-5.34687
  0
LINE
  8
0
 10
-30.3005
 20
-5.34687
 11
-30.685
 21
-5.65352
  0
LINE
  8
0
 10
-30.685
 20
-5.65352
 11
-31.1428
 21
-5.83321
  0
LINE
  8
0
 10
-31.1428
 20
-5.83321
 11
-31.6333
 21
-5.86997
  0
LINE
  8
0
 10
-31.6333
 20
-5.86997
 11
-32.1128
 21
-5.76052
  0
LINE
  8
0
 10
-32.1128
 20
-5.76052
 11
-32.5388
 21
-5.5146
  0
LINE
  8
0
 10
-32.5388
 20
-5.5146
 11
-32.8733
 21
-5.15406
  0
LINE
  8
0
 10
-32.8733
 20
-5.15406
 11
-33.0867
 21
-4.71093
  0
LINE
  8
0
 10
-33.0867
 20
-4.71093
 11
-33.16
 21
-4.22458
  0
LINE
  8
0
 10
-33.16
 20
10.4246
 11
-33.0867
 21
10.9109
  0
LINE
  8
0
 10
-33.0867
 20
10.9109
 11
-32.8733
 21
11.3541
  0
LINE
  8
0
 10
-32.8733
 20
11.3541
 11
-32.5388
 21
11.7146
  0
LINE
  8
0
 10
-32.5388
 20
11.7146
 11
-32.1128
 21
11.9605
  0
LINE
  8
0
 10
-32.1128
 20
11.9605
 11
-31.6333
 21
12.07
  0
LINE
  8
0
 10
-31.6333
 20
12.07
 11
-31.1428
 21
12.0332
  0
LINE
  8
0
 10
-31.1428
 20
12.0332
 11
-30.685
 21
11.8535
  0
LINE
  8
0
 10
-30.685
 20
11.8535
 11
-30.3005
 21
11.5469
  0
LINE
  8
0
 10
-30.3005
 20
11.5469
 11
-30.0234
 21
11.1405
  0
LINE
  8
0
 10
-30.0234
 20
11.1405
 11
-29.8784
 21
10.6705
  0
LINE
  8
0
 10
-29.8784
 20
10.6705
 11
-29.8784
 21
10.1787
  0
LINE
  8
0
 10
-29.8784
 20
10.1787
 11
-30.0234
 21
9.70867
  0
LINE
  8
0
 10
-30.0234
 20
9.70867
 11
-30.3005
 21
9.3023
  0
LINE
  8
0
 10
-30.3005
 20
9.3023
 11
-30.685
 21
8.99564
  0
LINE
  8
0
 10
-30.685
 20
8.99564
 11
-31.1428
 21
8.81595
  0
LINE
  8
0
 10
-31.1428
 20
8.81595
 11
-31.6333
 21
8.7792
  0
LINE
  8
0
 10
-31.6333
 20
8.7792
 11
-32.1128
 21
8.88864
  0
LINE
  8
0
 10
-32.1128
 20
8.88864
 11
-32.5388
 21
9.13456
  0
LINE
  8
0
 10
-32.5388
 20
9.13456
 11
-32.8733
 21
9.4951
  0
LINE
  8
0
 10
-32.8733
 20
9.4951
 11
-33.0867
 21
9.93824
  0
LINE
  8
0
 10
-33.0867
 20
9.93824
 11
-33.16
 21
10.4246
  0
LINE
  8
0
 10
-33.1416
 20
-9.5705
 11
-33.1416
 21
-9.07866
  0
LINE
  8
0
 10
-33.1416
 20
-9.07866
 11
-32.9966
 21
-8.60867
  0
LINE
  8
0
 10
-32.9966
 20
-8.60867
 11
-32.7195
 21
-8.2023
  0
LINE
  8
0
 10
-32.7195
 20
-8.2023
 11
-32.335
 21
-7.89564
  0
LINE
  8
0
 10
-32.335
 20
-7.89564
 11
-31.8772
 21
-7.71595
  0
LINE
  8
0
 10
-31.8772
 20
-7.71595
 11
-31.3867
 21
-7.6792
  0
LINE
  8
0
 10
-31.3867
 20
-7.6792
 11
-30.9072
 21
-7.78864
  0
LINE
  8
0
 10
-30.9072
 20
-7.78864
 11
-30.4812
 21
-8.03456
  0
LINE
  8
0
 10
-30.4812
 20
-8.03456
 11
-30.1467
 21
-8.3951
  0
LINE
  8
0
 10
-30.1467
 20
-8.3951
 11
-29.9333
 21
-8.83824
  0
LINE
  8
0
 10
-29.9333
 20
-8.83824
 11
-29.86
 21
-9.32458
  0
LINE
  8
0
 10
-29.86
 20
-9.32458
 11
-29.9333
 21
-9.81093
  0
LINE
  8
0
 10
-29.9333
 20
-9.81093
 11
-30.1467
 21
-10.2541
  0
LINE
  8
0
 10
-30.1467
 20
-10.2541
 11
-30.4812
 21
-10.6146
  0
LINE
  8
0
 10
-30.4812
 20
-10.6146
 11
-30.9072
 21
-10.8605
  0
LINE
  8
0
 10
-30.9072
 20
-10.8605
 11
-31.3867
 21
-10.97
  0
LINE
  8
0
 10
-31.3867
 20
-10.97
 11
-31.8772
 21
-10.9332
  0
LINE
  8
0
 10
-31.8772
 20
-10.9332
 11
-32.335
 21
-10.7535
  0
LINE
  8
0
 10
-32.335
 20
-10.7535
 11
-32.7195
 21
-10.4469
  0
LINE
  8
0
 10
-32.7195
 20
-10.4469
 11
-32.9966
 21
-10.0405
  0
LINE
  8
0
 10
-32.9966
 20
-10.0405
 11
-33.1416
 21
-9.5705
  0
LINE
  8
0
 10
-33.1416
 20
5.07866
 11
-33.1416
 21
5.5705
  0
LINE
  8
0
 10
-33.1416
 20
5.5705
 11
-32.9966
 21
6.04049
  0
LINE
  8
0
 10
-32.9966
 20
6.04049
 11
-32.7195
 21
6.44687
  0
LINE
  8
0
 10
-32.7195
 20
6.44687
 11
-32.335
 21
6.75352
  0
LINE
  8
0
 10
-32.335
 20
6.75352
 11
-31.8772
 21
6.93321
  0
LINE
  8
0
 10
-31.8772
 20
6.93321
 11
-31.3867
 21
6.96997
  0
LINE
  8
0
 10
-31.3867
 20
6.96997
 11
-30.9072
 21
6.86052
  0
LINE
  8
0
 10
-30.9072
 20
6.86052
 11
-30.4812
 21
6.6146
  0
LINE
  8
0
 10
-30.4812
 20
6.6146
 11
-30.1467
 21
6.25406
  0
LINE
  8
0
 10
-30.1467
 20
6.25406
 11
-29.9333
 21
5.81093
  0
LINE
  8
0
 10
-29.9333
 20
5.81093
 11
-29.86
 21
5.32458
  0
LINE
  8
0
 10
-29.86
 20
5.32458
 11
-29.9333
 21
4.83824
  0
LINE
  8
0
 10
-29.9333
 20
4.83824
 11
-30.1467
 21
4.3951
  0
LINE
  8
0
 10
-30.1467
 20
4.3951
 11
-30.4812
 21
4.03456
  0
LINE
  8
0
 10
-30.4812
 20
4.03456
 11
-30.9072
 21
3.78864
  0
LINE
  8
0
 10
-30.9072
 20
3.78864
 11
-31.3867
 21
3.6792
  0
LINE
  8
0
 10
-31.3867
 20
3.6792
 11
-31.8772
 21
3.71595
  0
LINE
  8
0
 10
-31.8772
 20
3.71595
 11
-32.335
 21
3.89564
  0
LINE
  8
0
 10
-32.335
 20
3.89564
 11
-32.7195
 21
4.2023
  0
LINE
  8
0
 10
-32.7195
 20
4.2023
 11
-32.9966
 21
4.60867
  0
LINE
  8
0
 10
-32.9966
 20
4.60867
 11
-33.1416
 21
5.07866
  0
LINE
  8
0
 10
-22.2916
 20
39.7541
 11
-22.2916
 21
40.2459
  0
LINE
  8
0
 10
-22.2916
 20
40.2459
 11
-22.1466
 21
40.7159
  0
LINE
  8
0
 10
-22.1466
 20
40.7159
 11
-21.8695
 21
41.1223
  0
LINE
  8
0
 10
-21.8695
 20
41.1223
 11
-21.485
 21
41.4289
  0
LINE
  8
0
 10
-21.485
 20
41.4289
 11
-21.0272
 21
41.6086
  0
LINE
  8
0
 10
-21.0272
 20
41.6086
 11
-20.5367
 21
41.6454
  0
LINE
  8
0
 10
-20.5367
 20
41.6454
 11
-20.0572
 21
41.5359
  0
LINE
  8
0
 10
-20.0572
 20
41.5359
 11
-19.6312
 21
41.29
  0
LINE
  8
0
 10
-19.6312
 20
41.29
 11
-19.2967
 21
40.9295
  0
LINE
  8
0
 10
-19.2967
 20
40.9295
 11
-19.0833
 21
40.4863
  0
LINE
  8
0
 10
-19.0833
 20
40.4863
 11
-19.01
 21
40
  0
LINE
  8
0
 10
-19.01
 20
40
 11
-19.0833
 21
39.5137
  0
LINE
  8
0
 10
-19.0833
 20
39.5137
 11
-19.2967
 21
39.0705
  0
LINE
  8
0
 10
-19.2967
 20
39.0705
 11
-19.6312
 21
38.71
  0
LINE
  8
0
 10
-19.6312
 20
38.71
 11
-20.0572
 21
38.4641
  0
LINE
  8
0
 10
-20.0572
 20
38.4641
 11
-20.5367
 21
38.3546
  0
LINE
  8
0
 10
-20.5367
 20
38.3546
 11
-21.0272
 21
38.3914
  0
LINE
  8
0
 10
-21.0272
 20
38.3914
 11
-21.485
 21
38.5711
  0
LINE
  8
0
 10
-21.485
 20
38.5711
 11
-21.8695
 21
38.8777
  0
LINE
  8
0
 10
-21.8695
 20
38.8777
 11
-22.1466
 21
39.2841
  0
LINE
  8
0
 10
-22.1466
 20
39.2841
 11
-22.2916
 21
39.7541
  0
LINE
  8
0
 10
19.0284
 20
39.7541
 11
19.0284
 21
40.2459
  0
LINE
  8
0
 10
19.0284
 20
40.2459
 11
19.1734
 21
40.7159
  0
LINE
  8
0
 10
19.1734
 20
40.7159
 11
19.4505
 21
41.1223
  0
LINE
  8
0
 10
19.4505
 20
41.1223
 11
19.835
 21
41.4289
  0
LINE
  8
0
 10
19.835
 20
41.4289
 11
20.2928
 21
41.6086
  0
LINE
  8
0
 10
20.2928
 20
41.6086
 11
20.7833
 21
41.6454
  0
LINE
  8
0
 10
20.7833
 20
41.6454
 11
21.2628
 21
41.5359
  0
LINE
  8
0
 10
21.2628
 20
41.5359
 11
21.6888
 21
41.29
  0
LINE
  8
0
 10
21.6888
 20
41.29
 11
22.0233
 21
40.9295
  0
LINE
  8
0
 10
22.0233
 20
40.9295
 11
22.2367
 21
40.4863
  0
LINE
  8
0
 10
22.2367
 20
40.4863
 11
22.31
 21
40
  0
LINE
  8
0
 10
22.31
 20
40
 11
22.2367
 21
39.5137
  0
LINE
  8
0
 10
22.2367
 20
39.5137
 11
22.0233
 21
39.0705
  0
LINE
  8
0
 10
22.0233
 20
39.0705
 11
21.6888
 21
38.71
  0
LINE
  8
0
 10
21.6888
 20
38.71
 11
21.2628
 21
38.4641
  0
LINE
  8
0
 10
21.2628
 20
38.4641
 11
20.7833
 21
38.3546
  0
LINE
  8
0
 10
20.7833
 20
38.3546
 11
20.2928
 21
38.3914
  0
LINE
  8
0
 10
20.2928
 20
38.3914
 11
19.835
 21
38.5711
  0
LINE
  8
0
 10
19.835
 20
38.5711
 11
19.4505
 21
38.8777
  0
LINE
  8
0
 10
19.4505
 20
38.8777
 11
19.1734
 21
39.2841
  0
LINE
  8
0
 10
19.1734
 20
39.2841
 11
19.0284
 21
39.7541
  0
LINE
  8
0
 10
51.53
 20
-6.5
 11
51.6033
 21
-6.01365
  0
LINE
  8
0
 10
51.6033
 20
-6.01365
 11
51.8167
 21
-5.57052
  0
LINE
  8
0
 10
51.8167
 20
-5.57052
 11
52.1512
 21
-5.20998
  0
LINE
  8
0
 10
52.1512
 20
-5.20998
 11
52.5772
 21
-4.96406
  0
LINE
  8
0
 10
52.5772
 20
-4.96406
 11
53.0567
 21
-4.85461
  0
LINE
  8
0
 10
53.0567
 20
-4.85461
 11
53.5472
 21
-4.89137
  0
LINE
  8
0
 10
53.5472
 20
-4.89137
 11
54.005
 21
-5.07106
  0
LINE
  8
0
 10
54.005
 20
-5.07106
 11
54.3895
 21
-5.37771
  0
LINE
  8
0
 10
54.3895
 20
-5.37771
 11
54.6666
 21
-5.78409
  0
LINE
  8
0
 10
54.6666
 20
-5.78409
 11
54.8116
 21
-6.25408
  0
LINE
  8
0
 10
54.8116
 20
-6.25408
 11
54.8116
 21
-6.74592
  0
LINE
  8
0
 10
54.8116
 20
-6.74592
 11
54.6666
 21
-7.21591
  0
LINE
  8
0
 10
54.6666
 20
-7.21591
 11
54.3895
 21
-7.62228
  0
LINE
  8
0
 10
54.3895
 20
-7.62228
 11
54.005
 21
-7.92894
  0
LINE
  8
0
 10
54.005
 20
-7.92894
 11
53.5472
 21
-8.10863
  0
LINE
  8
0
 10
53.5472
 20
-8.10863
 11
53.0567
 21
-8.14539
  0
LINE
  8
0
 10
53.0567
 20
-8.14539
 11
52.5772
 21
-8.03594
  0
LINE
  8
0
 10
52.5772
 20
-8.03594
 11
52.1512
 21
-7.79002
  0
LINE
  8
0
 10
52.1512
 20
-7.79002
 11
51.8167
 21
-7.42948
  0
LINE
  8
0
 10
51.8167
 20
-7.42948
 11
51.6033
 21
-6.98635
  0
LINE
  8
0
 10
51.6033
 20
-6.98635
 11
51.53
 21
-6.5
  0
LINE
  8
0
 10
72.75
 20
-22
 11
72.8451
 21
-21.5216
  0
LINE
  8
0
 10
72.8451
 20
-21.5216
 11
73.1161
 21
-21.1161
  0
LINE
  8
0
 10
73.1161
 20
-21.1161
 11
73.5216
 21
-20.8451
  0
LINE
  8
0
 10
73.5216
 20
-20.8451
 11
74
 21
-20.75
  0
LINE
  8
0
 10
74
 20
-20.75
 11
74.4784
 21
-20.8451
  0
LINE
  8
0
 10
74.4784
 20
-20.8451
 11
74.8839
 21
-21.1161
  0
LINE
  8
0
 10
74.8839
 20
-21.1161
 11
75.1548
 21
-21.5216
  0
LINE
  8
0
 10
75.1548
 20
-21.5216
 11
75.25
 21
-22
  0
LINE
  8
0
 10
75.25
 20
-22
 11
75.1548
 21
-22.4784
  0
LINE
  8
0
 10
75.1548
 20
-22.4784
 11
74.8839
 21
-22.8839
  0
LINE
  8
0
 10
74.8839
 20
-22.8839
 11
74.4784
 21
-23.1548
  0
LINE
  8
0
 10
74.4784
 20
-23.1548
 11
74
 21
-23.25
  0
LINE
  8
0
 10
74
 20
-23.25
 11
73.5216
 21
-23.1548
  0
LINE
  8
0
 10
73.5216
 20
-23.1548
 11
73.1161
 21
-22.8839
  0
LINE
  8
0
 10
73.1161
 20
-22.8839
 11
72.8451
 21
-22.4784
  0
LINE
  8
0
 10
72.8451
 20
-22.4784
 11
72.75
 21
-22
  0
LINE
  8
0
 10
72.75
 20
22
 11
72.8451
 21
22.4784
  0
LINE
  8
0
 10
72.8451
 20
22.4784
 11
73.1161
 21
22.8839
  0
LINE
  8
0
 10
73.1161
 20
22.8839
 11
73.5216
 21
23.1548
  0
LINE
  8
0
 10
73.5216
 20
23.1548
 11
74
 21
23.25
  0
LINE
  8
0
 10
74
 20
23.25
 11
74.4784
 21
23.1548
  0
LINE
  8
0
 10
74.4784
 20
23.1548
 11
74.8839
 21
22.8839
  0
LINE
  8
0
 10
74.8839
 20
22.8839
 11
75.1548
 21
22.4784
  0
LINE
  8
0
 10
75.1548
 20
22.4784
 11
75.25
 21
22
  0
LINE
  8
0
 10
75.25
 20
22
 11
75.1548
 21
21.5216
  0
LINE
  8
0
 10
75.1548
 20
21.5216
 11
74.8839
 21
21.1161
  0
LINE
  8
0
 10
74.8839
 20
21.1161
 11
74.4784
 21
20.8451
  0
LINE
  8
0
 10
74.4784
 20
20.8451
 11
74
 21
20.75
  0
LINE
  8
0
 10
74
 20
20.75
 11
73.5216
 21
20.8451
  0
LINE
  8
0
 10
73.5216
 20
20.8451
 11
73.1161
 21
21.1161
  0
LINE
  8
0
 10
73.1161
 20
21.1161
 11
72.8451
 21
21.5216
  0
LINE
  8
0
 10
72.8451
 20
21.5216
 11
72.75
 21
22
  0
LINE
  8
0
 10
75.05
 20
6.5
 11
75.1233
 21
6.98635
  0
LINE
  8
0
 10
75.1233
 20
6.98635
 11
75.3367
 21
7.42948
  0
LINE
  8
0
 10
75.3367
 20
7.42948
 11
75.6712
 21
7.79002
  0
LINE
  8
0
 10
75.6712
 20
7.79002
 11
76.0972
 21
8.03594
  0
LINE
  8
0
 10
76.0972
 20
8.03594
 11
76.5767
 21
8.14539
  0
LINE
  8
0
 10
76.5767
 20
8.14539
 11
77.0672
 21
8.10863
  0
LINE
  8
0
 10
77.0672
 20
8.10863
 11
77.525
 21
7.92894
  0
LINE
  8
0
 10
77.525
 20
7.92894
 11
77.9095
 21
7.62228
  0
LINE
  8
0
 10
77.9095
 20
7.62228
 11
78.1866
 21
7.21591
  0
LINE
  8
0
 10
78.1866
 20
7.21591
 11
78.3316
 21
6.74592
  0
LINE
  8
0
 10
78.3316
 20
6.74592
 11
78.3316
 21
6.25408
  0
LINE
  8
0
 10
78.3316
 20
6.25408
 11
78.1866
 21
5.78409
  0
LINE
  8
0
 10
78.1866
 20
5.78409
 11
77.9095
 21
5.37771
  0
LINE
  8
0
 10
77.9095
 20
5.37771
 11
77.525
 21
5.07106
  0
LINE
  8
0
 10
77.525
 20
5.07106
 11
77.0672
 21
4.89137
  0
LINE
  8
0
 10
77.0672
 20
4.89137
 11
76.5767
 21
4.85461
  0
LINE
  8
0
 10
76.5767
 20
4.85461
 11
76.0972
 21
4.96406
  0
LINE
  8
0
 10
76.0972
 20
4.96406
 11
75.6712
 21
5.20998
  0
LINE
  8
0
 10
75.6712
 20
5.20998
 11
75.3367
 21
5.57052
  0
LINE
  8
0
 10
75.3367
 20
5.57052
 11
75.1233
 21
6.01365
  0
LINE
  8
0
 10
75.1233
 20
6.01365
 11
75.05
 21
6.5
  0
ENDSEC
  0
SECTION
  2
OBJECTS
  0
DICTIONARY
  0
ENDSEC
  0
EOF
