<?xml version="1.0"?>
<svg xmlns="http://www.w3.org/2000/svg" version="1.1" height="110mm" width="176mm" >
 <g style="fill-opacity:1.0; stroke:black; stroke-width:1;">
  <line x1="0.040900mm" y1="2.506200mm" x2="0.040900mm" y2="2.506200mm" />
  <line x1="0.040900mm" y1="2.506200mm" x2="0.000000mm" y2="3.000000mm" />
  <line x1="0.000000mm" y1="3.000000mm" x2="0.010200mm" y2="97.247700mm" />
  <line x1="0.010200mm" y1="97.247700mm" x2="0.091800mm" y2="97.736500mm" />
  <line x1="0.091800mm" y1="97.736500mm" x2="0.252700mm" y2="98.205100mm" />
  <line x1="0.252700mm" y1="98.205100mm" x2="0.488500mm" y2="98.640800mm" />
  <line x1="0.488500mm" y1="98.640800mm" x2="0.792800mm" y2="99.031800mm" />
  <line x1="0.792800mm" y1="99.031800mm" x2="1.157400mm" y2="99.367400mm" />
  <line x1="1.157400mm" y1="99.367400mm" x2="1.572200mm" y2="99.638400mm" />
  <line x1="1.572200mm" y1="99.638400mm" x2="2.025900mm" y2="99.837500mm" />
  <line x1="2.025900mm" y1="99.837500mm" x2="2.506200mm" y2="99.959100mm" />
  <line x1="2.506200mm" y1="99.959100mm" x2="3.000000mm" y2="100.000000mm" />
  <line x1="3.000000mm" y1="100.000000mm" x2="163.247700mm" y2="99.989800mm" />
  <line x1="163.247700mm" y1="99.989800mm" x2="163.736500mm" y2="99.908200mm" />
  <line x1="163.736500mm" y1="99.908200mm" x2="164.205100mm" y2="99.747300mm" />
  <line x1="164.205100mm" y1="99.747300mm" x2="164.640800mm" y2="99.511500mm" />
  <line x1="164.640800mm" y1="99.511500mm" x2="165.031800mm" y2="99.207200mm" />
  <line x1="165.031800mm" y1="99.207200mm" x2="165.367400mm" y2="98.842600mm" />
  <line x1="165.367400mm" y1="98.842600mm" x2="165.638400mm" y2="98.427800mm" />
  <line x1="165.638400mm" y1="98.427800mm" x2="165.837500mm" y2="97.974100mm" />
  <line x1="165.837500mm" y1="97.974100mm" x2="165.959100mm" y2="97.493800mm" />
  <line x1="165.959100mm" y1="97.493800mm" x2="166.000000mm" y2="97.000000mm" />
  <line x1="166.000000mm" y1="97.000000mm" x2="165.989800mm" y2="2.752300mm" />
  <line x1="165.989800mm" y1="2.752300mm" x2="165.908200mm" y2="2.263500mm" />
  <line x1="165.908200mm" y1="2.263500mm" x2="165.747300mm" y2="1.794900mm" />
  <line x1="165.747300mm" y1="1.794900mm" x2="165.511500mm" y2="1.359200mm" />
  <line x1="165.511500mm" y1="1.359200mm" x2="165.207200mm" y2="0.968200mm" />
  <line x1="165.207200mm" y1="0.968200mm" x2="164.842600mm" y2="0.632600mm" />
  <line x1="164.842600mm" y1="0.632600mm" x2="164.427800mm" y2="0.361600mm" />
  <line x1="164.427800mm" y1="0.361600mm" x2="163.974100mm" y2="0.162500mm" />
  <line x1="163.974100mm" y1="0.162500mm" x2="163.493800mm" y2="0.040900mm" />
  <line x1="163.493800mm" y1="0.040900mm" x2="163.000000mm" y2="0.000000mm" />
  <line x1="163.000000mm" y1="0.000000mm" x2="101.510000mm" y2="0.003900mm" />
  <line x1="101.510000mm" y1="0.003900mm" x2="101.510000mm" y2="5.000000mm" />
  <line x1="101.510000mm" y1="5.000000mm" x2="64.490000mm" y2="5.000000mm" />
  <line x1="64.490000mm" y1="5.000000mm" x2="64.490000mm" y2="0.006300mm" />
  <line x1="64.490000mm" y1="0.006300mm" x2="2.752300mm" y2="0.010200mm" />
  <line x1="2.752300mm" y1="0.010200mm" x2="2.263500mm" y2="0.091800mm" />
  <line x1="2.263500mm" y1="0.091800mm" x2="1.794900mm" y2="0.252700mm" />
  <line x1="1.794900mm" y1="0.252700mm" x2="1.359200mm" y2="0.488500mm" />
  <line x1="1.359200mm" y1="0.488500mm" x2="0.968200mm" y2="0.792800mm" />
  <line x1="0.968200mm" y1="0.792800mm" x2="0.632600mm" y2="1.157400mm" />
  <line x1="0.632600mm" y1="1.157400mm" x2="0.361600mm" y2="1.572200mm" />
  <line x1="0.361600mm" y1="1.572200mm" x2="0.162500mm" y2="2.025900mm" />
  <line x1="0.162500mm" y1="2.025900mm" x2="0.040900mm" y2="2.506200mm" />
  <circle cx="6.299995mm" cy="83.000005mm" r="1.649985mm" fill="none"/>
  <line x1="9.599964mm" y1="83.000005mm" x2="3.000025mm" y2="83.000005mm" />
  <line x1="6.299995mm" y1="79.700036mm" x2="6.299995mm" y2="86.299974mm" />
  <text x="7mm" y="81mm" font-size="24">
   3.3
  </text>
  <circle cx="6.299995mm" cy="30.000005mm" r="1.649985mm" fill="none"/>
  <line x1="9.599964mm" y1="30.000005mm" x2="3.000025mm" y2="30.000005mm" />
  <line x1="6.299995mm" y1="26.700036mm" x2="6.299995mm" y2="33.299974mm" />
  <text x="7mm" y="28mm" font-size="24">
   3.3
  </text>
  <circle cx="9.000031mm" cy="72.000001mm" r="1.250001mm" fill="none"/>
  <line x1="11.500033mm" y1="72.000001mm" x2="6.500030mm" y2="72.000001mm" />
  <line x1="9.000031mm" y1="69.499999mm" x2="9.000031mm" y2="74.500002mm" />
  <text x="10mm" y="70mm" font-size="24">
   2.5
  </text>
  <circle cx="9.000031mm" cy="28.000001mm" r="1.250001mm" fill="none"/>
  <line x1="11.500033mm" y1="28.000001mm" x2="6.500030mm" y2="28.000001mm" />
  <line x1="9.000031mm" y1="25.499999mm" x2="9.000031mm" y2="30.500002mm" />
  <text x="10mm" y="26mm" font-size="24">
   2.5
  </text>
  <circle cx="29.819995mm" cy="70.000005mm" r="1.649985mm" fill="none"/>
  <line x1="33.119964mm" y1="70.000005mm" x2="26.520025mm" y2="70.000005mm" />
  <line x1="29.819995mm" y1="66.700036mm" x2="29.819995mm" y2="73.299974mm" />
  <text x="31mm" y="68mm" font-size="24">
   3.3
  </text>
  <circle cx="29.819995mm" cy="17.000005mm" r="1.649985mm" fill="none"/>
  <line x1="33.119964mm" y1="17.000005mm" x2="26.520025mm" y2="17.000005mm" />
  <line x1="29.819995mm" y1="13.700036mm" x2="29.819995mm" y2="20.299974mm" />
  <text x="31mm" y="15mm" font-size="24">
   3.3
  </text>
  <circle cx="51.489986mm" cy="54.224566mm" r="1.649997mm" fill="none"/>
  <line x1="54.789980mm" y1="54.224566mm" x2="48.189992mm" y2="54.224566mm" />
  <line x1="51.489986mm" y1="50.924572mm" x2="51.489986mm" y2="57.524560mm" />
  <text x="53mm" y="52mm" font-size="24">
   3.3
  </text>
  <circle cx="51.489983mm" cy="39.575408mm" r="1.649991mm" fill="none"/>
  <line x1="54.789965mm" y1="39.575408mm" x2="48.190002mm" y2="39.575408mm" />
  <line x1="51.489983mm" y1="36.275427mm" x2="51.489983mm" y2="42.875389mm" />
  <text x="53mm" y="37mm" font-size="24">
   3.3
  </text>
  <circle cx="51.490012mm" cy="59.324597mm" r="1.650009mm" fill="none"/>
  <line x1="54.790030mm" y1="59.324597mm" x2="48.189993mm" y2="59.324597mm" />
  <line x1="51.490012mm" y1="56.024578mm" x2="51.490012mm" y2="62.624616mm" />
  <text x="53mm" y="57mm" font-size="24">
   3.3
  </text>
  <circle cx="51.490002mm" cy="44.675421mm" r="1.650004mm" fill="none"/>
  <line x1="54.790010mm" y1="44.675421mm" x2="48.189995mm" y2="44.675421mm" />
  <line x1="51.490002mm" y1="41.375413mm" x2="51.490002mm" y2="47.975428mm" />
  <text x="53mm" y="43mm" font-size="24">
   3.3
  </text>
  <circle cx="62.340012mm" cy="9.999997mm" r="1.650009mm" fill="none"/>
  <line x1="65.640030mm" y1="9.999997mm" x2="59.039993mm" y2="9.999997mm" />
  <line x1="62.340012mm" y1="6.699978mm" x2="62.340012mm" y2="13.300016mm" />
  <text x="63mm" y="8mm" font-size="24">
   3.3
  </text>
  <circle cx="103.660012mm" cy="9.999997mm" r="1.650009mm" fill="none"/>
  <line x1="106.960030mm" y1="9.999997mm" x2="100.359993mm" y2="9.999997mm" />
  <line x1="103.660012mm" y1="6.699978mm" x2="103.660012mm" y2="13.300016mm" />
  <text x="105mm" y="8mm" font-size="24">
   3.3
  </text>
  <circle cx="136.179983mm" cy="56.499983mm" r="1.649995mm" fill="none"/>
  <line x1="139.479973mm" y1="56.499983mm" x2="132.879994mm" y2="56.499983mm" />
  <line x1="136.179983mm" y1="53.199993mm" x2="136.179983mm" y2="59.799972mm" />
  <text x="137mm" y="54mm" font-size="24">
   3.3
  </text>
  <circle cx="156.999970mm" cy="72.000026mm" r="1.250026mm" fill="none"/>
  <line x1="159.500022mm" y1="72.000026mm" x2="154.499917mm" y2="72.000026mm" />
  <line x1="156.999970mm" y1="69.499974mm" x2="156.999970mm" y2="74.500079mm" />
  <text x="158mm" y="70mm" font-size="24">
   2.5
  </text>
  <circle cx="156.999970mm" cy="28.000026mm" r="1.250026mm" fill="none"/>
  <line x1="159.500022mm" y1="28.000026mm" x2="154.499917mm" y2="28.000026mm" />
  <line x1="156.999970mm" y1="25.499974mm" x2="156.999970mm" y2="30.500079mm" />
  <text x="158mm" y="26mm" font-size="24">
   2.5
  </text>
  <circle cx="159.699986mm" cy="43.499986mm" r="1.649997mm" fill="none"/>
  <line x1="162.999980mm" y1="43.499986mm" x2="156.399992mm" y2="43.499986mm" />
  <line x1="159.699986mm" y1="40.199992mm" x2="159.699986mm" y2="46.799980mm" />
  <text x="161mm" y="41mm" font-size="24">
   3.3
  </text>
 </g>
</svg>
