<?xml version="1.0"?>
<svg xmlns="http://www.w3.org/2000/svg" version="1.1" height="110mm" width="150mm" >
 <g style="fill-opacity:1.0; stroke:black; stroke-width:1;">
  <line x1="0.000000mm" y1="0.000000mm" x2="0.000000mm" y2="0.000000mm" />
  <line x1="0.000000mm" y1="0.000000mm" x2="0.000000mm" y2="100.000000mm" />
  <line x1="0.000000mm" y1="100.000000mm" x2="140.000000mm" y2="100.000000mm" />
  <line x1="140.000000mm" y1="100.000000mm" x2="140.000000mm" y2="0.000000mm" />
  <line x1="140.000000mm" y1="0.000000mm" x2="98.160000mm" y2="0.000000mm" />
  <line x1="98.160000mm" y1="0.000000mm" x2="98.160000mm" y2="35.000000mm" />
  <line x1="98.160000mm" y1="35.000000mm" x2="43.490000mm" y2="35.000000mm" />
  <line x1="43.490000mm" y1="35.000000mm" x2="43.490000mm" y2="64.324600mm" />
  <line x1="43.490000mm" y1="64.324600mm" x2="33.490000mm" y2="64.324600mm" />
  <line x1="33.490000mm" y1="64.324600mm" x2="33.490000mm" y2="34.575400mm" />
  <line x1="33.490000mm" y1="34.575400mm" x2="41.840000mm" y2="34.575400mm" />
  <line x1="41.840000mm" y1="34.575400mm" x2="41.840000mm" y2="0.000000mm" />
  <line x1="41.840000mm" y1="0.000000mm" x2="0.000000mm" y2="0.000000mm" />
  <line x1="21.820000mm" y1="75.000000mm" x2="21.820000mm" y2="75.000000mm" />
  <line x1="21.820000mm" y1="75.000000mm" x2="11.820000mm" y2="75.000000mm" />
  <line x1="11.820000mm" y1="75.000000mm" x2="11.820000mm" y2="65.000000mm" />
  <line x1="11.820000mm" y1="65.000000mm" x2="21.820000mm" y2="65.000000mm" />
  <line x1="21.820000mm" y1="65.000000mm" x2="21.820000mm" y2="75.000000mm" />
  <line x1="21.820000mm" y1="22.000000mm" x2="21.820000mm" y2="22.000000mm" />
  <line x1="21.820000mm" y1="22.000000mm" x2="11.820000mm" y2="22.000000mm" />
  <line x1="11.820000mm" y1="22.000000mm" x2="11.820000mm" y2="12.000000mm" />
  <line x1="11.820000mm" y1="12.000000mm" x2="21.820000mm" y2="12.000000mm" />
  <line x1="21.820000mm" y1="12.000000mm" x2="21.820000mm" y2="22.000000mm" />
  <line x1="128.180000mm" y1="61.500000mm" x2="128.180000mm" y2="61.500000mm" />
  <line x1="128.180000mm" y1="61.500000mm" x2="118.180000mm" y2="61.500000mm" />
  <line x1="118.180000mm" y1="61.500000mm" x2="118.180000mm" y2="51.500000mm" />
  <line x1="118.180000mm" y1="51.500000mm" x2="128.180000mm" y2="51.500000mm" />
  <line x1="128.180000mm" y1="51.500000mm" x2="128.180000mm" y2="61.500000mm" />
 </g>
</svg>
